<?xml version="1.0" standalone="yes"?>
<svg width="1200" height="679">
<path style="stroke:#000000;fill:none;stroke-width:5" d="M"/>
<path style="stroke:#6D8AE8;fill:none;stroke-width:4" d="M"/>
<path style="stroke:#000000;fill:none;stroke-width:5" d="M875 128L891.283 148L919.136 185.17L940 212L982 142"/>
<path style="stroke:#EC84DB;fill:none;stroke-width:4" d="M875 128L891.283 148L919.136 185.17L940 212L982 142"/>
<circle stroke="#000000" fill="none" stroke-width="2" r="15" cx="875" cy="128"/>
<circle stroke="#000000" fill="none" stroke-width="2" r="15" cx="982" cy="142"/>
<path style="stroke:#000000;fill:none;stroke-width:5" d="M875 131C868.387 140.713 867.238 153.829 864.265 165C858.481 186.74 851.924 208.271 845.989 230C827.463 297.826 804.263 364.692 787.765 433C782.798 453.564 777.029 475.026 770.063 495C767.036 503.681 760.686 518.209 765 527C778.576 519.061 784.428 502.8 791.178 489C797.524 476.027 805.278 463.827 811.921 451C840.049 396.686 867.966 341.549 899.309 289C909.969 271.127 920.191 252.597 929.579 234C933.008 227.208 939.432 219.599 940 212"/>
<path style="stroke:#4DF213;fill:none;stroke-width:4" d="M875 131C868.387 140.713 867.238 153.829 864.265 165C858.481 186.74 851.924 208.271 845.989 230C827.463 297.826 804.263 364.692 787.765 433C782.798 453.564 777.029 475.026 770.063 495C767.036 503.681 760.686 518.209 765 527C778.576 519.061 784.428 502.8 791.178 489C797.524 476.027 805.278 463.827 811.921 451C840.049 396.686 867.966 341.549 899.309 289C909.969 271.127 920.191 252.597 929.579 234C933.008 227.208 939.432 219.599 940 212"/>
<circle stroke="#000000" fill="none" stroke-width="2" r="15" cx="875" cy="131"/>
<circle stroke="#000000" fill="none" stroke-width="2" r="15" cx="940" cy="212"/>
<path style="stroke:#000000;fill:none;stroke-width:5" d="M983 145C991.788 152.529 995.166 168.487 999.446 179C1010.69 206.63 1022.94 234.755 1032.35 263C1045.1 301.223 1060.44 339.687 1075.86 377C1078.39 383.112 1081.06 389.463 1082.3 396C1082.92 399.254 1081.42 402.632 1082.74 405.715C1085.24 411.565 1092.43 419.076 1090.31 425.985C1088.13 433.054 1075.08 435.728 1069 438.089C1047.39 446.481 1025.81 455.094 1004 462.939C939.804 486.034 875.862 511.976 813 538.254C798.574 544.284 783.761 550.114 769 555.286C761.974 557.748 755.832 557.593 749 561"/>
<path style="stroke:#C042BB;fill:none;stroke-width:4" d="M983 145C991.788 152.529 995.166 168.487 999.446 179C1010.69 206.63 1022.94 234.755 1032.35 263C1045.1 301.223 1060.44 339.687 1075.86 377C1078.39 383.112 1081.06 389.463 1082.3 396C1082.92 399.254 1081.42 402.632 1082.74 405.715C1085.24 411.565 1092.43 419.076 1090.31 425.985C1088.13 433.054 1075.08 435.728 1069 438.089C1047.39 446.481 1025.81 455.094 1004 462.939C939.804 486.034 875.862 511.976 813 538.254C798.574 544.284 783.761 550.114 769 555.286C761.974 557.748 755.832 557.593 749 561"/>
<circle stroke="#000000" fill="none" stroke-width="2" r="15" cx="983" cy="145"/>
<circle stroke="#000000" fill="none" stroke-width="2" r="15" cx="749" cy="561"/>
<path style="stroke:#000000;fill:none;stroke-width:5" d="M98 564C98.3941 544.905 106.082 525.134 111.634 507C116.57 490.879 119.688 474.266 123.975 458C142.706 386.914 160.42 315.587 176.881 244C182.571 219.256 189.096 194.73 194.665 170C195.8 164.959 197.655 147.299 204.058 146.662C209.712 146.099 214.515 154.309 217.586 158C228.169 170.721 237.154 184.678 246.924 198C287 252.648 330.417 305.029 371.231 359C382.374 373.734 393.589 388.296 404.765 403C407.877 407.095 415.558 415.348 412.164 420.867C408.86 426.24 398.346 428.456 393 431.424C373.452 442.28 351.499 450.271 331 459.174C272.884 484.412 214.777 512.003 158 540.191C143.631 547.324 128.571 553.567 114 560.37C107.12 563.582 100.818 563.605 95 569"/>
<path style="stroke:#2EE010;fill:none;stroke-width:4" d="M98 564C98.3941 544.905 106.082 525.134 111.634 507C116.57 490.879 119.688 474.266 123.975 458C142.706 386.914 160.42 315.587 176.881 244C182.571 219.256 189.096 194.73 194.665 170C195.8 164.959 197.655 147.299 204.058 146.662C209.712 146.099 214.515 154.309 217.586 158C228.169 170.721 237.154 184.678 246.924 198C287 252.648 330.417 305.029 371.231 359C382.374 373.734 393.589 388.296 404.765 403C407.877 407.095 415.558 415.348 412.164 420.867C408.86 426.24 398.346 428.456 393 431.424C373.452 442.28 351.499 450.271 331 459.174C272.884 484.412 214.777 512.003 158 540.191C143.631 547.324 128.571 553.567 114 560.37C107.12 563.582 100.818 563.605 95 569"/>
<circle stroke="#000000" fill="none" stroke-width="2" r="15" cx="98" cy="564"/>
<circle stroke="#000000" fill="none" stroke-width="2" r="15" cx="95" cy="569"/>
<path style="stroke:#000000;fill:none;stroke-width:5" d="M940 218C953.778 230.958 963.235 247.897 974.478 263C995.886 291.756 1017.61 320.286 1037.57 350C1045.82 362.276 1055.06 373.855 1063.5 386C1068.45 393.137 1072.18 400.557 1081 403"/>
<path style="stroke:#D760FF;fill:none;stroke-width:4" d="M940 218C953.778 230.958 963.235 247.897 974.478 263C995.886 291.756 1017.61 320.286 1037.57 350C1045.82 362.276 1055.06 373.855 1063.5 386C1068.45 393.137 1072.18 400.557 1081 403"/>
<circle stroke="#000000" fill="none" stroke-width="2" r="15" cx="940" cy="218"/>
<circle stroke="#000000" fill="none" stroke-width="2" r="15" cx="1081" cy="403"/>
<path style="stroke:#000000;fill:none;stroke-width:5" d="M764 528L756 556"/>
<path style="stroke:#E369E5;fill:none;stroke-width:4" d="M764 528L756 556"/>
<circle stroke="#000000" fill="none" stroke-width="2" r="15" cx="764" cy="528"/>
<circle stroke="#000000" fill="none" stroke-width="2" r="15" cx="756" cy="556"/>
</svg>