<?xml version="1.0" standalone="yes"?>
<svg width="2240" height="992">
<path style="stroke:#000000;fill:none;stroke-width:5" d="M"/>
<path style="stroke:#B7A185;fill:none;stroke-width:4" d="M"/>
<path style="stroke:#000000;fill:none;stroke-width:5" d="M627 504C636.238 486.016 657.146 475.391 673 463.514C676.257 461.074 686.969 452.149 691.307 455.904C693.51 457.811 692.016 464.363 691.999 467C691.933 477.262 690.047 487.766 689.174 498C688.85 501.795 690.252 506.247 685.927 508.106C677.569 511.7 663.128 507.806 654 508.015C644.234 508.238 634.459 506.114 625 506.183C606.828 506.316 588.363 508 570 508C472.705 508 375.39 506.963 278 507C247.463 507.012 216.649 506.264 186 507.015C179.491 507.174 159.142 513.118 156.573 504.941C152.601 492.302 155.537 473.941 156.831 461C160.624 423.065 172.056 386.707 184.911 351C251.365 166.417 448.504 41.7016 644 55.0895C740.857 61.7224 841.625 101.726 914.961 165.435C932.021 180.256 948.035 196.34 962.192 214C968.325 221.65 970.901 232.618 976.843 239.491C979.154 242.163 983.271 243.633 986 246L981.576 264L977.561 309L963.17 448L958 507C976.167 512.105 998.339 509.168 1017 508.209C1035.15 507.277 1053.76 509 1072 509C1074.48 489.348 1070.66 468.574 1068.29 449C1062.12 398.145 1044.61 349.854 1022.26 304C1015.2 289.514 1006.44 276.228 998.862 262C994.805 254.386 996.056 247.391 986 246"/>
<path style="stroke:#D5AE92;fill:none;stroke-width:4" d="M627 504C636.238 486.016 657.146 475.391 673 463.514C676.257 461.074 686.969 452.149 691.307 455.904C693.51 457.811 692.016 464.363 691.999 467C691.933 477.262 690.047 487.766 689.174 498C688.85 501.795 690.252 506.247 685.927 508.106C677.569 511.7 663.128 507.806 654 508.015C644.234 508.238 634.459 506.114 625 506.183C606.828 506.316 588.363 508 570 508C472.705 508 375.39 506.963 278 507C247.463 507.012 216.649 506.264 186 507.015C179.491 507.174 159.142 513.118 156.573 504.941C152.601 492.302 155.537 473.941 156.831 461C160.624 423.065 172.056 386.707 184.911 351C251.365 166.417 448.504 41.7016 644 55.0895C740.857 61.7224 841.625 101.726 914.961 165.435C932.021 180.256 948.035 196.34 962.192 214C968.325 221.65 970.901 232.618 976.843 239.491C979.154 242.163 983.271 243.633 986 246L981.576 264L977.561 309L963.17 448L958 507C976.167 512.105 998.339 509.168 1017 508.209C1035.15 507.277 1053.76 509 1072 509C1074.48 489.348 1070.66 468.574 1068.29 449C1062.12 398.145 1044.61 349.854 1022.26 304C1015.2 289.514 1006.44 276.228 998.862 262C994.805 254.386 996.056 247.391 986 246"/>
<circle stroke="#000000" fill="none" stroke-width="2" r="15" cx="627" cy="504"/>
<circle stroke="#000000" fill="none" stroke-width="2" r="15" cx="986" cy="246"/>
<path style="stroke:#000000;fill:none;stroke-width:5" d="M699 439C704.993 413.896 716.496 393.192 729.547 371C764.441 311.666 819.684 262.985 888 246.258C908.276 241.293 927.987 237 949 237C957.367 237 966.265 235.304 973 241C953.358 262.811 925.753 278.151 902 295.489C856.778 328.498 812.114 362.078 767 395.244C752.618 405.817 738.483 416.895 724 427.29C719.135 430.782 714.367 435.222 709 437.9C706.097 439.348 702.094 439.273 699.698 441.589C696.503 444.677 694.522 450.258 692 454"/>
<path style="stroke:#AC7772;fill:none;stroke-width:4" d="M699 439C704.993 413.896 716.496 393.192 729.547 371C764.441 311.666 819.684 262.985 888 246.258C908.276 241.293 927.987 237 949 237C957.367 237 966.265 235.304 973 241C953.358 262.811 925.753 278.151 902 295.489C856.778 328.498 812.114 362.078 767 395.244C752.618 405.817 738.483 416.895 724 427.29C719.135 430.782 714.367 435.222 709 437.9C706.097 439.348 702.094 439.273 699.698 441.589C696.503 444.677 694.522 450.258 692 454"/>
<circle stroke="#000000" fill="none" stroke-width="2" r="15" cx="699" cy="439"/>
<circle stroke="#000000" fill="none" stroke-width="2" r="15" cx="692" cy="454"/>
<path style="stroke:#000000;fill:none;stroke-width:5" d="M973 241L975 241"/>
<path style="stroke:#2D60F5;fill:none;stroke-width:4" d="M973 241L975 241"/>
<circle stroke="#000000" fill="none" stroke-width="2" r="15" cx="973" cy="241"/>
<circle stroke="#000000" fill="none" stroke-width="2" r="15" cx="975" cy="241"/>
<path style="stroke:#000000;fill:none;stroke-width:5" d="M994 247C1002.02 245.263 1010.23 248.216 1018 249.989C1036.9 254.305 1054.47 260.023 1072 268.1C1141.76 300.24 1198.96 367.512 1215.81 443C1220.14 462.355 1227.83 488.271 1222 508L1224 510L1252 509L1307 509L1487 509"/>
<path style="stroke:#3341D0;fill:none;stroke-width:4" d="M994 247C1002.02 245.263 1010.23 248.216 1018 249.989C1036.9 254.305 1054.47 260.023 1072 268.1C1141.76 300.24 1198.96 367.512 1215.81 443C1220.14 462.355 1227.83 488.271 1222 508L1224 510L1252 509L1307 509L1487 509"/>
<circle stroke="#000000" fill="none" stroke-width="2" r="15" cx="994" cy="247"/>
<circle stroke="#000000" fill="none" stroke-width="2" r="15" cx="1487" cy="509"/>
<path style="stroke:#000000;fill:none;stroke-width:5" d="M1708 425L2137 424"/>
<path style="stroke:#48D5CE;fill:none;stroke-width:4" d="M1708 425L2137 424"/>
<circle stroke="#000000" fill="none" stroke-width="2" r="15" cx="1708" cy="425"/>
<circle stroke="#000000" fill="none" stroke-width="2" r="15" cx="2137" cy="424"/>
<path style="stroke:#000000;fill:none;stroke-width:5" d="M1711 506L1734 505.486L1817 506L2034 505"/>
<path style="stroke:#60CB61;fill:none;stroke-width:4" d="M1711 506L1734 505.486L1817 506L2034 505"/>
<circle stroke="#000000" fill="none" stroke-width="2" r="15" cx="1711" cy="506"/>
<circle stroke="#000000" fill="none" stroke-width="2" r="15" cx="2034" cy="505"/>
<path style="stroke:#000000;fill:none;stroke-width:5" d="M690 509L717 509L776 509L957 508"/>
<path style="stroke:#0C7F58;fill:none;stroke-width:4" d="M690 509L717 509L776 509L957 508"/>
<circle stroke="#000000" fill="none" stroke-width="2" r="15" cx="690" cy="509"/>
<circle stroke="#000000" fill="none" stroke-width="2" r="15" cx="957" cy="508"/>
<path style="stroke:#000000;fill:none;stroke-width:5" d="M1073 510L1112 509L1182 509L1222 508"/>
<path style="stroke:#448C8E;fill:none;stroke-width:4" d="M1073 510L1112 509L1182 509L1222 508"/>
<circle stroke="#000000" fill="none" stroke-width="2" r="15" cx="1073" cy="510"/>
<circle stroke="#000000" fill="none" stroke-width="2" r="15" cx="1222" cy="508"/>
<path style="stroke:#000000;fill:none;stroke-width:5" d="M158 509C153.865 531.272 159.5 557.08 163.625 579C171.06 618.506 181.529 654.871 197.431 692C291.669 912.023 559.963 1026.41 782 934.811C841.598 910.224 897.927 875.407 942.089 828C951.56 817.834 960.686 807.552 969.729 797C974.143 791.85 980.201 786.596 982.418 780.001C986.065 769.155 960.368 773 954 773C939.472 773 924.382 774.584 910 772.711C888.496 769.909 867.733 761.869 848 753.323C753.864 712.556 690 610.936 690 509"/>
<path style="stroke:#79749D;fill:none;stroke-width:4" d="M158 509C153.865 531.272 159.5 557.08 163.625 579C171.06 618.506 181.529 654.871 197.431 692C291.669 912.023 559.963 1026.41 782 934.811C841.598 910.224 897.927 875.407 942.089 828C951.56 817.834 960.686 807.552 969.729 797C974.143 791.85 980.201 786.596 982.418 780.001C986.065 769.155 960.368 773 954 773C939.472 773 924.382 774.584 910 772.711C888.496 769.909 867.733 761.869 848 753.323C753.864 712.556 690 610.936 690 509"/>
<circle stroke="#000000" fill="none" stroke-width="2" r="15" cx="158" cy="509"/>
<circle stroke="#000000" fill="none" stroke-width="2" r="15" cx="690" cy="509"/>
<path style="stroke:#000000;fill:none;stroke-width:5" d="M1073 510C1073.61 583.335 1052.03 646.424 1020.42 712C1013.66 726.042 1005.91 739.304 998.478 753C993.677 761.851 993.982 768.128 985 774"/>
<path style="stroke:#B3666C;fill:none;stroke-width:4" d="M1073 510C1073.61 583.335 1052.03 646.424 1020.42 712C1013.66 726.042 1005.91 739.304 998.478 753C993.677 761.851 993.982 768.128 985 774"/>
<circle stroke="#000000" fill="none" stroke-width="2" r="15" cx="1073" cy="510"/>
<circle stroke="#000000" fill="none" stroke-width="2" r="15" cx="985" cy="774"/>
<path style="stroke:#000000;fill:none;stroke-width:5" d="M1224 510C1222.02 605.863 1166.44 688.531 1086 737.911C1067.62 749.194 1048.46 756.917 1028 763.505C1017.15 766.998 1006.61 771.228 995 770"/>
<path style="stroke:#0C5554;fill:none;stroke-width:4" d="M1224 510C1222.02 605.863 1166.44 688.531 1086 737.911C1067.62 749.194 1048.46 756.917 1028 763.505C1017.15 766.998 1006.61 771.228 995 770"/>
<circle stroke="#000000" fill="none" stroke-width="2" r="15" cx="1224" cy="510"/>
<circle stroke="#000000" fill="none" stroke-width="2" r="15" cx="995" cy="770"/>
<path style="stroke:#000000;fill:none;stroke-width:5" d="M1712 586L1959 587"/>
<path style="stroke:#10440E;fill:none;stroke-width:4" d="M1712 586L1959 587"/>
<circle stroke="#000000" fill="none" stroke-width="2" r="15" cx="1712" cy="586"/>
<circle stroke="#000000" fill="none" stroke-width="2" r="15" cx="1959" cy="587"/>
</svg>