<?xml version="1.0" standalone="yes"?>
<svg width="1093" height="726">
<path style="stroke:#000000;fill:none;stroke-width:5" d="M"/>
<path style="stroke:#CA6B91;fill:none;stroke-width:4" d="M"/>
<path style="stroke:#000000;fill:none;stroke-width:5" d="M113 401C117.791 391.956 128.914 387.898 137 382.279C158.052 367.652 181.098 356.022 202 341.14C257.347 301.733 317.615 269.019 374 231.114C398.233 214.823 423.211 199.587 448 184.186C461.893 175.555 473.568 166.226 489 161C493.34 170.017 491.012 183.156 491 193C490.973 215.393 492 237.627 492 260C492 293.508 488.995 327.638 492.17 361C493.111 370.889 492.016 380.15 492 390C491.994 393.6 493.037 399.557 490.258 402.397C485.577 407.179 467.234 404.446 461 404.093C438.45 402.817 414.724 405 392 405C322.802 405 253.311 405.429 184 405.429C165.015 405.429 145.972 404.999 127 405C120.068 405 112.605 402.353 106 404"/>
<path style="stroke:#F27996;fill:none;stroke-width:4" d="M113 401C117.791 391.956 128.914 387.898 137 382.279C158.052 367.652 181.098 356.022 202 341.14C257.347 301.733 317.615 269.019 374 231.114C398.233 214.823 423.211 199.587 448 184.186C461.893 175.555 473.568 166.226 489 161C493.34 170.017 491.012 183.156 491 193C490.973 215.393 492 237.627 492 260C492 293.508 488.995 327.638 492.17 361C493.111 370.889 492.016 380.15 492 390C491.994 393.6 493.037 399.557 490.258 402.397C485.577 407.179 467.234 404.446 461 404.093C438.45 402.817 414.724 405 392 405C322.802 405 253.311 405.429 184 405.429C165.015 405.429 145.972 404.999 127 405C120.068 405 112.605 402.353 106 404"/>
<circle stroke="#000000" fill="none" stroke-width="2" r="15" cx="113" cy="401"/>
<circle stroke="#000000" fill="none" stroke-width="2" r="15" cx="106" cy="404"/>
<path style="stroke:#000000;fill:none;stroke-width:5" d="M991 278C989.732 307.533 989.335 338.386 990.243 368C990.481 375.755 994.499 395.294 988.397 401.397C984.734 405.059 974.782 402.715 970 403.17C950.43 405.032 929.804 402.768 910 403.004C832.04 403.931 754.222 403.97 676 404C654.309 404.008 632.706 405.254 611 404.996C607.287 404.952 590.946 405.835 588.817 403.307C584.322 397.969 602.612 387.816 606 385.952C630.643 372.393 654.594 357.534 679 343.573C751.025 302.368 821.59 258.865 893 216.548C916.005 202.915 939.095 188.149 963 176.296C971.336 172.162 977.37 165.293 986.995 163.824C996.738 162.337 992.807 189.305 992.17 196C990.286 215.79 991 236.108 991 256C991 260.934 988.862 272.653 992.603 276.397C997.078 280.874 1006.74 277.523 1012 277"/>
<path style="stroke:#586DBE;fill:none;stroke-width:4" d="M991 278C989.732 307.533 989.335 338.386 990.243 368C990.481 375.755 994.499 395.294 988.397 401.397C984.734 405.059 974.782 402.715 970 403.17C950.43 405.032 929.804 402.768 910 403.004C832.04 403.931 754.222 403.97 676 404C654.309 404.008 632.706 405.254 611 404.996C607.287 404.952 590.946 405.835 588.817 403.307C584.322 397.969 602.612 387.816 606 385.952C630.643 372.393 654.594 357.534 679 343.573C751.025 302.368 821.59 258.865 893 216.548C916.005 202.915 939.095 188.149 963 176.296C971.336 172.162 977.37 165.293 986.995 163.824C996.738 162.337 992.807 189.305 992.17 196C990.286 215.79 991 236.108 991 256C991 260.934 988.862 272.653 992.603 276.397C997.078 280.874 1006.74 277.523 1012 277"/>
<circle stroke="#000000" fill="none" stroke-width="2" r="15" cx="991" cy="278"/>
<circle stroke="#000000" fill="none" stroke-width="2" r="15" cx="1012" cy="277"/>
<path style="stroke:#000000;fill:none;stroke-width:5" d="M587 403C584.549 412.98 595.994 416.821 603 420.486C622.052 430.454 640.494 442.044 659 452.985C739.683 500.688 821.204 547.799 903 593.635C924.788 605.845 946.767 618.401 968 631.532C972.404 634.256 985.056 645.693 990.512 641.932C993.253 640.043 992.822 630.168 992.961 627C993.604 612.293 992.096 596.693 991.089 582C988.029 537.316 991.921 491.677 991.921 447C991.921 432.726 990.039 418.283 990 404"/>
<path style="stroke:#44A3E5;fill:none;stroke-width:4" d="M587 403C584.549 412.98 595.994 416.821 603 420.486C622.052 430.454 640.494 442.044 659 452.985C739.683 500.688 821.204 547.799 903 593.635C924.788 605.845 946.767 618.401 968 631.532C972.404 634.256 985.056 645.693 990.512 641.932C993.253 640.043 992.822 630.168 992.961 627C993.604 612.293 992.096 596.693 991.089 582C988.029 537.316 991.921 491.677 991.921 447C991.921 432.726 990.039 418.283 990 404"/>
<circle stroke="#000000" fill="none" stroke-width="2" r="15" cx="587" cy="403"/>
<circle stroke="#000000" fill="none" stroke-width="2" r="15" cx="990" cy="404"/>
</svg>