<?xml version="1.0" standalone="yes"?>
<svg width="846" height="1080">
<path style="stroke:#000000;fill:none;stroke-width:5" d="M"/>
<path style="stroke:#8E6015;fill:none;stroke-width:4" d="M"/>
<path style="stroke:#000000;fill:none;stroke-width:5" d="M576 546C561.6 547.137 554.204 556.916 541 562.244C527.284 567.778 512.566 571.45 499.129 576.821C492.719 579.383 486.572 585.815 480 589.019C468.432 594.656 455.884 598.459 444 603.4C437.865 605.95 430.824 608.251 425.039 611.441C420.997 613.671 418.941 617.51 413.999 617.941C402.671 618.931 393.093 611.322 383 606.86C361.439 597.329 339.153 587.136 317 579.09C300.74 573.183 281.964 567.548 267.043 558.736C263.633 556.722 262.731 552.387 259.502 550.564C255.238 548.157 244.612 550.281 242.693 544.852C240.501 538.651 246.064 528.529 248.421 523C255.837 505.607 264.638 488.573 271.536 471C299.712 399.225 335.743 330.356 365.011 259C373.679 237.867 382.619 216.634 392.35 196C394.529 191.378 397.732 176.398 404.99 178.086C410.171 179.292 412.358 185.786 414.308 190C418.957 200.046 423.861 210.034 428.633 220C449.258 263.08 471.236 306.52 488.468 351C495.905 370.197 507.831 388.273 516.447 407C532.311 441.482 549.53 475.491 565.332 510C570.422 521.116 572.935 534.452 578.143 544.961C580.036 548.78 583.992 551.202 586.085 555.004C597.587 575.903 607.73 598.306 617.691 620C629.854 646.487 642.541 672.611 654.88 699C657.51 704.624 657.189 711.633 660.02 716.91C668.855 733.384 678.361 749.939 686.88 767C698.557 790.388 707.553 816.167 722 838"/>
<path style="stroke:#FC79C3;fill:none;stroke-width:4" d="M576 546C561.6 547.137 554.204 556.916 541 562.244C527.284 567.778 512.566 571.45 499.129 576.821C492.719 579.383 486.572 585.815 480 589.019C468.432 594.656 455.884 598.459 444 603.4C437.865 605.95 430.824 608.251 425.039 611.441C420.997 613.671 418.941 617.51 413.999 617.941C402.671 618.931 393.093 611.322 383 606.86C361.439 597.329 339.153 587.136 317 579.09C300.74 573.183 281.964 567.548 267.043 558.736C263.633 556.722 262.731 552.387 259.502 550.564C255.238 548.157 244.612 550.281 242.693 544.852C240.501 538.651 246.064 528.529 248.421 523C255.837 505.607 264.638 488.573 271.536 471C299.712 399.225 335.743 330.356 365.011 259C373.679 237.867 382.619 216.634 392.35 196C394.529 191.378 397.732 176.398 404.99 178.086C410.171 179.292 412.358 185.786 414.308 190C418.957 200.046 423.861 210.034 428.633 220C449.258 263.08 471.236 306.52 488.468 351C495.905 370.197 507.831 388.273 516.447 407C532.311 441.482 549.53 475.491 565.332 510C570.422 521.116 572.935 534.452 578.143 544.961C580.036 548.78 583.992 551.202 586.085 555.004C597.587 575.903 607.73 598.306 617.691 620C629.854 646.487 642.541 672.611 654.88 699C657.51 704.624 657.189 711.633 660.02 716.91C668.855 733.384 678.361 749.939 686.88 767C698.557 790.388 707.553 816.167 722 838"/>
<circle stroke="#000000" fill="none" stroke-width="2" r="15" cx="576" cy="546"/>
<circle stroke="#000000" fill="none" stroke-width="2" r="15" cx="722" cy="838"/>
<path style="stroke:#000000;fill:none;stroke-width:5" d="M261 550C267.056 545.644 274.827 547 282 547C296.724 547 311.297 546 326 546C381.639 546 437.211 545 493 545C505.915 545 519.116 545.793 532 544.911C541.774 544.241 552.651 541.636 561 548"/>
<path style="stroke:#2D70CE;fill:none;stroke-width:4" d="M261 550C267.056 545.644 274.827 547 282 547C296.724 547 311.297 546 326 546C381.639 546 437.211 545 493 545C505.915 545 519.116 545.793 532 544.911C541.774 544.241 552.651 541.636 561 548"/>
<circle stroke="#000000" fill="none" stroke-width="2" r="15" cx="261" cy="550"/>
<circle stroke="#000000" fill="none" stroke-width="2" r="15" cx="561" cy="548"/>
<path style="stroke:#000000;fill:none;stroke-width:5" d="M402 617C396.329 624.53 389.277 626.096 381 629.886C367.769 635.944 354.397 641.619 341 647.285C305.71 662.212 270.035 676.594 235 692.17C214.603 701.238 189.544 716.032 167 717C167.89 696.265 179.713 678.204 188.627 660C200.077 636.619 210.168 612.05 220.074 588C223.962 578.56 228.907 569.557 232.532 560C234.801 554.018 233.852 548.923 241 547"/>
<path style="stroke:#3EBC4B;fill:none;stroke-width:4" d="M402 617C396.329 624.53 389.277 626.096 381 629.886C367.769 635.944 354.397 641.619 341 647.285C305.71 662.212 270.035 676.594 235 692.17C214.603 701.238 189.544 716.032 167 717C167.89 696.265 179.713 678.204 188.627 660C200.077 636.619 210.168 612.05 220.074 588C223.962 578.56 228.907 569.557 232.532 560C234.801 554.018 233.852 548.923 241 547"/>
<circle stroke="#000000" fill="none" stroke-width="2" r="15" cx="402" cy="617"/>
<circle stroke="#000000" fill="none" stroke-width="2" r="15" cx="241" cy="547"/>
<path style="stroke:#000000;fill:none;stroke-width:5" d="M420 619C423.431 625.257 430.722 626.961 437 629.575C450.375 635.145 463.693 640.827 477 646.568C519.338 664.835 562.067 682.908 605 699.695C621.873 706.293 639.582 717.209 658 718"/>
<path style="stroke:#DC0B82;fill:none;stroke-width:4" d="M420 619C423.431 625.257 430.722 626.961 437 629.575C450.375 635.145 463.693 640.827 477 646.568C519.338 664.835 562.067 682.908 605 699.695C621.873 706.293 639.582 717.209 658 718"/>
<circle stroke="#000000" fill="none" stroke-width="2" r="15" cx="420" cy="619"/>
<circle stroke="#000000" fill="none" stroke-width="2" r="15" cx="658" cy="718"/>
<path style="stroke:#000000;fill:none;stroke-width:5" d="M167 717C154.33 729.706 150.155 748.039 142.602 764C130.06 790.502 116.583 817.12 105 844"/>
<path style="stroke:#6CD04E;fill:none;stroke-width:4" d="M167 717C154.33 729.706 150.155 748.039 142.602 764C130.06 790.502 116.583 817.12 105 844"/>
<circle stroke="#000000" fill="none" stroke-width="2" r="15" cx="167" cy="717"/>
<circle stroke="#000000" fill="none" stroke-width="2" r="15" cx="105" cy="844"/>
</svg>