<?xml version="1.0" standalone="yes"?>
<svg width="472" height="640">
<path style="stroke:#000000;fill:none;stroke-width:5" d="M"/>
<path style="stroke:#F4FC93;fill:none;stroke-width:4" d="M"/>
<path style="stroke:#000000;fill:none;stroke-width:5" d="M243 97L242.358 115.957L232.728 125.105L226.597 142L194.597 239L157.594 354L153.522 376.996L145.735 390.001L119.961 470L91 557"/>
<path style="stroke:#2DEAF0;fill:none;stroke-width:4" d="M243 97L242.358 115.957L232.728 125.105L226.597 142L194.597 239L157.594 354L153.522 376.996L145.735 390.001L119.961 470L91 557"/>
<circle stroke="#000000" fill="none" stroke-width="2" r="15" cx="243" cy="97"/>
<circle stroke="#000000" fill="none" stroke-width="2" r="15" cx="91" cy="557"/>
<path style="stroke:#000000;fill:none;stroke-width:5" d="M244 119C247.644 122.215 246.555 125.793 249.027 129.367C251.128 132.404 254.825 133.624 256.772 137.015C263.537 148.805 266.357 165.071 270.667 178C284.983 220.949 298.332 264.334 313.38 307C319.891 325.461 333.711 351.099 332.485 370.981C332.2 375.6 327.141 376.152 325.406 380.059C317.685 397.445 308.024 413.77 300.03 431C289.01 454.754 277.106 478.899 264.785 502C260.751 509.564 257.45 522.73 246 521.691C231.023 520.331 223.221 497.164 216.905 486C206.417 467.462 194.463 449.632 184.221 431C174.918 414.077 166.729 394.767 153 381"/>
<path style="stroke:#40C1B7;fill:none;stroke-width:4" d="M244 119C247.644 122.215 246.555 125.793 249.027 129.367C251.128 132.404 254.825 133.624 256.772 137.015C263.537 148.805 266.357 165.071 270.667 178C284.983 220.949 298.332 264.334 313.38 307C319.891 325.461 333.711 351.099 332.485 370.981C332.2 375.6 327.141 376.152 325.406 380.059C317.685 397.445 308.024 413.77 300.03 431C289.01 454.754 277.106 478.899 264.785 502C260.751 509.564 257.45 522.73 246 521.691C231.023 520.331 223.221 497.164 216.905 486C206.417 467.462 194.463 449.632 184.221 431C174.918 414.077 166.729 394.767 153 381"/>
<circle stroke="#000000" fill="none" stroke-width="2" r="15" cx="244" cy="119"/>
<circle stroke="#000000" fill="none" stroke-width="2" r="15" cx="153" cy="381"/>
<path style="stroke:#000000;fill:none;stroke-width:5" d="M248 130C241.481 138.167 244 151.039 244 161C244 185.688 244.703 210.388 244.996 235C246.133 330.601 246 426.183 246 522"/>
<path style="stroke:#B79962;fill:none;stroke-width:4" d="M248 130C241.481 138.167 244 151.039 244 161C244 185.688 244.703 210.388 244.996 235C246.133 330.601 246 426.183 246 522"/>
<circle stroke="#000000" fill="none" stroke-width="2" r="15" cx="248" cy="130"/>
<circle stroke="#000000" fill="none" stroke-width="2" r="15" cx="246" cy="522"/>
<path style="stroke:#000000;fill:none;stroke-width:5" d="M155 374C169.15 371.373 184.634 373 199 373L280 373C293.427 373 315.316 368.843 327 376"/>
<path style="stroke:#60AA4A;fill:none;stroke-width:4" d="M155 374C169.15 371.373 184.634 373 199 373L280 373C293.427 373 315.316 368.843 327 376"/>
<circle stroke="#000000" fill="none" stroke-width="2" r="15" cx="155" cy="374"/>
<circle stroke="#000000" fill="none" stroke-width="2" r="15" cx="327" cy="376"/>
<path style="stroke:#000000;fill:none;stroke-width:5" d="M332 376C342.621 385.07 344.585 401.412 348.965 414C357.97 439.884 365.888 466.294 375.405 492C379.386 502.753 381.227 515.061 387 525"/>
<path style="stroke:#C701DC;fill:none;stroke-width:4" d="M332 376C342.621 385.07 344.585 401.412 348.965 414C357.97 439.884 365.888 466.294 375.405 492C379.386 502.753 381.227 515.061 387 525"/>
<circle stroke="#000000" fill="none" stroke-width="2" r="15" cx="332" cy="376"/>
<circle stroke="#000000" fill="none" stroke-width="2" r="15" cx="387" cy="525"/>
<path style="stroke:#000000;fill:none;stroke-width:5" d="M247 524L247 537"/>
<path style="stroke:#3531F4;fill:none;stroke-width:4" d="M247 524L247 537"/>
<circle stroke="#000000" fill="none" stroke-width="2" r="15" cx="247" cy="524"/>
<circle stroke="#000000" fill="none" stroke-width="2" r="15" cx="247" cy="537"/>
</svg>