<?xml version="1.0" standalone="yes"?>
<svg width="1088" height="208">
<path style="stroke:#000000;fill:none;stroke-width:5" d="M"/>
<path style="stroke:#34F609;fill:none;stroke-width:4" d="M"/>
<path style="stroke:#000000;fill:none;stroke-width:5" d="M385 117L386 136"/>
<path style="stroke:#AD73F5;fill:none;stroke-width:4" d="M385 117L386 136"/>
<circle stroke="#000000" fill="none" stroke-width="2" r="15" cx="385" cy="117"/>
<circle stroke="#000000" fill="none" stroke-width="2" r="15" cx="386" cy="136"/>
<path style="stroke:#000000;fill:none;stroke-width:5" d="M384 126C396.72 124.37 410.156 125.926 423 125.921C446.51 125.912 470.429 125.563 494 124.985C598.891 122.416 704.104 121 809 121C869.096 121 932.388 126.534 992 119"/>
<path style="stroke:#A30A68;fill:none;stroke-width:4" d="M384 126C396.72 124.37 410.156 125.926 423 125.921C446.51 125.912 470.429 125.563 494 124.985C598.891 122.416 704.104 121 809 121C869.096 121 932.388 126.534 992 119"/>
<circle stroke="#000000" fill="none" stroke-width="2" r="15" cx="384" cy="126"/>
<circle stroke="#000000" fill="none" stroke-width="2" r="15" cx="992" cy="119"/>
<path style="stroke:#000000;fill:none;stroke-width:5" d="M755 123L755 133"/>
<path style="stroke:#287AA0;fill:none;stroke-width:4" d="M755 123L755 133"/>
<circle stroke="#000000" fill="none" stroke-width="2" r="15" cx="755" cy="123"/>
<circle stroke="#000000" fill="none" stroke-width="2" r="15" cx="755" cy="133"/>
<path style="stroke:#000000;fill:none;stroke-width:5" d="M77 129C83.0582 127.574 88.8626 129.412 95 128.83C122.182 126.254 149.728 129.155 177 127.961C231.919 125.556 288.025 122.146 343 125.91C356.401 126.828 370.916 123.607 384 126"/>
<path style="stroke:#E30C20;fill:none;stroke-width:4" d="M77 129C83.0582 127.574 88.8626 129.412 95 128.83C122.182 126.254 149.728 129.155 177 127.961C231.919 125.556 288.025 122.146 343 125.91C356.401 126.828 370.916 123.607 384 126"/>
<circle stroke="#000000" fill="none" stroke-width="2" r="15" cx="77" cy="129"/>
<circle stroke="#000000" fill="none" stroke-width="2" r="15" cx="384" cy="126"/>
</svg>