<?xml version="1.0" standalone="yes"?>
<svg width="756" height="804">
<path style="stroke:#000000;fill:none;stroke-width:5" d="M"/>
<path style="stroke:#69EA4B;fill:none;stroke-width:4" d="M"/>
<path style="stroke:#000000;fill:none;stroke-width:5" d="M211 169C205.159 158.068 209 141.994 209 130C209 126.306 207.728 119.479 210.603 116.603C215.652 111.555 234.46 115.208 241 115.83C260.434 117.68 281.366 115 301 115C309.268 115 321.151 114.074 328 119C320.454 126.301 308.977 127.088 299 129.701C285.591 133.213 270.2 138.172 258 144.765C252.926 147.507 249.875 152.579 244.961 155.435C239.967 158.337 233.981 159.122 229.104 162.213C226.427 163.91 224.859 167.016 221.896 168.258C218.071 169.86 213.853 168.247 210.171 170.549C171.351 194.817 138.817 232.87 115.819 272C91.3946 313.56 77.1995 358.971 73.9105 407C70.7612 452.989 75.6863 498.631 92 542C139.847 669.199 265.409 752.219 401 748.871C448.011 747.71 496.857 735.197 539 714.426C548.485 709.751 556.764 703.209 566 698.193C617.468 670.241 660.83 627.27 686.132 574C706.93 530.213 716 482.208 716 434C716 379.924 699.563 324.878 672.775 278C650.577 239.154 616.814 198.904 577 177.035C569.954 173.165 561.912 171.451 555.039 167.977C549.519 165.186 545.123 161.102 539 159.076C533.971 157.413 529.936 159.789 525 157L531 150C522.771 147.311 521.869 155.537 514.995 154.698C492.646 151.973 468.52 141.47 447 134.831C436.057 131.455 426.293 130.421 419 121C425.254 117.662 438.092 116.896 444.83 119.603C447.903 120.837 449.671 123.828 453.004 124.683C475.338 130.414 505.163 133.473 524 148"/>
<path style="stroke:#5A21E3;fill:none;stroke-width:4" d="M211 169C205.159 158.068 209 141.994 209 130C209 126.306 207.728 119.479 210.603 116.603C215.652 111.555 234.46 115.208 241 115.83C260.434 117.68 281.366 115 301 115C309.268 115 321.151 114.074 328 119C320.454 126.301 308.977 127.088 299 129.701C285.591 133.213 270.2 138.172 258 144.765C252.926 147.507 249.875 152.579 244.961 155.435C239.967 158.337 233.981 159.122 229.104 162.213C226.427 163.91 224.859 167.016 221.896 168.258C218.071 169.86 213.853 168.247 210.171 170.549C171.351 194.817 138.817 232.87 115.819 272C91.3946 313.56 77.1995 358.971 73.9105 407C70.7612 452.989 75.6863 498.631 92 542C139.847 669.199 265.409 752.219 401 748.871C448.011 747.71 496.857 735.197 539 714.426C548.485 709.751 556.764 703.209 566 698.193C617.468 670.241 660.83 627.27 686.132 574C706.93 530.213 716 482.208 716 434C716 379.924 699.563 324.878 672.775 278C650.577 239.154 616.814 198.904 577 177.035C569.954 173.165 561.912 171.451 555.039 167.977C549.519 165.186 545.123 161.102 539 159.076C533.971 157.413 529.936 159.789 525 157L531 150C522.771 147.311 521.869 155.537 514.995 154.698C492.646 151.973 468.52 141.47 447 134.831C436.057 131.455 426.293 130.421 419 121C425.254 117.662 438.092 116.896 444.83 119.603C447.903 120.837 449.671 123.828 453.004 124.683C475.338 130.414 505.163 133.473 524 148"/>
<circle stroke="#000000" fill="none" stroke-width="2" r="15" cx="211" cy="169"/>
<circle stroke="#000000" fill="none" stroke-width="2" r="15" cx="524" cy="148"/>
<path style="stroke:#000000;fill:none;stroke-width:5" d="M249 154C255.84 158.916 264.38 154.535 272 152.765C292.954 147.896 313.197 139.161 334 133.584C342.722 131.246 352.871 130.551 355 120L385 117.129L419 121"/>
<path style="stroke:#BA2AE0;fill:none;stroke-width:4" d="M249 154C255.84 158.916 264.38 154.535 272 152.765C292.954 147.896 313.197 139.161 334 133.584C342.722 131.246 352.871 130.551 355 120L385 117.129L419 121"/>
<circle stroke="#000000" fill="none" stroke-width="2" r="15" cx="249" cy="154"/>
<circle stroke="#000000" fill="none" stroke-width="2" r="15" cx="419" cy="121"/>
<path style="stroke:#000000;fill:none;stroke-width:5" d="M447 119C454.697 114.893 466.418 117 475 117L536 117C543.68 117 558.106 114.237 564.863 118.179C569.866 121.098 567.611 127.42 567.17 132C566.002 144.11 570.484 159.001 562 169"/>
<path style="stroke:#75720F;fill:none;stroke-width:4" d="M447 119C454.697 114.893 466.418 117 475 117L536 117C543.68 117 558.106 114.237 564.863 118.179C569.866 121.098 567.611 127.42 567.17 132C566.002 144.11 570.484 159.001 562 169"/>
<circle stroke="#000000" fill="none" stroke-width="2" r="15" cx="447" cy="119"/>
<circle stroke="#000000" fill="none" stroke-width="2" r="15" cx="562" cy="169"/>
<path style="stroke:#000000;fill:none;stroke-width:5" d="M328 119C335.974 117.52 347.687 116.097 355 120"/>
<path style="stroke:#8633BD;fill:none;stroke-width:4" d="M328 119C335.974 117.52 347.687 116.097 355 120"/>
<circle stroke="#000000" fill="none" stroke-width="2" r="15" cx="328" cy="119"/>
<circle stroke="#000000" fill="none" stroke-width="2" r="15" cx="355" cy="120"/>
<path style="stroke:#000000;fill:none;stroke-width:5" d="M531 150L535 157"/>
<path style="stroke:#6B9E27;fill:none;stroke-width:4" d="M531 150L535 157"/>
<circle stroke="#000000" fill="none" stroke-width="2" r="15" cx="531" cy="150"/>
<circle stroke="#000000" fill="none" stroke-width="2" r="15" cx="535" cy="157"/>
<path style="stroke:#000000;fill:none;stroke-width:5" d="M519 155L525 157"/>
<path style="stroke:#62137E;fill:none;stroke-width:4" d="M519 155L525 157"/>
<circle stroke="#000000" fill="none" stroke-width="2" r="15" cx="519" cy="155"/>
<circle stroke="#000000" fill="none" stroke-width="2" r="15" cx="525" cy="157"/>
<path style="stroke:#000000;fill:none;stroke-width:5" d="M225 168C231.609 172.755 240.21 171.698 248 172.039C264.409 172.758 280.55 171.999 297 172C357.943 172.004 419.004 174.074 480 174C497.885 173.978 516.131 174.842 534 173.17C542.839 172.343 546.937 174.834 554 168"/>
<path style="stroke:#4A802B;fill:none;stroke-width:4" d="M225 168C231.609 172.755 240.21 171.698 248 172.039C264.409 172.758 280.55 171.999 297 172C357.943 172.004 419.004 174.074 480 174C497.885 173.978 516.131 174.842 534 173.17C542.839 172.343 546.937 174.834 554 168"/>
<circle stroke="#000000" fill="none" stroke-width="2" r="15" cx="225" cy="168"/>
<circle stroke="#000000" fill="none" stroke-width="2" r="15" cx="554" cy="168"/>
</svg>