<?xml version="1.0" standalone="yes"?>
<svg width="948" height="540">
<path style="stroke:#000000;fill:none;stroke-width:5" d="M"/>
<path style="stroke:#531995;fill:none;stroke-width:4" d="M"/>
<path style="stroke:#000000;fill:none;stroke-width:5" d="M842 436C831.776 443.354 812.06 440 800 440C764.522 440 729.435 438 694 438C555.383 438 416.539 432 278 432C237.345 432 196.654 431.133 156 430.129C146.101 429.884 135.986 430.001 126 430C122.167 430 116.532 430.822 113.357 428.142C108.511 424.052 115.152 415.113 117 411C124.521 394.262 134.649 378.244 143.219 362C173.691 304.243 201.986 244.555 234.536 188C242.17 174.737 247.204 159.551 256.043 147.019C257.814 144.508 264.181 136.069 267.147 135.758C278.458 134.572 295.181 146.96 305 151.742C337.562 167.601 368.83 185.765 401 202.336C510.252 258.613 618.521 316.599 728 372.606C756.964 387.423 786.21 402.191 815 417.297C822.304 421.129 829.956 424.647 836.956 428.97C841.65 431.868 841.931 435.797 848 436"/>
<path style="stroke:#BEF342;fill:none;stroke-width:4" d="M842 436C831.776 443.354 812.06 440 800 440C764.522 440 729.435 438 694 438C555.383 438 416.539 432 278 432C237.345 432 196.654 431.133 156 430.129C146.101 429.884 135.986 430.001 126 430C122.167 430 116.532 430.822 113.357 428.142C108.511 424.052 115.152 415.113 117 411C124.521 394.262 134.649 378.244 143.219 362C173.691 304.243 201.986 244.555 234.536 188C242.17 174.737 247.204 159.551 256.043 147.019C257.814 144.508 264.181 136.069 267.147 135.758C278.458 134.572 295.181 146.96 305 151.742C337.562 167.601 368.83 185.765 401 202.336C510.252 258.613 618.521 316.599 728 372.606C756.964 387.423 786.21 402.191 815 417.297C822.304 421.129 829.956 424.647 836.956 428.97C841.65 431.868 841.931 435.797 848 436"/>
<circle stroke="#000000" fill="none" stroke-width="2" r="15" cx="842" cy="436"/>
<circle stroke="#000000" fill="none" stroke-width="2" r="15" cx="848" cy="436"/>
<path style="stroke:#000000;fill:none;stroke-width:5" d="M263 141L266.039 164L265 222L262 430"/>
<path style="stroke:#13AE6F;fill:none;stroke-width:4" d="M263 141L266.039 164L265 222L262 430"/>
<circle stroke="#000000" fill="none" stroke-width="2" r="15" cx="263" cy="141"/>
<circle stroke="#000000" fill="none" stroke-width="2" r="15" cx="262" cy="430"/>
</svg>