<?xml version="1.0" standalone="yes"?>
<svg width="2080" height="1800">
<path style="stroke:#000000;fill:none;stroke-width:5" d="M"/>
<path style="stroke:#BAFD01;fill:none;stroke-width:4" d="M"/>
<path style="stroke:#000000;fill:none;stroke-width:5" d="M1605 98.4244C1646.67 92.9543 1693.8 104.737 1733 117.641C1778.66 132.67 1826.08 156.025 1863 187.212C1963.7 272.275 2006.38 404.659 1989.71 533C1976.7 633.142 1914.69 730.158 1831 786.11C1779.82 820.326 1721.71 840.951 1661 849.7C1626.96 854.605 1589.66 852.581 1556 846.31C1502.37 836.32 1447.6 816.611 1403 784.215C1268.77 686.707 1207.99 510.175 1263.18 352C1305.15 231.688 1404.95 142.299 1527 108.633C1552.72 101.537 1578.87 101.855 1605 98.4244"/>
<path style="stroke:#0F710A;fill:none;stroke-width:4" d="M1605 98.4244C1646.67 92.9543 1693.8 104.737 1733 117.641C1778.66 132.67 1826.08 156.025 1863 187.212C1963.7 272.275 2006.38 404.659 1989.71 533C1976.7 633.142 1914.69 730.158 1831 786.11C1779.82 820.326 1721.71 840.951 1661 849.7C1626.96 854.605 1589.66 852.581 1556 846.31C1502.37 836.32 1447.6 816.611 1403 784.215C1268.77 686.707 1207.99 510.175 1263.18 352C1305.15 231.688 1404.95 142.299 1527 108.633C1552.72 101.537 1578.87 101.855 1605 98.4244"/>
<circle stroke="#000000" fill="none" stroke-width="2" r="15" cx="1605" cy="98.4244"/>
<circle stroke="#000000" fill="none" stroke-width="2" r="15" cx="1605" cy="98.4244"/>
<path style="stroke:#000000;fill:none;stroke-width:5" d="M400 118.424C437.196 113.601 480.51 125.646 515 138.407C631.27 181.425 713.523 293.82 718.961 418C725.759 573.258 609.063 721.308 453 741.841C407.321 747.851 359.122 745.324 315 730.886C261.408 713.349 211.81 682.081 174.174 640C74.3411 528.376 68.6759 354.982 160.364 237C202.193 183.176 259.674 146.422 325 128.634C349.947 121.84 374.63 121.714 400 118.424"/>
<path style="stroke:#40F241;fill:none;stroke-width:4" d="M400 118.424C437.196 113.601 480.51 125.646 515 138.407C631.27 181.425 713.523 293.82 718.961 418C725.759 573.258 609.063 721.308 453 741.841C407.321 747.851 359.122 745.324 315 730.886C261.408 713.349 211.81 682.081 174.174 640C74.3411 528.376 68.6759 354.982 160.364 237C202.193 183.176 259.674 146.422 325 128.634C349.947 121.84 374.63 121.714 400 118.424"/>
<circle stroke="#000000" fill="none" stroke-width="2" r="15" cx="400" cy="118.424"/>
<circle stroke="#000000" fill="none" stroke-width="2" r="15" cx="400" cy="118.424"/>
<path style="stroke:#000000;fill:none;stroke-width:5" d="M1289 480C1286.52 436.894 1295.61 392.68 1312.14 353C1330.93 307.874 1358.38 266.05 1394.29 232.464C1484.24 148.329 1621.57 120.718 1737 163.233C1765.34 173.671 1791.73 191.738 1816 209.305C1846.7 231.528 1873.11 259.22 1893.86 291C1915.34 323.885 1932.04 361.49 1940.18 400C1944.2 419.025 1944.66 438.849 1947.75 458C1948.6 463.217 1951.71 476.039 1947.4 480.258C1941.39 486.138 1920.76 482.038 1913 482.001C1881.08 481.847 1849.05 482 1817 482C1689.11 482 1561.57 481 1434 481C1397.93 481 1361.95 480.002 1326 480L1300 480.001C1297.21 480.013 1292.08 479.41 1290.03 481.799C1287.86 484.323 1288.88 490.914 1289.09 494C1289.89 505.724 1291.75 517.451 1293.68 529C1302.28 580.666 1323.27 629.933 1354.45 672C1413.22 751.281 1508.27 801.637 1607 805.961C1665.86 808.538 1724.97 792.196 1777 765.576C1842.98 731.816 1893.27 671.041 1922.56 604C1934 577.826 1941.99 548.328 1945.71 520C1946.79 511.793 1944.77 489.035 1951.31 483.603C1954.29 481.136 1959.42 481.999 1963 482L1992 482"/>
<path style="stroke:#3FEFED;fill:none;stroke-width:4" d="M1289 480C1286.52 436.894 1295.61 392.68 1312.14 353C1330.93 307.874 1358.38 266.05 1394.29 232.464C1484.24 148.329 1621.57 120.718 1737 163.233C1765.34 173.671 1791.73 191.738 1816 209.305C1846.7 231.528 1873.11 259.22 1893.86 291C1915.34 323.885 1932.04 361.49 1940.18 400C1944.2 419.025 1944.66 438.849 1947.75 458C1948.6 463.217 1951.71 476.039 1947.4 480.258C1941.39 486.138 1920.76 482.038 1913 482.001C1881.08 481.847 1849.05 482 1817 482C1689.11 482 1561.57 481 1434 481C1397.93 481 1361.95 480.002 1326 480L1300 480.001C1297.21 480.013 1292.08 479.41 1290.03 481.799C1287.86 484.323 1288.88 490.914 1289.09 494C1289.89 505.724 1291.75 517.451 1293.68 529C1302.28 580.666 1323.27 629.933 1354.45 672C1413.22 751.281 1508.27 801.637 1607 805.961C1665.86 808.538 1724.97 792.196 1777 765.576C1842.98 731.816 1893.27 671.041 1922.56 604C1934 577.826 1941.99 548.328 1945.71 520C1946.79 511.793 1944.77 489.035 1951.31 483.603C1954.29 481.136 1959.42 481.999 1963 482L1992 482"/>
<circle stroke="#000000" fill="none" stroke-width="2" r="15" cx="1289" cy="480"/>
<circle stroke="#000000" fill="none" stroke-width="2" r="15" cx="1992" cy="482"/>
<path style="stroke:#000000;fill:none;stroke-width:5" d="M97 429L504 430L642 430L718 431"/>
<path style="stroke:#A40002;fill:none;stroke-width:4" d="M97 429L504 430L642 430L718 431"/>
<circle stroke="#000000" fill="none" stroke-width="2" r="15" cx="97" cy="429"/>
<circle stroke="#000000" fill="none" stroke-width="2" r="15" cx="718" cy="431"/>
<path style="stroke:#000000;fill:none;stroke-width:5" d="M1244 481L1288 479"/>
<path style="stroke:#5C70C3;fill:none;stroke-width:4" d="M1244 481L1288 479"/>
<circle stroke="#000000" fill="none" stroke-width="2" r="15" cx="1244" cy="481"/>
<circle stroke="#000000" fill="none" stroke-width="2" r="15" cx="1288" cy="479"/>
<path style="stroke:#000000;fill:none;stroke-width:5" d="M1949 481L1951 483"/>
<path style="stroke:#651306;fill:none;stroke-width:4" d="M1949 481L1951 483"/>
<circle stroke="#000000" fill="none" stroke-width="2" r="15" cx="1949" cy="481"/>
<circle stroke="#000000" fill="none" stroke-width="2" r="15" cx="1951" cy="483"/>
<path style="stroke:#000000;fill:none;stroke-width:5" d="M1001 862.424C1031.03 858.481 1062.38 863.129 1092 866.816C1255.02 887.111 1393.31 1009.24 1441.63 1165C1460.1 1224.51 1463.56 1287.56 1455.71 1349C1439.26 1477.89 1360.98 1598.83 1249 1664.69C1194.42 1696.79 1130.36 1714.06 1068 1721.71C1017.73 1727.89 963.051 1720.52 915 1705.86C878.546 1694.74 842.871 1682.32 810 1662.42C650.624 1565.96 567.996 1365.04 613.76 1185C645.172 1061.42 736.466 947.915 855 898.198C902.674 878.201 950.266 869.086 1001 862.424"/>
<path style="stroke:#316010;fill:none;stroke-width:4" d="M1001 862.424C1031.03 858.481 1062.38 863.129 1092 866.816C1255.02 887.111 1393.31 1009.24 1441.63 1165C1460.1 1224.51 1463.56 1287.56 1455.71 1349C1439.26 1477.89 1360.98 1598.83 1249 1664.69C1194.42 1696.79 1130.36 1714.06 1068 1721.71C1017.73 1727.89 963.051 1720.52 915 1705.86C878.546 1694.74 842.871 1682.32 810 1662.42C650.624 1565.96 567.996 1365.04 613.76 1185C645.172 1061.42 736.466 947.915 855 898.198C902.674 878.201 950.266 869.086 1001 862.424"/>
<circle stroke="#000000" fill="none" stroke-width="2" r="15" cx="1001" cy="862.424"/>
<circle stroke="#000000" fill="none" stroke-width="2" r="15" cx="1001" cy="862.424"/>
</svg>