<?xml version="1.0" standalone="yes"?>
<svg width="512" height="928">
<path style="stroke:#000000;fill:none;stroke-width:5" d="M"/>
<path style="stroke:#AB5FA7;fill:none;stroke-width:4" d="M"/>
<path style="stroke:#000000;fill:none;stroke-width:5" d="M115 91L115 183L118.996 412L120 558L121 605L122 637"/>
<path style="stroke:#D0002A;fill:none;stroke-width:4" d="M115 91L115 183L118.996 412L120 558L121 605L122 637"/>
<circle stroke="#000000" fill="none" stroke-width="2" r="15" cx="115" cy="91"/>
<circle stroke="#000000" fill="none" stroke-width="2" r="15" cx="122" cy="637"/>
<path style="stroke:#000000;fill:none;stroke-width:5" d="M444 94C444 165.966 446 238.043 446 310C446 325.205 444.588 340.862 446.576 356C447.175 360.565 448.961 371.832 445.397 375.397C442.122 378.671 433.277 377 429 377"/>
<path style="stroke:#D4FB4F;fill:none;stroke-width:4" d="M444 94C444 165.966 446 238.043 446 310C446 325.205 444.588 340.862 446.576 356C447.175 360.565 448.961 371.832 445.397 375.397C442.122 378.671 433.277 377 429 377"/>
<circle stroke="#000000" fill="none" stroke-width="2" r="15" cx="444" cy="94"/>
<circle stroke="#000000" fill="none" stroke-width="2" r="15" cx="429" cy="377"/>
<path style="stroke:#000000;fill:none;stroke-width:5" d="M257 96C257 147.03 256.439 199.059 259.91 250C261.001 266.006 255.692 287.05 262 302"/>
<path style="stroke:#593BFE;fill:none;stroke-width:4" d="M257 96C257 147.03 256.439 199.059 259.91 250C261.001 266.006 255.692 287.05 262 302"/>
<circle stroke="#000000" fill="none" stroke-width="2" r="15" cx="257" cy="96"/>
<circle stroke="#000000" fill="none" stroke-width="2" r="15" cx="262" cy="302"/>
<path style="stroke:#000000;fill:none;stroke-width:5" d="M449 726L447 458L447 399L448.603 378.603L464 376"/>
<path style="stroke:#93CF9A;fill:none;stroke-width:4" d="M449 726L447 458L447 399L448.603 378.603L464 376"/>
<circle stroke="#000000" fill="none" stroke-width="2" r="15" cx="449" cy="726"/>
<circle stroke="#000000" fill="none" stroke-width="2" r="15" cx="464" cy="376"/>
<path style="stroke:#000000;fill:none;stroke-width:5" d="M102 452L132 452"/>
<path style="stroke:#A1BEEB;fill:none;stroke-width:4" d="M102 452L132 452"/>
<circle stroke="#000000" fill="none" stroke-width="2" r="15" cx="102" cy="452"/>
<circle stroke="#000000" fill="none" stroke-width="2" r="15" cx="132" cy="452"/>
<path style="stroke:#000000;fill:none;stroke-width:5" d="M264 648L266 841"/>
<path style="stroke:#260995;fill:none;stroke-width:4" d="M264 648L266 841"/>
<circle stroke="#000000" fill="none" stroke-width="2" r="15" cx="264" cy="648"/>
<circle stroke="#000000" fill="none" stroke-width="2" r="15" cx="266" cy="841"/>
</svg>