<?xml version="1.0" standalone="yes"?>
<svg width="352" height="672">
<path style="stroke:#000000;fill:none;stroke-width:5" d="M"/>
<path style="stroke:#89903A;fill:none;stroke-width:4" d="M"/>
<path style="stroke:#000000;fill:none;stroke-width:5" d="M141 97L148 567"/>
<path style="stroke:#A60900;fill:none;stroke-width:4" d="M141 97L148 567"/>
<circle stroke="#000000" fill="none" stroke-width="2" r="15" cx="141" cy="97"/>
<circle stroke="#000000" fill="none" stroke-width="2" r="15" cx="148" cy="567"/>
<path style="stroke:#000000;fill:none;stroke-width:5" d="M282 229L285.985 455L286 527L287 562"/>
<path style="stroke:#07E931;fill:none;stroke-width:4" d="M282 229L285.985 455L286 527L287 562"/>
<circle stroke="#000000" fill="none" stroke-width="2" r="15" cx="282" cy="229"/>
<circle stroke="#000000" fill="none" stroke-width="2" r="15" cx="287" cy="562"/>
<path style="stroke:#000000;fill:none;stroke-width:5" d="M145 362L146 363"/>
<path style="stroke:#243227;fill:none;stroke-width:4" d="M145 362L146 363"/>
<circle stroke="#000000" fill="none" stroke-width="2" r="15" cx="145" cy="362"/>
<circle stroke="#000000" fill="none" stroke-width="2" r="15" cx="146" cy="363"/>
<path style="stroke:#000000;fill:none;stroke-width:5" d="M146 363L156 363"/>
<path style="stroke:#E38344;fill:none;stroke-width:4" d="M146 363L156 363"/>
<circle stroke="#000000" fill="none" stroke-width="2" r="15" cx="146" cy="363"/>
<circle stroke="#000000" fill="none" stroke-width="2" r="15" cx="156" cy="363"/>
<path style="stroke:#000000;fill:none;stroke-width:5" d="M134 363L144 363"/>
<path style="stroke:#B50CA5;fill:none;stroke-width:4" d="M134 363L144 363"/>
<circle stroke="#000000" fill="none" stroke-width="2" r="15" cx="134" cy="363"/>
<circle stroke="#000000" fill="none" stroke-width="2" r="15" cx="144" cy="363"/>
<path style="stroke:#000000;fill:none;stroke-width:5" d="M277 427L297 427"/>
<path style="stroke:#73BFEE;fill:none;stroke-width:4" d="M277 427L297 427"/>
<circle stroke="#000000" fill="none" stroke-width="2" r="15" cx="277" cy="427"/>
<circle stroke="#000000" fill="none" stroke-width="2" r="15" cx="297" cy="427"/>
</svg>