<?xml version="1.0" standalone="yes"?>
<svg width="352" height="856">
<path style="stroke:#000000;fill:none;stroke-width:5" d="M"/>
<path style="stroke:#5263AF;fill:none;stroke-width:4" d="M"/>
<path style="stroke:#000000;fill:none;stroke-width:5" d="M135 107C129.751 135.276 133.164 168.346 133.871 197C135.033 244.065 132 291.768 132 339C132 472.952 127.985 607.05 128 741"/>
<path style="stroke:#BEE1B0;fill:none;stroke-width:4" d="M135 107C129.751 135.276 133.164 168.346 133.871 197C135.033 244.065 132 291.768 132 339C132 472.952 127.985 607.05 128 741"/>
<circle stroke="#000000" fill="none" stroke-width="2" r="15" cx="135" cy="107"/>
<circle stroke="#000000" fill="none" stroke-width="2" r="15" cx="128" cy="741"/>
<path style="stroke:#000000;fill:none;stroke-width:5" d="M265 268L264 321L262.996 411L260 667"/>
<path style="stroke:#A08B53;fill:none;stroke-width:4" d="M265 268L264 321L262.996 411L260 667"/>
<circle stroke="#000000" fill="none" stroke-width="2" r="15" cx="265" cy="268"/>
<circle stroke="#000000" fill="none" stroke-width="2" r="15" cx="260" cy="667"/>
<path style="stroke:#000000;fill:none;stroke-width:5" d="M120 481L147 481"/>
<path style="stroke:#747A97;fill:none;stroke-width:4" d="M120 481L147 481"/>
<circle stroke="#000000" fill="none" stroke-width="2" r="15" cx="120" cy="481"/>
<circle stroke="#000000" fill="none" stroke-width="2" r="15" cx="147" cy="481"/>
<path style="stroke:#000000;fill:none;stroke-width:5" d="M250 484L261 484"/>
<path style="stroke:#D713FB;fill:none;stroke-width:4" d="M250 484L261 484"/>
<circle stroke="#000000" fill="none" stroke-width="2" r="15" cx="250" cy="484"/>
<circle stroke="#000000" fill="none" stroke-width="2" r="15" cx="261" cy="484"/>
<path style="stroke:#000000;fill:none;stroke-width:5" d="M263 486L282 486"/>
<path style="stroke:#48049A;fill:none;stroke-width:4" d="M263 486L282 486"/>
<circle stroke="#000000" fill="none" stroke-width="2" r="15" cx="263" cy="486"/>
<circle stroke="#000000" fill="none" stroke-width="2" r="15" cx="282" cy="486"/>
</svg>