<?xml version="1.0" standalone="yes"?>
<svg width="2208" height="616">
<path style="stroke:#000000;fill:none;stroke-width:5" d="M"/>
<path style="stroke:#7506CE;fill:none;stroke-width:4" d="M"/>
<path style="stroke:#000000;fill:none;stroke-width:5" d="M419 509C427.332 509 444.049 511.841 450.512 505.231C453.958 501.707 451 487.051 451 482L451 415C451 374.641 448.484 334.331 448.004 294C447.728 270.791 450.493 247.115 448.91 224C447.262 199.932 447 176.121 447 152C447 143.402 444.521 130.163 447.894 122.148C449.553 118.206 454.486 119.002 458 119L489 119C526.39 119 563.616 118 601 118C610.033 118 619.034 118.657 628 118.09C630.811 117.913 635.841 117.387 637.397 120.398C640.533 126.464 637.825 134.644 638.104 141C639.026 161.96 638 182.909 638 204C638 275.328 640.343 346.788 639.999 418C639.893 440.105 639.404 462.87 640.911 485C641.422 492.513 638.295 500.058 642 507"/>
<path style="stroke:#4ECA47;fill:none;stroke-width:4" d="M419 509C427.332 509 444.049 511.841 450.512 505.231C453.958 501.707 451 487.051 451 482L451 415C451 374.641 448.484 334.331 448.004 294C447.728 270.791 450.493 247.115 448.91 224C447.262 199.932 447 176.121 447 152C447 143.402 444.521 130.163 447.894 122.148C449.553 118.206 454.486 119.002 458 119L489 119C526.39 119 563.616 118 601 118C610.033 118 619.034 118.657 628 118.09C630.811 117.913 635.841 117.387 637.397 120.398C640.533 126.464 637.825 134.644 638.104 141C639.026 161.96 638 182.909 638 204C638 275.328 640.343 346.788 639.999 418C639.893 440.105 639.404 462.87 640.911 485C641.422 492.513 638.295 500.058 642 507"/>
<circle stroke="#000000" fill="none" stroke-width="2" r="15" cx="419" cy="509"/>
<circle stroke="#000000" fill="none" stroke-width="2" r="15" cx="642" cy="507"/>
<path style="stroke:#000000;fill:none;stroke-width:5" d="M410 509C328.025 509 246.135 511 164 511C142.95 511 122.005 512 101 512C95.2258 512 82.3308 514.414 77.5139 510.972C72.642 507.491 75.0245 494.232 74.9992 489C74.9017 468.776 74.2481 448.18 73.7407 428C72.478 377.775 72.5226 327.418 72.0039 277C71.7614 253.432 74.3655 228.384 71.5718 205C69.2337 185.43 71 164.701 71 145C71 138.64 69.1702 128.054 75.1443 123.742C81.335 119.275 94.7196 122.122 102 121.947C123.842 121.42 146.267 122.877 168 121.961C260.505 118.059 353.571 120 446 120"/>
<path style="stroke:#804672;fill:none;stroke-width:4" d="M410 509C328.025 509 246.135 511 164 511C142.95 511 122.005 512 101 512C95.2258 512 82.3308 514.414 77.5139 510.972C72.642 507.491 75.0245 494.232 74.9992 489C74.9017 468.776 74.2481 448.18 73.7407 428C72.478 377.775 72.5226 327.418 72.0039 277C71.7614 253.432 74.3655 228.384 71.5718 205C69.2337 185.43 71 164.701 71 145C71 138.64 69.1702 128.054 75.1443 123.742C81.335 119.275 94.7196 122.122 102 121.947C123.842 121.42 146.267 122.877 168 121.961C260.505 118.059 353.571 120 446 120"/>
<circle stroke="#000000" fill="none" stroke-width="2" r="15" cx="410" cy="509"/>
<circle stroke="#000000" fill="none" stroke-width="2" r="15" cx="446" cy="120"/>
<path style="stroke:#000000;fill:none;stroke-width:5" d="M2108 224C2104.8 228.125 2106.94 233.065 2107 238C2107.13 249.282 2107.45 260.728 2106.96 272C2105.91 296.114 2108 320.639 2108 345C2108 368.424 2105.96 393.871 2109.21 417C2111.61 434.112 2110.22 452.768 2109.59 470C2109.41 475.119 2112.29 484.454 2107.68 488.258C2103.29 491.883 2093.2 490.108 2088 489.424C2076.87 487.963 2064.29 488.738 2053 489.015C2002 490.264 1951.14 491 1900 491C1730.6 491 1561.31 497 1392 497C1345.82 497 1300.01 497.571 1254 497.571C1242.36 497.571 1230.67 498 1219 498C1215.45 498 1208.54 499.535 1205.43 497.802C1201.43 495.572 1203.02 486.771 1203 483C1202.93 468.732 1201.54 454.221 1202.83 440C1204.25 424.282 1202.19 407.822 1202 392C1201.58 356.314 1201 320.606 1201 285C1201 272.954 1203.44 259.842 1202.45 248C1202.1 243.906 1198.81 237.033 1203.32 234.028C1207.57 231.193 1217.07 233 1222 233C1237.89 233 1254.15 233.996 1270 232.91C1338.48 228.221 1408.17 231 1477 231C1564.95 231 1652.82 229 1741 229C1823.3 229 1905.65 227.976 1988 226.996C2014.94 226.676 2041.98 226 2069 226C2080.55 226 2093.74 223.941 2105 226"/>
<path style="stroke:#4AAB92;fill:none;stroke-width:4" d="M2108 224C2104.8 228.125 2106.94 233.065 2107 238C2107.13 249.282 2107.45 260.728 2106.96 272C2105.91 296.114 2108 320.639 2108 345C2108 368.424 2105.96 393.871 2109.21 417C2111.61 434.112 2110.22 452.768 2109.59 470C2109.41 475.119 2112.29 484.454 2107.68 488.258C2103.29 491.883 2093.2 490.108 2088 489.424C2076.87 487.963 2064.29 488.738 2053 489.015C2002 490.264 1951.14 491 1900 491C1730.6 491 1561.31 497 1392 497C1345.82 497 1300.01 497.571 1254 497.571C1242.36 497.571 1230.67 498 1219 498C1215.45 498 1208.54 499.535 1205.43 497.802C1201.43 495.572 1203.02 486.771 1203 483C1202.93 468.732 1201.54 454.221 1202.83 440C1204.25 424.282 1202.19 407.822 1202 392C1201.58 356.314 1201 320.606 1201 285C1201 272.954 1203.44 259.842 1202.45 248C1202.1 243.906 1198.81 237.033 1203.32 234.028C1207.57 231.193 1217.07 233 1222 233C1237.89 233 1254.15 233.996 1270 232.91C1338.48 228.221 1408.17 231 1477 231C1564.95 231 1652.82 229 1741 229C1823.3 229 1905.65 227.976 1988 226.996C2014.94 226.676 2041.98 226 2069 226C2080.55 226 2093.74 223.941 2105 226"/>
<circle stroke="#000000" fill="none" stroke-width="2" r="15" cx="2108" cy="224"/>
<circle stroke="#000000" fill="none" stroke-width="2" r="15" cx="2105" cy="226"/>
<path style="stroke:#000000;fill:none;stroke-width:5" d="M1205 422C1368.76 423.356 1533.17 421.028 1697 417.015C1725.98 416.305 1755.14 418.552 1784 417.985C1857.99 416.529 1931.98 415.598 2006 414.988C2039.67 414.711 2074.38 409.751 2108 414"/>
<path style="stroke:#A4CC24;fill:none;stroke-width:4" d="M1205 422C1368.76 423.356 1533.17 421.028 1697 417.015C1725.98 416.305 1755.14 418.552 1784 417.985C1857.99 416.529 1931.98 415.598 2006 414.988C2039.67 414.711 2074.38 409.751 2108 414"/>
<circle stroke="#000000" fill="none" stroke-width="2" r="15" cx="1205" cy="422"/>
<circle stroke="#000000" fill="none" stroke-width="2" r="15" cx="2108" cy="414"/>
<path style="stroke:#000000;fill:none;stroke-width:5" d="M640 505C629.827 512.318 610.077 507.231 598 507.914C564.219 509.826 529.799 508 496 508C482.827 508 464.724 512.124 453 505"/>
<path style="stroke:#7B1D38;fill:none;stroke-width:4" d="M640 505C629.827 512.318 610.077 507.231 598 507.914C564.219 509.826 529.799 508 496 508C482.827 508 464.724 512.124 453 505"/>
<circle stroke="#000000" fill="none" stroke-width="2" r="15" cx="640" cy="505"/>
<circle stroke="#000000" fill="none" stroke-width="2" r="15" cx="453" cy="505"/>
</svg>