<?xml version="1.0" standalone="yes"?>
<svg width="808" height="888">
<path style="stroke:#000000;fill:none;stroke-width:5" d="M"/>
<path style="stroke:#6C824A;fill:none;stroke-width:4" d="M"/>
<path style="stroke:#000000;fill:none;stroke-width:5" d="M535 503C517.368 503 501.441 510.561 484 514.338C447.635 522.213 411.253 530.102 375 538.452C361.295 541.609 347.74 544.824 334 547.715C330.311 548.492 322.733 552.196 319.317 550.048C314.826 547.224 313.583 532.993 311.972 528C305.257 507.187 297.974 487.568 291.407 467C271.583 404.916 252.71 342.064 230.125 281C224.787 266.567 220.652 251.646 215.951 237C214.469 232.385 215.81 224.676 211.682 221.403C206.586 217.362 191.573 220 185 220C167.631 220 150.391 219 133 219C125.278 219 116.434 217.802 109 220C107.102 210.861 116.994 200.819 122.196 194C134.812 177.461 147.384 160.382 158.786 143C163.407 135.956 171.476 121.178 179.299 117.603C184.026 115.442 190.069 118.628 195 118.276C213.724 116.941 232.02 116.77 251 116.996C311.083 117.711 370.971 118.996 431 119C449.716 119.001 468.277 120 487 120C493.922 120 504.657 118.105 510.791 121.988C516.798 125.791 518.782 135.685 520.806 142C526.044 158.351 531.48 174.515 536.298 191C552.212 245.455 573.581 298.849 591.085 353C595.916 367.945 600.128 383.045 604.962 398C606.866 403.891 611.125 410.535 609.578 416.961C607.648 424.976 600.485 430.922 595.514 436.985C582.527 452.826 567.586 467.763 553.83 483C548.904 488.456 536.099 496.106 535 503"/>
<path style="stroke:#BE89E9;fill:none;stroke-width:4" d="M535 503C517.368 503 501.441 510.561 484 514.338C447.635 522.213 411.253 530.102 375 538.452C361.295 541.609 347.74 544.824 334 547.715C330.311 548.492 322.733 552.196 319.317 550.048C314.826 547.224 313.583 532.993 311.972 528C305.257 507.187 297.974 487.568 291.407 467C271.583 404.916 252.71 342.064 230.125 281C224.787 266.567 220.652 251.646 215.951 237C214.469 232.385 215.81 224.676 211.682 221.403C206.586 217.362 191.573 220 185 220C167.631 220 150.391 219 133 219C125.278 219 116.434 217.802 109 220C107.102 210.861 116.994 200.819 122.196 194C134.812 177.461 147.384 160.382 158.786 143C163.407 135.956 171.476 121.178 179.299 117.603C184.026 115.442 190.069 118.628 195 118.276C213.724 116.941 232.02 116.77 251 116.996C311.083 117.711 370.971 118.996 431 119C449.716 119.001 468.277 120 487 120C493.922 120 504.657 118.105 510.791 121.988C516.798 125.791 518.782 135.685 520.806 142C526.044 158.351 531.48 174.515 536.298 191C552.212 245.455 573.581 298.849 591.085 353C595.916 367.945 600.128 383.045 604.962 398C606.866 403.891 611.125 410.535 609.578 416.961C607.648 424.976 600.485 430.922 595.514 436.985C582.527 452.826 567.586 467.763 553.83 483C548.904 488.456 536.099 496.106 535 503"/>
<circle stroke="#000000" fill="none" stroke-width="2" r="15" cx="535" cy="503"/>
<circle stroke="#000000" fill="none" stroke-width="2" r="15" cx="535" cy="503"/>
<path style="stroke:#000000;fill:none;stroke-width:5" d="M198 120C201.81 127.258 209.865 128.265 217 131.204C232.617 137.635 248.314 143.788 264 150.025C298.943 163.917 333.254 181.041 369 192.961C384 197.962 398.188 204.72 413 210.279C422.59 213.879 435.851 218.132 443.697 224.603C448.384 228.468 449.714 238.51 451.796 244C458.603 261.958 464.314 280.579 469.63 299C479.159 332.02 492.161 364.203 502.378 397C509.383 419.486 516.623 441.69 524.09 464C527.751 474.939 529.507 487.876 535 498"/>
<path style="stroke:#5FCD79;fill:none;stroke-width:4" d="M198 120C201.81 127.258 209.865 128.265 217 131.204C232.617 137.635 248.314 143.788 264 150.025C298.943 163.917 333.254 181.041 369 192.961C384 197.962 398.188 204.72 413 210.279C422.59 213.879 435.851 218.132 443.697 224.603C448.384 228.468 449.714 238.51 451.796 244C458.603 261.958 464.314 280.579 469.63 299C479.159 332.02 492.161 364.203 502.378 397C509.383 419.486 516.623 441.69 524.09 464C527.751 474.939 529.507 487.876 535 498"/>
<circle stroke="#000000" fill="none" stroke-width="2" r="15" cx="198" cy="120"/>
<circle stroke="#000000" fill="none" stroke-width="2" r="15" cx="535" cy="498"/>
<path style="stroke:#000000;fill:none;stroke-width:5" d="M177 122C183.356 130.784 184.936 142.766 188.282 153C194.98 173.481 207.069 196.319 208 218"/>
<path style="stroke:#BD2FA8;fill:none;stroke-width:4" d="M177 122C183.356 130.784 184.936 142.766 188.282 153C194.98 173.481 207.069 196.319 208 218"/>
<circle stroke="#000000" fill="none" stroke-width="2" r="15" cx="177" cy="122"/>
<circle stroke="#000000" fill="none" stroke-width="2" r="15" cx="208" cy="218"/>
<path style="stroke:#000000;fill:none;stroke-width:5" d="M514 126C485.698 154.38 472.37 195.552 444 224"/>
<path style="stroke:#0FF1B5;fill:none;stroke-width:4" d="M514 126C485.698 154.38 472.37 195.552 444 224"/>
<circle stroke="#000000" fill="none" stroke-width="2" r="15" cx="514" cy="126"/>
<circle stroke="#000000" fill="none" stroke-width="2" r="15" cx="444" cy="224"/>
<path style="stroke:#000000;fill:none;stroke-width:5" d="M430 218C430.349 222.479 431.725 224.025 436 222"/>
<path style="stroke:#FB03C0;fill:none;stroke-width:4" d="M430 218C430.349 222.479 431.725 224.025 436 222"/>
<circle stroke="#000000" fill="none" stroke-width="2" r="15" cx="430" cy="218"/>
<circle stroke="#000000" fill="none" stroke-width="2" r="15" cx="436" cy="222"/>
<path style="stroke:#000000;fill:none;stroke-width:5" d="M109 221L140 322"/>
<path style="stroke:#49BC51;fill:none;stroke-width:4" d="M109 221L140 322"/>
<circle stroke="#000000" fill="none" stroke-width="2" r="15" cx="109" cy="221"/>
<circle stroke="#000000" fill="none" stroke-width="2" r="15" cx="140" cy="322"/>
<path style="stroke:#000000;fill:none;stroke-width:5" d="M215 221L429 224"/>
<path style="stroke:#28A244;fill:none;stroke-width:4" d="M215 221L429 224"/>
<circle stroke="#000000" fill="none" stroke-width="2" r="15" cx="215" cy="221"/>
<circle stroke="#000000" fill="none" stroke-width="2" r="15" cx="429" cy="224"/>
<path style="stroke:#000000;fill:none;stroke-width:5" d="M143 332C154.789 352.942 159.469 381.153 167.089 404C178.318 437.668 194.469 472.123 201.08 507C204.041 522.617 212.011 537.963 217.163 553C218.648 557.336 220.096 566.29 225.819 567.079C229.559 567.594 239.013 551.432 242 548.424C261.323 528.972 277.917 506.776 297 487"/>
<path style="stroke:#973B3F;fill:none;stroke-width:4" d="M143 332C154.789 352.942 159.469 381.153 167.089 404C178.318 437.668 194.469 472.123 201.08 507C204.041 522.617 212.011 537.963 217.163 553C218.648 557.336 220.096 566.29 225.819 567.079C229.559 567.594 239.013 551.432 242 548.424C261.323 528.972 277.917 506.776 297 487"/>
<circle stroke="#000000" fill="none" stroke-width="2" r="15" cx="143" cy="332"/>
<circle stroke="#000000" fill="none" stroke-width="2" r="15" cx="297" cy="487"/>
<path style="stroke:#000000;fill:none;stroke-width:5" d="M516 440C527.822 432.66 544.547 430.914 558 428.536C574.198 425.673 589.356 420.002 606 420"/>
<path style="stroke:#F0732D;fill:none;stroke-width:4" d="M516 440C527.822 432.66 544.547 430.914 558 428.536C574.198 425.673 589.356 420.002 606 420"/>
<circle stroke="#000000" fill="none" stroke-width="2" r="15" cx="516" cy="440"/>
<circle stroke="#000000" fill="none" stroke-width="2" r="15" cx="606" cy="420"/>
<path style="stroke:#000000;fill:none;stroke-width:5" d="M609 421C623.607 436.085 627.802 465.405 634.333 485C650.559 533.677 667.134 582.215 682.885 631C687.612 645.641 692.097 660.368 696.886 675C699.404 682.693 703.77 691.772 702.675 700C701.371 709.8 693.316 717.357 687.718 725C675.492 741.694 663.778 759.476 650.089 775C643.761 782.177 640.38 791.436 630 793C629.997 769.968 616.723 744.709 609.4 723C607.444 717.203 606.096 703.424 601.566 699.502C598.346 696.715 592.816 699.706 589 699.485C576.341 698.752 563.68 699.296 551 698.985C511.39 698.015 471.736 697 432 697C418.014 697 396.468 692.243 384 699C388.034 705.753 395.876 707.571 403 709.885C416.135 714.152 429.068 719.105 442 723.911C487.946 740.987 533.461 760.003 580 775.515C596.172 780.906 612.359 793.998 629 794"/>
<path style="stroke:#101560;fill:none;stroke-width:4" d="M609 421C623.607 436.085 627.802 465.405 634.333 485C650.559 533.677 667.134 582.215 682.885 631C687.612 645.641 692.097 660.368 696.886 675C699.404 682.693 703.77 691.772 702.675 700C701.371 709.8 693.316 717.357 687.718 725C675.492 741.694 663.778 759.476 650.089 775C643.761 782.177 640.38 791.436 630 793C629.997 769.968 616.723 744.709 609.4 723C607.444 717.203 606.096 703.424 601.566 699.502C598.346 696.715 592.816 699.706 589 699.485C576.341 698.752 563.68 699.296 551 698.985C511.39 698.015 471.736 697 432 697C418.014 697 396.468 692.243 384 699C388.034 705.753 395.876 707.571 403 709.885C416.135 714.152 429.068 719.105 442 723.911C487.946 740.987 533.461 760.003 580 775.515C596.172 780.906 612.359 793.998 629 794"/>
<circle stroke="#000000" fill="none" stroke-width="2" r="15" cx="609" cy="421"/>
<circle stroke="#000000" fill="none" stroke-width="2" r="15" cx="629" cy="794"/>
<path style="stroke:#000000;fill:none;stroke-width:5" d="M514 438C501.612 444.613 483.729 445.103 470 448.475C434.564 457.176 398.77 465.189 363 472.4C351.283 474.762 339.67 477.632 328 480.216C325.52 480.765 316.709 482.53 318.921 486.705C320.897 490.434 328.507 489.982 332 489.999C344.857 490.061 357.252 491.995 370 492C405.319 492.014 441.774 494.478 477 497.83C489.576 499.027 507.236 495.258 518 503"/>
<path style="stroke:#C20B89;fill:none;stroke-width:4" d="M514 438C501.612 444.613 483.729 445.103 470 448.475C434.564 457.176 398.77 465.189 363 472.4C351.283 474.762 339.67 477.632 328 480.216C325.52 480.765 316.709 482.53 318.921 486.705C320.897 490.434 328.507 489.982 332 489.999C344.857 490.061 357.252 491.995 370 492C405.319 492.014 441.774 494.478 477 497.83C489.576 499.027 507.236 495.258 518 503"/>
<circle stroke="#000000" fill="none" stroke-width="2" r="15" cx="514" cy="438"/>
<circle stroke="#000000" fill="none" stroke-width="2" r="15" cx="518" cy="503"/>
<path style="stroke:#000000;fill:none;stroke-width:5" d="M301 489L316 487"/>
<path style="stroke:#215ED0;fill:none;stroke-width:4" d="M301 489L316 487"/>
<circle stroke="#000000" fill="none" stroke-width="2" r="15" cx="301" cy="489"/>
<circle stroke="#000000" fill="none" stroke-width="2" r="15" cx="316" cy="487"/>
<path style="stroke:#000000;fill:none;stroke-width:5" d="M536 504C549.943 538.17 560.197 574.079 571.948 609C581.583 637.635 594.384 667.3 600 697"/>
<path style="stroke:#76F467;fill:none;stroke-width:4" d="M536 504C549.943 538.17 560.197 574.079 571.948 609C581.583 637.635 594.384 667.3 600 697"/>
<circle stroke="#000000" fill="none" stroke-width="2" r="15" cx="536" cy="504"/>
<circle stroke="#000000" fill="none" stroke-width="2" r="15" cx="600" cy="697"/>
<path style="stroke:#000000;fill:none;stroke-width:5" d="M317 550C299.794 560.683 273.419 561.119 254 566.155C246.19 568.18 235.517 571.991 228 568"/>
<path style="stroke:#53411D;fill:none;stroke-width:4" d="M317 550C299.794 560.683 273.419 561.119 254 566.155C246.19 568.18 235.517 571.991 228 568"/>
<circle stroke="#000000" fill="none" stroke-width="2" r="15" cx="317" cy="550"/>
<circle stroke="#000000" fill="none" stroke-width="2" r="15" cx="228" cy="568"/>
<path style="stroke:#000000;fill:none;stroke-width:5" d="M321 552C325.16 584.745 341.385 617.616 351.407 649L362.329 683C363.547 686.79 363.639 692.447 365.988 695.682C368.846 699.617 379.455 698.426 384 699"/>
<path style="stroke:#96BD05;fill:none;stroke-width:4" d="M321 552C325.16 584.745 341.385 617.616 351.407 649L362.329 683C363.547 686.79 363.639 692.447 365.988 695.682C368.846 699.617 379.455 698.426 384 699"/>
<circle stroke="#000000" fill="none" stroke-width="2" r="15" cx="321" cy="552"/>
<circle stroke="#000000" fill="none" stroke-width="2" r="15" cx="384" cy="699"/>
<path style="stroke:#000000;fill:none;stroke-width:5" d="M225 568C225.399 587.335 234.3 606.948 240.406 625C253.016 662.283 265.475 699.565 277.718 737C281.865 749.682 286.458 762.307 290.434 775C291.798 779.357 293.598 787.561 299.899 786.573C305.093 785.759 311.019 770.351 314.6 766.17C333.262 744.38 345.58 717.42 366 697"/>
<path style="stroke:#130F92;fill:none;stroke-width:4" d="M225 568C225.399 587.335 234.3 606.948 240.406 625C253.016 662.283 265.475 699.565 277.718 737C281.865 749.682 286.458 762.307 290.434 775C291.798 779.357 293.598 787.561 299.899 786.573C305.093 785.759 311.019 770.351 314.6 766.17C333.262 744.38 345.58 717.42 366 697"/>
<circle stroke="#000000" fill="none" stroke-width="2" r="15" cx="225" cy="568"/>
<circle stroke="#000000" fill="none" stroke-width="2" r="15" cx="366" cy="697"/>
<path style="stroke:#000000;fill:none;stroke-width:5" d="M604 702C612.866 697.269 628.216 699.661 638 700.252C659.256 701.534 680.677 701 702 701"/>
<path style="stroke:#DB96E0;fill:none;stroke-width:4" d="M604 702C612.866 697.269 628.216 699.661 638 700.252C659.256 701.534 680.677 701 702 701"/>
<circle stroke="#000000" fill="none" stroke-width="2" r="15" cx="604" cy="702"/>
<circle stroke="#000000" fill="none" stroke-width="2" r="15" cx="702" cy="701"/>
<path style="stroke:#000000;fill:none;stroke-width:5" d="M302 787C308.493 791.67 317.326 789.913 325 790.004C339.964 790.182 354.967 791 370 791C426.11 791 483.91 790.248 540 794.09C556.969 795.252 573.963 795 591 795C598.632 795 607.559 796.633 614 792"/>
<path style="stroke:#0CE2F2;fill:none;stroke-width:4" d="M302 787C308.493 791.67 317.326 789.913 325 790.004C339.964 790.182 354.967 791 370 791C426.11 791 483.91 790.248 540 794.09C556.969 795.252 573.963 795 591 795C598.632 795 607.559 796.633 614 792"/>
<circle stroke="#000000" fill="none" stroke-width="2" r="15" cx="302" cy="787"/>
<circle stroke="#000000" fill="none" stroke-width="2" r="15" cx="614" cy="792"/>
</svg>