<?xml version="1.0" standalone="yes"?>
<svg width="1182" height="810">
<path style="stroke:#000000;fill:none;stroke-width:5" d="M"/>
<path style="stroke:#99687D;fill:none;stroke-width:4" d="M"/>
<path style="stroke:#000000;fill:none;stroke-width:5" d="M139 157L188 156.896L224 156L392 156L880 154"/>
<path style="stroke:#2EA931;fill:none;stroke-width:4" d="M139 157L188 156.896L224 156L392 156L880 154"/>
<circle stroke="#000000" fill="none" stroke-width="2" r="15" cx="139" cy="157"/>
<circle stroke="#000000" fill="none" stroke-width="2" r="15" cx="880" cy="154"/>
<path style="stroke:#000000;fill:none;stroke-width:5" d="M289 267L290 289"/>
<path style="stroke:#20693B;fill:none;stroke-width:4" d="M289 267L290 289"/>
<circle stroke="#000000" fill="none" stroke-width="2" r="15" cx="289" cy="267"/>
<circle stroke="#000000" fill="none" stroke-width="2" r="15" cx="290" cy="289"/>
<path style="stroke:#000000;fill:none;stroke-width:5" d="M102 279C224.924 279 348.246 276.029 471 276.029C555.733 276.029 641.149 276.927 726 274.985C805.917 273.156 885.997 273 966 273C1004.36 273 1044.83 268.925 1083 273"/>
<path style="stroke:#5BDD07;fill:none;stroke-width:4" d="M102 279C224.924 279 348.246 276.029 471 276.029C555.733 276.029 641.149 276.927 726 274.985C805.917 273.156 885.997 273 966 273C1004.36 273 1044.83 268.925 1083 273"/>
<circle stroke="#000000" fill="none" stroke-width="2" r="15" cx="102" cy="279"/>
<circle stroke="#000000" fill="none" stroke-width="2" r="15" cx="1083" cy="273"/>
<path style="stroke:#000000;fill:none;stroke-width:5" d="M286 440C322.678 441.575 359.338 440.059 396 440C443.626 439.924 491.472 441.071 539 439.255C649.035 435.053 759.685 438 870 438"/>
<path style="stroke:#D61CB6;fill:none;stroke-width:4" d="M286 440C322.678 441.575 359.338 440.059 396 440C443.626 439.924 491.472 441.071 539 439.255C649.035 435.053 759.685 438 870 438"/>
<circle stroke="#000000" fill="none" stroke-width="2" r="15" cx="286" cy="440"/>
<circle stroke="#000000" fill="none" stroke-width="2" r="15" cx="870" cy="438"/>
<path style="stroke:#000000;fill:none;stroke-width:5" d="M474 571C482.542 575.559 496.45 573 506 573L579 573C669.207 573 758.957 571 849 571"/>
<path style="stroke:#EA9D5C;fill:none;stroke-width:4" d="M474 571C482.542 575.559 496.45 573 506 573L579 573C669.207 573 758.957 571 849 571"/>
<circle stroke="#000000" fill="none" stroke-width="2" r="15" cx="474" cy="571"/>
<circle stroke="#000000" fill="none" stroke-width="2" r="15" cx="849" cy="571"/>
<path style="stroke:#000000;fill:none;stroke-width:5" d="M582 698C581.965 688.118 597.296 690.038 605 690.001C630.775 689.876 656.373 690.301 682 689.996C791.204 688.697 899.83 689 1009 689"/>
<path style="stroke:#22317E;fill:none;stroke-width:4" d="M582 698C581.965 688.118 597.296 690.038 605 690.001C630.775 689.876 656.373 690.301 682 689.996C791.204 688.697 899.83 689 1009 689"/>
<circle stroke="#000000" fill="none" stroke-width="2" r="15" cx="582" cy="698"/>
<circle stroke="#000000" fill="none" stroke-width="2" r="15" cx="1009" cy="689"/>
<path style="stroke:#000000;fill:none;stroke-width:5" d="M356 690C403.991 690.005 452.648 691 501 691C526.463 691 555.04 687.35 580 692"/>
<path style="stroke:#F90395;fill:none;stroke-width:4" d="M356 690C403.991 690.005 452.648 691 501 691C526.463 691 555.04 687.35 580 692"/>
<circle stroke="#000000" fill="none" stroke-width="2" r="15" cx="356" cy="690"/>
<circle stroke="#000000" fill="none" stroke-width="2" r="15" cx="580" cy="692"/>
</svg>