<?xml version="1.0" standalone="yes"?>
<svg width="876" height="204">
<path style="stroke:#000000;fill:none;stroke-width:5" d="M"/>
<path style="stroke:#D16F60;fill:none;stroke-width:4" d="M"/>
<path style="stroke:#000000;fill:none;stroke-width:5" d="M687 80L796 78"/>
<path style="stroke:#167072;fill:none;stroke-width:4" d="M687 80L796 78"/>
<circle stroke="#000000" fill="none" stroke-width="2" r="15" cx="687" cy="80"/>
<circle stroke="#000000" fill="none" stroke-width="2" r="15" cx="796" cy="78"/>
<path style="stroke:#000000;fill:none;stroke-width:5" d="M82 78L303 80"/>
<path style="stroke:#0984C3;fill:none;stroke-width:4" d="M82 78L303 80"/>
<circle stroke="#000000" fill="none" stroke-width="2" r="15" cx="82" cy="78"/>
<circle stroke="#000000" fill="none" stroke-width="2" r="15" cx="303" cy="80"/>
<path style="stroke:#000000;fill:none;stroke-width:5" d="M329 81C425.783 76.8445 523.204 81 620 81"/>
<path style="stroke:#A0C9CE;fill:none;stroke-width:4" d="M329 81C425.783 76.8445 523.204 81 620 81"/>
<circle stroke="#000000" fill="none" stroke-width="2" r="15" cx="329" cy="81"/>
<circle stroke="#000000" fill="none" stroke-width="2" r="15" cx="620" cy="81"/>
<path style="stroke:#000000;fill:none;stroke-width:5" d="M631 80L657 80"/>
<path style="stroke:#5EB203;fill:none;stroke-width:4" d="M631 80L657 80"/>
<circle stroke="#000000" fill="none" stroke-width="2" r="15" cx="631" cy="80"/>
<circle stroke="#000000" fill="none" stroke-width="2" r="15" cx="657" cy="80"/>
</svg>