<?xml version="1.0" standalone="yes"?>
<svg width="1232" height="976">
<path style="stroke:#000000;fill:none;stroke-width:5" d="M"/>
<path style="stroke:#5E0118;fill:none;stroke-width:4" d="M"/>
<path style="stroke:#000000;fill:none;stroke-width:5" d="M879 764C876.871 752.534 879.471 740.657 878.961 729C877.331 691.772 879 654.397 879 617C879 509.043 880.625 400.777 877.985 293C876.908 249.016 876 205.028 876 161C876 149.699 876.455 138.29 875.961 127C875.728 121.694 873.576 115.27 875.893 110.148C878.104 105.261 886.652 107 891 107C905.709 107 920.276 106 935 106L1047 106C1065.14 106 1084.08 104.147 1102 105.946C1113.73 107.123 1126.2 105.341 1138 105.05C1142.32 104.943 1149.3 103.863 1151.97 108.228C1156.71 115.97 1152.12 132.084 1153.18 141C1157.36 175.867 1155 211.884 1155 247C1155 368.669 1156 490.264 1156 612L1156 722C1156 730.995 1155.84 740.008 1156.08 749C1156.17 752.335 1156.98 757.777 1154.4 760.4C1151.09 763.768 1143.29 762.998 1139 763L1100 763C1047.53 763 995.479 764.151 943 764.151C927.224 764.151 909.5 762.616 894 764.576C889.48 765.148 880.175 763.032 879.148 769.059C877.468 778.919 880 790.007 880 800L880 875C880 883.383 880.956 891.665 880.999 900C881.018 903.55 880.316 908.684 882.858 911.593C886.911 916.229 904.07 911.75 910 912.086C940.216 913.795 970.826 910.275 1001 911.015C1039.04 911.947 1076.94 910.996 1115 910.064C1123.19 909.863 1131.87 909.357 1140 910.424C1144.02 910.952 1151.06 912.386 1154.68 909.972C1160.73 905.94 1156.53 883.81 1157.42 877C1160.57 853.049 1158.09 827.03 1157.04 803C1156.46 789.666 1158.82 774.933 1155 762"/>
<path style="stroke:#AD59B5;fill:none;stroke-width:4" d="M879 764C876.871 752.534 879.471 740.657 878.961 729C877.331 691.772 879 654.397 879 617C879 509.043 880.625 400.777 877.985 293C876.908 249.016 876 205.028 876 161C876 149.699 876.455 138.29 875.961 127C875.728 121.694 873.576 115.27 875.893 110.148C878.104 105.261 886.652 107 891 107C905.709 107 920.276 106 935 106L1047 106C1065.14 106 1084.08 104.147 1102 105.946C1113.73 107.123 1126.2 105.341 1138 105.05C1142.32 104.943 1149.3 103.863 1151.97 108.228C1156.71 115.97 1152.12 132.084 1153.18 141C1157.36 175.867 1155 211.884 1155 247C1155 368.669 1156 490.264 1156 612L1156 722C1156 730.995 1155.84 740.008 1156.08 749C1156.17 752.335 1156.98 757.777 1154.4 760.4C1151.09 763.768 1143.29 762.998 1139 763L1100 763C1047.53 763 995.479 764.151 943 764.151C927.224 764.151 909.5 762.616 894 764.576C889.48 765.148 880.175 763.032 879.148 769.059C877.468 778.919 880 790.007 880 800L880 875C880 883.383 880.956 891.665 880.999 900C881.018 903.55 880.316 908.684 882.858 911.593C886.911 916.229 904.07 911.75 910 912.086C940.216 913.795 970.826 910.275 1001 911.015C1039.04 911.947 1076.94 910.996 1115 910.064C1123.19 909.863 1131.87 909.357 1140 910.424C1144.02 910.952 1151.06 912.386 1154.68 909.972C1160.73 905.94 1156.53 883.81 1157.42 877C1160.57 853.049 1158.09 827.03 1157.04 803C1156.46 789.666 1158.82 774.933 1155 762"/>
<circle stroke="#000000" fill="none" stroke-width="2" r="15" cx="879" cy="764"/>
<circle stroke="#000000" fill="none" stroke-width="2" r="15" cx="1155" cy="762"/>
<path style="stroke:#000000;fill:none;stroke-width:5" d="M424 112C430.928 107.756 438.276 109.565 446 108.83C468.481 106.691 492.439 108.973 515 109.961C541.746 111.132 569.39 110.367 596 109.406C602.994 109.153 621.726 105.548 627.397 110.028C632.277 113.884 629.668 127.76 629.17 133C627.34 152.228 631 172.609 631 192L631 364C631 388.641 628.584 414.556 630.237 439C633.74 490.789 633 543.005 633 595L633 633C633 636.692 634.28 643.42 630.682 645.821C625.595 649.216 613.927 647 608 647C588.585 647 568.324 645.331 549 647.17C520.889 649.845 492.005 644.981 464 648.285C456.303 649.194 434.641 652.409 428.488 647.062C423.913 643.086 427.313 626.457 427.83 621C429.726 600.995 428.744 576.108 426.83 556C423.52 521.216 426 485.024 426 450L426 254C426.002 217.611 424 181.355 424 145C424 137.614 427.869 113.211 419.941 109.893C412.873 106.936 403.383 109.988 396 110C377.249 110.03 358.647 109.174 340 109.961C283.665 112.337 226.553 109.324 170 109.996C150.673 110.226 131.329 110 112 110C107.517 110 95.9988 107.303 92.7423 110.604C89.3934 113.999 91 122.644 91 127C91 141.471 92.1996 156.61 90.8302 171C89.8058 181.765 91.3181 192.215 90.9568 203C89.118 257.888 90 313.022 90 368C90 386.074 89.789 403.942 90.0039 422C90.0508 425.945 89.4102 438.443 92.6034 440.972C95.0492 442.909 100.093 442.005 103 442C112.355 441.985 121.695 441.727 131 441.089C161.846 438.977 194.085 440.257 225 441.015C323.73 443.433 422.48 435.572 521 437.985C545.967 438.597 571.025 438 596 438C605.787 438 618.76 435.275 628 438"/>
<path style="stroke:#42D5AA;fill:none;stroke-width:4" d="M424 112C430.928 107.756 438.276 109.565 446 108.83C468.481 106.691 492.439 108.973 515 109.961C541.746 111.132 569.39 110.367 596 109.406C602.994 109.153 621.726 105.548 627.397 110.028C632.277 113.884 629.668 127.76 629.17 133C627.34 152.228 631 172.609 631 192L631 364C631 388.641 628.584 414.556 630.237 439C633.74 490.789 633 543.005 633 595L633 633C633 636.692 634.28 643.42 630.682 645.821C625.595 649.216 613.927 647 608 647C588.585 647 568.324 645.331 549 647.17C520.889 649.845 492.005 644.981 464 648.285C456.303 649.194 434.641 652.409 428.488 647.062C423.913 643.086 427.313 626.457 427.83 621C429.726 600.995 428.744 576.108 426.83 556C423.52 521.216 426 485.024 426 450L426 254C426.002 217.611 424 181.355 424 145C424 137.614 427.869 113.211 419.941 109.893C412.873 106.936 403.383 109.988 396 110C377.249 110.03 358.647 109.174 340 109.961C283.665 112.337 226.553 109.324 170 109.996C150.673 110.226 131.329 110 112 110C107.517 110 95.9988 107.303 92.7423 110.604C89.3934 113.999 91 122.644 91 127C91 141.471 92.1996 156.61 90.8302 171C89.8058 181.765 91.3181 192.215 90.9568 203C89.118 257.888 90 313.022 90 368C90 386.074 89.789 403.942 90.0039 422C90.0508 425.945 89.4102 438.443 92.6034 440.972C95.0492 442.909 100.093 442.005 103 442C112.355 441.985 121.695 441.727 131 441.089C161.846 438.977 194.085 440.257 225 441.015C323.73 443.433 422.48 435.572 521 437.985C545.967 438.597 571.025 438 596 438C605.787 438 618.76 435.275 628 438"/>
<circle stroke="#000000" fill="none" stroke-width="2" r="15" cx="424" cy="112"/>
<circle stroke="#000000" fill="none" stroke-width="2" r="15" cx="628" cy="438"/>
<path style="stroke:#000000;fill:none;stroke-width:5" d="M84 443L90 442"/>
<path style="stroke:#18036F;fill:none;stroke-width:4" d="M84 443L90 442"/>
<circle stroke="#000000" fill="none" stroke-width="2" r="15" cx="84" cy="443"/>
<circle stroke="#000000" fill="none" stroke-width="2" r="15" cx="90" cy="442"/>
<path style="stroke:#000000;fill:none;stroke-width:5" d="M880 528L957 527L1154 526"/>
<path style="stroke:#453457;fill:none;stroke-width:4" d="M880 528L957 527L1154 526"/>
<circle stroke="#000000" fill="none" stroke-width="2" r="15" cx="880" cy="528"/>
<circle stroke="#000000" fill="none" stroke-width="2" r="15" cx="1154" cy="526"/>
</svg>