<?xml version="1.0" standalone="yes"?>
<svg width="1064" height="240">
<path style="stroke:#000000;fill:none;stroke-width:5" d="M"/>
<path style="stroke:#83586E;fill:none;stroke-width:4" d="M"/>
<path style="stroke:#000000;fill:none;stroke-width:5" d="M861 136C861.045 148.795 871.89 145.996 882 146L949 146"/>
<path style="stroke:#DE1FF4;fill:none;stroke-width:4" d="M861 136C861.045 148.795 871.89 145.996 882 146L949 146"/>
<circle stroke="#000000" fill="none" stroke-width="2" r="15" cx="861" cy="136"/>
<circle stroke="#000000" fill="none" stroke-width="2" r="15" cx="949" cy="146"/>
<path style="stroke:#000000;fill:none;stroke-width:5" d="M335 138L333.512 145.972L318 147L279 147L148 148L91 148"/>
<path style="stroke:#B4A954;fill:none;stroke-width:4" d="M335 138L333.512 145.972L318 147L279 147L148 148L91 148"/>
<circle stroke="#000000" fill="none" stroke-width="2" r="15" cx="335" cy="138"/>
<circle stroke="#000000" fill="none" stroke-width="2" r="15" cx="91" cy="148"/>
<path style="stroke:#000000;fill:none;stroke-width:5" d="M335 146C342.673 150.094 353.411 146.352 362 147.17C389.595 149.796 419.106 147 447 147C544.454 147 641.52 146 739 146L833 146C842.619 146 861.27 141.707 862 155"/>
<path style="stroke:#D89430;fill:none;stroke-width:4" d="M335 146C342.673 150.094 353.411 146.352 362 147.17C389.595 149.796 419.106 147 447 147C544.454 147 641.52 146 739 146L833 146C842.619 146 861.27 141.707 862 155"/>
<circle stroke="#000000" fill="none" stroke-width="2" r="15" cx="335" cy="146"/>
<circle stroke="#000000" fill="none" stroke-width="2" r="15" cx="862" cy="155"/>
<path style="stroke:#000000;fill:none;stroke-width:5" d="M337 148L336 155"/>
<path style="stroke:#627E39;fill:none;stroke-width:4" d="M337 148L336 155"/>
<circle stroke="#000000" fill="none" stroke-width="2" r="15" cx="337" cy="148"/>
<circle stroke="#000000" fill="none" stroke-width="2" r="15" cx="336" cy="155"/>
</svg>