<?xml version="1.0" standalone="yes"?>
<svg width="848" height="856">
<path style="stroke:#000000;fill:none;stroke-width:5" d="M"/>
<path style="stroke:#A58787;fill:none;stroke-width:4" d="M"/>
<path style="stroke:#000000;fill:none;stroke-width:5" d="M375 138C372.667 149.563 357.636 151.868 348 155.169C320.059 164.74 291.433 174.042 263 182.3C258.452 183.621 253.235 182.256 249.015 183.716C242.589 185.939 235.027 197.459 229.028 185.981C226.198 180.566 228 170.98 228 165C228 158.129 224.761 139.63 229.603 134.407C232.928 130.822 244.381 133.043 249 132.92C267.957 132.414 287.029 133 306 133C320.665 133 335.418 132.491 350 134.109C359.649 135.179 368.88 138.102 379 137.777C402.05 137.037 425.196 131.043 447.907 139.225C453.176 141.123 454.685 147.488 460.015 149.713C484.847 160.078 512.125 167.966 538 175.769C550.656 179.586 562.499 185.888 576 186C578.33 178.5 584.786 184.01 588 188C583.055 190.621 580.153 189.511 576 186"/>
<path style="stroke:#153F6D;fill:none;stroke-width:4" d="M375 138C372.667 149.563 357.636 151.868 348 155.169C320.059 164.74 291.433 174.042 263 182.3C258.452 183.621 253.235 182.256 249.015 183.716C242.589 185.939 235.027 197.459 229.028 185.981C226.198 180.566 228 170.98 228 165C228 158.129 224.761 139.63 229.603 134.407C232.928 130.822 244.381 133.043 249 132.92C267.957 132.414 287.029 133 306 133C320.665 133 335.418 132.491 350 134.109C359.649 135.179 368.88 138.102 379 137.777C402.05 137.037 425.196 131.043 447.907 139.225C453.176 141.123 454.685 147.488 460.015 149.713C484.847 160.078 512.125 167.966 538 175.769C550.656 179.586 562.499 185.888 576 186C578.33 178.5 584.786 184.01 588 188C583.055 190.621 580.153 189.511 576 186"/>
<circle stroke="#000000" fill="none" stroke-width="2" r="15" cx="375" cy="138"/>
<circle stroke="#000000" fill="none" stroke-width="2" r="15" cx="576" cy="186"/>
<path style="stroke:#000000;fill:none;stroke-width:5" d="M575 181C570.833 173.404 558.542 170.261 551 166.944C534.895 159.861 518.231 152.586 501 148.503C489.828 145.856 474.73 144.763 466 137C477.237 127.497 505.983 133.347 520 133.961C540.691 134.867 561.356 135 582 135C586.402 135 600.1 132.73 602.972 136.488C607.591 142.53 603.189 158.905 603.015 166C602.858 172.384 604.548 182.48 601.107 187.996C592.769 201.362 580.631 199.891 567 199.71C551.701 199.506 536.258 199.001 521 199C479.552 198.997 438.376 198.024 397 198.008C369.028 197.997 340.892 200 313 198.089C298.996 197.13 284.002 196.672 270 197.015C259.169 197.28 250.46 199.185 242 191"/>
<path style="stroke:#922D46;fill:none;stroke-width:4" d="M575 181C570.833 173.404 558.542 170.261 551 166.944C534.895 159.861 518.231 152.586 501 148.503C489.828 145.856 474.73 144.763 466 137C477.237 127.497 505.983 133.347 520 133.961C540.691 134.867 561.356 135 582 135C586.402 135 600.1 132.73 602.972 136.488C607.591 142.53 603.189 158.905 603.015 166C602.858 172.384 604.548 182.48 601.107 187.996C592.769 201.362 580.631 199.891 567 199.71C551.701 199.506 536.258 199.001 521 199C479.552 198.997 438.376 198.024 397 198.008C369.028 197.997 340.892 200 313 198.089C298.996 197.13 284.002 196.672 270 197.015C259.169 197.28 250.46 199.185 242 191"/>
<circle stroke="#000000" fill="none" stroke-width="2" r="15" cx="575" cy="181"/>
<circle stroke="#000000" fill="none" stroke-width="2" r="15" cx="242" cy="191"/>
<path style="stroke:#000000;fill:none;stroke-width:5" d="M452 138L466 137"/>
<path style="stroke:#1AD4D2;fill:none;stroke-width:4" d="M452 138L466 137"/>
<circle stroke="#000000" fill="none" stroke-width="2" r="15" cx="452" cy="138"/>
<circle stroke="#000000" fill="none" stroke-width="2" r="15" cx="466" cy="137"/>
<path style="stroke:#000000;fill:none;stroke-width:5" d="M357 138C348.699 145.044 333.482 145.531 323 148.22C304.637 152.93 285.354 159.687 269 169.225C262.064 173.27 256.364 174.486 251 181"/>
<path style="stroke:#8ED546;fill:none;stroke-width:4" d="M357 138C348.699 145.044 333.482 145.531 323 148.22C304.637 152.93 285.354 159.687 269 169.225C262.064 173.27 256.364 174.486 251 181"/>
<circle stroke="#000000" fill="none" stroke-width="2" r="15" cx="357" cy="138"/>
<circle stroke="#000000" fill="none" stroke-width="2" r="15" cx="251" cy="181"/>
<path style="stroke:#000000;fill:none;stroke-width:5" d="M588 189L595 194"/>
<path style="stroke:#4DD6BE;fill:none;stroke-width:4" d="M588 189L595 194"/>
<circle stroke="#000000" fill="none" stroke-width="2" r="15" cx="588" cy="189"/>
<circle stroke="#000000" fill="none" stroke-width="2" r="15" cx="595" cy="194"/>
<path style="stroke:#000000;fill:none;stroke-width:5" d="M232 191C218.087 203.403 201.7 212.815 188 226.018C152.124 260.593 123.09 307.355 108.964 355C93.9117 405.768 89.9019 453.358 96.0895 506C100.546 543.912 116.459 581.925 134.83 615C154.096 649.687 179.097 680.605 210 705.739C259.314 745.848 320.367 772.75 384 778.83C514.445 791.294 647.309 721.189 710.163 606C728.592 572.225 738.881 535.828 744.271 498C752.256 441.957 738.788 389.617 720.833 337C704.816 290.065 667.154 248.31 629.911 216.884C619.529 208.124 607.272 202.621 597 194"/>
<path style="stroke:#78AE1E;fill:none;stroke-width:4" d="M232 191C218.087 203.403 201.7 212.815 188 226.018C152.124 260.593 123.09 307.355 108.964 355C93.9117 405.768 89.9019 453.358 96.0895 506C100.546 543.912 116.459 581.925 134.83 615C154.096 649.687 179.097 680.605 210 705.739C259.314 745.848 320.367 772.75 384 778.83C514.445 791.294 647.309 721.189 710.163 606C728.592 572.225 738.881 535.828 744.271 498C752.256 441.957 738.788 389.617 720.833 337C704.816 290.065 667.154 248.31 629.911 216.884C619.529 208.124 607.272 202.621 597 194"/>
<circle stroke="#000000" fill="none" stroke-width="2" r="15" cx="232" cy="191"/>
<circle stroke="#000000" fill="none" stroke-width="2" r="15" cx="597" cy="194"/>
</svg>