<?xml version="1.0" standalone="yes"?>
<svg width="496" height="848">
<path style="stroke:#000000;fill:none;stroke-width:5" d="M"/>
<path style="stroke:#A29046;fill:none;stroke-width:4" d="M"/>
<path style="stroke:#000000;fill:none;stroke-width:5" d="M98 467L98 199C98 175 97 151.048 97 127C97 119.106 94.3307 105.117 98.4568 98.1481C101.291 93.3613 109.297 95 114 95C129.063 95 143.996 95.0715 159 94.9992C195.288 94.8242 231.684 95.5643 268 95.9962C288.158 96.2358 308.978 94.3521 329 96.7145C341.065 98.138 353.855 97 366 97C370.157 97 376.459 95.9042 378.972 100.148C384.558 109.582 379.135 130.125 380.17 141C382.57 166.222 380.179 191.769 380.179 217C380.179 235.01 381.886 252.964 380.17 271C376.435 310.25 380.015 351.556 380 391C379.972 463.213 379 535.537 379 608C379 643.382 381.517 679.826 378.17 715C377.319 723.943 381.023 734.269 377.397 742.891C374.678 749.357 366.149 746.079 361 746.079C346.082 746.079 330.997 747 316 747C261.647 747 207.295 746 153 746C140.049 746 126.899 745.161 114 745.455C109.57 745.556 101.176 747.969 97.6034 744.397C94.2143 741.007 96 731.416 96 727L96 678C96 630.607 97 583.421 97 536L97 491C97 483.278 95.8025 474.435 98 467L122 468.481L189 469L377 469"/>
<path style="stroke:#591CD3;fill:none;stroke-width:4" d="M98 467L98 199C98 175 97 151.048 97 127C97 119.106 94.3307 105.117 98.4568 98.1481C101.291 93.3613 109.297 95 114 95C129.063 95 143.996 95.0715 159 94.9992C195.288 94.8242 231.684 95.5643 268 95.9962C288.158 96.2358 308.978 94.3521 329 96.7145C341.065 98.138 353.855 97 366 97C370.157 97 376.459 95.9042 378.972 100.148C384.558 109.582 379.135 130.125 380.17 141C382.57 166.222 380.179 191.769 380.179 217C380.179 235.01 381.886 252.964 380.17 271C376.435 310.25 380.015 351.556 380 391C379.972 463.213 379 535.537 379 608C379 643.382 381.517 679.826 378.17 715C377.319 723.943 381.023 734.269 377.397 742.891C374.678 749.357 366.149 746.079 361 746.079C346.082 746.079 330.997 747 316 747C261.647 747 207.295 746 153 746C140.049 746 126.899 745.161 114 745.455C109.57 745.556 101.176 747.969 97.6034 744.397C94.2143 741.007 96 731.416 96 727L96 678C96 630.607 97 583.421 97 536L97 491C97 483.278 95.8025 474.435 98 467L122 468.481L189 469L377 469"/>
<circle stroke="#000000" fill="none" stroke-width="2" r="15" cx="98" cy="467"/>
<circle stroke="#000000" fill="none" stroke-width="2" r="15" cx="377" cy="469"/>
</svg>