<?xml version="1.0" standalone="yes"?>
<svg width="1240" height="760">
<path style="stroke:#000000;fill:none;stroke-width:5" d="M"/>
<path style="stroke:#36A609;fill:none;stroke-width:4" d="M"/>
<path style="stroke:#000000;fill:none;stroke-width:5" d="M124 497C126.199 486.852 124 473.557 124 463C124 441.936 125 421.104 125 400C125 386.113 127.152 372.593 127.778 359C128.413 345.213 125.849 330.095 125.849 316C125.849 278.975 126.212 241.927 127.896 205C128.923 182.477 128 159.591 128 137C128 131.401 125.42 117.077 129.028 112.607C131.796 109.178 149.376 112 154 112L228 112C315.492 112 403.465 115 491 115L557 115C562.369 115 576.269 112.529 580.258 116.603C583.034 119.44 582 125.403 582 129C582 140.39 581 151.629 581 163C581 208.596 582.025 254.642 580.039 300C577.93 348.167 579 396.839 579 445L579 484C579 488.674 580.089 495.692 577.062 499.682C573.362 504.558 555.859 501 550 501C522.066 501 493.814 501.861 466 500.089C440.602 498.47 414.499 500 389 500C329.217 500 268.726 500.655 209 498.039C189.745 497.196 170.275 498 151 498C142.393 498 132.28 499.447 124 497"/>
<path style="stroke:#C7E6E4;fill:none;stroke-width:4" d="M124 497C126.199 486.852 124 473.557 124 463C124 441.936 125 421.104 125 400C125 386.113 127.152 372.593 127.778 359C128.413 345.213 125.849 330.095 125.849 316C125.849 278.975 126.212 241.927 127.896 205C128.923 182.477 128 159.591 128 137C128 131.401 125.42 117.077 129.028 112.607C131.796 109.178 149.376 112 154 112L228 112C315.492 112 403.465 115 491 115L557 115C562.369 115 576.269 112.529 580.258 116.603C583.034 119.44 582 125.403 582 129C582 140.39 581 151.629 581 163C581 208.596 582.025 254.642 580.039 300C577.93 348.167 579 396.839 579 445L579 484C579 488.674 580.089 495.692 577.062 499.682C573.362 504.558 555.859 501 550 501C522.066 501 493.814 501.861 466 500.089C440.602 498.47 414.499 500 389 500C329.217 500 268.726 500.655 209 498.039C189.745 497.196 170.275 498 151 498C142.393 498 132.28 499.447 124 497"/>
<circle stroke="#000000" fill="none" stroke-width="2" r="15" cx="124" cy="497"/>
<circle stroke="#000000" fill="none" stroke-width="2" r="15" cx="124" cy="497"/>
<path style="stroke:#000000;fill:none;stroke-width:5" d="M788.603 120.028C791.052 118.088 796.09 119 799 119L825 119C859.364 119 893.699 120 928 120C975.285 120 1022.62 121 1070 121C1083.17 121 1096.94 119.861 1110 121.576C1113.4 122.022 1119.61 120.821 1122.4 123.028C1126.32 126.135 1123.9 139.407 1124.01 144C1124.53 165.209 1124 186.648 1124 208C1124 265.745 1123.43 323.374 1122.01 381C1121.3 410.318 1123.07 439.756 1121.24 469C1118.14 518.345 1122.48 568.552 1119.09 618C1118.3 629.565 1119 641.408 1119 653C1119 657.449 1119.81 663.208 1115.77 666.258C1111.25 669.673 1102.35 668 1097 668C1082.04 668 1066.94 667.385 1052 668.039C987.586 670.86 922.608 666 858 666L801 666C796.337 666 785.052 667.989 782.603 662.721C779.203 655.408 782 641.04 782 633C782 607.472 782.848 582.41 783.961 557C787.241 482.086 784.149 406.966 785.985 332C787.281 279.111 786 226.024 786 173C786 159.945 787 147.049 787 134C787 130.524 785.522 122.468 788.603 120.028"/>
<path style="stroke:#13D942;fill:none;stroke-width:4" d="M788.603 120.028C791.052 118.088 796.09 119 799 119L825 119C859.364 119 893.699 120 928 120C975.285 120 1022.62 121 1070 121C1083.17 121 1096.94 119.861 1110 121.576C1113.4 122.022 1119.61 120.821 1122.4 123.028C1126.32 126.135 1123.9 139.407 1124.01 144C1124.53 165.209 1124 186.648 1124 208C1124 265.745 1123.43 323.374 1122.01 381C1121.3 410.318 1123.07 439.756 1121.24 469C1118.14 518.345 1122.48 568.552 1119.09 618C1118.3 629.565 1119 641.408 1119 653C1119 657.449 1119.81 663.208 1115.77 666.258C1111.25 669.673 1102.35 668 1097 668C1082.04 668 1066.94 667.385 1052 668.039C987.586 670.86 922.608 666 858 666L801 666C796.337 666 785.052 667.989 782.603 662.721C779.203 655.408 782 641.04 782 633C782 607.472 782.848 582.41 783.961 557C787.241 482.086 784.149 406.966 785.985 332C787.281 279.111 786 226.024 786 173C786 159.945 787 147.049 787 134C787 130.524 785.522 122.468 788.603 120.028"/>
<circle stroke="#000000" fill="none" stroke-width="2" r="15" cx="788.603" cy="120.028"/>
<circle stroke="#000000" fill="none" stroke-width="2" r="15" cx="788.603" cy="120.028"/>
<path style="stroke:#000000;fill:none;stroke-width:5" d="M129 364L571 368"/>
<path style="stroke:#990CC0;fill:none;stroke-width:4" d="M129 364L571 368"/>
<circle stroke="#000000" fill="none" stroke-width="2" r="15" cx="129" cy="364"/>
<circle stroke="#000000" fill="none" stroke-width="2" r="15" cx="571" cy="368"/>
<path style="stroke:#000000;fill:none;stroke-width:5" d="M785 467L1120 470"/>
<path style="stroke:#FDC694;fill:none;stroke-width:4" d="M785 467L1120 470"/>
<circle stroke="#000000" fill="none" stroke-width="2" r="15" cx="785" cy="467"/>
<circle stroke="#000000" fill="none" stroke-width="2" r="15" cx="1120" cy="470"/>
</svg>