<?xml version="1.0" standalone="yes"?>
<svg width="534" height="888">
<path style="stroke:#000000;fill:none;stroke-width:5" d="M"/>
<path style="stroke:#49C62E;fill:none;stroke-width:4" d="M"/>
<path style="stroke:#000000;fill:none;stroke-width:5" d="M119 408C119 328.086 118 247.835 118 168C118 147.64 119 127.39 119 107C119 101.398 116.72 88.993 120.858 84.6034C123.832 81.4484 132.058 83 136 83C149.178 83 162.881 84.0788 176 82.8303C200.623 80.4869 225.538 82.0633 250 82.3542C287.667 82.8021 325.274 81.5552 363 82.0038C381.058 82.2186 398.93 82.4504 417 82.0146C422.138 81.8907 432.32 80.2038 432.941 87.0193C435.115 110.871 431.433 135.201 432.015 159C433.37 214.446 434 270.317 434 326C434 344.931 432.691 364.172 433.054 383C433.168 388.932 436.27 400.536 431.397 405.397C427.647 409.137 415.939 407 411 407L355 407C296.123 407 236.748 405.716 178 408.625C164.886 409.274 151.186 408.902 138 408.715C133.215 408.648 125.751 407.42 121.318 409.603C117.234 411.615 118.055 427.703 118.004 432C117.726 455.387 118.695 478.679 118.989 502C119.887 573.219 121.73 644.794 119.985 716C119.474 736.889 121.811 758.198 120.896 779C120.518 787.594 117.228 804.018 120.604 811.852C122.831 817.02 133.482 815 138 815C155.012 815 171.948 816 189 816C225.396 816 261.611 815 298 815C323.83 815 350.302 816.615 376 814.17C390.273 812.812 404.731 814.969 419 813.285C422.6 812.861 429.394 814.359 432.062 811.397C436.573 806.387 434 792.293 434 786L434 713L434 507C434 483.555 435.064 460.403 434.039 437C433.614 427.289 434.77 416.37 432 407"/>
<path style="stroke:#95A9E0;fill:none;stroke-width:4" d="M119 408C119 328.086 118 247.835 118 168C118 147.64 119 127.39 119 107C119 101.398 116.72 88.993 120.858 84.6034C123.832 81.4484 132.058 83 136 83C149.178 83 162.881 84.0788 176 82.8303C200.623 80.4869 225.538 82.0633 250 82.3542C287.667 82.8021 325.274 81.5552 363 82.0038C381.058 82.2186 398.93 82.4504 417 82.0146C422.138 81.8907 432.32 80.2038 432.941 87.0193C435.115 110.871 431.433 135.201 432.015 159C433.37 214.446 434 270.317 434 326C434 344.931 432.691 364.172 433.054 383C433.168 388.932 436.27 400.536 431.397 405.397C427.647 409.137 415.939 407 411 407L355 407C296.123 407 236.748 405.716 178 408.625C164.886 409.274 151.186 408.902 138 408.715C133.215 408.648 125.751 407.42 121.318 409.603C117.234 411.615 118.055 427.703 118.004 432C117.726 455.387 118.695 478.679 118.989 502C119.887 573.219 121.73 644.794 119.985 716C119.474 736.889 121.811 758.198 120.896 779C120.518 787.594 117.228 804.018 120.604 811.852C122.831 817.02 133.482 815 138 815C155.012 815 171.948 816 189 816C225.396 816 261.611 815 298 815C323.83 815 350.302 816.615 376 814.17C390.273 812.812 404.731 814.969 419 813.285C422.6 812.861 429.394 814.359 432.062 811.397C436.573 806.387 434 792.293 434 786L434 713L434 507C434 483.555 435.064 460.403 434.039 437C433.614 427.289 434.77 416.37 432 407"/>
<circle stroke="#000000" fill="none" stroke-width="2" r="15" cx="119" cy="408"/>
<circle stroke="#000000" fill="none" stroke-width="2" r="15" cx="432" cy="407"/>
</svg>