<?xml version="1.0" standalone="yes"?>
<svg width="824" height="1288">
<path style="stroke:#000000;fill:none;stroke-width:5" d="M"/>
<path style="stroke:#0EF316;fill:none;stroke-width:4" d="M"/>
<path style="stroke:#000000;fill:none;stroke-width:5" d="M109 505C110.001 481.679 107.888 459.331 108.001 436C108.372 359.11 107 282.063 107 205C107 179.631 106 154.307 106 129C106 121.89 104.028 106.033 108.742 100.318C112.424 95.8541 123.802 98 129 98L187 98L422 98L488 98C492.464 98 507.097 95.6494 509.397 100.318C513.506 108.661 511 123.885 511 133C511 159.609 510 186.318 510 213C510 309.309 509 405.614 509 502L409 503.015L110 506C110 608.236 108.883 710.657 109.008 813C109.069 863.105 112.213 913.879 110.985 964C109.894 1008.55 111 1053.28 111 1098C111 1112.08 104.751 1137.06 112.318 1149.77C115.674 1155.41 128.421 1153 134 1153L198 1153C276.559 1153 355.24 1152 434 1152C453.262 1152 472.837 1152.99 492 1151.17C496.332 1150.76 507.303 1153.61 509.972 1149.68C514.876 1142.45 509.518 1126.34 510.09 1118C512.231 1086.73 511.406 1055.39 511.011 1024C510.514 984.602 512.591 945.229 511.826 906C510.689 847.625 508.408 788.289 510.961 730C512.031 705.568 510 680.546 510 656C510 648.186 507.253 634.231 510.523 627.144C512.361 623.161 518.446 622.749 522 620.972C532.935 615.507 544.167 610.443 555 604.78C599.893 581.314 645.661 559.405 691 536.753C702.867 530.824 714.695 523.778 727 518.873C733.585 516.249 742.453 512.501 744 505C746.902 505.002 751.131 504.354 753.397 506.603C756.402 509.586 755.98 517.087 755.999 521C756.055 532.666 756 544.334 756 556L756 723L756 932C756 963.143 752.242 996.232 755.17 1027C758.045 1057.22 755.855 1087.74 756.001 1118C756.038 1125.71 760.91 1143.34 755.397 1149.67C752.424 1153.08 744.107 1151 740 1151C725.08 1151 709.875 1151.89 695 1151.13C652.102 1148.93 608.068 1152 565 1152C548.068 1152 527.331 1155.83 511 1151"/>
<path style="stroke:#DA7A2E;fill:none;stroke-width:4" d="M109 505C110.001 481.679 107.888 459.331 108.001 436C108.372 359.11 107 282.063 107 205C107 179.631 106 154.307 106 129C106 121.89 104.028 106.033 108.742 100.318C112.424 95.8541 123.802 98 129 98L187 98L422 98L488 98C492.464 98 507.097 95.6494 509.397 100.318C513.506 108.661 511 123.885 511 133C511 159.609 510 186.318 510 213C510 309.309 509 405.614 509 502L409 503.015L110 506C110 608.236 108.883 710.657 109.008 813C109.069 863.105 112.213 913.879 110.985 964C109.894 1008.55 111 1053.28 111 1098C111 1112.08 104.751 1137.06 112.318 1149.77C115.674 1155.41 128.421 1153 134 1153L198 1153C276.559 1153 355.24 1152 434 1152C453.262 1152 472.837 1152.99 492 1151.17C496.332 1150.76 507.303 1153.61 509.972 1149.68C514.876 1142.45 509.518 1126.34 510.09 1118C512.231 1086.73 511.406 1055.39 511.011 1024C510.514 984.602 512.591 945.229 511.826 906C510.689 847.625 508.408 788.289 510.961 730C512.031 705.568 510 680.546 510 656C510 648.186 507.253 634.231 510.523 627.144C512.361 623.161 518.446 622.749 522 620.972C532.935 615.507 544.167 610.443 555 604.78C599.893 581.314 645.661 559.405 691 536.753C702.867 530.824 714.695 523.778 727 518.873C733.585 516.249 742.453 512.501 744 505C746.902 505.002 751.131 504.354 753.397 506.603C756.402 509.586 755.98 517.087 755.999 521C756.055 532.666 756 544.334 756 556L756 723L756 932C756 963.143 752.242 996.232 755.17 1027C758.045 1057.22 755.855 1087.74 756.001 1118C756.038 1125.71 760.91 1143.34 755.397 1149.67C752.424 1153.08 744.107 1151 740 1151C725.08 1151 709.875 1151.89 695 1151.13C652.102 1148.93 608.068 1152 565 1152C548.068 1152 527.331 1155.83 511 1151"/>
<circle stroke="#000000" fill="none" stroke-width="2" r="15" cx="109" cy="505"/>
<circle stroke="#000000" fill="none" stroke-width="2" r="15" cx="511" cy="1151"/>
<path style="stroke:#000000;fill:none;stroke-width:5" d="M510 624L510 543L509 504L529 503L571 503.961L686 504L725 503L744 505"/>
<path style="stroke:#025778;fill:none;stroke-width:4" d="M510 624L510 543L509 504L529 503L571 503.961L686 504L725 503L744 505"/>
<circle stroke="#000000" fill="none" stroke-width="2" r="15" cx="510" cy="624"/>
<circle stroke="#000000" fill="none" stroke-width="2" r="15" cx="744" cy="505"/>
<path style="stroke:#000000;fill:none;stroke-width:5" d="M111 822C122.78 819.536 133.333 812.247 144 806.914C162.558 797.635 181.392 788.971 200 779.865C267.786 746.695 335.479 713.514 403 679.732C422.27 670.091 441.886 661.115 461 651.184C476.696 643.028 491.826 634.136 509 630"/>
<path style="stroke:#CE82B0;fill:none;stroke-width:4" d="M111 822C122.78 819.536 133.333 812.247 144 806.914C162.558 797.635 181.392 788.971 200 779.865C267.786 746.695 335.479 713.514 403 679.732C422.27 670.091 441.886 661.115 461 651.184C476.696 643.028 491.826 634.136 509 630"/>
<circle stroke="#000000" fill="none" stroke-width="2" r="15" cx="111" cy="822"/>
<circle stroke="#000000" fill="none" stroke-width="2" r="15" cx="509" cy="630"/>
</svg>