<?xml version="1.0" standalone="yes"?>
<svg width="712" height="760">
<path style="stroke:#000000;fill:none;stroke-width:5" d="M"/>
<path style="stroke:#A783C6;fill:none;stroke-width:4" d="M"/>
<path style="stroke:#000000;fill:none;stroke-width:5" d="M75.3179 89.1975C82.9041 85.0825 98.5507 89 107 89C135.111 89 163.037 90.8662 191 90.9992C294.615 91.4919 398.331 93 502 93L596 93C603.691 93.0005 623.595 89.6889 629.397 95.5995C634.015 100.305 631 117.677 631 124L631 203C631 310.057 628 416.947 628 524C628 554.392 627 584.62 627 615C627 621.88 630.321 641.678 623.697 645.972C615.69 651.163 594.227 647.942 585 647.174C560.224 645.111 534.032 647 509 647C404.242 647 299.573 645 195 645L100 645C93.1906 645 73.4793 648.313 69.3179 641.697C64.5296 634.084 68 615.835 68 607C68 575.866 67.7894 544.974 69.9105 514C72.9603 469.463 70.2154 423.496 70.0008 379C69.7367 324.257 72 269.586 72 215C72 183.208 73 151.744 73 120C73 114.333 69.8606 92.1577 75.3179 89.1975"/>
<path style="stroke:#2D93E3;fill:none;stroke-width:4" d="M75.3179 89.1975C82.9041 85.0825 98.5507 89 107 89C135.111 89 163.037 90.8662 191 90.9992C294.615 91.4919 398.331 93 502 93L596 93C603.691 93.0005 623.595 89.6889 629.397 95.5995C634.015 100.305 631 117.677 631 124L631 203C631 310.057 628 416.947 628 524C628 554.392 627 584.62 627 615C627 621.88 630.321 641.678 623.697 645.972C615.69 651.163 594.227 647.942 585 647.174C560.224 645.111 534.032 647 509 647C404.242 647 299.573 645 195 645L100 645C93.1906 645 73.4793 648.313 69.3179 641.697C64.5296 634.084 68 615.835 68 607C68 575.866 67.7894 544.974 69.9105 514C72.9603 469.463 70.2154 423.496 70.0008 379C69.7367 324.257 72 269.586 72 215C72 183.208 73 151.744 73 120C73 114.333 69.8606 92.1577 75.3179 89.1975"/>
<circle stroke="#000000" fill="none" stroke-width="2" r="15" cx="75.3179" cy="89.1975"/>
<circle stroke="#000000" fill="none" stroke-width="2" r="15" cx="75.3179" cy="89.1975"/>
<path style="stroke:#000000;fill:none;stroke-width:5" d="M73 279C93.706 283.015 115.032 280 136 280C174.053 280 212.104 280.614 250 281.004C376.536 282.306 502.696 283.014 629 283"/>
<path style="stroke:#ACBDC5;fill:none;stroke-width:4" d="M73 279C93.706 283.015 115.032 280 136 280C174.053 280 212.104 280.614 250 281.004C376.536 282.306 502.696 283.014 629 283"/>
<circle stroke="#000000" fill="none" stroke-width="2" r="15" cx="73" cy="279"/>
<circle stroke="#000000" fill="none" stroke-width="2" r="15" cx="629" cy="283"/>
</svg>