<?xml version="1.0" standalone="yes"?>
<svg width="912" height="752">
<path style="stroke:#000000;fill:none;stroke-width:5" d="M"/>
<path style="stroke:#D9B071;fill:none;stroke-width:4" d="M"/>
<path style="stroke:#000000;fill:none;stroke-width:5" d="M424 88C424.01 181.643 423 275.258 423 369C423 394.507 421.147 420.903 424.88 446C425.831 452.396 421.038 462.226 425.662 467.686C428.453 470.982 434.184 470.833 438 472.264C448.653 476.259 459.598 479.986 470 484.601C515.801 504.922 565.384 521.923 613 537.376C643.792 547.368 675.158 559.011 705 571.485C713.612 575.085 722.224 578.642 731 581.823C734.106 582.949 738.524 585.716 741.892 584.492C746.78 582.716 747.374 575.088 749.244 571C755.95 556.333 759.777 540.004 766.006 525C779.081 493.509 789.14 460.739 801.595 429C813.684 398.194 826.362 367.42 836.781 336C842.379 319.118 849.458 302.473 856.144 286C857.887 281.706 863.493 272.094 859.971 267.603C857.15 264.006 841.573 265.403 837 265.09C813.219 263.461 788.842 264 765 264C705.272 264 645.645 261.77 586 261.019C553.674 260.611 519.103 265.96 487 260L509.652 180L520 148"/>
<path style="stroke:#E6FABF;fill:none;stroke-width:4" d="M424 88C424.01 181.643 423 275.258 423 369C423 394.507 421.147 420.903 424.88 446C425.831 452.396 421.038 462.226 425.662 467.686C428.453 470.982 434.184 470.833 438 472.264C448.653 476.259 459.598 479.986 470 484.601C515.801 504.922 565.384 521.923 613 537.376C643.792 547.368 675.158 559.011 705 571.485C713.612 575.085 722.224 578.642 731 581.823C734.106 582.949 738.524 585.716 741.892 584.492C746.78 582.716 747.374 575.088 749.244 571C755.95 556.333 759.777 540.004 766.006 525C779.081 493.509 789.14 460.739 801.595 429C813.684 398.194 826.362 367.42 836.781 336C842.379 319.118 849.458 302.473 856.144 286C857.887 281.706 863.493 272.094 859.971 267.603C857.15 264.006 841.573 265.403 837 265.09C813.219 263.461 788.842 264 765 264C705.272 264 645.645 261.77 586 261.019C553.674 260.611 519.103 265.96 487 260L509.652 180L520 148"/>
<circle stroke="#000000" fill="none" stroke-width="2" r="15" cx="424" cy="88"/>
<circle stroke="#000000" fill="none" stroke-width="2" r="15" cx="520" cy="148"/>
<path style="stroke:#000000;fill:none;stroke-width:5" d="M741 586C739.208 608.67 725.38 630.782 717.934 652C715.787 658.119 713.737 672.595 707.867 675.972C700.169 680.401 680.984 676 672 676C639.54 676 607.352 675.456 575 674.039C552.644 673.06 530.31 675.107 508 674.999C466.139 674.797 423.984 673.496 382 672.996C338.588 672.48 295.361 668.952 252 670.015C212.01 670.994 169.826 665.586 130 670.285C117.259 671.789 104.68 669.921 92 670.259C87.1764 670.388 79.784 672.613 75.6034 669.012C72.3325 666.194 73.9511 656.91 74.0039 653C74.2304 636.227 81.0519 617.825 83.4244 601C92.021 540.035 107.602 479.939 116.795 419C119.078 403.865 122.298 389.017 125.195 374C126.275 368.402 125.491 361.035 131 358C126.714 334.914 137.095 304.919 141.389 282C142.322 277.018 142.786 260.786 147.434 258.198C151.423 255.975 161.373 258 166 258C182.728 258 199.289 258.041 216 258.29C264.15 259.008 312.632 259 361 259C373.915 259 387.116 258.206 400 259.09C407.092 259.576 413.992 262.071 421 260"/>
<path style="stroke:#989934;fill:none;stroke-width:4" d="M741 586C739.208 608.67 725.38 630.782 717.934 652C715.787 658.119 713.737 672.595 707.867 675.972C700.169 680.401 680.984 676 672 676C639.54 676 607.352 675.456 575 674.039C552.644 673.06 530.31 675.107 508 674.999C466.139 674.797 423.984 673.496 382 672.996C338.588 672.48 295.361 668.952 252 670.015C212.01 670.994 169.826 665.586 130 670.285C117.259 671.789 104.68 669.921 92 670.259C87.1764 670.388 79.784 672.613 75.6034 669.012C72.3325 666.194 73.9511 656.91 74.0039 653C74.2304 636.227 81.0519 617.825 83.4244 601C92.021 540.035 107.602 479.939 116.795 419C119.078 403.865 122.298 389.017 125.195 374C126.275 368.402 125.491 361.035 131 358C126.714 334.914 137.095 304.919 141.389 282C142.322 277.018 142.786 260.786 147.434 258.198C151.423 255.975 161.373 258 166 258C182.728 258 199.289 258.041 216 258.29C264.15 259.008 312.632 259 361 259C373.915 259 387.116 258.206 400 259.09C407.092 259.576 413.992 262.071 421 260"/>
<circle stroke="#000000" fill="none" stroke-width="2" r="15" cx="741" cy="586"/>
<circle stroke="#000000" fill="none" stroke-width="2" r="15" cx="421" cy="260"/>
<path style="stroke:#000000;fill:none;stroke-width:5" d="M423 259L424 260"/>
<path style="stroke:#A4A5BD;fill:none;stroke-width:4" d="M423 259L424 260"/>
<circle stroke="#000000" fill="none" stroke-width="2" r="15" cx="423" cy="259"/>
<circle stroke="#000000" fill="none" stroke-width="2" r="15" cx="424" cy="260"/>
<path style="stroke:#000000;fill:none;stroke-width:5" d="M424 260C437.519 261.708 452.42 262.041 466 260.59C469.724 260.193 480.612 259.496 483.226 262.603C485.635 265.468 482.804 271.039 481.834 274C478.379 284.554 476.56 295.689 472.417 306C459.076 339.201 452.6 375.039 441.225 409C437.321 420.657 437.058 436.81 427 445"/>
<path style="stroke:#4DD3EE;fill:none;stroke-width:4" d="M424 260C437.519 261.708 452.42 262.041 466 260.59C469.724 260.193 480.612 259.496 483.226 262.603C485.635 265.468 482.804 271.039 481.834 274C478.379 284.554 476.56 295.689 472.417 306C459.076 339.201 452.6 375.039 441.225 409C437.321 420.657 437.058 436.81 427 445"/>
<circle stroke="#000000" fill="none" stroke-width="2" r="15" cx="424" cy="260"/>
<circle stroke="#000000" fill="none" stroke-width="2" r="15" cx="427" cy="445"/>
<path style="stroke:#000000;fill:none;stroke-width:5" d="M487 260L485 262"/>
<path style="stroke:#93CC4E;fill:none;stroke-width:4" d="M487 260L485 262"/>
<circle stroke="#000000" fill="none" stroke-width="2" r="15" cx="487" cy="260"/>
<circle stroke="#000000" fill="none" stroke-width="2" r="15" cx="485" cy="262"/>
<path style="stroke:#000000;fill:none;stroke-width:5" d="M132 359C197.415 379.635 262.006 406.538 326 431.261C357.092 443.272 390.384 458.945 423 465"/>
<path style="stroke:#F14EED;fill:none;stroke-width:4" d="M132 359C197.415 379.635 262.006 406.538 326 431.261C357.092 443.272 390.384 458.945 423 465"/>
<circle stroke="#000000" fill="none" stroke-width="2" r="15" cx="132" cy="359"/>
<circle stroke="#000000" fill="none" stroke-width="2" r="15" cx="423" cy="465"/>
</svg>