<?xml version="1.0" standalone="yes"?>
<svg width="784" height="856">
<path style="stroke:#000000;fill:none;stroke-width:5" d="M"/>
<path style="stroke:#82F7DE;fill:none;stroke-width:4" d="M"/>
<path style="stroke:#000000;fill:none;stroke-width:5" d="M696 376C686.37 367.025 686.266 353.959 681.58 342C673.672 321.815 663.132 303.027 652.901 284C650.692 279.89 650.666 274.917 648.282 271C641.331 259.576 630.253 250.201 621.299 240.425C595.316 212.06 565.098 191.088 531 173.756C511.664 163.928 491.791 156.656 471 150.576C467.258 149.481 451.696 147.848 452.631 142.129C453.379 137.555 462.868 139 466 139C479.668 139 493.343 138.494 507 137.961C554.824 136.098 603.828 138 652 138C663.628 138 675.385 137.526 687 138.039C691.455 138.236 697.088 138.752 699.427 143.109C704.58 152.704 701.046 171.519 700.174 182C698.641 200.411 700 220.362 700 239C700 278.743 701.015 318.301 701 358C700.997 365.892 697.787 373.316 697.995 381C698.802 410.815 700.48 440.117 699.039 470C698.59 479.301 699.829 488.787 698.111 497.985C696.82 504.896 690.217 510.861 687.914 518C681.762 537.073 676.737 556.196 666.975 574C662.549 582.073 650.383 595.999 655 605C668.625 598.261 676.691 585.697 688.286 576.38C692.3 573.154 698.868 573.213 700.968 567.945C704.791 558.352 702 543.231 702 533C702 523.315 703.951 511.242 698 503"/>
<path style="stroke:#DF92EE;fill:none;stroke-width:4" d="M696 376C686.37 367.025 686.266 353.959 681.58 342C673.672 321.815 663.132 303.027 652.901 284C650.692 279.89 650.666 274.917 648.282 271C641.331 259.576 630.253 250.201 621.299 240.425C595.316 212.06 565.098 191.088 531 173.756C511.664 163.928 491.791 156.656 471 150.576C467.258 149.481 451.696 147.848 452.631 142.129C453.379 137.555 462.868 139 466 139C479.668 139 493.343 138.494 507 137.961C554.824 136.098 603.828 138 652 138C663.628 138 675.385 137.526 687 138.039C691.455 138.236 697.088 138.752 699.427 143.109C704.58 152.704 701.046 171.519 700.174 182C698.641 200.411 700 220.362 700 239C700 278.743 701.015 318.301 701 358C700.997 365.892 697.787 373.316 697.995 381C698.802 410.815 700.48 440.117 699.039 470C698.59 479.301 699.829 488.787 698.111 497.985C696.82 504.896 690.217 510.861 687.914 518C681.762 537.073 676.737 556.196 666.975 574C662.549 582.073 650.383 595.999 655 605C668.625 598.261 676.691 585.697 688.286 576.38C692.3 573.154 698.868 573.213 700.968 567.945C704.791 558.352 702 543.231 702 533C702 523.315 703.951 511.242 698 503"/>
<circle stroke="#000000" fill="none" stroke-width="2" r="15" cx="696" cy="376"/>
<circle stroke="#000000" fill="none" stroke-width="2" r="15" cx="698" cy="503"/>
<path style="stroke:#000000;fill:none;stroke-width:5" d="M91 305C108.727 300.372 120.017 278.567 136 270C139.098 278.029 130.06 288.426 125.835 295C117.732 307.608 111.401 323.794 106.742 338C103.472 347.968 101.63 359.347 93 366C86.9776 357.635 89 344.832 89 335C89 310.324 88.8796 285.689 89.9606 261C91.2543 231.457 90 201.593 90 172C90 164.331 90.5798 156.63 90.5802 149C90.5804 146.151 89.0479 142.113 91.0278 139.603C94.1506 135.645 108.339 138 113 138L180 138C233.859 138 287.435 138.436 341 140.782C363.987 141.788 386.896 138.449 410 139.015C423.718 139.351 437.312 142 451 142"/>
<path style="stroke:#D21EFF;fill:none;stroke-width:4" d="M91 305C108.727 300.372 120.017 278.567 136 270C139.098 278.029 130.06 288.426 125.835 295C117.732 307.608 111.401 323.794 106.742 338C103.472 347.968 101.63 359.347 93 366C86.9776 357.635 89 344.832 89 335C89 310.324 88.8796 285.689 89.9606 261C91.2543 231.457 90 201.593 90 172C90 164.331 90.5798 156.63 90.5802 149C90.5804 146.151 89.0479 142.113 91.0278 139.603C94.1506 135.645 108.339 138 113 138L180 138C233.859 138 287.435 138.436 341 140.782C363.987 141.788 386.896 138.449 410 139.015C423.718 139.351 437.312 142 451 142"/>
<circle stroke="#000000" fill="none" stroke-width="2" r="15" cx="91" cy="305"/>
<circle stroke="#000000" fill="none" stroke-width="2" r="15" cx="451" cy="142"/>
<path style="stroke:#000000;fill:none;stroke-width:5" d="M259 140C253.906 159.459 226.073 165.375 222 186C231.486 187.52 242.936 177.858 251 173.414C268.452 163.796 287.015 157.379 306 151.657C313.463 149.407 328.265 149.52 329 140"/>
<path style="stroke:#A80C07;fill:none;stroke-width:4" d="M259 140C253.906 159.459 226.073 165.375 222 186C231.486 187.52 242.936 177.858 251 173.414C268.452 163.796 287.015 157.379 306 151.657C313.463 149.407 328.265 149.52 329 140"/>
<circle stroke="#000000" fill="none" stroke-width="2" r="15" cx="259" cy="140"/>
<circle stroke="#000000" fill="none" stroke-width="2" r="15" cx="329" cy="140"/>
<path style="stroke:#000000;fill:none;stroke-width:5" d="M339 141L329 145"/>
<path style="stroke:#696BFA;fill:none;stroke-width:4" d="M339 141L329 145"/>
<circle stroke="#000000" fill="none" stroke-width="2" r="15" cx="339" cy="141"/>
<circle stroke="#000000" fill="none" stroke-width="2" r="15" cx="329" cy="145"/>
<path style="stroke:#000000;fill:none;stroke-width:5" d="M524 141L556.37 176.996L566 191"/>
<path style="stroke:#FB21CF;fill:none;stroke-width:4" d="M524 141L556.37 176.996L566 191"/>
<circle stroke="#000000" fill="none" stroke-width="2" r="15" cx="524" cy="141"/>
<circle stroke="#000000" fill="none" stroke-width="2" r="15" cx="566" cy="191"/>
<path style="stroke:#000000;fill:none;stroke-width:5" d="M367 143C363.784 150.226 356.856 151.71 350 154.593C339.581 158.975 329.45 164.092 319 168.449C282.454 183.686 246.175 199.798 210 215.751C203.566 218.588 196.47 217.749 190 219.809C181.723 222.446 173.093 230.618 168.823 238C165.526 243.699 166.613 252.484 164.089 259C155.766 280.487 146.274 301.577 137.715 323C127.465 348.652 117.189 374.88 105.831 400C103.654 404.815 102.098 410.561 99.1605 414.957C96.5984 418.79 92.1922 420.325 90.8627 425.015C86.7826 439.409 88.9065 456.339 89.9105 471C90.6162 481.306 89.7505 491.729 91.189 501.996C91.8154 506.467 95.5003 508.864 96.7014 513.015C101.193 528.536 106.697 544.037 112.995 559C116.237 566.704 120.444 574.263 123.441 582C125.441 587.162 125.511 593.173 128.239 597.996C137.921 615.11 153.566 629.016 166.91 643.015C182.524 659.393 196.904 677.812 215.285 691.412C220.252 695.086 227.566 695.184 233 698.478C258.237 713.778 283.948 723.467 312 732.191C318.783 734.301 325.259 738.845 332 740.227C343.207 742.524 354.647 741.542 366 742.039C392.721 743.209 427.215 746.754 452 736C456.297 746.627 472.528 743 482 743C493.247 743 511.584 746.518 521.982 742.142C526.383 740.29 528.082 735.365 531.108 732.001C538.311 723.992 546.901 717.283 553.804 709C558.917 702.864 576.994 693.692 573 685C603.239 660.906 627.419 631.776 654 604"/>
<path style="stroke:#444D7D;fill:none;stroke-width:4" d="M367 143C363.784 150.226 356.856 151.71 350 154.593C339.581 158.975 329.45 164.092 319 168.449C282.454 183.686 246.175 199.798 210 215.751C203.566 218.588 196.47 217.749 190 219.809C181.723 222.446 173.093 230.618 168.823 238C165.526 243.699 166.613 252.484 164.089 259C155.766 280.487 146.274 301.577 137.715 323C127.465 348.652 117.189 374.88 105.831 400C103.654 404.815 102.098 410.561 99.1605 414.957C96.5984 418.79 92.1922 420.325 90.8627 425.015C86.7826 439.409 88.9065 456.339 89.9105 471C90.6162 481.306 89.7505 491.729 91.189 501.996C91.8154 506.467 95.5003 508.864 96.7014 513.015C101.193 528.536 106.697 544.037 112.995 559C116.237 566.704 120.444 574.263 123.441 582C125.441 587.162 125.511 593.173 128.239 597.996C137.921 615.11 153.566 629.016 166.91 643.015C182.524 659.393 196.904 677.812 215.285 691.412C220.252 695.086 227.566 695.184 233 698.478C258.237 713.778 283.948 723.467 312 732.191C318.783 734.301 325.259 738.845 332 740.227C343.207 742.524 354.647 741.542 366 742.039C392.721 743.209 427.215 746.754 452 736C456.297 746.627 472.528 743 482 743C493.247 743 511.584 746.518 521.982 742.142C526.383 740.29 528.082 735.365 531.108 732.001C538.311 723.992 546.901 717.283 553.804 709C558.917 702.864 576.994 693.692 573 685C603.239 660.906 627.419 631.776 654 604"/>
<circle stroke="#000000" fill="none" stroke-width="2" r="15" cx="367" cy="143"/>
<circle stroke="#000000" fill="none" stroke-width="2" r="15" cx="654" cy="604"/>
<path style="stroke:#000000;fill:none;stroke-width:5" d="M92 149C102.833 151.604 112.479 165.106 120.039 173C137.834 191.579 156.534 209.268 174.09 227.996C219.685 276.633 270.066 321.05 315.83 369.425C331.024 385.486 346.413 401.235 361.996 417C369.782 424.877 377.495 435.277 387 441"/>
<path style="stroke:#629983;fill:none;stroke-width:4" d="M92 149C102.833 151.604 112.479 165.106 120.039 173C137.834 191.579 156.534 209.268 174.09 227.996C219.685 276.633 270.066 321.05 315.83 369.425C331.024 385.486 346.413 401.235 361.996 417C369.782 424.877 377.495 435.277 387 441"/>
<circle stroke="#000000" fill="none" stroke-width="2" r="15" cx="92" cy="149"/>
<circle stroke="#000000" fill="none" stroke-width="2" r="15" cx="387" cy="441"/>
<path style="stroke:#000000;fill:none;stroke-width:5" d="M560 183L555 188"/>
<path style="stroke:#28ADDC;fill:none;stroke-width:4" d="M560 183L555 188"/>
<circle stroke="#000000" fill="none" stroke-width="2" r="15" cx="560" cy="183"/>
<circle stroke="#000000" fill="none" stroke-width="2" r="15" cx="555" cy="188"/>
<path style="stroke:#000000;fill:none;stroke-width:5" d="M191 217C196.621 204.629 209.763 194.432 221 187"/>
<path style="stroke:#DEE067;fill:none;stroke-width:4" d="M191 217C196.621 204.629 209.763 194.432 221 187"/>
<circle stroke="#000000" fill="none" stroke-width="2" r="15" cx="191" cy="217"/>
<circle stroke="#000000" fill="none" stroke-width="2" r="15" cx="221" cy="187"/>
<path style="stroke:#000000;fill:none;stroke-width:5" d="M136 270C145.629 260.701 152.471 246.962 166 243"/>
<path style="stroke:#A205A1;fill:none;stroke-width:4" d="M136 270C145.629 260.701 152.471 246.962 166 243"/>
<circle stroke="#000000" fill="none" stroke-width="2" r="15" cx="136" cy="270"/>
<circle stroke="#000000" fill="none" stroke-width="2" r="15" cx="166" cy="243"/>
<path style="stroke:#000000;fill:none;stroke-width:5" d="M650 272C669.994 275.01 679.229 301.696 699 307"/>
<path style="stroke:#43150C;fill:none;stroke-width:4" d="M650 272C669.994 275.01 679.229 301.696 699 307"/>
<circle stroke="#000000" fill="none" stroke-width="2" r="15" cx="650" cy="272"/>
<circle stroke="#000000" fill="none" stroke-width="2" r="15" cx="699" cy="307"/>
<path style="stroke:#000000;fill:none;stroke-width:5" d="M93 366C90.3424 380.264 84.959 407.806 92 421"/>
<path style="stroke:#79BFAC;fill:none;stroke-width:4" d="M93 366C90.3424 380.264 84.959 407.806 92 421"/>
<circle stroke="#000000" fill="none" stroke-width="2" r="15" cx="93" cy="366"/>
<circle stroke="#000000" fill="none" stroke-width="2" r="15" cx="92" cy="421"/>
<path style="stroke:#000000;fill:none;stroke-width:5" d="M92 507C86.9702 513.992 89 524.7 89 533C89 541.929 86.1699 556.605 89.6034 564.871C91.2568 568.852 96.8457 571.421 99.9105 574.285C107.73 581.595 115.231 593.189 126 596"/>
<path style="stroke:#6BF183;fill:none;stroke-width:4" d="M92 507C86.9702 513.992 89 524.7 89 533C89 541.929 86.1699 556.605 89.6034 564.871C91.2568 568.852 96.8457 571.421 99.9105 574.285C107.73 581.595 115.231 593.189 126 596"/>
<circle stroke="#000000" fill="none" stroke-width="2" r="15" cx="92" cy="507"/>
<circle stroke="#000000" fill="none" stroke-width="2" r="15" cx="126" cy="596"/>
<path style="stroke:#000000;fill:none;stroke-width:5" d="M89 568C89 608.425 92.6583 650.775 88.8302 691C87.6913 702.969 88 714.967 88 727C88 730.726 86.7389 737.482 89.6034 740.4C95.5088 746.417 115.222 743 123 743L216 743C224.685 743 233.409 741.716 242 742.715C244.962 743.059 250.071 743.665 251.882 740.566C254.894 735.414 247.337 729.871 244.424 726.83C234.798 716.78 222.205 706.544 216 694"/>
<path style="stroke:#104386;fill:none;stroke-width:4" d="M89 568C89 608.425 92.6583 650.775 88.8302 691C87.6913 702.969 88 714.967 88 727C88 730.726 86.7389 737.482 89.6034 740.4C95.5088 746.417 115.222 743 123 743L216 743C224.685 743 233.409 741.716 242 742.715C244.962 743.059 250.071 743.665 251.882 740.566C254.894 735.414 247.337 729.871 244.424 726.83C234.798 716.78 222.205 706.544 216 694"/>
<circle stroke="#000000" fill="none" stroke-width="2" r="15" cx="89" cy="568"/>
<circle stroke="#000000" fill="none" stroke-width="2" r="15" cx="216" cy="694"/>
<path style="stroke:#000000;fill:none;stroke-width:5" d="M701 572C704.056 584.836 701.021 600.789 701 614C700.955 642.056 702 669.946 702 698C702 709.116 707.149 731.038 700.973 740.721C698.528 744.554 693.744 743.327 690 743.089C680.313 742.473 670.661 743.542 661 743.924C650.078 744.356 638.924 742.079 628 742.079C607.444 742.079 586.727 743 566 743C553.954 743 536.705 746.173 526 740"/>
<path style="stroke:#892670;fill:none;stroke-width:4" d="M701 572C704.056 584.836 701.021 600.789 701 614C700.955 642.056 702 669.946 702 698C702 709.116 707.149 731.038 700.973 740.721C698.528 744.554 693.744 743.327 690 743.089C680.313 742.473 670.661 743.542 661 743.924C650.078 744.356 638.924 742.079 628 742.079C607.444 742.079 586.727 743 566 743C553.954 743 536.705 746.173 526 740"/>
<circle stroke="#000000" fill="none" stroke-width="2" r="15" cx="701" cy="572"/>
<circle stroke="#000000" fill="none" stroke-width="2" r="15" cx="526" cy="740"/>
<path style="stroke:#000000;fill:none;stroke-width:5" d="M570 693L566 688L573 685"/>
<path style="stroke:#B87038;fill:none;stroke-width:4" d="M570 693L566 688L573 685"/>
<circle stroke="#000000" fill="none" stroke-width="2" r="15" cx="570" cy="693"/>
<circle stroke="#000000" fill="none" stroke-width="2" r="15" cx="573" cy="685"/>
<path style="stroke:#000000;fill:none;stroke-width:5" d="M565 688C541.318 706.621 509.007 720.774 480 728.415C471.218 730.729 462.11 734.533 453 735"/>
<path style="stroke:#17F22B;fill:none;stroke-width:4" d="M565 688C541.318 706.621 509.007 720.774 480 728.415C471.218 730.729 462.11 734.533 453 735"/>
<circle stroke="#000000" fill="none" stroke-width="2" r="15" cx="565" cy="688"/>
<circle stroke="#000000" fill="none" stroke-width="2" r="15" cx="453" cy="735"/>
<path style="stroke:#000000;fill:none;stroke-width:5" d="M563 690L568 695"/>
<path style="stroke:#A56B94;fill:none;stroke-width:4" d="M563 690L568 695"/>
<circle stroke="#000000" fill="none" stroke-width="2" r="15" cx="563" cy="690"/>
<circle stroke="#000000" fill="none" stroke-width="2" r="15" cx="568" cy="695"/>
<path style="stroke:#000000;fill:none;stroke-width:5" d="M327 739C322.145 742.492 316.778 742.033 311 742.715C302.891 743.671 295.033 742.079 287 742.079C276.059 742.079 262.919 746.076 253 740"/>
<path style="stroke:#EF00BF;fill:none;stroke-width:4" d="M327 739C322.145 742.492 316.778 742.033 311 742.715C302.891 743.671 295.033 742.079 287 742.079C276.059 742.079 262.919 746.076 253 740"/>
<circle stroke="#000000" fill="none" stroke-width="2" r="15" cx="327" cy="739"/>
<circle stroke="#000000" fill="none" stroke-width="2" r="15" cx="253" cy="740"/>
<path style="stroke:#000000;fill:none;stroke-width:5" d="M446 740L454 742"/>
<path style="stroke:#366389;fill:none;stroke-width:4" d="M446 740L454 742"/>
<circle stroke="#000000" fill="none" stroke-width="2" r="15" cx="446" cy="740"/>
<circle stroke="#000000" fill="none" stroke-width="2" r="15" cx="454" cy="742"/>
</svg>