<?xml version="1.0" standalone="yes"?>
<svg width="848" height="576">
<path style="stroke:#000000;fill:none;stroke-width:5" d="M"/>
<path style="stroke:#9F1AD4;fill:none;stroke-width:4" d="M"/>
<path style="stroke:#000000;fill:none;stroke-width:5" d="M72 113C79.532 116.872 96.1976 115.011 105 115C130.75 114.969 156.307 114.698 182 115.004C274.003 116.098 366.687 114.723 459 116.985C484.017 117.598 508.988 116 534 116C542.097 116 556.72 113.189 563.957 117.028C570.935 120.729 574.341 133.515 578.38 140C591.93 161.757 603.442 184.824 616.285 207C654.107 272.306 690.282 338.529 727.935 404C738.071 421.625 747.895 439.409 758.046 457C763.102 465.761 764.678 475.181 772 482"/>
<path style="stroke:#0D8882;fill:none;stroke-width:4" d="M72 113C79.532 116.872 96.1976 115.011 105 115C130.75 114.969 156.307 114.698 182 115.004C274.003 116.098 366.687 114.723 459 116.985C484.017 117.598 508.988 116 534 116C542.097 116 556.72 113.189 563.957 117.028C570.935 120.729 574.341 133.515 578.38 140C591.93 161.757 603.442 184.824 616.285 207C654.107 272.306 690.282 338.529 727.935 404C738.071 421.625 747.895 439.409 758.046 457C763.102 465.761 764.678 475.181 772 482"/>
<circle stroke="#000000" fill="none" stroke-width="2" r="15" cx="72" cy="113"/>
<circle stroke="#000000" fill="none" stroke-width="2" r="15" cx="772" cy="482"/>
<path style="stroke:#000000;fill:none;stroke-width:5" d="M75 116C77.2516 144.49 90.134 172.681 97.7647 200C113.189 255.22 126.721 311.044 143.139 366C149.069 385.85 153.365 406.144 159.456 426C161.117 431.413 161.962 443.751 166.317 447.397C173.306 453.247 192.298 449.341 201 450.17C235.867 453.49 271.181 451.843 306 455.17C403.623 464.498 502.156 464.389 600 471.09C637.632 473.667 675.298 475.388 713 477.039C730.347 477.799 747.584 482.233 765 479"/>
<path style="stroke:#4E9D65;fill:none;stroke-width:4" d="M75 116C77.2516 144.49 90.134 172.681 97.7647 200C113.189 255.22 126.721 311.044 143.139 366C149.069 385.85 153.365 406.144 159.456 426C161.117 431.413 161.962 443.751 166.317 447.397C173.306 453.247 192.298 449.341 201 450.17C235.867 453.49 271.181 451.843 306 455.17C403.623 464.498 502.156 464.389 600 471.09C637.632 473.667 675.298 475.388 713 477.039C730.347 477.799 747.584 482.233 765 479"/>
<circle stroke="#000000" fill="none" stroke-width="2" r="15" cx="75" cy="116"/>
<circle stroke="#000000" fill="none" stroke-width="2" r="15" cx="765" cy="479"/>
<path style="stroke:#000000;fill:none;stroke-width:5" d="M381 434C381 400.947 383 366.816 386.714 334C387.767 324.688 383.078 309.891 389.028 301.513C391.577 297.924 397.392 299.018 400.871 296.988C414.057 289.293 427.772 284.049 443 279.576C472.962 270.775 502.428 258.434 532 248.204C545.311 243.599 559.092 237.393 573 235"/>
<path style="stroke:#EC5B0C;fill:none;stroke-width:4" d="M381 434C381 400.947 383 366.816 386.714 334C387.767 324.688 383.078 309.891 389.028 301.513C391.577 297.924 397.392 299.018 400.871 296.988C414.057 289.293 427.772 284.049 443 279.576C472.962 270.775 502.428 258.434 532 248.204C545.311 243.599 559.092 237.393 573 235"/>
<circle stroke="#000000" fill="none" stroke-width="2" r="15" cx="381" cy="434"/>
<circle stroke="#000000" fill="none" stroke-width="2" r="15" cx="573" cy="235"/>
<path style="stroke:#000000;fill:none;stroke-width:5" d="M212 291C249.988 291.025 288.009 293.309 326 295.91C346.31 297.301 368.338 294.865 388 301"/>
<path style="stroke:#358746;fill:none;stroke-width:4" d="M212 291C249.988 291.025 288.009 293.309 326 295.91C346.31 297.301 368.338 294.865 388 301"/>
<circle stroke="#000000" fill="none" stroke-width="2" r="15" cx="212" cy="291"/>
<circle stroke="#000000" fill="none" stroke-width="2" r="15" cx="388" cy="301"/>
<path style="stroke:#000000;fill:none;stroke-width:5" d="M402 297C414.886 305.541 441.828 301.999 457 302C495.338 302.002 533.597 307 572 307"/>
<path style="stroke:#A9FA24;fill:none;stroke-width:4" d="M402 297C414.886 305.541 441.828 301.999 457 302C495.338 302.002 533.597 307 572 307"/>
<circle stroke="#000000" fill="none" stroke-width="2" r="15" cx="402" cy="297"/>
<circle stroke="#000000" fill="none" stroke-width="2" r="15" cx="572" cy="307"/>
</svg>