<?xml version="1.0" standalone="yes"?>
<svg width="784" height="1600">
<path style="stroke:#000000;fill:none;stroke-width:5" d="M"/>
<path style="stroke:#AEB7F1;fill:none;stroke-width:4" d="M"/>
<path style="stroke:#000000;fill:none;stroke-width:5" d="M582 125C583.262 135.763 597.565 132 606 132L684 132"/>
<path style="stroke:#2EB21E;fill:none;stroke-width:4" d="M582 125C583.262 135.763 597.565 132 606 132L684 132"/>
<circle stroke="#000000" fill="none" stroke-width="2" r="15" cx="582" cy="125"/>
<circle stroke="#000000" fill="none" stroke-width="2" r="15" cx="684" cy="132"/>
<path style="stroke:#000000;fill:none;stroke-width:5" d="M75 133L416 133C452.119 133 487.929 132 524 132C542.633 132 563.776 135.339 582 131"/>
<path style="stroke:#A68A3E;fill:none;stroke-width:4" d="M75 133L416 133C452.119 133 487.929 132 524 132C542.633 132 563.776 135.339 582 131"/>
<circle stroke="#000000" fill="none" stroke-width="2" r="15" cx="75" cy="133"/>
<circle stroke="#000000" fill="none" stroke-width="2" r="15" cx="582" cy="131"/>
<path style="stroke:#000000;fill:none;stroke-width:5" d="M584 132L582 141"/>
<path style="stroke:#97BA37;fill:none;stroke-width:4" d="M584 132L582 141"/>
<circle stroke="#000000" fill="none" stroke-width="2" r="15" cx="584" cy="132"/>
<circle stroke="#000000" fill="none" stroke-width="2" r="15" cx="582" cy="141"/>
<path style="stroke:#000000;fill:none;stroke-width:5" d="M271 134L271 144"/>
<path style="stroke:#DF6688;fill:none;stroke-width:4" d="M271 134L271 144"/>
<circle stroke="#000000" fill="none" stroke-width="2" r="15" cx="271" cy="134"/>
<circle stroke="#000000" fill="none" stroke-width="2" r="15" cx="271" cy="144"/>
<path style="stroke:#000000;fill:none;stroke-width:5" d="M225 237.594C301.478 234.831 378.546 238 455 238L512 238C517.421 238 529.136 235.842 533.397 239.858C536.29 242.586 535 249.412 535 253L535 291C535 329.104 536.055 367.018 536.985 405C537.288 417.363 535.501 429.712 536.039 442C540.154 535.967 536.883 630.717 538.004 725C539.356 838.712 541 952.223 541 1066C541 1183.56 544.955 1301.47 545 1419C545.011 1446.67 543.998 1474.34 544 1502C544 1508.17 547.333 1526.18 538.981 1526.94C522.61 1528.43 505.444 1527 489 1527C454.642 1527 420.283 1526.85 386 1526.01C334.751 1524.76 283.219 1529 232 1529L159 1529C153.031 1529 137.892 1531.71 133.742 1526.68C129.697 1521.78 132.991 1511.79 133 1506L133 1448C133 1374.31 131 1300.71 131 1227C131 988.44 127 749.938 127 511C127 447.403 127.544 383.637 125.985 320C125.537 301.698 125.215 283.36 124.996 265C124.914 258.127 121.97 249.504 125.457 243.055C129.782 235.054 143.526 239.012 151 239C175.511 238.961 200.456 238.481 225 237.594"/>
<path style="stroke:#86A119;fill:none;stroke-width:4" d="M225 237.594C301.478 234.831 378.546 238 455 238L512 238C517.421 238 529.136 235.842 533.397 239.858C536.29 242.586 535 249.412 535 253L535 291C535 329.104 536.055 367.018 536.985 405C537.288 417.363 535.501 429.712 536.039 442C540.154 535.967 536.883 630.717 538.004 725C539.356 838.712 541 952.223 541 1066C541 1183.56 544.955 1301.47 545 1419C545.011 1446.67 543.998 1474.34 544 1502C544 1508.17 547.333 1526.18 538.981 1526.94C522.61 1528.43 505.444 1527 489 1527C454.642 1527 420.283 1526.85 386 1526.01C334.751 1524.76 283.219 1529 232 1529L159 1529C153.031 1529 137.892 1531.71 133.742 1526.68C129.697 1521.78 132.991 1511.79 133 1506L133 1448C133 1374.31 131 1300.71 131 1227C131 988.44 127 749.938 127 511C127 447.403 127.544 383.637 125.985 320C125.537 301.698 125.215 283.36 124.996 265C124.914 258.127 121.97 249.504 125.457 243.055C129.782 235.054 143.526 239.012 151 239C175.511 238.961 200.456 238.481 225 237.594"/>
<circle stroke="#000000" fill="none" stroke-width="2" r="15" cx="225" cy="237.594"/>
<circle stroke="#000000" fill="none" stroke-width="2" r="15" cx="225" cy="237.594"/>
<path style="stroke:#000000;fill:none;stroke-width:5" d="M126 331L172 330.985L281 329.999L450 329.996L534 331"/>
<path style="stroke:#4E4562;fill:none;stroke-width:4" d="M126 331L172 330.985L281 329.999L450 329.996L534 331"/>
<circle stroke="#000000" fill="none" stroke-width="2" r="15" cx="126" cy="331"/>
<circle stroke="#000000" fill="none" stroke-width="2" r="15" cx="534" cy="331"/>
<path style="stroke:#000000;fill:none;stroke-width:5" d="M131 1094L539 1092"/>
<path style="stroke:#53F87F;fill:none;stroke-width:4" d="M131 1094L539 1092"/>
<circle stroke="#000000" fill="none" stroke-width="2" r="15" cx="131" cy="1094"/>
<circle stroke="#000000" fill="none" stroke-width="2" r="15" cx="539" cy="1092"/>
</svg>