<?xml version="1.0" standalone="yes"?>
<svg width="1136" height="1312">
<path style="stroke:#000000;fill:none;stroke-width:5" d="M"/>
<path style="stroke:#6EED8A;fill:none;stroke-width:4" d="M"/>
<path style="stroke:#000000;fill:none;stroke-width:5" d="M710 139L692 154.159L643 188.38L513 280.359L329 414.407L175 524.38L104 575C96.8092 562.529 103.346 539.774 104.826 526C110.385 474.265 126.013 426.744 146.124 379C159.76 346.629 180.961 318.479 202.64 291C293.146 176.275 435.872 107.561 582 113.961C622.16 115.719 668.535 119.355 706 135.323C720.443 141.479 727.721 153.339 736.698 166C748.096 182.074 759.4 198.435 771.464 214C826.924 285.555 875.735 362.599 930.333 435C957.1 470.495 982.596 507.112 1008.87 543C1016.79 553.832 1024.69 564.635 1032.38 575.576C1035.57 580.112 1040.63 583.526 1042.35 589C1044.5 595.853 1042.57 604.042 1042.09 611C1041.41 620.981 1041.77 631.013 1041.09 641C1039.46 664.755 1041 689.152 1041 713C1041 809.59 1042.91 905.825 1041.05 1002C1040.89 1010.65 1043.04 1019.3 1043 1028C1042.82 1065.97 1042 1103.92 1042 1142L1042 1178C1042 1181.85 1043.39 1189.18 1040.97 1192.44C1038.29 1196.06 1030.89 1195 1027 1195C1013.74 1195 1000.18 1194.89 987 1194.21C935.644 1191.55 883.622 1192 832 1192C719.7 1192 608.385 1190.82 496 1191C426.49 1191.11 356.663 1193.07 287 1191.46C241.493 1190.4 195.634 1190.98 150 1191C137.444 1191 124.518 1193.19 112 1191.71C108.555 1191.31 103.088 1191.73 100.318 1189.4C94.3435 1184.36 98 1162.38 98 1155C98 1133.66 96.8982 1112.26 97.0008 1091C97.0584 1079.05 98.8284 1066.98 97.8264 1055C95.0766 1022.13 99 988.026 99 955C99 872.432 100 789.581 100 707L100 616C100 605.073 97.925 586.204 104 577C115.1 584.984 141.528 580 155 580C199.046 580 242.941 581 287 581C453.455 581 619.741 582 786 582"/>
<path style="stroke:#B32D89;fill:none;stroke-width:4" d="M710 139L692 154.159L643 188.38L513 280.359L329 414.407L175 524.38L104 575C96.8092 562.529 103.346 539.774 104.826 526C110.385 474.265 126.013 426.744 146.124 379C159.76 346.629 180.961 318.479 202.64 291C293.146 176.275 435.872 107.561 582 113.961C622.16 115.719 668.535 119.355 706 135.323C720.443 141.479 727.721 153.339 736.698 166C748.096 182.074 759.4 198.435 771.464 214C826.924 285.555 875.735 362.599 930.333 435C957.1 470.495 982.596 507.112 1008.87 543C1016.79 553.832 1024.69 564.635 1032.38 575.576C1035.57 580.112 1040.63 583.526 1042.35 589C1044.5 595.853 1042.57 604.042 1042.09 611C1041.41 620.981 1041.77 631.013 1041.09 641C1039.46 664.755 1041 689.152 1041 713C1041 809.59 1042.91 905.825 1041.05 1002C1040.89 1010.65 1043.04 1019.3 1043 1028C1042.82 1065.97 1042 1103.92 1042 1142L1042 1178C1042 1181.85 1043.39 1189.18 1040.97 1192.44C1038.29 1196.06 1030.89 1195 1027 1195C1013.74 1195 1000.18 1194.89 987 1194.21C935.644 1191.55 883.622 1192 832 1192C719.7 1192 608.385 1190.82 496 1191C426.49 1191.11 356.663 1193.07 287 1191.46C241.493 1190.4 195.634 1190.98 150 1191C137.444 1191 124.518 1193.19 112 1191.71C108.555 1191.31 103.088 1191.73 100.318 1189.4C94.3435 1184.36 98 1162.38 98 1155C98 1133.66 96.8982 1112.26 97.0008 1091C97.0584 1079.05 98.8284 1066.98 97.8264 1055C95.0766 1022.13 99 988.026 99 955C99 872.432 100 789.581 100 707L100 616C100 605.073 97.925 586.204 104 577C115.1 584.984 141.528 580 155 580C199.046 580 242.941 581 287 581C453.455 581 619.741 582 786 582"/>
<circle stroke="#000000" fill="none" stroke-width="2" r="15" cx="710" cy="139"/>
<circle stroke="#000000" fill="none" stroke-width="2" r="15" cx="786" cy="582"/>
<path style="stroke:#000000;fill:none;stroke-width:5" d="M720 146C714.841 155.667 718 170.331 718 181L718 261L717.921 463C717.921 488.548 717.27 514.382 716.996 540C716.849 553.762 714.747 567.335 718 581"/>
<path style="stroke:#715B11;fill:none;stroke-width:4" d="M720 146C714.841 155.667 718 170.331 718 181L718 261L717.921 463C717.921 488.548 717.27 514.382 716.996 540C716.849 553.762 714.747 567.335 718 581"/>
<circle stroke="#000000" fill="none" stroke-width="2" r="15" cx="720" cy="146"/>
<circle stroke="#000000" fill="none" stroke-width="2" r="15" cx="718" cy="581"/>
<path style="stroke:#000000;fill:none;stroke-width:5" d="M734 146C745.605 148.006 758.482 155.611 769 160.917C792.957 173.002 816.423 185.215 838 201.254C861.921 219.035 885.84 236.848 906.961 258.039C957.975 309.225 996.157 373.172 1019.95 441C1031.46 473.827 1041.94 511.962 1042 547C1042.02 558.88 1048.51 573.618 1037 582"/>
<path style="stroke:#171AB7;fill:none;stroke-width:4" d="M734 146C745.605 148.006 758.482 155.611 769 160.917C792.957 173.002 816.423 185.215 838 201.254C861.921 219.035 885.84 236.848 906.961 258.039C957.975 309.225 996.157 373.172 1019.95 441C1031.46 473.827 1041.94 511.962 1042 547C1042.02 558.88 1048.51 573.618 1037 582"/>
<circle stroke="#000000" fill="none" stroke-width="2" r="15" cx="734" cy="146"/>
<circle stroke="#000000" fill="none" stroke-width="2" r="15" cx="1037" cy="582"/>
<path style="stroke:#000000;fill:none;stroke-width:5" d="M104 575L104 577"/>
<path style="stroke:#BE6D9F;fill:none;stroke-width:4" d="M104 575L104 577"/>
<circle stroke="#000000" fill="none" stroke-width="2" r="15" cx="104" cy="575"/>
<circle stroke="#000000" fill="none" stroke-width="2" r="15" cx="104" cy="577"/>
<path style="stroke:#000000;fill:none;stroke-width:5" d="M797 583C855.694 582.993 914.281 583.306 973 584.004C987.655 584.178 1002.32 586 1017 586C1024.45 586 1030.9 586.87 1037 582"/>
<path style="stroke:#97C2C5;fill:none;stroke-width:4" d="M797 583C855.694 582.993 914.281 583.306 973 584.004C987.655 584.178 1002.32 586 1017 586C1024.45 586 1030.9 586.87 1037 582"/>
<circle stroke="#000000" fill="none" stroke-width="2" r="15" cx="797" cy="583"/>
<circle stroke="#000000" fill="none" stroke-width="2" r="15" cx="1037" cy="582"/>
<path style="stroke:#000000;fill:none;stroke-width:5" d="M717 585L716 1190"/>
<path style="stroke:#4B7274;fill:none;stroke-width:4" d="M717 585L716 1190"/>
<circle stroke="#000000" fill="none" stroke-width="2" r="15" cx="717" cy="585"/>
<circle stroke="#000000" fill="none" stroke-width="2" r="15" cx="716" cy="1190"/>
</svg>