<?xml version="1.0" standalone="yes"?>
<svg width="1040" height="992">
<path style="stroke:#000000;fill:none;stroke-width:5" d="M"/>
<path style="stroke:#329E18;fill:none;stroke-width:4" d="M"/>
<path style="stroke:#000000;fill:none;stroke-width:5" d="M899 472C891.47 471.427 890.147 464.562 886.351 459C877.759 446.411 868.439 434.173 859.154 422.089C828.697 382.453 799.203 341.974 769.13 302C754.035 281.935 745.617 259.452 717 260.015C614.094 262.04 510.594 265.189 408 268.956C378.566 270.037 348.45 267.367 319 270.17C285.522 273.356 251.454 269.34 218 273.286C209.597 274.276 188.279 281.794 181.643 274.297C175.772 267.665 190.506 253.258 193.437 248C209.128 219.847 237.788 197.369 261.715 176.5C288.286 153.324 319.418 138.706 351 123.931C357.248 121.007 362.476 116.47 369 113.88C394.448 103.775 423.058 99.2612 450 95.7184C498.068 89.3977 546.385 88.5914 594 99.5C647.568 111.772 695.917 135.373 741 166.22C773.826 188.681 801.373 218.971 824.458 251C908.115 367.07 925.21 522.438 865.1 653C844.746 697.211 814.509 736.227 780.13 770.272C746.16 803.912 705.313 831.957 661 850.29C583.796 882.23 501.141 888.013 420 871.12C390.284 864.933 350.102 856.139 331.603 830.856C327.505 825.256 327.488 812.86 325.43 806C319.435 786.02 313.873 765.928 307.653 746C284.551 671.982 262.352 597.203 243.556 522C236.403 493.383 225.823 465.321 217.559 437C208.387 405.569 201.783 372.642 190.192 342C184.754 327.624 180.301 311.957 176.745 297C175.726 292.712 175.398 279.455 168.132 286.167C161.2 292.571 157.177 305.443 153.576 314C144.421 335.748 135.939 357.234 129.576 380C97.4351 494.987 121.251 624.702 191.87 721C219.181 758.241 252.184 789.05 290 815.459C299.252 821.92 322.072 840.635 333 833"/>
<path style="stroke:#3F80FC;fill:none;stroke-width:4" d="M899 472C891.47 471.427 890.147 464.562 886.351 459C877.759 446.411 868.439 434.173 859.154 422.089C828.697 382.453 799.203 341.974 769.13 302C754.035 281.935 745.617 259.452 717 260.015C614.094 262.04 510.594 265.189 408 268.956C378.566 270.037 348.45 267.367 319 270.17C285.522 273.356 251.454 269.34 218 273.286C209.597 274.276 188.279 281.794 181.643 274.297C175.772 267.665 190.506 253.258 193.437 248C209.128 219.847 237.788 197.369 261.715 176.5C288.286 153.324 319.418 138.706 351 123.931C357.248 121.007 362.476 116.47 369 113.88C394.448 103.775 423.058 99.2612 450 95.7184C498.068 89.3977 546.385 88.5914 594 99.5C647.568 111.772 695.917 135.373 741 166.22C773.826 188.681 801.373 218.971 824.458 251C908.115 367.07 925.21 522.438 865.1 653C844.746 697.211 814.509 736.227 780.13 770.272C746.16 803.912 705.313 831.957 661 850.29C583.796 882.23 501.141 888.013 420 871.12C390.284 864.933 350.102 856.139 331.603 830.856C327.505 825.256 327.488 812.86 325.43 806C319.435 786.02 313.873 765.928 307.653 746C284.551 671.982 262.352 597.203 243.556 522C236.403 493.383 225.823 465.321 217.559 437C208.387 405.569 201.783 372.642 190.192 342C184.754 327.624 180.301 311.957 176.745 297C175.726 292.712 175.398 279.455 168.132 286.167C161.2 292.571 157.177 305.443 153.576 314C144.421 335.748 135.939 357.234 129.576 380C97.4351 494.987 121.251 624.702 191.87 721C219.181 758.241 252.184 789.05 290 815.459C299.252 821.92 322.072 840.635 333 833"/>
<circle stroke="#000000" fill="none" stroke-width="2" r="15" cx="899" cy="472"/>
<circle stroke="#000000" fill="none" stroke-width="2" r="15" cx="333" cy="833"/>
<path style="stroke:#000000;fill:none;stroke-width:5" d="M738 265C731.825 273.397 724.723 283.895 716.714 290.606C711.17 295.25 703.925 297.262 698.286 302.46C678.673 320.537 660.584 340.218 640.961 358.286C632.421 366.148 624.746 374.939 616.001 382.576C613.393 384.853 607.799 388.736 608.681 392.867C609.255 395.56 612.725 396.709 615 397.426C620.125 399.041 639.821 405.762 643.737 401.396C647.796 396.87 650.371 390.183 653.94 385.17C665.253 369.277 675.987 352.76 687.489 337C697.11 323.818 711.815 309.357 715 293"/>
<path style="stroke:#1966B5;fill:none;stroke-width:4" d="M738 265C731.825 273.397 724.723 283.895 716.714 290.606C711.17 295.25 703.925 297.262 698.286 302.46C678.673 320.537 660.584 340.218 640.961 358.286C632.421 366.148 624.746 374.939 616.001 382.576C613.393 384.853 607.799 388.736 608.681 392.867C609.255 395.56 612.725 396.709 615 397.426C620.125 399.041 639.821 405.762 643.737 401.396C647.796 396.87 650.371 390.183 653.94 385.17C665.253 369.277 675.987 352.76 687.489 337C697.11 323.818 711.815 309.357 715 293"/>
<circle stroke="#000000" fill="none" stroke-width="2" r="15" cx="738" cy="265"/>
<circle stroke="#000000" fill="none" stroke-width="2" r="15" cx="715" cy="293"/>
<path style="stroke:#000000;fill:none;stroke-width:5" d="M172 283L179 276"/>
<path style="stroke:#FEF235;fill:none;stroke-width:4" d="M172 283L179 276"/>
<circle stroke="#000000" fill="none" stroke-width="2" r="15" cx="172" cy="283"/>
<circle stroke="#000000" fill="none" stroke-width="2" r="15" cx="179" cy="276"/>
<path style="stroke:#000000;fill:none;stroke-width:5" d="M200 277C208.397 284.96 219.333 285.962 230 289.355C251.288 296.127 273.31 301.952 295 307.375C363.759 324.565 431.811 345.176 500 364.441C524.063 371.24 548.136 378.434 572 385.78C577.988 387.623 593.832 388.177 597.056 394.228C600.157 400.047 587.393 408.527 584.089 411.985C568.434 428.374 551.764 444.234 535.089 459.572C528.333 465.787 523.037 473.287 516.61 479.606C514.269 481.909 510.805 482.685 508.727 485.275C503.444 491.857 500.323 503.281 496.615 511C488.553 527.782 480.045 544.399 471.627 561C454.796 594.192 436.88 627.084 421.435 661C413.154 679.185 403.801 697.024 395.052 715C392.833 719.56 389.142 730.855 383 730.855C375.986 730.855 374.028 715.279 372.742 710C366.953 686.237 360.888 662.492 354.128 639C338.436 584.466 324.097 529.473 308.7 475C305.853 464.929 299.16 454.503 296.985 444.83C295.76 439.385 296.703 433.457 295.402 428C288.203 397.805 274.886 367.723 271 337C293.635 342.933 315.064 361.878 335 373.819C393.531 408.876 448.619 450.425 508 484"/>
<path style="stroke:#D16D32;fill:none;stroke-width:4" d="M200 277C208.397 284.96 219.333 285.962 230 289.355C251.288 296.127 273.31 301.952 295 307.375C363.759 324.565 431.811 345.176 500 364.441C524.063 371.24 548.136 378.434 572 385.78C577.988 387.623 593.832 388.177 597.056 394.228C600.157 400.047 587.393 408.527 584.089 411.985C568.434 428.374 551.764 444.234 535.089 459.572C528.333 465.787 523.037 473.287 516.61 479.606C514.269 481.909 510.805 482.685 508.727 485.275C503.444 491.857 500.323 503.281 496.615 511C488.553 527.782 480.045 544.399 471.627 561C454.796 594.192 436.88 627.084 421.435 661C413.154 679.185 403.801 697.024 395.052 715C392.833 719.56 389.142 730.855 383 730.855C375.986 730.855 374.028 715.279 372.742 710C366.953 686.237 360.888 662.492 354.128 639C338.436 584.466 324.097 529.473 308.7 475C305.853 464.929 299.16 454.503 296.985 444.83C295.76 439.385 296.703 433.457 295.402 428C288.203 397.805 274.886 367.723 271 337C293.635 342.933 315.064 361.878 335 373.819C393.531 408.876 448.619 450.425 508 484"/>
<circle stroke="#000000" fill="none" stroke-width="2" r="15" cx="200" cy="277"/>
<circle stroke="#000000" fill="none" stroke-width="2" r="15" cx="508" cy="484"/>
<path style="stroke:#000000;fill:none;stroke-width:5" d="M192 279C201.007 297.894 231.37 310.68 249 321.326C255.703 325.373 266.111 328.91 270 336"/>
<path style="stroke:#CF1D90;fill:none;stroke-width:4" d="M192 279C201.007 297.894 231.37 310.68 249 321.326C255.703 325.373 266.111 328.91 270 336"/>
<circle stroke="#000000" fill="none" stroke-width="2" r="15" cx="192" cy="279"/>
<circle stroke="#000000" fill="none" stroke-width="2" r="15" cx="270" cy="336"/>
<path style="stroke:#000000;fill:none;stroke-width:5" d="M600 395L607 393"/>
<path style="stroke:#59F003;fill:none;stroke-width:4" d="M600 395L607 393"/>
<circle stroke="#000000" fill="none" stroke-width="2" r="15" cx="600" cy="395"/>
<circle stroke="#000000" fill="none" stroke-width="2" r="15" cx="607" cy="393"/>
<path style="stroke:#000000;fill:none;stroke-width:5" d="M638 403C637.581 411.061 632.287 416.622 627.896 423C619.589 435.063 611.069 446.935 602.767 459C599.806 463.303 589.669 474.024 592.329 479.682C594.354 483.99 605.257 481.943 609 481.615C624.679 480.243 641.166 481 657 481C710.073 481 763.055 478.003 816 478C829.383 477.999 842.62 477.098 856 477.003C863.702 476.949 870.796 478.247 877 473C865.427 462.974 841.704 461.025 827 456.637C784.463 443.943 741.7 431.946 699 419.909C682.659 415.303 657.359 413.672 644 403"/>
<path style="stroke:#FA1FE7;fill:none;stroke-width:4" d="M638 403C637.581 411.061 632.287 416.622 627.896 423C619.589 435.063 611.069 446.935 602.767 459C599.806 463.303 589.669 474.024 592.329 479.682C594.354 483.99 605.257 481.943 609 481.615C624.679 480.243 641.166 481 657 481C710.073 481 763.055 478.003 816 478C829.383 477.999 842.62 477.098 856 477.003C863.702 476.949 870.796 478.247 877 473C865.427 462.974 841.704 461.025 827 456.637C784.463 443.943 741.7 431.946 699 419.909C682.659 415.303 657.359 413.672 644 403"/>
<circle stroke="#000000" fill="none" stroke-width="2" r="15" cx="638" cy="403"/>
<circle stroke="#000000" fill="none" stroke-width="2" r="15" cx="644" cy="403"/>
<path style="stroke:#000000;fill:none;stroke-width:5" d="M893 472L878 474"/>
<path style="stroke:#E2332B;fill:none;stroke-width:4" d="M893 472L878 474"/>
<circle stroke="#000000" fill="none" stroke-width="2" r="15" cx="893" cy="472"/>
<circle stroke="#000000" fill="none" stroke-width="2" r="15" cx="878" cy="474"/>
<path style="stroke:#000000;fill:none;stroke-width:5" d="M517 480C527.59 487.618 548.408 483 561 483"/>
<path style="stroke:#8DE4B0;fill:none;stroke-width:4" d="M517 480C527.59 487.618 548.408 483 561 483"/>
<circle stroke="#000000" fill="none" stroke-width="2" r="15" cx="517" cy="480"/>
<circle stroke="#000000" fill="none" stroke-width="2" r="15" cx="561" cy="483"/>
<path style="stroke:#000000;fill:none;stroke-width:5" d="M339 835C343.4 830.158 343.307 823.236 347.785 818.278C350.227 815.574 353.855 814.604 356.331 811.867C379.342 786.427 396.86 754.282 416.178 726C449.747 676.855 485.053 628.799 519.139 580C534.987 557.311 551.481 535.058 566.796 512C573.537 501.849 579.193 487.045 590 481"/>
<path style="stroke:#32A147;fill:none;stroke-width:4" d="M339 835C343.4 830.158 343.307 823.236 347.785 818.278C350.227 815.574 353.855 814.604 356.331 811.867C379.342 786.427 396.86 754.282 416.178 726C449.747 676.855 485.053 628.799 519.139 580C534.987 557.311 551.481 535.058 566.796 512C573.537 501.849 579.193 487.045 590 481"/>
<circle stroke="#000000" fill="none" stroke-width="2" r="15" cx="339" cy="835"/>
<circle stroke="#000000" fill="none" stroke-width="2" r="15" cx="590" cy="481"/>
<path style="stroke:#000000;fill:none;stroke-width:5" d="M569 483L582 485"/>
<path style="stroke:#F74AD9;fill:none;stroke-width:4" d="M569 483L582 485"/>
<circle stroke="#000000" fill="none" stroke-width="2" r="15" cx="569" cy="483"/>
<circle stroke="#000000" fill="none" stroke-width="2" r="15" cx="582" cy="485"/>
<path style="stroke:#000000;fill:none;stroke-width:5" d="M893 484C858.945 508.67 821.07 528.558 786 551.889C683.741 619.917 579.511 684.981 476 751.04C442.69 772.298 410.461 795.042 377 816.05C369.019 821.061 351.555 837.236 342 833"/>
<path style="stroke:#86672F;fill:none;stroke-width:4" d="M893 484C858.945 508.67 821.07 528.558 786 551.889C683.741 619.917 579.511 684.981 476 751.04C442.69 772.298 410.461 795.042 377 816.05C369.019 821.061 351.555 837.236 342 833"/>
<circle stroke="#000000" fill="none" stroke-width="2" r="15" cx="893" cy="484"/>
<circle stroke="#000000" fill="none" stroke-width="2" r="15" cx="342" cy="833"/>
<path style="stroke:#000000;fill:none;stroke-width:5" d="M383 732C376.663 761.669 353.546 785.251 348 815"/>
<path style="stroke:#1DAECD;fill:none;stroke-width:4" d="M383 732C376.663 761.669 353.546 785.251 348 815"/>
<circle stroke="#000000" fill="none" stroke-width="2" r="15" cx="383" cy="732"/>
<circle stroke="#000000" fill="none" stroke-width="2" r="15" cx="348" cy="815"/>
<path style="stroke:#000000;fill:none;stroke-width:5" d="M344 824L351 831"/>
<path style="stroke:#536264;fill:none;stroke-width:4" d="M344 824L351 831"/>
<circle stroke="#000000" fill="none" stroke-width="2" r="15" cx="344" cy="824"/>
<circle stroke="#000000" fill="none" stroke-width="2" r="15" cx="351" cy="831"/>
</svg>