<?xml version="1.0" standalone="yes"?>
<svg width="1064" height="872">
<path style="stroke:#000000;fill:none;stroke-width:5" d="M"/>
<path style="stroke:#3D1DC8;fill:none;stroke-width:4" d="M"/>
<path style="stroke:#000000;fill:none;stroke-width:5" d="M462.981 93.6528C469.85 94.0184 467.237 101.487 467.039 106C466.458 119.281 467 132.705 467 146C467 203.168 470.196 260.828 468.961 318C467.989 362.96 469.462 408.102 469.996 453C470.245 473.885 468.164 495.258 469.039 516C470.47 549.926 470 583.994 470 618C470 636.075 471.889 653.939 470.17 672C467.748 697.448 471.3 723.492 470.996 749C470.939 753.825 472.113 772.029 468.397 774.972C464.746 777.864 456.209 775.694 452 775.3C441.848 774.351 431.339 776.153 421 775.17C386.251 771.865 350.107 780.004 315 776.941C307.916 776.323 306.169 770.173 306.015 764C305.666 750.019 305.999 735.986 306 722L306 543C306 431.088 303.82 318.728 305.975 207C306.528 178.324 301.824 148.573 305.576 120C306.341 114.169 303.235 100.019 307.603 95.7423C310.275 93.1266 315.613 94.0002 319 94L347 94C368.312 94 389.764 95.5056 411 94.9854C428.163 94.5649 445.777 92.7371 462.981 93.6528"/>
<path style="stroke:#3AE251;fill:none;stroke-width:4" d="M462.981 93.6528C469.85 94.0184 467.237 101.487 467.039 106C466.458 119.281 467 132.705 467 146C467 203.168 470.196 260.828 468.961 318C467.989 362.96 469.462 408.102 469.996 453C470.245 473.885 468.164 495.258 469.039 516C470.47 549.926 470 583.994 470 618C470 636.075 471.889 653.939 470.17 672C467.748 697.448 471.3 723.492 470.996 749C470.939 753.825 472.113 772.029 468.397 774.972C464.746 777.864 456.209 775.694 452 775.3C441.848 774.351 431.339 776.153 421 775.17C386.251 771.865 350.107 780.004 315 776.941C307.916 776.323 306.169 770.173 306.015 764C305.666 750.019 305.999 735.986 306 722L306 543C306 431.088 303.82 318.728 305.975 207C306.528 178.324 301.824 148.573 305.576 120C306.341 114.169 303.235 100.019 307.603 95.7423C310.275 93.1266 315.613 94.0002 319 94L347 94C368.312 94 389.764 95.5056 411 94.9854C428.163 94.5649 445.777 92.7371 462.981 93.6528"/>
<circle stroke="#000000" fill="none" stroke-width="2" r="15" cx="462.981" cy="93.6528"/>
<circle stroke="#000000" fill="none" stroke-width="2" r="15" cx="462.981" cy="93.6528"/>
<path style="stroke:#000000;fill:none;stroke-width:5" d="M81 272C76.359 278.452 78.821 284.669 78.821 292C78.821 301.973 77.5986 311.95 78.0394 322C78.3509 329.104 80.5141 335.809 79.8302 343C77.1022 371.686 80.0462 401.266 80 430C79.9437 465.013 77.5198 500.088 79.9105 535C80.8329 548.47 80.316 562.501 79.9853 576C79.8105 583.138 78.1029 589.134 81 596"/>
<path style="stroke:#5E0E42;fill:none;stroke-width:4" d="M81 272C76.359 278.452 78.821 284.669 78.821 292C78.821 301.973 77.5986 311.95 78.0394 322C78.3509 329.104 80.5141 335.809 79.8302 343C77.1022 371.686 80.0462 401.266 80 430C79.9437 465.013 77.5198 500.088 79.9105 535C80.8329 548.47 80.316 562.501 79.9853 576C79.8105 583.138 78.1029 589.134 81 596"/>
<circle stroke="#000000" fill="none" stroke-width="2" r="15" cx="81" cy="272"/>
<circle stroke="#000000" fill="none" stroke-width="2" r="15" cx="81" cy="596"/>
<path style="stroke:#000000;fill:none;stroke-width:5" d="M760.148 319.492C763.964 318.018 770.856 319.937 775 319.989C786.637 320.137 798.417 320.265 810 319.985C854.625 318.909 899.327 319.993 944 318.039C957.605 317.444 971.302 319.849 985 318.911C989.663 318.591 996.813 316.069 999.821 321.148C1002.63 325.898 1000.69 333.72 1000.91 339C1001.6 355.407 1000.03 371.675 1000 388C999.906 446.513 1003.5 505.694 1001.04 564C998.863 615.597 1003 668.227 1003 720C1003 732.304 1002.46 744.712 1003.04 757C1003.26 761.657 1005.41 767.814 999.891 770.262C994.099 772.831 986.169 772 980 772L942 772C898.945 772 856.071 774 813 774C798.916 774 785.024 773.829 771 773.996C767.166 774.042 759.516 775.41 757.028 771.682C754.193 767.435 756 757.934 756 753L756 705C756 644.998 755.285 584.842 755.996 525C756.618 472.698 749.573 418.049 755.714 366C757.03 354.852 756.142 343.22 756.911 332C757.165 328.283 755.658 321.226 760.148 319.492"/>
<path style="stroke:#BBB4EB;fill:none;stroke-width:4" d="M760.148 319.492C763.964 318.018 770.856 319.937 775 319.989C786.637 320.137 798.417 320.265 810 319.985C854.625 318.909 899.327 319.993 944 318.039C957.605 317.444 971.302 319.849 985 318.911C989.663 318.591 996.813 316.069 999.821 321.148C1002.63 325.898 1000.69 333.72 1000.91 339C1001.6 355.407 1000.03 371.675 1000 388C999.906 446.513 1003.5 505.694 1001.04 564C998.863 615.597 1003 668.227 1003 720C1003 732.304 1002.46 744.712 1003.04 757C1003.26 761.657 1005.41 767.814 999.891 770.262C994.099 772.831 986.169 772 980 772L942 772C898.945 772 856.071 774 813 774C798.916 774 785.024 773.829 771 773.996C767.166 774.042 759.516 775.41 757.028 771.682C754.193 767.435 756 757.934 756 753L756 705C756 644.998 755.285 584.842 755.996 525C756.618 472.698 749.573 418.049 755.714 366C757.03 354.852 756.142 343.22 756.911 332C757.165 328.283 755.658 321.226 760.148 319.492"/>
<circle stroke="#000000" fill="none" stroke-width="2" r="15" cx="760.148" cy="319.492"/>
<circle stroke="#000000" fill="none" stroke-width="2" r="15" cx="760.148" cy="319.492"/>
</svg>