<?xml version="1.0" standalone="yes"?>
<svg width="1192" height="624">
<path style="stroke:#000000;fill:none;stroke-width:5" d="M"/>
<path style="stroke:#C14590;fill:none;stroke-width:4" d="M"/>
<path style="stroke:#000000;fill:none;stroke-width:5" d="M62 374C150.659 374 239.302 370 328 370L406 370C414.327 370 430.275 372.763 437.697 369.106C441.937 367.018 442.882 357.819 445.823 354C457.208 339.218 469.002 324.697 480.511 310C515.996 264.688 552.789 220.43 590.424 176.83C599.847 165.914 609.085 154.432 617.88 143C620.969 138.985 623.066 131.842 627.144 129.009C634.103 124.176 647.018 126.694 655 126.406C681.666 125.442 708.331 125.922 735 124.946C781.375 123.249 827.587 120.949 874 120.054C890.601 119.734 907.293 121.35 924 120.559C947.277 119.458 970.761 119.502 994 117.91C1011.02 116.745 1028.94 114.094 1046 116"/>
<path style="stroke:#637875;fill:none;stroke-width:4" d="M62 374C150.659 374 239.302 370 328 370L406 370C414.327 370 430.275 372.763 437.697 369.106C441.937 367.018 442.882 357.819 445.823 354C457.208 339.218 469.002 324.697 480.511 310C515.996 264.688 552.789 220.43 590.424 176.83C599.847 165.914 609.085 154.432 617.88 143C620.969 138.985 623.066 131.842 627.144 129.009C634.103 124.176 647.018 126.694 655 126.406C681.666 125.442 708.331 125.922 735 124.946C781.375 123.249 827.587 120.949 874 120.054C890.601 119.734 907.293 121.35 924 120.559C947.277 119.458 970.761 119.502 994 117.91C1011.02 116.745 1028.94 114.094 1046 116"/>
<circle stroke="#000000" fill="none" stroke-width="2" r="15" cx="62" cy="374"/>
<circle stroke="#000000" fill="none" stroke-width="2" r="15" cx="1046" cy="116"/>
<path style="stroke:#000000;fill:none;stroke-width:5" d="M287 132C368.129 132 449.96 132.51 531 128.961C553.564 127.972 576.41 127 599 127C608.081 127 617.322 124.148 625 130"/>
<path style="stroke:#0E98E1;fill:none;stroke-width:4" d="M287 132C368.129 132 449.96 132.51 531 128.961C553.564 127.972 576.41 127 599 127C608.081 127 617.322 124.148 625 130"/>
<circle stroke="#000000" fill="none" stroke-width="2" r="15" cx="287" cy="132"/>
<circle stroke="#000000" fill="none" stroke-width="2" r="15" cx="625" cy="130"/>
<path style="stroke:#000000;fill:none;stroke-width:5" d="M440 369L464 368L537 366.454L709 365L782 362.99L816 362"/>
<path style="stroke:#43548D;fill:none;stroke-width:4" d="M440 369L464 368L537 366.454L709 365L782 362.99L816 362"/>
<circle stroke="#000000" fill="none" stroke-width="2" r="15" cx="440" cy="369"/>
<circle stroke="#000000" fill="none" stroke-width="2" r="15" cx="816" cy="362"/>
<path style="stroke:#000000;fill:none;stroke-width:5" d="M442 371C443.148 378.226 447.813 380.743 453 385.209C461.666 392.672 470.361 399.935 479 407.424C509.774 434.104 541.21 459.977 572 486.718C581.858 495.28 601.846 505.732 605 519C663.431 521.67 721.608 518.468 780 517.015C850.995 515.248 921.961 516.841 993 515.996C1026.04 515.603 1059.06 513 1092 513"/>
<path style="stroke:#01F48F;fill:none;stroke-width:4" d="M442 371C443.148 378.226 447.813 380.743 453 385.209C461.666 392.672 470.361 399.935 479 407.424C509.774 434.104 541.21 459.977 572 486.718C581.858 495.28 601.846 505.732 605 519C663.431 521.67 721.608 518.468 780 517.015C850.995 515.248 921.961 516.841 993 515.996C1026.04 515.603 1059.06 513 1092 513"/>
<circle stroke="#000000" fill="none" stroke-width="2" r="15" cx="442" cy="371"/>
<circle stroke="#000000" fill="none" stroke-width="2" r="15" cx="1092" cy="513"/>
<path style="stroke:#000000;fill:none;stroke-width:5" d="M605 519C597.893 524.112 589.193 521.403 581 522.17C557.16 524.402 533.041 524 509 524C434.502 524 360.362 527.112 286 527.996C276.507 528.109 267.437 526.006 258 526"/>
<path style="stroke:#18D8AD;fill:none;stroke-width:4" d="M605 519C597.893 524.112 589.193 521.403 581 522.17C557.16 524.402 533.041 524 509 524C434.502 524 360.362 527.112 286 527.996C276.507 528.109 267.437 526.006 258 526"/>
<circle stroke="#000000" fill="none" stroke-width="2" r="15" cx="605" cy="519"/>
<circle stroke="#000000" fill="none" stroke-width="2" r="15" cx="258" cy="526"/>
</svg>