<?xml version="1.0" standalone="yes"?>
<svg width="744" height="528">
<path style="stroke:#000000;fill:none;stroke-width:5" d="M"/>
<path style="stroke:#15687D;fill:none;stroke-width:4" d="M"/>
<path style="stroke:#000000;fill:none;stroke-width:5" d="M350 117C357.058 111.919 366.669 113 375 113C395.528 113 416.027 115.753 436 120.207C526.766 140.447 604.383 200.96 646 284C659.515 310.968 671.706 345.505 672 376C672.05 381.235 676.749 402.605 669.852 404.654C666.669 405.6 663.114 401.396 661 399.575C654.145 393.67 647.408 387.388 641 381C614.64 354.725 585.84 330.764 558 306.05C529.404 280.664 501.833 253.992 473.004 228.87C445.862 205.218 419.641 180.383 392.965 156.208C378.475 143.077 362.951 131.824 350 117"/>
<path style="stroke:#31C654;fill:none;stroke-width:4" d="M350 117C357.058 111.919 366.669 113 375 113C395.528 113 416.027 115.753 436 120.207C526.766 140.447 604.383 200.96 646 284C659.515 310.968 671.706 345.505 672 376C672.05 381.235 676.749 402.605 669.852 404.654C666.669 405.6 663.114 401.396 661 399.575C654.145 393.67 647.408 387.388 641 381C614.64 354.725 585.84 330.764 558 306.05C529.404 280.664 501.833 253.992 473.004 228.87C445.862 205.218 419.641 180.383 392.965 156.208C378.475 143.077 362.951 131.824 350 117"/>
<circle stroke="#000000" fill="none" stroke-width="2" r="15" cx="350" cy="117"/>
<circle stroke="#000000" fill="none" stroke-width="2" r="15" cx="350" cy="117"/>
<path style="stroke:#000000;fill:none;stroke-width:5" d="M344 117C336.981 132.539 322.686 143.825 311.039 156C289.043 178.995 267.157 202.111 245.385 225.285C221.894 250.288 198.247 275.323 174.536 300.13L102.039 376C97.3232 380.934 85.2631 401.055 77.3179 398.226C72.0061 396.335 75.152 375.456 76 371C81.4094 342.579 86.7358 316.24 97.3449 289C126.963 212.953 194.597 154.579 271 129.219C287.387 123.78 302.893 119.31 320 116.562C327.759 115.316 336.73 113.12 344 117"/>
<path style="stroke:#7A49BC;fill:none;stroke-width:4" d="M344 117C336.981 132.539 322.686 143.825 311.039 156C289.043 178.995 267.157 202.111 245.385 225.285C221.894 250.288 198.247 275.323 174.536 300.13L102.039 376C97.3232 380.934 85.2631 401.055 77.3179 398.226C72.0061 396.335 75.152 375.456 76 371C81.4094 342.579 86.7358 316.24 97.3449 289C126.963 212.953 194.597 154.579 271 129.219C287.387 123.78 302.893 119.31 320 116.562C327.759 115.316 336.73 113.12 344 117"/>
<circle stroke="#000000" fill="none" stroke-width="2" r="15" cx="344" cy="117"/>
<circle stroke="#000000" fill="none" stroke-width="2" r="15" cx="344" cy="117"/>
<path style="stroke:#000000;fill:none;stroke-width:5" d="M344 117L350 117"/>
<path style="stroke:#E8B3B2;fill:none;stroke-width:4" d="M344 117L350 117"/>
<circle stroke="#000000" fill="none" stroke-width="2" r="15" cx="344" cy="117"/>
<circle stroke="#000000" fill="none" stroke-width="2" r="15" cx="350" cy="117"/>
<path style="stroke:#000000;fill:none;stroke-width:5" d="M85 397C94.0189 405.015 108.607 401.946 120 402.001C147.165 402.132 174.833 400.85 202 402.039C261.04 404.625 320.823 402.699 380 404.259C432.902 405.654 486.118 408 539 408C569.97 408 601.03 410 632 410C642.857 410 658.818 412.565 667 405"/>
<path style="stroke:#7C599F;fill:none;stroke-width:4" d="M85 397C94.0189 405.015 108.607 401.946 120 402.001C147.165 402.132 174.833 400.85 202 402.039C261.04 404.625 320.823 402.699 380 404.259C432.902 405.654 486.118 408 539 408C569.97 408 601.03 410 632 410C642.857 410 658.818 412.565 667 405"/>
<circle stroke="#000000" fill="none" stroke-width="2" r="15" cx="85" cy="397"/>
<circle stroke="#000000" fill="none" stroke-width="2" r="15" cx="667" cy="405"/>
</svg>