<?xml version="1.0" standalone="yes"?>
<svg width="904" height="960">
<path style="stroke:#000000;fill:none;stroke-width:5" d="M"/>
<path style="stroke:#68DA46;fill:none;stroke-width:4" d="M"/>
<path style="stroke:#000000;fill:none;stroke-width:5" d="M185 139C187.081 146.326 192.605 145.584 199 146.424C211.694 148.092 225.205 147.061 238 146.999C293.878 146.73 350.113 149 406 149"/>
<path style="stroke:#7B2772;fill:none;stroke-width:4" d="M185 139C187.081 146.326 192.605 145.584 199 146.424C211.694 148.092 225.205 147.061 238 146.999C293.878 146.73 350.113 149 406 149"/>
<circle stroke="#000000" fill="none" stroke-width="2" r="15" cx="185" cy="139"/>
<circle stroke="#000000" fill="none" stroke-width="2" r="15" cx="406" cy="149"/>
<path style="stroke:#000000;fill:none;stroke-width:5" d="M186 143C177.116 149.39 163.253 145.016 153 145C124.913 144.955 95.9585 143.025 68 145"/>
<path style="stroke:#062512;fill:none;stroke-width:4" d="M186 143C177.116 149.39 163.253 145.016 153 145C124.913 144.955 95.9585 143.025 68 145"/>
<circle stroke="#000000" fill="none" stroke-width="2" r="15" cx="186" cy="143"/>
<circle stroke="#000000" fill="none" stroke-width="2" r="15" cx="68" cy="145"/>
<path style="stroke:#000000;fill:none;stroke-width:5" d="M603 149L834 151"/>
<path style="stroke:#281E95;fill:none;stroke-width:4" d="M603 149L834 151"/>
<circle stroke="#000000" fill="none" stroke-width="2" r="15" cx="603" cy="149"/>
<circle stroke="#000000" fill="none" stroke-width="2" r="15" cx="834" cy="151"/>
<path style="stroke:#000000;fill:none;stroke-width:5" d="M307.148 279.832C314.357 277.155 328.355 280.103 336 280.83C352.058 282.359 368.867 281 385 281C450.507 281 515.639 282 581 282C601.723 282 622.308 283 643 283C648.216 283 660.534 280.391 663.972 285.433C666.772 289.539 663.831 298.201 664.039 303C664.738 319.103 664 334.866 664 351L664 532C664 588.301 664.575 644.81 662.104 701C661.449 715.904 664.393 731.006 662.424 746C660.422 761.253 662 777.619 662 793C662 796.774 663.755 806.341 659.682 808.4C653.538 811.508 641.774 808.997 635 809C615.282 809.008 595.757 809.904 576 809.039C512.54 806.26 448.814 809 385 809C364.327 809 343.666 808.985 323 808.71C318.004 808.643 306.381 811.438 303.028 806.566C299.436 801.348 302.511 789.868 302.91 784C303.929 769.046 302 753.108 302 738C302 673.407 304 608.718 304 544L304 343L304 295C304 290.923 302.23 281.658 307.148 279.832"/>
<path style="stroke:#45EE1E;fill:none;stroke-width:4" d="M307.148 279.832C314.357 277.155 328.355 280.103 336 280.83C352.058 282.359 368.867 281 385 281C450.507 281 515.639 282 581 282C601.723 282 622.308 283 643 283C648.216 283 660.534 280.391 663.972 285.433C666.772 289.539 663.831 298.201 664.039 303C664.738 319.103 664 334.866 664 351L664 532C664 588.301 664.575 644.81 662.104 701C661.449 715.904 664.393 731.006 662.424 746C660.422 761.253 662 777.619 662 793C662 796.774 663.755 806.341 659.682 808.4C653.538 811.508 641.774 808.997 635 809C615.282 809.008 595.757 809.904 576 809.039C512.54 806.26 448.814 809 385 809C364.327 809 343.666 808.985 323 808.71C318.004 808.643 306.381 811.438 303.028 806.566C299.436 801.348 302.511 789.868 302.91 784C303.929 769.046 302 753.108 302 738C302 673.407 304 608.718 304 544L304 343L304 295C304 290.923 302.23 281.658 307.148 279.832"/>
<circle stroke="#000000" fill="none" stroke-width="2" r="15" cx="307.148" cy="279.832"/>
<circle stroke="#000000" fill="none" stroke-width="2" r="15" cx="307.148" cy="279.832"/>
<path style="stroke:#000000;fill:none;stroke-width:5" d="M543 282L541.015 674L540.129 789L541 806"/>
<path style="stroke:#AA6EA8;fill:none;stroke-width:4" d="M543 282L541.015 674L540.129 789L541 806"/>
<circle stroke="#000000" fill="none" stroke-width="2" r="15" cx="543" cy="282"/>
<circle stroke="#000000" fill="none" stroke-width="2" r="15" cx="541" cy="806"/>
</svg>