<?xml version="1.0" standalone="yes"?>
<svg width="2700" height="708">
<path style="stroke:#000000;fill:none;stroke-width:5" d="M"/>
<path style="stroke:#A11305;fill:none;stroke-width:4" d="M"/>
<path style="stroke:#000000;fill:none;stroke-width:5" d="M704 617C693.066 623.698 674.484 619.714 662 620.015C626.753 620.865 591.235 619.079 556 619.079C450.979 619.079 346.152 620.34 241 620.34C210.688 620.34 180.305 620.708 150 620.015C137.151 619.721 122.502 622.695 110 619C114.134 602.404 127.188 586.496 136.319 572C151.923 547.227 166.534 521.817 182.089 497C233.943 414.271 284.048 330.457 336.406 248C354.489 219.521 371.55 190.159 390.204 162C393.104 157.623 403.787 134.422 410.53 138.792C418.812 144.161 425.421 161.525 430.28 170C444.036 193.994 458.436 217.601 473.159 241C528.312 328.651 583.026 416.804 636.973 505.17C653.231 531.8 669.69 558.239 685.827 585C691.713 594.761 698.574 612.736 708 619"/>
<path style="stroke:#F6D054;fill:none;stroke-width:4" d="M704 617C693.066 623.698 674.484 619.714 662 620.015C626.753 620.865 591.235 619.079 556 619.079C450.979 619.079 346.152 620.34 241 620.34C210.688 620.34 180.305 620.708 150 620.015C137.151 619.721 122.502 622.695 110 619C114.134 602.404 127.188 586.496 136.319 572C151.923 547.227 166.534 521.817 182.089 497C233.943 414.271 284.048 330.457 336.406 248C354.489 219.521 371.55 190.159 390.204 162C393.104 157.623 403.787 134.422 410.53 138.792C418.812 144.161 425.421 161.525 430.28 170C444.036 193.994 458.436 217.601 473.159 241C528.312 328.651 583.026 416.804 636.973 505.17C653.231 531.8 669.69 558.239 685.827 585C691.713 594.761 698.574 612.736 708 619"/>
<circle stroke="#000000" fill="none" stroke-width="2" r="15" cx="704" cy="617"/>
<circle stroke="#000000" fill="none" stroke-width="2" r="15" cx="708" cy="619"/>
<path style="stroke:#000000;fill:none;stroke-width:5" d="M1933 607C1934.59 596.998 1944.75 588.263 1950.33 580C1966.91 555.45 1985.64 531.85 2003.27 508C2062.27 428.158 2120.31 347.732 2178 267C2196.28 241.426 2214.94 216.099 2234 191.089C2237.96 185.889 2247.27 166.716 2255 168.712C2265.12 171.325 2274.12 189.104 2280.13 197.001C2299.9 222.99 2319.61 249.24 2339.88 274.83C2390.71 339.026 2438.41 405.826 2489.29 470C2510.5 496.754 2530.45 524.355 2551.67 551C2565.21 568.009 2581.45 586.049 2592 605L2573 607L2535 607L2398 607.015L2201 609.946L2054 610.961L1963 611.999L1930 610L1929 610L1928 611"/>
<path style="stroke:#E25E16;fill:none;stroke-width:4" d="M1933 607C1934.59 596.998 1944.75 588.263 1950.33 580C1966.91 555.45 1985.64 531.85 2003.27 508C2062.27 428.158 2120.31 347.732 2178 267C2196.28 241.426 2214.94 216.099 2234 191.089C2237.96 185.889 2247.27 166.716 2255 168.712C2265.12 171.325 2274.12 189.104 2280.13 197.001C2299.9 222.99 2319.61 249.24 2339.88 274.83C2390.71 339.026 2438.41 405.826 2489.29 470C2510.5 496.754 2530.45 524.355 2551.67 551C2565.21 568.009 2581.45 586.049 2592 605L2573 607L2535 607L2398 607.015L2201 609.946L2054 610.961L1963 611.999L1930 610L1929 610L1928 611"/>
<circle stroke="#000000" fill="none" stroke-width="2" r="15" cx="1933" cy="607"/>
<circle stroke="#000000" fill="none" stroke-width="2" r="15" cx="1928" cy="611"/>
<path style="stroke:#000000;fill:none;stroke-width:5" d="M1038 615C1038.83 603.907 1051.79 595.854 1058.57 588C1078.02 565.49 1097.48 542.413 1118.96 521.83C1143.33 498.48 1164.66 470.218 1187.17 445C1231.61 395.24 1276.57 344.795 1322.98 297C1344.29 275.061 1363.82 251.215 1384.91 229.015C1389.94 223.719 1398.71 207.934 1407 208.801C1411.8 209.303 1416.62 215.108 1420 218.17C1431.17 228.273 1440.44 239.995 1450.72 250.91C1489.89 292.514 1527.46 335.755 1567.09 376.961C1622.95 435.044 1675.37 496.68 1732 554C1745.27 567.425 1757.71 581.64 1771 595C1773.83 597.847 1784.46 605.752 1779.59 610.397C1776.9 612.961 1771.38 612 1768 612C1757.76 612 1747.2 611.248 1737 612.169C1691.41 616.288 1643.9 612.926 1598 613C1462.29 613.218 1326.85 616 1191 616C1153.82 616 1116.12 619.126 1079 617.957C1068.03 617.611 1057.03 618.281 1046 617.97C1039.36 617.783 1036.36 615.559 1030 619"/>
<path style="stroke:#03AD77;fill:none;stroke-width:4" d="M1038 615C1038.83 603.907 1051.79 595.854 1058.57 588C1078.02 565.49 1097.48 542.413 1118.96 521.83C1143.33 498.48 1164.66 470.218 1187.17 445C1231.61 395.24 1276.57 344.795 1322.98 297C1344.29 275.061 1363.82 251.215 1384.91 229.015C1389.94 223.719 1398.71 207.934 1407 208.801C1411.8 209.303 1416.62 215.108 1420 218.17C1431.17 228.273 1440.44 239.995 1450.72 250.91C1489.89 292.514 1527.46 335.755 1567.09 376.961C1622.95 435.044 1675.37 496.68 1732 554C1745.27 567.425 1757.71 581.64 1771 595C1773.83 597.847 1784.46 605.752 1779.59 610.397C1776.9 612.961 1771.38 612 1768 612C1757.76 612 1747.2 611.248 1737 612.169C1691.41 616.288 1643.9 612.926 1598 613C1462.29 613.218 1326.85 616 1191 616C1153.82 616 1116.12 619.126 1079 617.957C1068.03 617.611 1057.03 618.281 1046 617.97C1039.36 617.783 1036.36 615.559 1030 619"/>
<circle stroke="#000000" fill="none" stroke-width="2" r="15" cx="1038" cy="615"/>
<circle stroke="#000000" fill="none" stroke-width="2" r="15" cx="1030" cy="619"/>
<path style="stroke:#000000;fill:none;stroke-width:5" d="M2592 605L2594 605"/>
<path style="stroke:#A25E31;fill:none;stroke-width:4" d="M2592 605L2594 605"/>
<circle stroke="#000000" fill="none" stroke-width="2" r="15" cx="2592" cy="605"/>
<circle stroke="#000000" fill="none" stroke-width="2" r="15" cx="2594" cy="605"/>
<path style="stroke:#000000;fill:none;stroke-width:5" d="M127 669C120.399 656.881 116.784 643.929 109.874 632C107.547 627.982 104.123 623.175 109 620"/>
<path style="stroke:#EC96D2;fill:none;stroke-width:4" d="M127 669C120.399 656.881 116.784 643.929 109.874 632C107.547 627.982 104.123 623.175 109 620"/>
<circle stroke="#000000" fill="none" stroke-width="2" r="15" cx="127" cy="669"/>
<circle stroke="#000000" fill="none" stroke-width="2" r="15" cx="109" cy="620"/>
<path style="stroke:#000000;fill:none;stroke-width:5" d="M112 636C103.108 643.479 102.086 658.613 97 669"/>
<path style="stroke:#B1868E;fill:none;stroke-width:4" d="M112 636C103.108 643.479 102.086 658.613 97 669"/>
<circle stroke="#000000" fill="none" stroke-width="2" r="15" cx="112" cy="636"/>
<circle stroke="#000000" fill="none" stroke-width="2" r="15" cx="97" cy="669"/>
<path style="stroke:#000000;fill:none;stroke-width:5" d="M119 655L105 657"/>
<path style="stroke:#A1A11D;fill:none;stroke-width:4" d="M119 655L105 657"/>
<circle stroke="#000000" fill="none" stroke-width="2" r="15" cx="119" cy="655"/>
<circle stroke="#000000" fill="none" stroke-width="2" r="15" cx="105" cy="657"/>
</svg>