<?xml version="1.0" standalone="yes"?>
<svg width="1896" height="728">
<path style="stroke:#000000;fill:none;stroke-width:5" d="M"/>
<path style="stroke:#68BA5E;fill:none;stroke-width:4" d="M"/>
<path style="stroke:#000000;fill:none;stroke-width:5" d="M1309 603C1309 500.037 1310.5 396.949 1309.1 294C1308.94 282.526 1307 270.791 1307 259C1307 229.594 1306 200.233 1306 171C1306 164.214 1302.76 145.988 1307.03 140.603C1309.37 137.649 1316.68 139 1320 139C1331.83 139 1344.26 139.947 1356 138.83C1377.67 136.768 1399.31 139 1421 139C1454.11 139 1487.04 137.57 1520 138.961C1584.21 141.669 1649.6 137.689 1714 137.999C1730.67 138.08 1747.33 138 1764 138C1769.33 138 1779.32 136.099 1783.72 139.603C1789.88 144.505 1787 160.008 1787 167C1787 192.715 1788 218.334 1788 244C1788 298.463 1789 352.584 1789 407C1789 443.884 1787.43 481.155 1789.04 518C1790.06 541.309 1790 564.683 1790 588C1790 593.788 1791.69 609.101 1787.4 613.397C1782.56 618.23 1763.59 615 1757 615C1726.97 615 1697.06 614 1667 614C1547.78 614 1428.64 615 1309 615"/>
<path style="stroke:#01B5D9;fill:none;stroke-width:4" d="M1309 603C1309 500.037 1310.5 396.949 1309.1 294C1308.94 282.526 1307 270.791 1307 259C1307 229.594 1306 200.233 1306 171C1306 164.214 1302.76 145.988 1307.03 140.603C1309.37 137.649 1316.68 139 1320 139C1331.83 139 1344.26 139.947 1356 138.83C1377.67 136.768 1399.31 139 1421 139C1454.11 139 1487.04 137.57 1520 138.961C1584.21 141.669 1649.6 137.689 1714 137.999C1730.67 138.08 1747.33 138 1764 138C1769.33 138 1779.32 136.099 1783.72 139.603C1789.88 144.505 1787 160.008 1787 167C1787 192.715 1788 218.334 1788 244C1788 298.463 1789 352.584 1789 407C1789 443.884 1787.43 481.155 1789.04 518C1790.06 541.309 1790 564.683 1790 588C1790 593.788 1791.69 609.101 1787.4 613.397C1782.56 618.23 1763.59 615 1757 615C1726.97 615 1697.06 614 1667 614C1547.78 614 1428.64 615 1309 615"/>
<circle stroke="#000000" fill="none" stroke-width="2" r="15" cx="1309" cy="603"/>
<circle stroke="#000000" fill="none" stroke-width="2" r="15" cx="1309" cy="615"/>
<path style="stroke:#000000;fill:none;stroke-width:5" d="M602 141C609.268 137.121 619.907 139 628 139L685 139C753.449 139 821.72 138 890 138C909.786 138 930.355 139.8 950 138.791C956.201 138.472 971.179 134.895 976.397 139.028C979.478 141.468 978 149.524 978 153C978 166.012 979 178.948 979 192L979 317L979 353C979 357.621 980.275 364.55 978.397 368.852C976.683 372.776 971.499 371.998 968 372L938 372C895.639 372 853.334 373 811 373C723.427 373 634.719 371.966 547 373.004C456.691 374.072 365.326 376.228 275 374.015C227.128 372.842 179.038 376 131 376C119.963 376 108.974 376.289 98 375.169C92.949 374.654 86.5918 373.54 84.6929 367.83C83.3796 363.881 85.2336 358.242 84.8302 354C83.2129 336.993 84.2121 319.095 84.9606 302C86.5222 266.339 84 229.805 84 194C84 180.63 83.1621 167.303 83.0039 154C82.9651 150.742 81.6648 143.304 84.6034 141.032C88.8306 137.763 106.313 141.009 112 141C137.651 140.959 163.26 140 189 140C287.629 140 386.696 141.165 485 139.996C512.585 139.668 540.388 140.468 568 139.946C576.356 139.788 593.613 135.24 600.682 140.858C604.769 144.106 601.891 150.624 602.3 155C603.692 169.889 603 185.037 603 200C603 236.973 604 273.891 604 311C604 329.788 600.646 352.888 606 371"/>
<path style="stroke:#CE2692;fill:none;stroke-width:4" d="M602 141C609.268 137.121 619.907 139 628 139L685 139C753.449 139 821.72 138 890 138C909.786 138 930.355 139.8 950 138.791C956.201 138.472 971.179 134.895 976.397 139.028C979.478 141.468 978 149.524 978 153C978 166.012 979 178.948 979 192L979 317L979 353C979 357.621 980.275 364.55 978.397 368.852C976.683 372.776 971.499 371.998 968 372L938 372C895.639 372 853.334 373 811 373C723.427 373 634.719 371.966 547 373.004C456.691 374.072 365.326 376.228 275 374.015C227.128 372.842 179.038 376 131 376C119.963 376 108.974 376.289 98 375.169C92.949 374.654 86.5918 373.54 84.6929 367.83C83.3796 363.881 85.2336 358.242 84.8302 354C83.2129 336.993 84.2121 319.095 84.9606 302C86.5222 266.339 84 229.805 84 194C84 180.63 83.1621 167.303 83.0039 154C82.9651 150.742 81.6648 143.304 84.6034 141.032C88.8306 137.763 106.313 141.009 112 141C137.651 140.959 163.26 140 189 140C287.629 140 386.696 141.165 485 139.996C512.585 139.668 540.388 140.468 568 139.946C576.356 139.788 593.613 135.24 600.682 140.858C604.769 144.106 601.891 150.624 602.3 155C603.692 169.889 603 185.037 603 200C603 236.973 604 273.891 604 311C604 329.788 600.646 352.888 606 371"/>
<circle stroke="#000000" fill="none" stroke-width="2" r="15" cx="602" cy="141"/>
<circle stroke="#000000" fill="none" stroke-width="2" r="15" cx="606" cy="371"/>
<path style="stroke:#000000;fill:none;stroke-width:5" d="M792 139C798.143 172.088 792.079 209.564 792.079 243C792.079 285.503 794.876 328.548 794 371"/>
<path style="stroke:#3B4F55;fill:none;stroke-width:4" d="M792 139C798.143 172.088 792.079 209.564 792.079 243C792.079 285.503 794.876 328.548 794 371"/>
<circle stroke="#000000" fill="none" stroke-width="2" r="15" cx="792" cy="139"/>
<circle stroke="#000000" fill="none" stroke-width="2" r="15" cx="794" cy="371"/>
<path style="stroke:#000000;fill:none;stroke-width:5" d="M1626 140L1628 291L1730 290.861L1760 290.375L1786 290"/>
<path style="stroke:#3F0F0E;fill:none;stroke-width:4" d="M1626 140L1628 291L1730 290.861L1760 290.375L1786 290"/>
<circle stroke="#000000" fill="none" stroke-width="2" r="15" cx="1626" cy="140"/>
<circle stroke="#000000" fill="none" stroke-width="2" r="15" cx="1786" cy="290"/>
<path style="stroke:#000000;fill:none;stroke-width:5" d="M522 141L522 372"/>
<path style="stroke:#CF5660;fill:none;stroke-width:4" d="M522 141L522 372"/>
<circle stroke="#000000" fill="none" stroke-width="2" r="15" cx="522" cy="141"/>
<circle stroke="#000000" fill="none" stroke-width="2" r="15" cx="522" cy="372"/>
<path style="stroke:#000000;fill:none;stroke-width:5" d="M1310 292C1335.4 294.999 1361.47 291.124 1387 291.001C1439.04 290.75 1490.96 291.917 1543 292C1561.25 292.029 1581.02 293.836 1599 291.715C1605.23 290.98 1620.48 288.18 1625.57 292.603C1630.32 296.73 1628.31 310.393 1627.58 316C1625.14 334.517 1627 354.324 1627 373C1627 452.477 1629 532.349 1629 612"/>
<path style="stroke:#A446F8;fill:none;stroke-width:4" d="M1310 292C1335.4 294.999 1361.47 291.124 1387 291.001C1439.04 290.75 1490.96 291.917 1543 292C1561.25 292.029 1581.02 293.836 1599 291.715C1605.23 290.98 1620.48 288.18 1625.57 292.603C1630.32 296.73 1628.31 310.393 1627.58 316C1625.14 334.517 1627 354.324 1627 373C1627 452.477 1629 532.349 1629 612"/>
<circle stroke="#000000" fill="none" stroke-width="2" r="15" cx="1310" cy="292"/>
<circle stroke="#000000" fill="none" stroke-width="2" r="15" cx="1629" cy="612"/>
</svg>