<?xml version="1.0" standalone="yes"?>
<svg width="1672" height="912">
<path style="stroke:#000000;fill:none;stroke-width:5" d="M"/>
<path style="stroke:#950B3D;fill:none;stroke-width:4" d="M"/>
<path style="stroke:#000000;fill:none;stroke-width:5" d="M68.2284 121.317C72.8159 119.241 82.7165 122.192 88 121.961C109.809 121.006 132.197 123.911 154 122.791C186.809 121.105 220.141 123.18 253 123.985C304.136 125.238 354.839 124 406 124L482 124C487.692 124 504.366 121.193 507.972 126.434C511.348 131.339 508.62 142.222 509.17 148C511.33 170.702 509 194.129 509 217C509 300.27 507.134 383.768 507 467C506.862 553.184 506 639.57 506 726C506 746.2 503.346 766.923 505.715 787C506.314 792.081 507.611 804.658 501.852 807.258C495.169 810.275 483.263 808 476 808C454.994 808 433.922 806.502 413 807.015C388.032 807.626 362.778 804.445 338 805.108C280.724 806.64 223.507 806 166 806C140.652 806 115.271 805.041 90 805C84.1362 804.991 68.4007 808.548 65.0278 802.852C61.5999 797.063 63.0109 781.805 63 775L63 708C63 625.531 64 543.438 64 461C64 407.591 62.3694 354.333 63.0039 301C63.3826 269.159 65.5044 236.832 64.8719 205C64.4565 184.091 65 162.98 65 142C65 137.093 62.6813 123.828 68.2284 121.317"/>
<path style="stroke:#75FB5A;fill:none;stroke-width:4" d="M68.2284 121.317C72.8159 119.241 82.7165 122.192 88 121.961C109.809 121.006 132.197 123.911 154 122.791C186.809 121.105 220.141 123.18 253 123.985C304.136 125.238 354.839 124 406 124L482 124C487.692 124 504.366 121.193 507.972 126.434C511.348 131.339 508.62 142.222 509.17 148C511.33 170.702 509 194.129 509 217C509 300.27 507.134 383.768 507 467C506.862 553.184 506 639.57 506 726C506 746.2 503.346 766.923 505.715 787C506.314 792.081 507.611 804.658 501.852 807.258C495.169 810.275 483.263 808 476 808C454.994 808 433.922 806.502 413 807.015C388.032 807.626 362.778 804.445 338 805.108C280.724 806.64 223.507 806 166 806C140.652 806 115.271 805.041 90 805C84.1362 804.991 68.4007 808.548 65.0278 802.852C61.5999 797.063 63.0109 781.805 63 775L63 708C63 625.531 64 543.438 64 461C64 407.591 62.3694 354.333 63.0039 301C63.3826 269.159 65.5044 236.832 64.8719 205C64.4565 184.091 65 162.98 65 142C65 137.093 62.6813 123.828 68.2284 121.317"/>
<circle stroke="#000000" fill="none" stroke-width="2" r="15" cx="68.2284" cy="121.317"/>
<circle stroke="#000000" fill="none" stroke-width="2" r="15" cx="68.2284" cy="121.317"/>
<path style="stroke:#000000;fill:none;stroke-width:5" d="M340 126L338 804"/>
<path style="stroke:#F86583;fill:none;stroke-width:4" d="M340 126L338 804"/>
<circle stroke="#000000" fill="none" stroke-width="2" r="15" cx="340" cy="126"/>
<circle stroke="#000000" fill="none" stroke-width="2" r="15" cx="338" cy="804"/>
<path style="stroke:#000000;fill:none;stroke-width:5" d="M1357 737C1347.08 743.074 1334 740.843 1323 740.09C1305.58 738.897 1287.52 740 1270 740L1047 740C1025.39 740 1002.39 737.393 981 739.174C974.566 739.709 959.274 743.216 954.988 736.772C950.435 729.924 952.808 715.682 953.714 708C955.332 694.291 954 678.909 954 665C954 599.448 955 533.841 955 468L955 310C955 296.239 953.632 281.648 955.424 268C955.88 264.528 954.963 258.243 957.603 255.603C961.901 251.306 977.232 254 983 254L1056 254C1116.64 254 1177.36 256.292 1238 255.999C1277.69 255.808 1319.56 252.015 1359 257C1359 374.126 1357 490.833 1357 608L1357 701C1357 709.762 1353.32 729.26 1358.03 736.721C1360.47 740.597 1367.92 740.631 1372 740.91C1385.19 741.815 1398.85 740.337 1412 740.015C1458.75 738.869 1506.12 741 1553 741L1588 741C1591.65 741 1598.44 742.276 1601.26 739.397C1605.68 734.884 1603 719.948 1603 714L1603 643C1603 550.527 1601.92 457.343 1605.96 365C1607.1 338.898 1606 312.24 1606 286C1606 279.732 1608.93 263.068 1603.68 258.742C1599.44 255.243 1590.15 257.008 1585 257C1569.65 256.975 1554.36 256 1539 256L1360 256"/>
<path style="stroke:#05BFCE;fill:none;stroke-width:4" d="M1357 737C1347.08 743.074 1334 740.843 1323 740.09C1305.58 738.897 1287.52 740 1270 740L1047 740C1025.39 740 1002.39 737.393 981 739.174C974.566 739.709 959.274 743.216 954.988 736.772C950.435 729.924 952.808 715.682 953.714 708C955.332 694.291 954 678.909 954 665C954 599.448 955 533.841 955 468L955 310C955 296.239 953.632 281.648 955.424 268C955.88 264.528 954.963 258.243 957.603 255.603C961.901 251.306 977.232 254 983 254L1056 254C1116.64 254 1177.36 256.292 1238 255.999C1277.69 255.808 1319.56 252.015 1359 257C1359 374.126 1357 490.833 1357 608L1357 701C1357 709.762 1353.32 729.26 1358.03 736.721C1360.47 740.597 1367.92 740.631 1372 740.91C1385.19 741.815 1398.85 740.337 1412 740.015C1458.75 738.869 1506.12 741 1553 741L1588 741C1591.65 741 1598.44 742.276 1601.26 739.397C1605.68 734.884 1603 719.948 1603 714L1603 643C1603 550.527 1601.92 457.343 1605.96 365C1607.1 338.898 1606 312.24 1606 286C1606 279.732 1608.93 263.068 1603.68 258.742C1599.44 255.243 1590.15 257.008 1585 257C1569.65 256.975 1554.36 256 1539 256L1360 256"/>
<circle stroke="#000000" fill="none" stroke-width="2" r="15" cx="1357" cy="737"/>
<circle stroke="#000000" fill="none" stroke-width="2" r="15" cx="1360" cy="256"/>
</svg>