<?xml version="1.0" standalone="yes"?>
<svg width="1008" height="768">
<path style="stroke:#000000;fill:none;stroke-width:5" d="M"/>
<path style="stroke:#3B9344;fill:none;stroke-width:4" d="M"/>
<path style="stroke:#000000;fill:none;stroke-width:5" d="M439 545C439 441.993 439.222 339.064 437.996 236C437.684 209.723 437 183.353 437 157C437 150.897 433.98 133.428 438.028 128.734C441.663 124.518 456.87 127 462 127C484.599 127 507.424 127.94 530 126.961C627.436 122.732 725.482 125 823 125C850.107 125 876.956 124.323 904 124.985C910.368 125.141 927.119 121.927 930.972 128.228C934.419 133.866 932 146.522 932 153L932 216C932 293.432 932.078 370.775 932.996 448C933.273 471.294 933 494.665 933 518C933 523.466 935.77 538.603 931.552 542.397C928.755 544.912 922.566 544.294 919 544.715C906.289 546.214 892.797 545 880 545C833.096 545 785.65 542.845 739 544.888C675.536 547.667 611.575 547.755 548 546.304C453.061 544.137 357.795 547.34 263 547.34C220.004 547.34 177.031 548.849 134 548.849L97 549C92.5852 549 85.3565 550.372 81.3171 548.397C74.2944 544.963 78.3582 527.035 77.5756 521C73.7982 491.874 77 460.382 77 431C77 355.843 73.6103 279.813 76.8958 205C77.6753 187.252 76.0286 168.771 76 151C75.9914 145.656 74.4146 135.055 78.0239 130.603C80.172 127.954 87.8032 128.474 91 128.17C104.446 126.89 118.492 128 132 128"/>
<path style="stroke:#DA36B0;fill:none;stroke-width:4" d="M439 545C439 441.993 439.222 339.064 437.996 236C437.684 209.723 437 183.353 437 157C437 150.897 433.98 133.428 438.028 128.734C441.663 124.518 456.87 127 462 127C484.599 127 507.424 127.94 530 126.961C627.436 122.732 725.482 125 823 125C850.107 125 876.956 124.323 904 124.985C910.368 125.141 927.119 121.927 930.972 128.228C934.419 133.866 932 146.522 932 153L932 216C932 293.432 932.078 370.775 932.996 448C933.273 471.294 933 494.665 933 518C933 523.466 935.77 538.603 931.552 542.397C928.755 544.912 922.566 544.294 919 544.715C906.289 546.214 892.797 545 880 545C833.096 545 785.65 542.845 739 544.888C675.536 547.667 611.575 547.755 548 546.304C453.061 544.137 357.795 547.34 263 547.34C220.004 547.34 177.031 548.849 134 548.849L97 549C92.5852 549 85.3565 550.372 81.3171 548.397C74.2944 544.963 78.3582 527.035 77.5756 521C73.7982 491.874 77 460.382 77 431C77 355.843 73.6103 279.813 76.8958 205C77.6753 187.252 76.0286 168.771 76 151C75.9914 145.656 74.4146 135.055 78.0239 130.603C80.172 127.954 87.8032 128.474 91 128.17C104.446 126.89 118.492 128 132 128"/>
<circle stroke="#000000" fill="none" stroke-width="2" r="15" cx="439" cy="545"/>
<circle stroke="#000000" fill="none" stroke-width="2" r="15" cx="132" cy="128"/>
<path style="stroke:#000000;fill:none;stroke-width:5" d="M144 128L437 128"/>
<path style="stroke:#C8B696;fill:none;stroke-width:4" d="M144 128L437 128"/>
<circle stroke="#000000" fill="none" stroke-width="2" r="15" cx="144" cy="128"/>
<circle stroke="#000000" fill="none" stroke-width="2" r="15" cx="437" cy="128"/>
<path style="stroke:#000000;fill:none;stroke-width:5" d="M734 127C735.795 213.974 737 301.097 737 388C737 439.23 732.534 493.104 739 544"/>
<path style="stroke:#1483D0;fill:none;stroke-width:4" d="M734 127C735.795 213.974 737 301.097 737 388C737 439.23 732.534 493.104 739 544"/>
<circle stroke="#000000" fill="none" stroke-width="2" r="15" cx="734" cy="127"/>
<circle stroke="#000000" fill="none" stroke-width="2" r="15" cx="739" cy="544"/>
<path style="stroke:#000000;fill:none;stroke-width:5" d="M543 128C543 211.893 545.595 296.07 545.999 380C546.261 434.321 541.21 491.275 548 545"/>
<path style="stroke:#D32445;fill:none;stroke-width:4" d="M543 128C543 211.893 545.595 296.07 545.999 380C546.261 434.321 541.21 491.275 548 545"/>
<circle stroke="#000000" fill="none" stroke-width="2" r="15" cx="543" cy="128"/>
<circle stroke="#000000" fill="none" stroke-width="2" r="15" cx="548" cy="545"/>
<path style="stroke:#000000;fill:none;stroke-width:5" d="M605 658L605 674"/>
<path style="stroke:#78F1FF;fill:none;stroke-width:4" d="M605 658L605 674"/>
<circle stroke="#000000" fill="none" stroke-width="2" r="15" cx="605" cy="658"/>
<circle stroke="#000000" fill="none" stroke-width="2" r="15" cx="605" cy="674"/>
<path style="stroke:#000000;fill:none;stroke-width:5" d="M606 670C581.143 673.185 554.944 671.301 530 671.004C497.955 670.623 466.051 672 434 672C414.121 672 393.86 670.17 374 671.039C340.079 672.525 306.003 672 272 672C256.951 672 237.425 675.264 223 671"/>
<path style="stroke:#C07DCD;fill:none;stroke-width:4" d="M606 670C581.143 673.185 554.944 671.301 530 671.004C497.955 670.623 466.051 672 434 672C414.121 672 393.86 670.17 374 671.039C340.079 672.525 306.003 672 272 672C256.951 672 237.425 675.264 223 671"/>
<circle stroke="#000000" fill="none" stroke-width="2" r="15" cx="606" cy="670"/>
<circle stroke="#000000" fill="none" stroke-width="2" r="15" cx="223" cy="671"/>
<path style="stroke:#000000;fill:none;stroke-width:5" d="M606 670L672 670L803 669"/>
<path style="stroke:#159D3F;fill:none;stroke-width:4" d="M606 670L672 670L803 669"/>
<circle stroke="#000000" fill="none" stroke-width="2" r="15" cx="606" cy="670"/>
<circle stroke="#000000" fill="none" stroke-width="2" r="15" cx="803" cy="669"/>
</svg>