<?xml version="1.0" standalone="yes"?>
<svg width="1024" height="464">
<path style="stroke:#000000;fill:none;stroke-width:5" d="M"/>
<path style="stroke:#EC270C;fill:none;stroke-width:4" d="M"/>
<path style="stroke:#000000;fill:none;stroke-width:5" d="M313 140C323.393 134.454 341.351 138.271 353 137.985C385.631 137.186 418.42 137.61 451 136.741C564.155 133.721 677.962 133.957 791 134C829.8 134.015 869.317 130.335 908 133.829C916.912 134.635 930.337 129.497 938.682 133.603C942.507 135.485 941 143.529 941 147C941 158.968 940.391 172.168 941.326 184C944.974 230.173 943 275.742 943 322C943 333.366 944 344.694 944 356C944 359.881 944.53 365.42 940.721 367.821C936.545 370.454 928.741 369 924 369C910.626 369 897.391 370 884 370C834.883 370 785.957 371 737 371C615.868 371 494.956 372.022 374 374.985C340.921 375.796 307.957 373.596 275 375.039C226.717 377.154 178.47 377 130 377C116.988 377 104.052 378 91 378C86.5956 378 79.3435 379.377 75.3179 377.397C71.4933 375.515 73 367.471 73 364L73 325C73 278.145 67.3952 229.604 71.8302 183C72.7444 173.394 71 163.639 71 154C71 150.489 70.106 145.308 72.6034 142.434C75.6307 138.95 81.9027 140 86 140L120 140C166.843 140 213.176 139 260 139C272.641 139 285.327 138.231 298 137.986C302.646 137.896 310.174 136.896 312.651 142.144C314.946 147.008 313 156.611 313 162C313 177.717 314 193.327 314 209L314 373"/>
<path style="stroke:#DE2710;fill:none;stroke-width:4" d="M313 140C323.393 134.454 341.351 138.271 353 137.985C385.631 137.186 418.42 137.61 451 136.741C564.155 133.721 677.962 133.957 791 134C829.8 134.015 869.317 130.335 908 133.829C916.912 134.635 930.337 129.497 938.682 133.603C942.507 135.485 941 143.529 941 147C941 158.968 940.391 172.168 941.326 184C944.974 230.173 943 275.742 943 322C943 333.366 944 344.694 944 356C944 359.881 944.53 365.42 940.721 367.821C936.545 370.454 928.741 369 924 369C910.626 369 897.391 370 884 370C834.883 370 785.957 371 737 371C615.868 371 494.956 372.022 374 374.985C340.921 375.796 307.957 373.596 275 375.039C226.717 377.154 178.47 377 130 377C116.988 377 104.052 378 91 378C86.5956 378 79.3435 379.377 75.3179 377.397C71.4933 375.515 73 367.471 73 364L73 325C73 278.145 67.3952 229.604 71.8302 183C72.7444 173.394 71 163.639 71 154C71 150.489 70.106 145.308 72.6034 142.434C75.6307 138.95 81.9027 140 86 140L120 140C166.843 140 213.176 139 260 139C272.641 139 285.327 138.231 298 137.986C302.646 137.896 310.174 136.896 312.651 142.144C314.946 147.008 313 156.611 313 162C313 177.717 314 193.327 314 209L314 373"/>
<circle stroke="#000000" fill="none" stroke-width="2" r="15" cx="313" cy="140"/>
<circle stroke="#000000" fill="none" stroke-width="2" r="15" cx="314" cy="373"/>
</svg>