<?xml version="1.0" standalone="yes"?>
<svg width="1480" height="1080">
<path style="stroke:#000000;fill:none;stroke-width:5" d="M"/>
<path style="stroke:#28385E;fill:none;stroke-width:4" d="M"/>
<path style="stroke:#000000;fill:none;stroke-width:5" d="M317.603 119.117C319.673 117.703 323.655 118.929 326 118.985C333.65 119.169 341.348 119.084 349 118.996C378.525 118.656 408.524 118.033 438 119.91C455.658 121.034 474.248 118.34 492 118.34C569.15 118.34 646.728 118 724 118C753.392 118 782.634 119 812 119C818.096 119 837.162 115.898 840.972 121.434C843.096 124.519 842 130.443 842 134C842 144.739 843.546 155.313 842.286 166C838.859 195.039 842.39 225.764 841.104 255C836.396 362.053 847.725 469.996 843.039 577C842.185 596.513 844 616.4 844 636C844 697.826 845 759.233 845 821L845 880C845 884.606 847.922 897.137 843.682 899.972C836.608 904.703 821.964 901.013 814 901C788 900.958 762 901 736 901C635.771 901 535.365 898.994 435 899C405.178 899.002 375.825 898.649 346 899.004C338.685 899.091 320.394 902.637 316.179 894.941C311.132 885.727 314.204 863.311 314.91 853C316.694 826.951 315 800.071 315 774C315 668.329 316 562.794 316 457L316 202C316 181.936 318.527 160.836 316.155 141C315.632 136.627 313.368 122.012 317.603 119.117"/>
<path style="stroke:#833C61;fill:none;stroke-width:4" d="M317.603 119.117C319.673 117.703 323.655 118.929 326 118.985C333.65 119.169 341.348 119.084 349 118.996C378.525 118.656 408.524 118.033 438 119.91C455.658 121.034 474.248 118.34 492 118.34C569.15 118.34 646.728 118 724 118C753.392 118 782.634 119 812 119C818.096 119 837.162 115.898 840.972 121.434C843.096 124.519 842 130.443 842 134C842 144.739 843.546 155.313 842.286 166C838.859 195.039 842.39 225.764 841.104 255C836.396 362.053 847.725 469.996 843.039 577C842.185 596.513 844 616.4 844 636C844 697.826 845 759.233 845 821L845 880C845 884.606 847.922 897.137 843.682 899.972C836.608 904.703 821.964 901.013 814 901C788 900.958 762 901 736 901C635.771 901 535.365 898.994 435 899C405.178 899.002 375.825 898.649 346 899.004C338.685 899.091 320.394 902.637 316.179 894.941C311.132 885.727 314.204 863.311 314.91 853C316.694 826.951 315 800.071 315 774C315 668.329 316 562.794 316 457L316 202C316 181.936 318.527 160.836 316.155 141C315.632 136.627 313.368 122.012 317.603 119.117"/>
<circle stroke="#000000" fill="none" stroke-width="2" r="15" cx="317.603" cy="119.117"/>
<circle stroke="#000000" fill="none" stroke-width="2" r="15" cx="317.603" cy="119.117"/>
<path style="stroke:#000000;fill:none;stroke-width:5" d="M843 119C974.668 119 1105.48 121 1237 121L1338 121C1346.33 121 1354.68 121.175 1363 120.985C1365.81 120.921 1370.08 119.672 1372.4 121.782C1376.27 125.3 1374 138.147 1374 143C1374 163.658 1371.98 184.364 1372.46 205C1374.44 292.065 1373 379.711 1373 467C1373 572.878 1376 678.35 1376 784C1376 811.843 1376.33 839.235 1376 867C1375.91 874.753 1379.33 892.155 1374.97 898.682C1371.08 904.512 1351.24 900 1345 900C1314.32 900 1283.72 901 1253 901C1154.44 901 1056.35 903.746 958 900.749C931.582 899.944 904.489 901 878 901C868.451 901 853.378 904.471 845 900"/>
<path style="stroke:#45652A;fill:none;stroke-width:4" d="M843 119C974.668 119 1105.48 121 1237 121L1338 121C1346.33 121 1354.68 121.175 1363 120.985C1365.81 120.921 1370.08 119.672 1372.4 121.782C1376.27 125.3 1374 138.147 1374 143C1374 163.658 1371.98 184.364 1372.46 205C1374.44 292.065 1373 379.711 1373 467C1373 572.878 1376 678.35 1376 784C1376 811.843 1376.33 839.235 1376 867C1375.91 874.753 1379.33 892.155 1374.97 898.682C1371.08 904.512 1351.24 900 1345 900C1314.32 900 1283.72 901 1253 901C1154.44 901 1056.35 903.746 958 900.749C931.582 899.944 904.489 901 878 901C868.451 901 853.378 904.471 845 900"/>
<circle stroke="#000000" fill="none" stroke-width="2" r="15" cx="843" cy="119"/>
<circle stroke="#000000" fill="none" stroke-width="2" r="15" cx="845" cy="900"/>
<path style="stroke:#000000;fill:none;stroke-width:5" d="M957 121L955.029 420L959 900"/>
<path style="stroke:#94E1E3;fill:none;stroke-width:4" d="M957 121L955.029 420L959 900"/>
<circle stroke="#000000" fill="none" stroke-width="2" r="15" cx="957" cy="121"/>
<circle stroke="#000000" fill="none" stroke-width="2" r="15" cx="959" cy="900"/>
<path style="stroke:#000000;fill:none;stroke-width:5" d="M125 136L123 1022"/>
<path style="stroke:#A5DFCC;fill:none;stroke-width:4" d="M125 136L123 1022"/>
<circle stroke="#000000" fill="none" stroke-width="2" r="15" cx="125" cy="136"/>
<circle stroke="#000000" fill="none" stroke-width="2" r="15" cx="123" cy="1022"/>
<path style="stroke:#000000;fill:none;stroke-width:5" d="M107 633L124 633"/>
<path style="stroke:#27E19C;fill:none;stroke-width:4" d="M107 633L124 633"/>
<circle stroke="#000000" fill="none" stroke-width="2" r="15" cx="107" cy="633"/>
<circle stroke="#000000" fill="none" stroke-width="2" r="15" cx="124" cy="633"/>
<path style="stroke:#000000;fill:none;stroke-width:5" d="M113 776L123 776"/>
<path style="stroke:#F0C3C0;fill:none;stroke-width:4" d="M113 776L123 776"/>
<circle stroke="#000000" fill="none" stroke-width="2" r="15" cx="113" cy="776"/>
<circle stroke="#000000" fill="none" stroke-width="2" r="15" cx="123" cy="776"/>
</svg>