<?xml version="1.0" standalone="yes"?>
<svg width="1672" height="672">
<path style="stroke:#000000;fill:none;stroke-width:5" d="M"/>
<path style="stroke:#8A7B0D;fill:none;stroke-width:4" d="M"/>
<path style="stroke:#000000;fill:none;stroke-width:5" d="M938 114L937 125L1096 126.741L1170 128"/>
<path style="stroke:#521A04;fill:none;stroke-width:4" d="M938 114L937 125L1096 126.741L1170 128"/>
<circle stroke="#000000" fill="none" stroke-width="2" r="15" cx="938" cy="114"/>
<circle stroke="#000000" fill="none" stroke-width="2" r="15" cx="1170" cy="128"/>
<path style="stroke:#000000;fill:none;stroke-width:5" d="M561 123L592 124.514L678 125L936 126"/>
<path style="stroke:#1F9589;fill:none;stroke-width:4" d="M561 123L592 124.514L678 125L936 126"/>
<circle stroke="#000000" fill="none" stroke-width="2" r="15" cx="561" cy="123"/>
<circle stroke="#000000" fill="none" stroke-width="2" r="15" cx="936" cy="126"/>
<path style="stroke:#000000;fill:none;stroke-width:5" d="M93.0054 277.769C113.403 275.672 135.444 278 156 278C194.654 278 233.432 277.272 272 278.961C332.957 281.63 394.212 278.157 455 279.545C526.241 281.171 597.963 279.229 669 279.001C787.839 278.618 907.037 280 1026 280C1101.17 280 1175.9 278.231 1251 279.004C1303.5 279.544 1356.53 281.658 1409 280.96C1434.56 280.62 1460.48 279.029 1486 279.029C1499.28 279.029 1512.7 281.31 1526 280.985C1545.47 280.51 1568.84 276.348 1588 280.344C1595.6 281.931 1594 289.998 1594 296L1594 342C1594 397.466 1595 452.543 1595 508C1595 521.39 1594 534.62 1594 548C1594 552.109 1595.39 560.185 1591.49 562.972C1586.51 566.527 1572.98 564 1567 564L1500 564C1431.81 564 1364.01 563.296 1296 563.996C1279.05 564.171 1262.05 562.293 1245 563.039C1195.84 565.192 1146.26 563.188 1097 563.188C974.144 563.188 851.761 563.486 729 562.025C617.959 560.705 506.314 565.914 395 561.039C354.094 559.248 312.81 561.576 272 561.996C241.405 562.311 210.638 560 180 560L118 560C110.486 560 98.055 562.382 91.1481 559.258C86.4227 557.12 88 549.184 88 545L88 505C87.9426 467.833 87 430.375 87 393C87 374.643 89.8456 355.121 87.7145 337C85.9961 322.388 88.001 306.804 88 292C87.9997 286.768 85.8103 278.508 93.0054 277.769"/>
<path style="stroke:#AB89AC;fill:none;stroke-width:4" d="M93.0054 277.769C113.403 275.672 135.444 278 156 278C194.654 278 233.432 277.272 272 278.961C332.957 281.63 394.212 278.157 455 279.545C526.241 281.171 597.963 279.229 669 279.001C787.839 278.618 907.037 280 1026 280C1101.17 280 1175.9 278.231 1251 279.004C1303.5 279.544 1356.53 281.658 1409 280.96C1434.56 280.62 1460.48 279.029 1486 279.029C1499.28 279.029 1512.7 281.31 1526 280.985C1545.47 280.51 1568.84 276.348 1588 280.344C1595.6 281.931 1594 289.998 1594 296L1594 342C1594 397.466 1595 452.543 1595 508C1595 521.39 1594 534.62 1594 548C1594 552.109 1595.39 560.185 1591.49 562.972C1586.51 566.527 1572.98 564 1567 564L1500 564C1431.81 564 1364.01 563.296 1296 563.996C1279.05 564.171 1262.05 562.293 1245 563.039C1195.84 565.192 1146.26 563.188 1097 563.188C974.144 563.188 851.761 563.486 729 562.025C617.959 560.705 506.314 565.914 395 561.039C354.094 559.248 312.81 561.576 272 561.996C241.405 562.311 210.638 560 180 560L118 560C110.486 560 98.055 562.382 91.1481 559.258C86.4227 557.12 88 549.184 88 545L88 505C87.9426 467.833 87 430.375 87 393C87 374.643 89.8456 355.121 87.7145 337C85.9961 322.388 88.001 306.804 88 292C87.9997 286.768 85.8103 278.508 93.0054 277.769"/>
<circle stroke="#000000" fill="none" stroke-width="2" r="15" cx="93.0054" cy="277.769"/>
<circle stroke="#000000" fill="none" stroke-width="2" r="15" cx="93.0054" cy="277.769"/>
<path style="stroke:#000000;fill:none;stroke-width:5" d="M602 281L604.039 460L605 527L604 560"/>
<path style="stroke:#9CCF2A;fill:none;stroke-width:4" d="M602 281L604.039 460L605 527L604 560"/>
<circle stroke="#000000" fill="none" stroke-width="2" r="15" cx="602" cy="281"/>
<circle stroke="#000000" fill="none" stroke-width="2" r="15" cx="604" cy="560"/>
<path style="stroke:#000000;fill:none;stroke-width:5" d="M1100 281L1098 561"/>
<path style="stroke:#3194E7;fill:none;stroke-width:4" d="M1100 281L1098 561"/>
<circle stroke="#000000" fill="none" stroke-width="2" r="15" cx="1100" cy="281"/>
<circle stroke="#000000" fill="none" stroke-width="2" r="15" cx="1098" cy="561"/>
<path style="stroke:#000000;fill:none;stroke-width:5" d="M1408 282L1406 562"/>
<path style="stroke:#358416;fill:none;stroke-width:4" d="M1408 282L1406 562"/>
<circle stroke="#000000" fill="none" stroke-width="2" r="15" cx="1408" cy="282"/>
<circle stroke="#000000" fill="none" stroke-width="2" r="15" cx="1406" cy="562"/>
</svg>