<?xml version="1.0" standalone="yes"?>
<svg width="804" height="726">
<path style="stroke:#000000;fill:none;stroke-width:5" d="M"/>
<path style="stroke:#190B68;fill:none;stroke-width:4" d="M"/>
<path style="stroke:#000000;fill:none;stroke-width:5" d="M263 88C264.821 111.067 262 134.738 262 158C262 219.203 261.281 280.814 263.961 342C264.826 361.754 264 382.183 264 402C264 410.62 263.01 424.15 267.023 431.91C277.333 451.846 303.166 466.308 320 480.438C358.747 512.961 400.235 544.235 436 580"/>
<path style="stroke:#7A7296;fill:none;stroke-width:4" d="M263 88C264.821 111.067 262 134.738 262 158C262 219.203 261.281 280.814 263.961 342C264.826 361.754 264 382.183 264 402C264 410.62 263.01 424.15 267.023 431.91C277.333 451.846 303.166 466.308 320 480.438C358.747 512.961 400.235 544.235 436 580"/>
<circle stroke="#000000" fill="none" stroke-width="2" r="15" cx="263" cy="88"/>
<circle stroke="#000000" fill="none" stroke-width="2" r="15" cx="436" cy="580"/>
<path style="stroke:#000000;fill:none;stroke-width:5" d="M440 134L377.862 240.985L335.568 310L297.025 375L280 402"/>
<path style="stroke:#C3512E;fill:none;stroke-width:4" d="M440 134L377.862 240.985L335.568 310L297.025 375L280 402"/>
<circle stroke="#000000" fill="none" stroke-width="2" r="15" cx="440" cy="134"/>
<circle stroke="#000000" fill="none" stroke-width="2" r="15" cx="280" cy="402"/>
<path style="stroke:#000000;fill:none;stroke-width:5" d="M379 244L654 244L728 244C735.629 244 750.163 241.218 756.852 245.179C763.162 248.915 758.505 260.344 758.089 266C756.493 287.662 752.384 309.669 748.615 331C742.76 364.135 739.2 397.677 734.711 431C729.265 471.434 721.546 511.547 716.289 552C713.869 570.626 710.25 589.368 708.129 608C707.541 613.158 708.531 625.713 703.682 628.973C700.172 631.333 693.082 630.98 689 630.999C678.667 631.049 668.333 631 658 631C618.197 631 578.548 630.474 539 630.004C429.789 628.705 320.062 628.518 211 631.015C173.358 631.876 135.69 632 98 632C80.4921 632 58.8376 634.977 42 630L54.4637 554L95.8302 339L109.001 268L114.318 246.179L134 245.004L183 244L366 244"/>
<path style="stroke:#6788CF;fill:none;stroke-width:4" d="M379 244L654 244L728 244C735.629 244 750.163 241.218 756.852 245.179C763.162 248.915 758.505 260.344 758.089 266C756.493 287.662 752.384 309.669 748.615 331C742.76 364.135 739.2 397.677 734.711 431C729.265 471.434 721.546 511.547 716.289 552C713.869 570.626 710.25 589.368 708.129 608C707.541 613.158 708.531 625.713 703.682 628.973C700.172 631.333 693.082 630.98 689 630.999C678.667 631.049 668.333 631 658 631C618.197 631 578.548 630.474 539 630.004C429.789 628.705 320.062 628.518 211 631.015C173.358 631.876 135.69 632 98 632C80.4921 632 58.8376 634.977 42 630L54.4637 554L95.8302 339L109.001 268L114.318 246.179L134 245.004L183 244L366 244"/>
<circle stroke="#000000" fill="none" stroke-width="2" r="15" cx="379" cy="244"/>
<circle stroke="#000000" fill="none" stroke-width="2" r="15" cx="366" cy="244"/>
<path style="stroke:#000000;fill:none;stroke-width:5" d="M395 292C374.419 316.971 350.164 339.303 328.09 363C309.042 383.448 290.271 406.029 268 423"/>
<path style="stroke:#31FBDF;fill:none;stroke-width:4" d="M395 292C374.419 316.971 350.164 339.303 328.09 363C309.042 383.448 290.271 406.029 268 423"/>
<circle stroke="#000000" fill="none" stroke-width="2" r="15" cx="395" cy="292"/>
<circle stroke="#000000" fill="none" stroke-width="2" r="15" cx="268" cy="423"/>
<path style="stroke:#000000;fill:none;stroke-width:5" d="M271 436C278.548 430.571 291.027 433.043 300 432.999C322.987 432.888 346.031 432.431 369 432.985C451.193 434.968 534.765 433.054 617 433"/>
<path style="stroke:#D0F6B5;fill:none;stroke-width:4" d="M271 436C278.548 430.571 291.027 433.043 300 432.999C322.987 432.888 346.031 432.431 369 432.985C451.193 434.968 534.765 433.054 617 433"/>
<circle stroke="#000000" fill="none" stroke-width="2" r="15" cx="271" cy="436"/>
<circle stroke="#000000" fill="none" stroke-width="2" r="15" cx="617" cy="433"/>
</svg>