<?xml version="1.0" standalone="yes"?>
<svg width="1576" height="1352">
<path style="stroke:#000000;fill:none;stroke-width:5" d="M"/>
<path style="stroke:#830F57;fill:none;stroke-width:4" d="M"/>
<path style="stroke:#000000;fill:none;stroke-width:5" d="M913 128C898.905 140.536 881.194 150.826 866 162.339C825.525 193.011 785.245 223.77 744 253.428C729.856 263.599 716.993 275.475 703 285.845C641.238 331.614 579.323 377.199 518 423.668C487.447 446.821 455.958 468.988 426 492.931C418.922 498.587 411.443 503.867 404 509.034C402.04 510.394 398.113 514.15 395.773 511.535C393.466 508.957 395.41 502.896 396.134 500C398.656 489.915 403.409 480.718 406.911 471C422.504 427.727 447.201 387.196 474 350C543.853 253.048 644.605 183.293 758 147.113C793.966 135.637 831.184 127.561 869 124.911C879.811 124.153 891.148 121.446 902 122.326C908.119 122.822 912.187 127.108 918 128C917.037 133.185 917.999 138.954 916.682 143.96C915.605 148.055 911.248 150.102 909.595 154.04C903.994 167.381 900.192 182.13 896.157 196C879.584 252.957 861.655 309.664 842.934 366C814.36 451.983 788.207 539.269 762.429 625.982C740.056 701.241 713.547 777.175 690.798 853C686.447 867.503 680.004 881.389 676.011 896C666.825 929.615 655.364 962.738 644.897 996C636.327 1023.23 629.394 1051.22 619.424 1078C614.288 1091.8 610.373 1105.96 606.011 1120C604.497 1124.87 602.41 1131.69 596 1131.33C582.701 1130.59 571.063 1117.51 562 1109.09C539.633 1088.31 519.095 1067.79 498.871 1045C424.974 961.721 377.673 844.748 369.91 734C367.958 706.143 364.091 677.869 367.711 650C372.135 615.933 370.559 579.883 381.928 547C383.882 541.349 386.888 535.685 388.491 530C389.625 525.979 388.254 521.576 392.148 518.722C397.79 514.587 409.237 523.94 415 526.053C436.554 533.957 459.278 538.556 481 546.143C545.719 568.747 612.499 586.721 678 606.974C694.879 612.194 712.008 617.148 729 621.985C738.144 624.588 749.718 626.557 758 631"/>
<path style="stroke:#CFD9A3;fill:none;stroke-width:4" d="M913 128C898.905 140.536 881.194 150.826 866 162.339C825.525 193.011 785.245 223.77 744 253.428C729.856 263.599 716.993 275.475 703 285.845C641.238 331.614 579.323 377.199 518 423.668C487.447 446.821 455.958 468.988 426 492.931C418.922 498.587 411.443 503.867 404 509.034C402.04 510.394 398.113 514.15 395.773 511.535C393.466 508.957 395.41 502.896 396.134 500C398.656 489.915 403.409 480.718 406.911 471C422.504 427.727 447.201 387.196 474 350C543.853 253.048 644.605 183.293 758 147.113C793.966 135.637 831.184 127.561 869 124.911C879.811 124.153 891.148 121.446 902 122.326C908.119 122.822 912.187 127.108 918 128C917.037 133.185 917.999 138.954 916.682 143.96C915.605 148.055 911.248 150.102 909.595 154.04C903.994 167.381 900.192 182.13 896.157 196C879.584 252.957 861.655 309.664 842.934 366C814.36 451.983 788.207 539.269 762.429 625.982C740.056 701.241 713.547 777.175 690.798 853C686.447 867.503 680.004 881.389 676.011 896C666.825 929.615 655.364 962.738 644.897 996C636.327 1023.23 629.394 1051.22 619.424 1078C614.288 1091.8 610.373 1105.96 606.011 1120C604.497 1124.87 602.41 1131.69 596 1131.33C582.701 1130.59 571.063 1117.51 562 1109.09C539.633 1088.31 519.095 1067.79 498.871 1045C424.974 961.721 377.673 844.748 369.91 734C367.958 706.143 364.091 677.869 367.711 650C372.135 615.933 370.559 579.883 381.928 547C383.882 541.349 386.888 535.685 388.491 530C389.625 525.979 388.254 521.576 392.148 518.722C397.79 514.587 409.237 523.94 415 526.053C436.554 533.957 459.278 538.556 481 546.143C545.719 568.747 612.499 586.721 678 606.974C694.879 612.194 712.008 617.148 729 621.985C738.144 624.588 749.718 626.557 758 631"/>
<circle stroke="#000000" fill="none" stroke-width="2" r="15" cx="913" cy="128"/>
<circle stroke="#000000" fill="none" stroke-width="2" r="15" cx="758" cy="631"/>
<path style="stroke:#000000;fill:none;stroke-width:5" d="M1448 501C1426.22 491.555 1407.57 472.325 1388 458.618C1342.24 426.567 1297.72 392.713 1252 360.619C1179.55 309.756 1107.43 258.349 1036 206.159C1001.4 180.878 960.111 158.601 931 127C939.351 119.937 953.783 122.975 964 123.925C993.82 126.698 1022.73 131.888 1052 137.735C1088.52 145.031 1124.67 159.071 1158 175.25C1168.47 180.335 1179.78 183.828 1190 189.352C1237.95 215.269 1280.81 248.634 1318.8 287.385C1343.72 312.806 1369.5 340.182 1387.66 371C1405.89 401.924 1425.23 431.596 1438.86 465C1442.85 474.793 1453.18 490.441 1448 501"/>
<path style="stroke:#25B0E3;fill:none;stroke-width:4" d="M1448 501C1426.22 491.555 1407.57 472.325 1388 458.618C1342.24 426.567 1297.72 392.713 1252 360.619C1179.55 309.756 1107.43 258.349 1036 206.159C1001.4 180.878 960.111 158.601 931 127C939.351 119.937 953.783 122.975 964 123.925C993.82 126.698 1022.73 131.888 1052 137.735C1088.52 145.031 1124.67 159.071 1158 175.25C1168.47 180.335 1179.78 183.828 1190 189.352C1237.95 215.269 1280.81 248.634 1318.8 287.385C1343.72 312.806 1369.5 340.182 1387.66 371C1405.89 401.924 1425.23 431.596 1438.86 465C1442.85 474.793 1453.18 490.441 1448 501"/>
<circle stroke="#000000" fill="none" stroke-width="2" r="15" cx="1448" cy="501"/>
<circle stroke="#000000" fill="none" stroke-width="2" r="15" cx="1448" cy="501"/>
<path style="stroke:#000000;fill:none;stroke-width:5" d="M919 127L931 127"/>
<path style="stroke:#D7597F;fill:none;stroke-width:4" d="M919 127L931 127"/>
<circle stroke="#000000" fill="none" stroke-width="2" r="15" cx="919" cy="127"/>
<circle stroke="#000000" fill="none" stroke-width="2" r="15" cx="931" cy="127"/>
<path style="stroke:#000000;fill:none;stroke-width:5" d="M917 147C922.228 154.268 919.506 164.473 920.089 173C921.805 198.05 919.142 223.094 920.375 248C925.472 350.958 924 454.789 924 558L924 647C924 653.447 927.228 672.738 922.397 677.382C919.962 679.722 914.924 678.216 912 677.714C902.577 676.095 893.195 672.086 884 669.421C857.214 661.656 830.729 652.437 804 644.438C790.572 640.42 772.685 637.745 761 630"/>
<path style="stroke:#00193C;fill:none;stroke-width:4" d="M917 147C922.228 154.268 919.506 164.473 920.089 173C921.805 198.05 919.142 223.094 920.375 248C925.472 350.958 924 454.789 924 558L924 647C924 653.447 927.228 672.738 922.397 677.382C919.962 679.722 914.924 678.216 912 677.714C902.577 676.095 893.195 672.086 884 669.421C857.214 661.656 830.729 652.437 804 644.438C790.572 640.42 772.685 637.745 761 630"/>
<circle stroke="#000000" fill="none" stroke-width="2" r="15" cx="917" cy="147"/>
<circle stroke="#000000" fill="none" stroke-width="2" r="15" cx="761" cy="630"/>
<path style="stroke:#000000;fill:none;stroke-width:5" d="M115 355C110.787 372.696 115.919 392.935 115.999 411C116.202 456.746 117.219 502.463 116.999 548C116.566 637.747 117.567 727.409 117.999 817C118.238 866.525 115.881 916.656 118 966"/>
<path style="stroke:#9A9E68;fill:none;stroke-width:4" d="M115 355C110.787 372.696 115.919 392.935 115.999 411C116.202 456.746 117.219 502.463 116.999 548C116.566 637.747 117.567 727.409 117.999 817C118.238 866.525 115.881 916.656 118 966"/>
<circle stroke="#000000" fill="none" stroke-width="2" r="15" cx="115" cy="355"/>
<circle stroke="#000000" fill="none" stroke-width="2" r="15" cx="118" cy="966"/>
<path style="stroke:#000000;fill:none;stroke-width:5" d="M1450 502C1450.95 506.185 1451.84 513.978 1454.03 517.486C1456.05 520.731 1459.61 522.248 1461.11 526.004C1465.55 537.1 1467.87 550.331 1470.5 562C1485.34 627.934 1487.17 697.205 1477.58 764C1474.66 784.353 1470.82 804.179 1465.27 824C1463.66 829.761 1462.69 840.924 1456.89 844.096C1450.56 847.56 1435.37 839.366 1429 837.282C1403.83 829.05 1378.05 822.334 1353 814C1334.95 888.955 1306.48 962.412 1283.11 1036C1277.6 1053.34 1272.09 1070.69 1266.41 1088C1262.03 1101.35 1256.04 1114.76 1256 1129C1265.03 1128.21 1272.2 1121.11 1279 1115.57C1294.26 1103.14 1309.26 1090.17 1322.96 1076C1368.68 1028.74 1407.19 973.096 1434.18 913C1443.34 892.62 1455.94 868.732 1456 846"/>
<path style="stroke:#06216A;fill:none;stroke-width:4" d="M1450 502C1450.95 506.185 1451.84 513.978 1454.03 517.486C1456.05 520.731 1459.61 522.248 1461.11 526.004C1465.55 537.1 1467.87 550.331 1470.5 562C1485.34 627.934 1487.17 697.205 1477.58 764C1474.66 784.353 1470.82 804.179 1465.27 824C1463.66 829.761 1462.69 840.924 1456.89 844.096C1450.56 847.56 1435.37 839.366 1429 837.282C1403.83 829.05 1378.05 822.334 1353 814C1334.95 888.955 1306.48 962.412 1283.11 1036C1277.6 1053.34 1272.09 1070.69 1266.41 1088C1262.03 1101.35 1256.04 1114.76 1256 1129C1265.03 1128.21 1272.2 1121.11 1279 1115.57C1294.26 1103.14 1309.26 1090.17 1322.96 1076C1368.68 1028.74 1407.19 973.096 1434.18 913C1443.34 892.62 1455.94 868.732 1456 846"/>
<circle stroke="#000000" fill="none" stroke-width="2" r="15" cx="1450" cy="502"/>
<circle stroke="#000000" fill="none" stroke-width="2" r="15" cx="1456" cy="846"/>
<path style="stroke:#000000;fill:none;stroke-width:5" d="M397 514L397 516"/>
<path style="stroke:#33F3F4;fill:none;stroke-width:4" d="M397 514L397 516"/>
<circle stroke="#000000" fill="none" stroke-width="2" r="15" cx="397" cy="514"/>
<circle stroke="#000000" fill="none" stroke-width="2" r="15" cx="397" cy="516"/>
<path style="stroke:#000000;fill:none;stroke-width:5" d="M1453 518L1443.26 538L1426.46 592L1376.09 744L1362.78 786L1354 814"/>
<path style="stroke:#19A431;fill:none;stroke-width:4" d="M1453 518L1443.26 538L1426.46 592L1376.09 744L1362.78 786L1354 814"/>
<circle stroke="#000000" fill="none" stroke-width="2" r="15" cx="1453" cy="518"/>
<circle stroke="#000000" fill="none" stroke-width="2" r="15" cx="1354" cy="814"/>
<path style="stroke:#000000;fill:none;stroke-width:5" d="M390 533C399.41 534.556 404.061 559.734 406.586 568C417.468 603.619 428.521 640.405 442.126 675C458.961 717.811 472.143 762.36 486.738 806C507.43 867.875 530.193 929.119 550.756 991C561.806 1024.25 571.765 1058.11 583.921 1091C588.904 1104.48 591.991 1120.08 600 1132"/>
<path style="stroke:#A9C8E6;fill:none;stroke-width:4" d="M390 533C399.41 534.556 404.061 559.734 406.586 568C417.468 603.619 428.521 640.405 442.126 675C458.961 717.811 472.143 762.36 486.738 806C507.43 867.875 530.193 929.119 550.756 991C561.806 1024.25 571.765 1058.11 583.921 1091C588.904 1104.48 591.991 1120.08 600 1132"/>
<circle stroke="#000000" fill="none" stroke-width="2" r="15" cx="390" cy="533"/>
<circle stroke="#000000" fill="none" stroke-width="2" r="15" cx="600" cy="1132"/>
<path style="stroke:#000000;fill:none;stroke-width:5" d="M924 680C928.837 705.434 924.508 734.187 925.015 760C926.09 814.617 926.912 869.496 927 924C927.048 953.643 924.367 984.55 927.17 1014C929.959 1043.31 927.261 1074.42 927.985 1104C928.149 1110.66 931.127 1129.42 926.258 1134.4C923.057 1137.67 914.19 1136 910 1136C894.041 1136 877.859 1137.66 862 1137.04C801.921 1134.7 741.895 1139 682 1139C663.61 1139 645.407 1138 627 1138C622.571 1138 609.67 1135.91 609.712 1143.02C609.737 1147.27 613.919 1150.49 617.004 1152.69C625.613 1158.84 634.937 1164.05 644 1169.49C681.682 1192.11 725.156 1212.83 768 1223.23C893.023 1253.57 1021.13 1248.43 1141 1198.75C1175.9 1184.28 1216.33 1167.28 1240.84 1138.32C1244.69 1133.77 1251.55 1135.68 1255 1130"/>
<path style="stroke:#7BA8C5;fill:none;stroke-width:4" d="M924 680C928.837 705.434 924.508 734.187 925.015 760C926.09 814.617 926.912 869.496 927 924C927.048 953.643 924.367 984.55 927.17 1014C929.959 1043.31 927.261 1074.42 927.985 1104C928.149 1110.66 931.127 1129.42 926.258 1134.4C923.057 1137.67 914.19 1136 910 1136C894.041 1136 877.859 1137.66 862 1137.04C801.921 1134.7 741.895 1139 682 1139C663.61 1139 645.407 1138 627 1138C622.571 1138 609.67 1135.91 609.712 1143.02C609.737 1147.27 613.919 1150.49 617.004 1152.69C625.613 1158.84 634.937 1164.05 644 1169.49C681.682 1192.11 725.156 1212.83 768 1223.23C893.023 1253.57 1021.13 1248.43 1141 1198.75C1175.9 1184.28 1216.33 1167.28 1240.84 1138.32C1244.69 1133.77 1251.55 1135.68 1255 1130"/>
<circle stroke="#000000" fill="none" stroke-width="2" r="15" cx="924" cy="680"/>
<circle stroke="#000000" fill="none" stroke-width="2" r="15" cx="1255" cy="1130"/>
<path style="stroke:#000000;fill:none;stroke-width:5" d="M926 684C938.328 684.973 949.285 689.569 961 693.116C979.751 698.793 998.448 704.132 1017 710.456C1053.2 722.794 1090.35 732.788 1127 743.884C1140.08 747.845 1153.05 753.722 1166 757.282C1208.24 768.896 1250.03 781.761 1292 794.565C1310.74 800.281 1336.42 803.798 1353 814"/>
<path style="stroke:#9E6319;fill:none;stroke-width:4" d="M926 684C938.328 684.973 949.285 689.569 961 693.116C979.751 698.793 998.448 704.132 1017 710.456C1053.2 722.794 1090.35 732.788 1127 743.884C1140.08 747.845 1153.05 753.722 1166 757.282C1208.24 768.896 1250.03 781.761 1292 794.565C1310.74 800.281 1336.42 803.798 1353 814"/>
<circle stroke="#000000" fill="none" stroke-width="2" r="15" cx="926" cy="684"/>
<circle stroke="#000000" fill="none" stroke-width="2" r="15" cx="1353" cy="814"/>
<path style="stroke:#000000;fill:none;stroke-width:5" d="M1062 726L1061 736"/>
<path style="stroke:#78E22E;fill:none;stroke-width:4" d="M1062 726L1061 736"/>
<circle stroke="#000000" fill="none" stroke-width="2" r="15" cx="1062" cy="726"/>
<circle stroke="#000000" fill="none" stroke-width="2" r="15" cx="1061" cy="736"/>
<path style="stroke:#000000;fill:none;stroke-width:5" d="M601 1133L608 1142"/>
<path style="stroke:#DF7237;fill:none;stroke-width:4" d="M601 1133L608 1142"/>
<circle stroke="#000000" fill="none" stroke-width="2" r="15" cx="601" cy="1133"/>
<circle stroke="#000000" fill="none" stroke-width="2" r="15" cx="608" cy="1142"/>
<path style="stroke:#000000;fill:none;stroke-width:5" d="M928 1137C947.661 1131.19 973.5 1136.86 994 1135.96C1049.19 1133.54 1104.87 1134 1160 1134L1216 1134C1223.85 1134 1233.95 1132.24 1241 1136"/>
<path style="stroke:#224499;fill:none;stroke-width:4" d="M928 1137C947.661 1131.19 973.5 1136.86 994 1135.96C1049.19 1133.54 1104.87 1134 1160 1134L1216 1134C1223.85 1134 1233.95 1132.24 1241 1136"/>
<circle stroke="#000000" fill="none" stroke-width="2" r="15" cx="928" cy="1137"/>
<circle stroke="#000000" fill="none" stroke-width="2" r="15" cx="1241" cy="1136"/>
<path style="stroke:#000000;fill:none;stroke-width:5" d="M928 1137L929 1206L929 1239"/>
<path style="stroke:#25D567;fill:none;stroke-width:4" d="M928 1137L929 1206L929 1239"/>
<circle stroke="#000000" fill="none" stroke-width="2" r="15" cx="928" cy="1137"/>
<circle stroke="#000000" fill="none" stroke-width="2" r="15" cx="929" cy="1239"/>
</svg>