<?xml version="1.0" standalone="yes"?>
<svg width="672" height="984">
<path style="stroke:#000000;fill:none;stroke-width:5" d="M"/>
<path style="stroke:#3A6B34;fill:none;stroke-width:4" d="M"/>
<path style="stroke:#000000;fill:none;stroke-width:5" d="M546 84L546.129 113L546 162L543.015 350L541.985 562L539 897"/>
<path style="stroke:#7F9F47;fill:none;stroke-width:4" d="M546 84L546.129 113L546 162L543.015 350L541.985 562L539 897"/>
<circle stroke="#000000" fill="none" stroke-width="2" r="15" cx="546" cy="84"/>
<circle stroke="#000000" fill="none" stroke-width="2" r="15" cx="539" cy="897"/>
<path style="stroke:#000000;fill:none;stroke-width:5" d="M79 107C79 303.808 76.0596 500.322 72 697"/>
<path style="stroke:#5655B4;fill:none;stroke-width:4" d="M79 107C79 303.808 76.0596 500.322 72 697"/>
<circle stroke="#000000" fill="none" stroke-width="2" r="15" cx="79" cy="107"/>
<circle stroke="#000000" fill="none" stroke-width="2" r="15" cx="72" cy="697"/>
<path style="stroke:#000000;fill:none;stroke-width:5" d="M427 115L425.05 295L425 334L426.028 348.258L437 350"/>
<path style="stroke:#6CEF87;fill:none;stroke-width:4" d="M427 115L425.05 295L425 334L426.028 348.258L437 350"/>
<circle stroke="#000000" fill="none" stroke-width="2" r="15" cx="427" cy="115"/>
<circle stroke="#000000" fill="none" stroke-width="2" r="15" cx="437" cy="350"/>
<path style="stroke:#000000;fill:none;stroke-width:5" d="M227 277L223 762"/>
<path style="stroke:#66E54D;fill:none;stroke-width:4" d="M227 277L223 762"/>
<circle stroke="#000000" fill="none" stroke-width="2" r="15" cx="227" cy="277"/>
<circle stroke="#000000" fill="none" stroke-width="2" r="15" cx="223" cy="762"/>
<path style="stroke:#000000;fill:none;stroke-width:5" d="M424 350L421 664"/>
<path style="stroke:#8D25BC;fill:none;stroke-width:4" d="M424 350L421 664"/>
<circle stroke="#000000" fill="none" stroke-width="2" r="15" cx="424" cy="350"/>
<circle stroke="#000000" fill="none" stroke-width="2" r="15" cx="421" cy="664"/>
<path style="stroke:#000000;fill:none;stroke-width:5" d="M528 643L539 643"/>
<path style="stroke:#D09E74;fill:none;stroke-width:4" d="M528 643L539 643"/>
<circle stroke="#000000" fill="none" stroke-width="2" r="15" cx="528" cy="643"/>
<circle stroke="#000000" fill="none" stroke-width="2" r="15" cx="539" cy="643"/>
</svg>