<?xml version="1.0" standalone="yes"?>
<svg width="1158" height="846">
<path style="stroke:#000000;fill:none;stroke-width:5" d="M"/>
<path style="stroke:#1B75E6;fill:none;stroke-width:4" d="M"/>
<path style="stroke:#000000;fill:none;stroke-width:5" d="M79.1481 137.067C81.9371 135.56 85.9879 136.912 89 136.985C97.6562 137.197 106.341 137 115 137C146.301 137 177.78 138.75 209 137.985C266.538 136.576 325.571 134.392 383 138.675C395.806 139.63 409.091 139 422 139C427.463 139 434.854 137.729 439.985 139.858C445.564 142.173 449.665 148.871 454 152.911C466.036 164.127 477.057 176.375 489.09 187.576C535.057 230.364 579.723 275.959 622.576 321.911C666.739 369.267 716.352 412.167 758.92 460.988C768.948 472.491 780.624 483.037 791.424 493.867C795.134 497.586 806.525 501.416 797.941 507.397C793.423 510.544 787.015 508.501 782 508.245C772.734 507.771 763.306 509 754 509C714.331 509 674.739 508 635 508C498.708 508 362.966 507 227 507C188.977 507 149.764 509.764 112 506.17C102.194 505.237 83.8548 510.518 75.3179 504.821C70.9636 501.915 73.0792 491.486 73.1389 487C73.3702 469.623 75.0833 452.423 74.9992 435C74.798 393.27 76.9025 350.771 75.8711 309C75.1079 278.087 73.61 246.845 74.9606 216C75.8194 196.388 74.7703 176.63 75.0039 157C75.0612 152.182 74.3595 139.654 79.1481 137.067"/>
<path style="stroke:#ECA8EC;fill:none;stroke-width:4" d="M79.1481 137.067C81.9371 135.56 85.9879 136.912 89 136.985C97.6562 137.197 106.341 137 115 137C146.301 137 177.78 138.75 209 137.985C266.538 136.576 325.571 134.392 383 138.675C395.806 139.63 409.091 139 422 139C427.463 139 434.854 137.729 439.985 139.858C445.564 142.173 449.665 148.871 454 152.911C466.036 164.127 477.057 176.375 489.09 187.576C535.057 230.364 579.723 275.959 622.576 321.911C666.739 369.267 716.352 412.167 758.92 460.988C768.948 472.491 780.624 483.037 791.424 493.867C795.134 497.586 806.525 501.416 797.941 507.397C793.423 510.544 787.015 508.501 782 508.245C772.734 507.771 763.306 509 754 509C714.331 509 674.739 508 635 508C498.708 508 362.966 507 227 507C188.977 507 149.764 509.764 112 506.17C102.194 505.237 83.8548 510.518 75.3179 504.821C70.9636 501.915 73.0792 491.486 73.1389 487C73.3702 469.623 75.0833 452.423 74.9992 435C74.798 393.27 76.9025 350.771 75.8711 309C75.1079 278.087 73.61 246.845 74.9606 216C75.8194 196.388 74.7703 176.63 75.0039 157C75.0612 152.182 74.3595 139.654 79.1481 137.067"/>
<circle stroke="#000000" fill="none" stroke-width="2" r="15" cx="79.1481" cy="137.067"/>
<circle stroke="#000000" fill="none" stroke-width="2" r="15" cx="79.1481" cy="137.067"/>
<path style="stroke:#000000;fill:none;stroke-width:5" d="M445 142C454.483 135.179 470.045 140.109 481 139.996C510.621 139.691 540.225 139 570 139C685.044 139 799.933 140.037 915 140C949.348 139.989 983.74 141 1018 141C1026.19 141 1047.19 139.15 1051.68 147.185C1056.6 155.99 1052.45 167.635 1053.09 177C1055.27 209.017 1052 241.815 1052 274C1052 349.905 1051.46 425.334 1051 501C1050.78 537.683 1047.34 575.346 1050.83 612C1052.14 625.741 1049.35 640.229 1049.01 654C1048.51 675.04 1050.53 695.93 1049.09 717C1048.68 722.942 1052.57 747.887 1043.88 749.079C1039.62 749.661 1031.37 738.986 1028.75 735.961C1016.16 721.423 1002.41 707.055 988.001 694.285C958.446 668.091 933.262 637.037 904.826 609.576C876.034 581.771 846.052 553.943 819.63 523.83C816.862 520.675 815.997 516.351 813.298 513.318C810.119 509.746 805.209 510.212 802 506"/>
<path style="stroke:#5044D1;fill:none;stroke-width:4" d="M445 142C454.483 135.179 470.045 140.109 481 139.996C510.621 139.691 540.225 139 570 139C685.044 139 799.933 140.037 915 140C949.348 139.989 983.74 141 1018 141C1026.19 141 1047.19 139.15 1051.68 147.185C1056.6 155.99 1052.45 167.635 1053.09 177C1055.27 209.017 1052 241.815 1052 274C1052 349.905 1051.46 425.334 1051 501C1050.78 537.683 1047.34 575.346 1050.83 612C1052.14 625.741 1049.35 640.229 1049.01 654C1048.51 675.04 1050.53 695.93 1049.09 717C1048.68 722.942 1052.57 747.887 1043.88 749.079C1039.62 749.661 1031.37 738.986 1028.75 735.961C1016.16 721.423 1002.41 707.055 988.001 694.285C958.446 668.091 933.262 637.037 904.826 609.576C876.034 581.771 846.052 553.943 819.63 523.83C816.862 520.675 815.997 516.351 813.298 513.318C810.119 509.746 805.209 510.212 802 506"/>
<circle stroke="#000000" fill="none" stroke-width="2" r="15" cx="445" cy="142"/>
<circle stroke="#000000" fill="none" stroke-width="2" r="15" cx="802" cy="506"/>
<path style="stroke:#000000;fill:none;stroke-width:5" d="M445 144C437.865 153.919 440.731 172.448 441.83 184C443.66 203.223 442.093 223.637 441.999 243C441.573 331.33 441 419.607 441 508"/>
<path style="stroke:#F00098;fill:none;stroke-width:4" d="M445 144C437.865 153.919 440.731 172.448 441.83 184C443.66 203.223 442.093 223.637 441.999 243C441.573 331.33 441 419.607 441 508"/>
<circle stroke="#000000" fill="none" stroke-width="2" r="15" cx="445" cy="144"/>
<circle stroke="#000000" fill="none" stroke-width="2" r="15" cx="441" cy="508"/>
<path style="stroke:#000000;fill:none;stroke-width:5" d="M807 144C806.883 186.315 804.508 228.614 804.004 271C803.467 316.13 806.013 361.936 804.039 407C803.094 428.582 804 450.411 804 472C804 480.734 806.284 492.653 801 500"/>
<path style="stroke:#A07137;fill:none;stroke-width:4" d="M807 144C806.883 186.315 804.508 228.614 804.004 271C803.467 316.13 806.013 361.936 804.039 407C803.094 428.582 804 450.411 804 472C804 480.734 806.284 492.653 801 500"/>
<circle stroke="#000000" fill="none" stroke-width="2" r="15" cx="807" cy="144"/>
<circle stroke="#000000" fill="none" stroke-width="2" r="15" cx="801" cy="500"/>
<path style="stroke:#000000;fill:none;stroke-width:5" d="M813 511L837 508L880 508L1049 510"/>
<path style="stroke:#C6A38A;fill:none;stroke-width:4" d="M813 511L837 508L880 508L1049 510"/>
<circle stroke="#000000" fill="none" stroke-width="2" r="15" cx="813" cy="511"/>
<circle stroke="#000000" fill="none" stroke-width="2" r="15" cx="1049" cy="510"/>
<path style="stroke:#000000;fill:none;stroke-width:5" d="M442 510C438.062 523.323 442.773 538.455 441.816 552C438.571 597.916 441 644.837 441 691L441 733C441 737.442 439.535 745.029 443.318 748.272C450.071 754.062 470.361 750 479 750L578 750C662.622 750 747.572 749.95 832 751.985C855.556 752.553 879.342 749.469 903 751.09C936.402 753.377 970.604 752.34 1004 752.34C1015.68 752.34 1030.98 757.041 1041 750"/>
<path style="stroke:#B98813;fill:none;stroke-width:4" d="M442 510C438.062 523.323 442.773 538.455 441.816 552C438.571 597.916 441 644.837 441 691L441 733C441 737.442 439.535 745.029 443.318 748.272C450.071 754.062 470.361 750 479 750L578 750C662.622 750 747.572 749.95 832 751.985C855.556 752.553 879.342 749.469 903 751.09C936.402 753.377 970.604 752.34 1004 752.34C1015.68 752.34 1030.98 757.041 1041 750"/>
<circle stroke="#000000" fill="none" stroke-width="2" r="15" cx="442" cy="510"/>
<circle stroke="#000000" fill="none" stroke-width="2" r="15" cx="1041" cy="750"/>
<path style="stroke:#000000;fill:none;stroke-width:5" d="M805 511C797.03 525.935 805.045 551.439 803.911 568C799.804 627.959 802 688.841 802 749"/>
<path style="stroke:#148374;fill:none;stroke-width:4" d="M805 511C797.03 525.935 805.045 551.439 803.911 568C799.804 627.959 802 688.841 802 749"/>
<circle stroke="#000000" fill="none" stroke-width="2" r="15" cx="805" cy="511"/>
<circle stroke="#000000" fill="none" stroke-width="2" r="15" cx="802" cy="749"/>
</svg>