<?xml version="1.0" standalone="yes"?>
<svg width="576" height="648">
<path style="stroke:#000000;fill:none;stroke-width:5" d="M"/>
<path style="stroke:#E64880;fill:none;stroke-width:4" d="M"/>
<path style="stroke:#000000;fill:none;stroke-width:5" d="M66 118C66.0529 103.01 79.1032 107.987 90 107.594C115.272 106.683 140.762 109 166 109C247.668 109 329.535 112 411 112C435.079 112 460.203 110.565 484 112.83C490.835 113.481 501.792 110.591 507.852 114.179C513.931 117.779 510.715 131.269 510.17 137C508.283 156.83 510 177.954 510 198C510 285.519 510.037 373.492 508.996 461C508.699 485.945 508 510.979 508 536C508 540.173 510.355 558.841 502.945 557.789C499.021 557.231 495.613 552.608 493 550C486.643 543.656 480.18 537.47 473.961 530.999C450.486 506.578 427.343 481.708 403.003 458.039C344.178 400.838 287.491 340.591 230.09 281.961C205.804 257.156 183.322 230.606 158.09 206.715C137.715 187.423 119.089 165.791 99.4236 145.715C89.4041 135.485 80.6697 124.134 67 119C61.6858 128.476 63 139.503 63 150C63 169.929 64.8294 190.16 63.9606 210C60.4085 291.12 62 372.647 62 454C62 478.672 61 503.22 61 528C61 533.858 58.2044 549.951 62.6034 554.258C66.9815 558.543 79.2838 555.611 85 556.285C110.455 559.291 136.376 558 162 558C220.532 558 279.448 558.397 338 560.961C358.607 561.863 379.423 559.68 400 561.09C423.238 562.681 446.677 562 470 562C479.765 562 491.709 564.033 500 558"/>
<path style="stroke:#114611;fill:none;stroke-width:4" d="M66 118C66.0529 103.01 79.1032 107.987 90 107.594C115.272 106.683 140.762 109 166 109C247.668 109 329.535 112 411 112C435.079 112 460.203 110.565 484 112.83C490.835 113.481 501.792 110.591 507.852 114.179C513.931 117.779 510.715 131.269 510.17 137C508.283 156.83 510 177.954 510 198C510 285.519 510.037 373.492 508.996 461C508.699 485.945 508 510.979 508 536C508 540.173 510.355 558.841 502.945 557.789C499.021 557.231 495.613 552.608 493 550C486.643 543.656 480.18 537.47 473.961 530.999C450.486 506.578 427.343 481.708 403.003 458.039C344.178 400.838 287.491 340.591 230.09 281.961C205.804 257.156 183.322 230.606 158.09 206.715C137.715 187.423 119.089 165.791 99.4236 145.715C89.4041 135.485 80.6697 124.134 67 119C61.6858 128.476 63 139.503 63 150C63 169.929 64.8294 190.16 63.9606 210C60.4085 291.12 62 372.647 62 454C62 478.672 61 503.22 61 528C61 533.858 58.2044 549.951 62.6034 554.258C66.9815 558.543 79.2838 555.611 85 556.285C110.455 559.291 136.376 558 162 558C220.532 558 279.448 558.397 338 560.961C358.607 561.863 379.423 559.68 400 561.09C423.238 562.681 446.677 562 470 562C479.765 562 491.709 564.033 500 558"/>
<circle stroke="#000000" fill="none" stroke-width="2" r="15" cx="66" cy="118"/>
<circle stroke="#000000" fill="none" stroke-width="2" r="15" cx="500" cy="558"/>
<path style="stroke:#000000;fill:none;stroke-width:5" d="M0 465C7.03122 466.148 6.92504 474.023 6.99614 480C7.17452 494.995 7.00579 510.004 7 525C6.99773 530.889 7.66214 537.984 1 540"/>
<path style="stroke:#01959F;fill:none;stroke-width:4" d="M0 465C7.03122 466.148 6.92504 474.023 6.99614 480C7.17452 494.995 7.00579 510.004 7 525C6.99773 530.889 7.66214 537.984 1 540"/>
<circle stroke="#000000" fill="none" stroke-width="2" r="15" cx="0" cy="465"/>
<circle stroke="#000000" fill="none" stroke-width="2" r="15" cx="1" cy="540"/>
<path style="stroke:#000000;fill:none;stroke-width:5" d="M0 540L1 540"/>
<path style="stroke:#F17B44;fill:none;stroke-width:4" d="M0 540L1 540"/>
<circle stroke="#000000" fill="none" stroke-width="2" r="15" cx="0" cy="540"/>
<circle stroke="#000000" fill="none" stroke-width="2" r="15" cx="1" cy="540"/>
</svg>