<?xml version="1.0" standalone="yes"?>
<svg width="582" height="762">
<path style="stroke:#000000;fill:none;stroke-width:5" d="M"/>
<path style="stroke:#EB7193;fill:none;stroke-width:4" d="M"/>
<path style="stroke:#000000;fill:none;stroke-width:5" d="M82 72L84.0147 128L86.0787 194L89.0039 432L90 572L89 637"/>
<path style="stroke:#53DB58;fill:none;stroke-width:4" d="M82 72L84.0147 128L86.0787 194L89.0039 432L90 572L89 637"/>
<circle stroke="#000000" fill="none" stroke-width="2" r="15" cx="82" cy="72"/>
<circle stroke="#000000" fill="none" stroke-width="2" r="15" cx="89" cy="637"/>
<path style="stroke:#000000;fill:none;stroke-width:5" d="M343 164L342.999 223L344.741 349L344.004 460L347 627"/>
<path style="stroke:#1ACBA8;fill:none;stroke-width:4" d="M343 164L342.999 223L344.741 349L344.004 460L347 627"/>
<circle stroke="#000000" fill="none" stroke-width="2" r="15" cx="343" cy="164"/>
<circle stroke="#000000" fill="none" stroke-width="2" r="15" cx="347" cy="627"/>
<path style="stroke:#000000;fill:none;stroke-width:5" d="M222 254C217.503 262.426 221 274.704 221 284C221 309.378 222 334.674 222 360C222 453.631 224 547.346 224 641"/>
<path style="stroke:#43C93A;fill:none;stroke-width:4" d="M222 254C217.503 262.426 221 274.704 221 284C221 309.378 222 334.674 222 360C222 453.631 224 547.346 224 641"/>
<circle stroke="#000000" fill="none" stroke-width="2" r="15" cx="222" cy="254"/>
<circle stroke="#000000" fill="none" stroke-width="2" r="15" cx="224" cy="641"/>
<path style="stroke:#000000;fill:none;stroke-width:5" d="M474 346C472.458 375.413 474.671 406.541 475.961 436C477.857 479.298 477.067 522.765 478.961 566C479.675 582.312 480 598.665 480 615C480 624.242 478.431 631.489 487 637"/>
<path style="stroke:#AE9674;fill:none;stroke-width:4" d="M474 346C472.458 375.413 474.671 406.541 475.961 436C477.857 479.298 477.067 522.765 478.961 566C479.675 582.312 480 598.665 480 615C480 624.242 478.431 631.489 487 637"/>
<circle stroke="#000000" fill="none" stroke-width="2" r="15" cx="474" cy="346"/>
<circle stroke="#000000" fill="none" stroke-width="2" r="15" cx="487" cy="637"/>
</svg>