<?xml version="1.0" standalone="yes"?>
<svg width="1816" height="704">
<path style="stroke:#000000;fill:none;stroke-width:5" d="M"/>
<path style="stroke:#431C5D;fill:none;stroke-width:4" d="M"/>
<path style="stroke:#000000;fill:none;stroke-width:5" d="M181 199C174.43 194.775 171.033 187.753 165.83 182C154.048 168.972 142.254 155.571 129.985 143C126.576 139.506 111.1 130.665 114.662 125.148C119.895 117.045 141.098 121.992 149 121.992C183.627 121.992 218.264 121 253 121L537 121C563.669 121 590.411 121.998 617 122C626.563 122.001 644.045 118.586 652.722 122.603C657.956 125.027 656.132 136.25 656.715 141C657.333 146.033 656.649 153.016 658.599 157.675C662.688 167.45 672.131 184.098 668.227 195.772C666.463 201.045 646.042 198.998 641 199L553 199L284 199L211 199C204.628 199 188.536 195.89 183.318 199.067C179.395 201.456 181 210.138 181 214C181 229.083 181.073 243.936 181.001 259C180.698 321.793 182 384.408 182 447C295.63 447 409.529 448.354 523 447.004C566.517 446.486 611.735 453.11 655 448L655 237L655 183C655 175.143 653.232 165.628 658 159"/>
<path style="stroke:#F4800B;fill:none;stroke-width:4" d="M181 199C174.43 194.775 171.033 187.753 165.83 182C154.048 168.972 142.254 155.571 129.985 143C126.576 139.506 111.1 130.665 114.662 125.148C119.895 117.045 141.098 121.992 149 121.992C183.627 121.992 218.264 121 253 121L537 121C563.669 121 590.411 121.998 617 122C626.563 122.001 644.045 118.586 652.722 122.603C657.956 125.027 656.132 136.25 656.715 141C657.333 146.033 656.649 153.016 658.599 157.675C662.688 167.45 672.131 184.098 668.227 195.772C666.463 201.045 646.042 198.998 641 199L553 199L284 199L211 199C204.628 199 188.536 195.89 183.318 199.067C179.395 201.456 181 210.138 181 214C181 229.083 181.073 243.936 181.001 259C180.698 321.793 182 384.408 182 447C295.63 447 409.529 448.354 523 447.004C566.517 446.486 611.735 453.11 655 448L655 237L655 183C655 175.143 653.232 165.628 658 159"/>
<circle stroke="#000000" fill="none" stroke-width="2" r="15" cx="181" cy="199"/>
<circle stroke="#000000" fill="none" stroke-width="2" r="15" cx="658" cy="159"/>
<path style="stroke:#000000;fill:none;stroke-width:5" d="M658 129C672.664 135.378 681.749 149.33 692.174 161C698.894 168.523 706.557 174.995 712.745 183C717.171 188.725 724.852 195.183 727.397 202.015C729.403 207.399 728 215.311 728 221C728 234.665 727.841 248.337 728.004 262C728.581 310.523 727.029 359.442 727.029 408C727.029 434.262 729.305 460.431 724.019 486C723.129 490.308 726.989 508.739 721.682 510.248C716.276 511.787 708.548 499.522 704.999 496.424C688.077 481.653 674.558 461.69 656 449"/>
<path style="stroke:#E52836;fill:none;stroke-width:4" d="M658 129C672.664 135.378 681.749 149.33 692.174 161C698.894 168.523 706.557 174.995 712.745 183C717.171 188.725 724.852 195.183 727.397 202.015C729.403 207.399 728 215.311 728 221C728 234.665 727.841 248.337 728.004 262C728.581 310.523 727.029 359.442 727.029 408C727.029 434.262 729.305 460.431 724.019 486C723.129 490.308 726.989 508.739 721.682 510.248C716.276 511.787 708.548 499.522 704.999 496.424C688.077 481.653 674.558 461.69 656 449"/>
<circle stroke="#000000" fill="none" stroke-width="2" r="15" cx="658" cy="129"/>
<circle stroke="#000000" fill="none" stroke-width="2" r="15" cx="656" cy="449"/>
<path style="stroke:#000000;fill:none;stroke-width:5" d="M112 131C112 154.829 122.196 177.924 126.576 202C136.566 256.923 145.55 312.017 155.463 367C160.147 392.982 168.455 420.589 169 447L138 447.997L118 450C122.832 460.603 132.624 467.287 141 475.09C152.663 485.953 162.259 499.423 177 506C184.216 492.479 177.5 473.779 173.147 461C171.505 456.177 171.61 451.527 169 447"/>
<path style="stroke:#A4D0D5;fill:none;stroke-width:4" d="M112 131C112 154.829 122.196 177.924 126.576 202C136.566 256.923 145.55 312.017 155.463 367C160.147 392.982 168.455 420.589 169 447L138 447.997L118 450C122.832 460.603 132.624 467.287 141 475.09C152.663 485.953 162.259 499.423 177 506C184.216 492.479 177.5 473.779 173.147 461C171.505 456.177 171.61 451.527 169 447"/>
<circle stroke="#000000" fill="none" stroke-width="2" r="15" cx="112" cy="131"/>
<circle stroke="#000000" fill="none" stroke-width="2" r="15" cx="169" cy="447"/>
<path style="stroke:#000000;fill:none;stroke-width:5" d="M1377 272L1444 272.004L1566 272L1616 272L1634.57 273.028L1637 285L1636.04 316L1636 433L1636 462L1633.68 471.972L1614 473L1560 472.861L1366 473L1366 333L1366 291C1366 284.495 1367.33 276.276 1365.49 270C1363.59 263.541 1358.02 257.424 1354.2 252C1346.5 241.063 1339.36 229.702 1331.33 219C1316.59 199.332 1303.44 178.455 1288.44 159.004C1285.15 154.736 1270.34 146.83 1276.03 139.607C1278.73 136.186 1293.26 140.365 1296.98 141.558C1300.78 142.774 1302.49 146.463 1306.1 147.853C1322.87 154.306 1341.62 158.626 1359 163.172C1427.02 180.966 1493.77 203.926 1562 221.471C1580.17 226.144 1597.76 232.865 1616 237.105C1621.04 238.276 1628.71 242.016 1633.85 240.667C1639.5 239.185 1637 223.567 1637 219L1637 172C1637 164.828 1635.64 157.056 1640 151C1649.76 158.095 1656.11 170.195 1662.97 180C1676.17 198.856 1689.65 217.656 1703.65 236C1708.05 241.762 1723.89 258.214 1721.3 265.852C1718.9 272.932 1705.15 263.425 1701 261.796C1688.85 257.024 1675.72 253.388 1663 250.336C1654.35 248.261 1642.99 246.587 1636 241"/>
<path style="stroke:#DD8C35;fill:none;stroke-width:4" d="M1377 272L1444 272.004L1566 272L1616 272L1634.57 273.028L1637 285L1636.04 316L1636 433L1636 462L1633.68 471.972L1614 473L1560 472.861L1366 473L1366 333L1366 291C1366 284.495 1367.33 276.276 1365.49 270C1363.59 263.541 1358.02 257.424 1354.2 252C1346.5 241.063 1339.36 229.702 1331.33 219C1316.59 199.332 1303.44 178.455 1288.44 159.004C1285.15 154.736 1270.34 146.83 1276.03 139.607C1278.73 136.186 1293.26 140.365 1296.98 141.558C1300.78 142.774 1302.49 146.463 1306.1 147.853C1322.87 154.306 1341.62 158.626 1359 163.172C1427.02 180.966 1493.77 203.926 1562 221.471C1580.17 226.144 1597.76 232.865 1616 237.105C1621.04 238.276 1628.71 242.016 1633.85 240.667C1639.5 239.185 1637 223.567 1637 219L1637 172C1637 164.828 1635.64 157.056 1640 151C1649.76 158.095 1656.11 170.195 1662.97 180C1676.17 198.856 1689.65 217.656 1703.65 236C1708.05 241.762 1723.89 258.214 1721.3 265.852C1718.9 272.932 1705.15 263.425 1701 261.796C1688.85 257.024 1675.72 253.388 1663 250.336C1654.35 248.261 1642.99 246.587 1636 241"/>
<circle stroke="#000000" fill="none" stroke-width="2" r="15" cx="1377" cy="272"/>
<circle stroke="#000000" fill="none" stroke-width="2" r="15" cx="1636" cy="241"/>
<path style="stroke:#000000;fill:none;stroke-width:5" d="M1301 142C1308.72 137.722 1316.62 139.997 1325 140L1376 140C1422.45 140 1468.75 138.446 1515 138.996C1531.11 139.188 1548.03 136.682 1564 138.17C1579.61 139.624 1596.35 139.571 1612 138.791C1618 138.492 1629.43 136.85 1634.79 140.028C1638.19 142.048 1638.81 146.574 1640 150"/>
<path style="stroke:#6301D8;fill:none;stroke-width:4" d="M1301 142C1308.72 137.722 1316.62 139.997 1325 140L1376 140C1422.45 140 1468.75 138.446 1515 138.996C1531.11 139.188 1548.03 136.682 1564 138.17C1579.61 139.624 1596.35 139.571 1612 138.791C1618 138.492 1629.43 136.85 1634.79 140.028C1638.19 142.048 1638.81 146.574 1640 150"/>
<circle stroke="#000000" fill="none" stroke-width="2" r="15" cx="1301" cy="142"/>
<circle stroke="#000000" fill="none" stroke-width="2" r="15" cx="1640" cy="150"/>
<path style="stroke:#000000;fill:none;stroke-width:5" d="M112 152C107.787 157.856 109 165.063 109 172L109 215C109 270.768 108.269 326.392 108.001 382C107.925 397.705 109 413.277 109 429C109 437.393 108.693 444.587 117 449"/>
<path style="stroke:#76C085;fill:none;stroke-width:4" d="M112 152C107.787 157.856 109 165.063 109 172L109 215C109 270.768 108.269 326.392 108.001 382C107.925 397.705 109 413.277 109 429C109 437.393 108.693 444.587 117 449"/>
<circle stroke="#000000" fill="none" stroke-width="2" r="15" cx="112" cy="152"/>
<circle stroke="#000000" fill="none" stroke-width="2" r="15" cx="117" cy="449"/>
<path style="stroke:#000000;fill:none;stroke-width:5" d="M1276 152C1276 231.816 1276.97 311.443 1277 391C1277.01 410.934 1278 430.989 1278 451C1278 457.591 1275.06 467.747 1280.15 472.796C1287.02 479.61 1299.75 474.509 1308 473.424C1317.32 472.2 1327.56 473.887 1337 473.996C1346.01 474.1 1356.21 472.514 1365 474"/>
<path style="stroke:#0CA7E3;fill:none;stroke-width:4" d="M1276 152C1276 231.816 1276.97 311.443 1277 391C1277.01 410.934 1278 430.989 1278 451C1278 457.591 1275.06 467.747 1280.15 472.796C1287.02 479.61 1299.75 474.509 1308 473.424C1317.32 472.2 1327.56 473.887 1337 473.996C1346.01 474.1 1356.21 472.514 1365 474"/>
<circle stroke="#000000" fill="none" stroke-width="2" r="15" cx="1276" cy="152"/>
<circle stroke="#000000" fill="none" stroke-width="2" r="15" cx="1365" cy="474"/>
<path style="stroke:#000000;fill:none;stroke-width:5" d="M722 196C711.729 202.779 683.848 200.821 672 198C668.526 218.529 678.214 244.591 681.41 265C689.198 314.743 697.781 364.45 706.536 414C709.42 430.317 712.07 446.694 715.195 463C716.849 471.629 716.728 479.221 723 486"/>
<path style="stroke:#6B5315;fill:none;stroke-width:4" d="M722 196C711.729 202.779 683.848 200.821 672 198C668.526 218.529 678.214 244.591 681.41 265C689.198 314.743 697.781 364.45 706.536 414C709.42 430.317 712.07 446.694 715.195 463C716.849 471.629 716.728 479.221 723 486"/>
<circle stroke="#000000" fill="none" stroke-width="2" r="15" cx="722" cy="196"/>
<circle stroke="#000000" fill="none" stroke-width="2" r="15" cx="723" cy="486"/>
<path style="stroke:#000000;fill:none;stroke-width:5" d="M669 198L671 200"/>
<path style="stroke:#33B902;fill:none;stroke-width:4" d="M669 198L671 200"/>
<circle stroke="#000000" fill="none" stroke-width="2" r="15" cx="669" cy="198"/>
<circle stroke="#000000" fill="none" stroke-width="2" r="15" cx="671" cy="200"/>
<path style="stroke:#000000;fill:none;stroke-width:5" d="M1637 245L1637 272"/>
<path style="stroke:#8BCA39;fill:none;stroke-width:4" d="M1637 245L1637 272"/>
<circle stroke="#000000" fill="none" stroke-width="2" r="15" cx="1637" cy="245"/>
<circle stroke="#000000" fill="none" stroke-width="2" r="15" cx="1637" cy="272"/>
<path style="stroke:#000000;fill:none;stroke-width:5" d="M1721 268C1724.19 269.853 1728.77 270.709 1730.68 274.133C1733.37 278.936 1732 286.691 1732 292L1732 334L1732 526C1732 544.367 1731 562.611 1731 581C1731 589.909 1732.15 598.868 1721 599C1720.33 584.343 1706.71 571.305 1698.84 559.715C1678.84 530.288 1658.27 498.983 1635 472"/>
<path style="stroke:#819FD3;fill:none;stroke-width:4" d="M1721 268C1724.19 269.853 1728.77 270.709 1730.68 274.133C1733.37 278.936 1732 286.691 1732 292L1732 334L1732 526C1732 544.367 1731 562.611 1731 581C1731 589.909 1732.15 598.868 1721 599C1720.33 584.343 1706.71 571.305 1698.84 559.715C1678.84 530.288 1658.27 498.983 1635 472"/>
<circle stroke="#000000" fill="none" stroke-width="2" r="15" cx="1721" cy="268"/>
<circle stroke="#000000" fill="none" stroke-width="2" r="15" cx="1635" cy="472"/>
<path style="stroke:#000000;fill:none;stroke-width:5" d="M1713 269C1706.5 273.29 1698.51 272 1691 272L1646 272"/>
<path style="stroke:#CDA12C;fill:none;stroke-width:4" d="M1713 269C1706.5 273.29 1698.51 272 1691 272L1646 272"/>
<circle stroke="#000000" fill="none" stroke-width="2" r="15" cx="1713" cy="269"/>
<circle stroke="#000000" fill="none" stroke-width="2" r="15" cx="1646" cy="272"/>
<path style="stroke:#000000;fill:none;stroke-width:5" d="M172 448L181 448C181 455.18 181.874 461.236 177 467"/>
<path style="stroke:#EAE9C6;fill:none;stroke-width:4" d="M172 448L181 448C181 455.18 181.874 461.236 177 467"/>
<circle stroke="#000000" fill="none" stroke-width="2" r="15" cx="172" cy="448"/>
<circle stroke="#000000" fill="none" stroke-width="2" r="15" cx="177" cy="467"/>
<path style="stroke:#000000;fill:none;stroke-width:5" d="M1365 474C1365.09 505.439 1365.26 537.28 1365.99 569C1366.15 576.362 1360.81 595.349 1365.56 600.682C1369.7 605.318 1382.28 603.936 1388 604.004C1406.63 604.225 1425.3 605.089 1444 604.999C1481.88 604.817 1519.94 603 1558 603C1587.6 603 1617.56 605.105 1647 603.09C1660.27 602.181 1675.72 602.548 1689 603.209C1696.71 603.593 1706.47 604.699 1713 600C1706.74 593.496 1694.55 591.486 1686 589.139C1665.06 583.386 1643.86 578.176 1623 572.29C1564.42 555.758 1506.01 537.719 1447 523.252C1420.95 516.864 1393.79 504.132 1367 502"/>
<path style="stroke:#9072C8;fill:none;stroke-width:4" d="M1365 474C1365.09 505.439 1365.26 537.28 1365.99 569C1366.15 576.362 1360.81 595.349 1365.56 600.682C1369.7 605.318 1382.28 603.936 1388 604.004C1406.63 604.225 1425.3 605.089 1444 604.999C1481.88 604.817 1519.94 603 1558 603C1587.6 603 1617.56 605.105 1647 603.09C1660.27 602.181 1675.72 602.548 1689 603.209C1696.71 603.593 1706.47 604.699 1713 600C1706.74 593.496 1694.55 591.486 1686 589.139C1665.06 583.386 1643.86 578.176 1623 572.29C1564.42 555.758 1506.01 537.719 1447 523.252C1420.95 516.864 1393.79 504.132 1367 502"/>
<circle stroke="#000000" fill="none" stroke-width="2" r="15" cx="1365" cy="474"/>
<circle stroke="#000000" fill="none" stroke-width="2" r="15" cx="1367" cy="502"/>
<path style="stroke:#000000;fill:none;stroke-width:5" d="M1285 477C1286.76 490.003 1297.55 502.466 1304.92 513C1317.05 530.332 1328.92 548.031 1340.09 566C1345.48 574.661 1352.65 591.092 1363 594"/>
<path style="stroke:#C704AA;fill:none;stroke-width:4" d="M1285 477C1286.76 490.003 1297.55 502.466 1304.92 513C1317.05 530.332 1328.92 548.031 1340.09 566C1345.48 574.661 1352.65 591.092 1363 594"/>
<circle stroke="#000000" fill="none" stroke-width="2" r="15" cx="1285" cy="477"/>
<circle stroke="#000000" fill="none" stroke-width="2" r="15" cx="1363" cy="594"/>
<path style="stroke:#000000;fill:none;stroke-width:5" d="M1298 477C1302.29 482.633 1310.41 484.09 1317 486.117C1331.84 490.682 1347.21 493.586 1362 498"/>
<path style="stroke:#32CF9A;fill:none;stroke-width:4" d="M1298 477C1302.29 482.633 1310.41 484.09 1317 486.117C1331.84 490.682 1347.21 493.586 1362 498"/>
<circle stroke="#000000" fill="none" stroke-width="2" r="15" cx="1298" cy="477"/>
<circle stroke="#000000" fill="none" stroke-width="2" r="15" cx="1362" cy="498"/>
<path style="stroke:#000000;fill:none;stroke-width:5" d="M179 507C184.173 518.655 199.258 515 210 515L299 515C402.503 515 505.578 516 609 516L686 516C696.436 516 709.973 518.421 718 511"/>
<path style="stroke:#D8F948;fill:none;stroke-width:4" d="M179 507C184.173 518.655 199.258 515 210 515L299 515C402.503 515 505.578 516 609 516L686 516C696.436 516 709.973 518.421 718 511"/>
<circle stroke="#000000" fill="none" stroke-width="2" r="15" cx="179" cy="507"/>
<circle stroke="#000000" fill="none" stroke-width="2" r="15" cx="718" cy="511"/>
<path style="stroke:#000000;fill:none;stroke-width:5" d="M1714 601L1720 600"/>
<path style="stroke:#9D2815;fill:none;stroke-width:4" d="M1714 601L1720 600"/>
<circle stroke="#000000" fill="none" stroke-width="2" r="15" cx="1714" cy="601"/>
<circle stroke="#000000" fill="none" stroke-width="2" r="15" cx="1720" cy="600"/>
</svg>