<?xml version="1.0" standalone="yes"?>
<svg width="684" height="726">
<path style="stroke:#000000;fill:none;stroke-width:5" d="M"/>
<path style="stroke:#3E2E45;fill:none;stroke-width:4" d="M"/>
<path style="stroke:#000000;fill:none;stroke-width:5" d="M117 132C125.947 134.645 136.685 133.283 146 134.17C175.827 137.008 207.022 136 237 136C311.561 136 386.282 138 461 138C490.997 138 522.065 136.981 552 139.83C558.443 140.443 574.761 136.803 579.142 142.318C582.839 146.973 580.067 154.665 580.004 160C579.822 175.329 580 190.67 580 206L580 282C580 287.932 582.803 303.991 578.397 308.397C575.971 310.822 571.101 310 568 310L542 310C509.158 310 475.732 306.669 443 308.91C436.116 309.382 419.31 304.448 413.858 309.028C409.911 312.344 412.2 322.64 412.715 327C414.519 342.296 413 358.598 413 374C413 431.853 412 489.335 412 547C412 561.384 412.175 575.632 412.004 590C411.955 594.084 410.503 602.219 413.603 605.401C420.722 612.708 433.711 606.348 442 607.286C474.217 610.932 508.418 609 541 609C549.628 609 558.436 608.465 567 609.576C570.74 610.06 575.536 610.508 577.821 606.772C581.017 601.545 579 590.947 579 585C579 566.962 580 548.981 580 531C580 482.676 578.835 434.172 580.015 386C580.415 369.659 580 353.431 580 337C580 328.393 581.448 318.28 579 310"/>
<path style="stroke:#2B9CAF;fill:none;stroke-width:4" d="M117 132C125.947 134.645 136.685 133.283 146 134.17C175.827 137.008 207.022 136 237 136C311.561 136 386.282 138 461 138C490.997 138 522.065 136.981 552 139.83C558.443 140.443 574.761 136.803 579.142 142.318C582.839 146.973 580.067 154.665 580.004 160C579.822 175.329 580 190.67 580 206L580 282C580 287.932 582.803 303.991 578.397 308.397C575.971 310.822 571.101 310 568 310L542 310C509.158 310 475.732 306.669 443 308.91C436.116 309.382 419.31 304.448 413.858 309.028C409.911 312.344 412.2 322.64 412.715 327C414.519 342.296 413 358.598 413 374C413 431.853 412 489.335 412 547C412 561.384 412.175 575.632 412.004 590C411.955 594.084 410.503 602.219 413.603 605.401C420.722 612.708 433.711 606.348 442 607.286C474.217 610.932 508.418 609 541 609C549.628 609 558.436 608.465 567 609.576C570.74 610.06 575.536 610.508 577.821 606.772C581.017 601.545 579 590.947 579 585C579 566.962 580 548.981 580 531C580 482.676 578.835 434.172 580.015 386C580.415 369.659 580 353.431 580 337C580 328.393 581.448 318.28 579 310"/>
<circle stroke="#000000" fill="none" stroke-width="2" r="15" cx="117" cy="132"/>
<circle stroke="#000000" fill="none" stroke-width="2" r="15" cx="579" cy="310"/>
<path style="stroke:#000000;fill:none;stroke-width:5" d="M118 133C118 251.42 116 369.561 116 488L116 575C116 580.661 112.963 600.297 117.603 603.972C120.385 606.175 126.672 605 130 605C140.99 605 152.014 604.746 163 605.015C205.841 606.064 248.976 606 292 606C320.338 606 348.617 607 377 607C387.27 607 402.832 609.893 412 605"/>
<path style="stroke:#810127;fill:none;stroke-width:4" d="M118 133C118 251.42 116 369.561 116 488L116 575C116 580.661 112.963 600.297 117.603 603.972C120.385 606.175 126.672 605 130 605C140.99 605 152.014 604.746 163 605.015C205.841 606.064 248.976 606 292 606C320.338 606 348.617 607 377 607C387.27 607 402.832 609.893 412 605"/>
<circle stroke="#000000" fill="none" stroke-width="2" r="15" cx="118" cy="133"/>
<circle stroke="#000000" fill="none" stroke-width="2" r="15" cx="412" cy="605"/>
<path style="stroke:#000000;fill:none;stroke-width:5" d="M413 139L412 307C351.362 307 290.673 305.574 230 306.003C193.229 306.263 154.455 309.607 118 305"/>
<path style="stroke:#23A2F8;fill:none;stroke-width:4" d="M413 139L412 307C351.362 307 290.673 305.574 230 306.003C193.229 306.263 154.455 309.607 118 305"/>
<circle stroke="#000000" fill="none" stroke-width="2" r="15" cx="413" cy="139"/>
<circle stroke="#000000" fill="none" stroke-width="2" r="15" cx="118" cy="305"/>
</svg>