<?xml version="1.0" standalone="yes"?>
<svg width="1416" height="544">
<path style="stroke:#000000;fill:none;stroke-width:5" d="M"/>
<path style="stroke:#CBE1EB;fill:none;stroke-width:4" d="M"/>
<path style="stroke:#000000;fill:none;stroke-width:5" d="M704 179C680.561 186.937 658.696 197.769 636 207.83C582.289 231.639 528.534 255.065 475 279.406C396.134 315.264 314.917 346.639 237 384.491C200.295 402.322 162.286 417.448 125 434.025C116.575 437.77 106.795 445.098 98 446.42C94.8458 446.894 89.3795 448.132 86.9082 445.397C83.6251 441.763 85.7743 435.262 85.9606 431C86.5532 417.447 87.1845 404.402 89.5363 391C99.2732 335.511 118.28 283.731 150.287 237C242.983 101.662 434.63 36.7022 588 103.23C619.524 116.904 649.921 130.922 677 152.551C686.894 160.454 698.663 167.254 704 179"/>
<path style="stroke:#478138;fill:none;stroke-width:4" d="M704 179C680.561 186.937 658.696 197.769 636 207.83C582.289 231.639 528.534 255.065 475 279.406C396.134 315.264 314.917 346.639 237 384.491C200.295 402.322 162.286 417.448 125 434.025C116.575 437.77 106.795 445.098 98 446.42C94.8458 446.894 89.3795 448.132 86.9082 445.397C83.6251 441.763 85.7743 435.262 85.9606 431C86.5532 417.447 87.1845 404.402 89.5363 391C99.2732 335.511 118.28 283.731 150.287 237C242.983 101.662 434.63 36.7022 588 103.23C619.524 116.904 649.921 130.922 677 152.551C686.894 160.454 698.663 167.254 704 179"/>
<circle stroke="#000000" fill="none" stroke-width="2" r="15" cx="704" cy="179"/>
<circle stroke="#000000" fill="none" stroke-width="2" r="15" cx="704" cy="179"/>
<path style="stroke:#000000;fill:none;stroke-width:5" d="M706 181C727.092 190.41 742.679 215.116 754.998 234.004C782.963 276.88 804.864 321.411 815 372C818.051 387.226 819.653 402.582 821.17 418C821.735 423.743 824.181 430.212 822.682 435.981C821.599 440.151 815.889 444.032 812 445.401C806.509 447.334 798.769 446 793 446C777.977 446 762.951 445.073 748 445.001C698.874 444.764 650.272 446 601 446C440.891 446 281.121 449 121 449"/>
<path style="stroke:#5255E9;fill:none;stroke-width:4" d="M706 181C727.092 190.41 742.679 215.116 754.998 234.004C782.963 276.88 804.864 321.411 815 372C818.051 387.226 819.653 402.582 821.17 418C821.735 423.743 824.181 430.212 822.682 435.981C821.599 440.151 815.889 444.032 812 445.401C806.509 447.334 798.769 446 793 446C777.977 446 762.951 445.073 748 445.001C698.874 444.764 650.272 446 601 446C440.891 446 281.121 449 121 449"/>
<circle stroke="#000000" fill="none" stroke-width="2" r="15" cx="706" cy="181"/>
<circle stroke="#000000" fill="none" stroke-width="2" r="15" cx="121" cy="449"/>
<path style="stroke:#000000;fill:none;stroke-width:5" d="M704 182C705.354 186.971 709.468 189.624 711.451 194.17C715.558 203.583 719.148 213.448 723.089 223C741.066 266.57 760.087 309.596 778.334 353C785.211 369.357 792.955 385.47 799.457 402C804.475 414.759 808.886 430.581 818 441"/>
<path style="stroke:#391823;fill:none;stroke-width:4" d="M704 182C705.354 186.971 709.468 189.624 711.451 194.17C715.558 203.583 719.148 213.448 723.089 223C741.066 266.57 760.087 309.596 778.334 353C785.211 369.357 792.955 385.47 799.457 402C804.475 414.759 808.886 430.581 818 441"/>
<circle stroke="#000000" fill="none" stroke-width="2" r="15" cx="704" cy="182"/>
<circle stroke="#000000" fill="none" stroke-width="2" r="15" cx="818" cy="441"/>
<path style="stroke:#000000;fill:none;stroke-width:5" d="M704 185C699.504 191.251 701 199.596 701 207C701 223.33 700.783 239.677 700.989 256C701.776 318.387 700 380.63 700 443"/>
<path style="stroke:#FCA4BE;fill:none;stroke-width:4" d="M704 185C699.504 191.251 701 199.596 701 207C701 223.33 700.783 239.677 700.989 256C701.776 318.387 700 380.63 700 443"/>
<circle stroke="#000000" fill="none" stroke-width="2" r="15" cx="704" cy="185"/>
<circle stroke="#000000" fill="none" stroke-width="2" r="15" cx="700" cy="443"/>
<path style="stroke:#000000;fill:none;stroke-width:5" d="M717 187L712 192"/>
<path style="stroke:#C28167;fill:none;stroke-width:4" d="M717 187L712 192"/>
<circle stroke="#000000" fill="none" stroke-width="2" r="15" cx="717" cy="187"/>
<circle stroke="#000000" fill="none" stroke-width="2" r="15" cx="712" cy="192"/>
<path style="stroke:#000000;fill:none;stroke-width:5" d="M1088 439C1088.3 447.985 1096.33 444.536 1103 445.17C1118.57 446.65 1134.35 446 1150 446C1190.59 446 1231.41 448.065 1272 448C1298.97 447.957 1325.89 446 1353 446"/>
<path style="stroke:#083654;fill:none;stroke-width:4" d="M1088 439C1088.3 447.985 1096.33 444.536 1103 445.17C1118.57 446.65 1134.35 446 1150 446C1190.59 446 1231.41 448.065 1272 448C1298.97 447.957 1325.89 446 1353 446"/>
<circle stroke="#000000" fill="none" stroke-width="2" r="15" cx="1088" cy="439"/>
<circle stroke="#000000" fill="none" stroke-width="2" r="15" cx="1353" cy="446"/>
<path style="stroke:#000000;fill:none;stroke-width:5" d="M821 441C827.924 446.527 836.576 444.997 845 445C860.651 445.006 876.287 444.813 892 445.011C929.228 445.48 966.832 446.896 1004 445.985C1023.09 445.518 1041.9 445.348 1061 445.957C1069.58 446.23 1078.48 444.559 1087 446"/>
<path style="stroke:#259F6E;fill:none;stroke-width:4" d="M821 441C827.924 446.527 836.576 444.997 845 445C860.651 445.006 876.287 444.813 892 445.011C929.228 445.48 966.832 446.896 1004 445.985C1023.09 445.518 1041.9 445.348 1061 445.957C1069.58 446.23 1078.48 444.559 1087 446"/>
<circle stroke="#000000" fill="none" stroke-width="2" r="15" cx="821" cy="441"/>
<circle stroke="#000000" fill="none" stroke-width="2" r="15" cx="1087" cy="446"/>
<path style="stroke:#000000;fill:none;stroke-width:5" d="M105 445L111 449"/>
<path style="stroke:#2D6D06;fill:none;stroke-width:4" d="M105 445L111 449"/>
<circle stroke="#000000" fill="none" stroke-width="2" r="15" cx="105" cy="445"/>
<circle stroke="#000000" fill="none" stroke-width="2" r="15" cx="111" cy="449"/>
<path style="stroke:#000000;fill:none;stroke-width:5" d="M1087 447L1088 452"/>
<path style="stroke:#9E04F4;fill:none;stroke-width:4" d="M1087 447L1088 452"/>
<circle stroke="#000000" fill="none" stroke-width="2" r="15" cx="1087" cy="447"/>
<circle stroke="#000000" fill="none" stroke-width="2" r="15" cx="1088" cy="452"/>
</svg>