<?xml version="1.0" standalone="yes"?>
<svg width="1256" height="600">
<path style="stroke:#000000;fill:none;stroke-width:5" d="M"/>
<path style="stroke:#71142A;fill:none;stroke-width:4" d="M"/>
<path style="stroke:#000000;fill:none;stroke-width:5" d="M126 111C137.846 107.499 152.816 109.427 165 109.961C184.832 110.829 205.186 110.999 225 111C305.099 111.005 385.925 115.339 466 111.375C486.801 110.345 511.85 117.956 532 112"/>
<path style="stroke:#F0DADA;fill:none;stroke-width:4" d="M126 111C137.846 107.499 152.816 109.427 165 109.961C184.832 110.829 205.186 110.999 225 111C305.099 111.005 385.925 115.339 466 111.375C486.801 110.345 511.85 117.956 532 112"/>
<circle stroke="#000000" fill="none" stroke-width="2" r="15" cx="126" cy="111"/>
<circle stroke="#000000" fill="none" stroke-width="2" r="15" cx="532" cy="112"/>
<path style="stroke:#000000;fill:none;stroke-width:5" d="M128 239C167.297 243.966 209.369 240 249 240L481 240L1187 240"/>
<path style="stroke:#BCF68B;fill:none;stroke-width:4" d="M128 239C167.297 243.966 209.369 240 249 240L481 240L1187 240"/>
<circle stroke="#000000" fill="none" stroke-width="2" r="15" cx="128" cy="239"/>
<circle stroke="#000000" fill="none" stroke-width="2" r="15" cx="1187" cy="240"/>
<path style="stroke:#000000;fill:none;stroke-width:5" d="M123 363L168 364.002L232 364.571L392 364L944 364"/>
<path style="stroke:#E38B89;fill:none;stroke-width:4" d="M123 363L168 364.002L232 364.571L392 364L944 364"/>
<circle stroke="#000000" fill="none" stroke-width="2" r="15" cx="123" cy="363"/>
<circle stroke="#000000" fill="none" stroke-width="2" r="15" cx="944" cy="364"/>
<path style="stroke:#000000;fill:none;stroke-width:5" d="M133 509L159 510L209 510.004L398 509.043L645 509.001L1058 509"/>
<path style="stroke:#B2F6DC;fill:none;stroke-width:4" d="M133 509L159 510L209 510.004L398 509.043L645 509.001L1058 509"/>
<circle stroke="#000000" fill="none" stroke-width="2" r="15" cx="133" cy="509"/>
<circle stroke="#000000" fill="none" stroke-width="2" r="15" cx="1058" cy="509"/>
</svg>