<?xml version="1.0" standalone="yes"?>
<svg width="1860" height="1164">
<path style="stroke:#000000;fill:none;stroke-width:5" d="M"/>
<path style="stroke:#AC8B7F;fill:none;stroke-width:4" d="M"/>
<path style="stroke:#000000;fill:none;stroke-width:5" d="M1474 76L1472.68 92.8665L1465.43 98.5093L1447.52 119L1379.34 224L1267 398L1237.18 443L1226.89 460.718L1195 461.089L1097 462L760 463L760 388C759.996 378.669 757.932 370.441 758.83 361C759.529 353.653 759.583 345.355 758.941 338C758.716 335.42 757.499 331.115 754.036 331.631C749.621 332.289 749.25 338.671 748.845 342C747.55 352.637 746.867 363.393 745.424 374C742.479 395.635 740.281 417.336 737.714 439C737.147 443.787 732.619 458.306 736.029 462.103C739.055 465.473 754.164 463.102 759 464"/>
<path style="stroke:#ADDE67;fill:none;stroke-width:4" d="M1474 76L1472.68 92.8665L1465.43 98.5093L1447.52 119L1379.34 224L1267 398L1237.18 443L1226.89 460.718L1195 461.089L1097 462L760 463L760 388C759.996 378.669 757.932 370.441 758.83 361C759.529 353.653 759.583 345.355 758.941 338C758.716 335.42 757.499 331.115 754.036 331.631C749.621 332.289 749.25 338.671 748.845 342C747.55 352.637 746.867 363.393 745.424 374C742.479 395.635 740.281 417.336 737.714 439C737.147 443.787 732.619 458.306 736.029 462.103C739.055 465.473 754.164 463.102 759 464"/>
<circle stroke="#000000" fill="none" stroke-width="2" r="15" cx="1474" cy="76"/>
<circle stroke="#000000" fill="none" stroke-width="2" r="15" cx="759" cy="464"/>
<path style="stroke:#000000;fill:none;stroke-width:5" d="M1472 95C1476.29 100.075 1474.6 104.292 1476.89 109.911C1478.16 113.012 1481.17 114.891 1482.41 118.015C1485.14 124.86 1484.83 132.833 1486.08 140C1488.55 154.034 1491.06 167.983 1493.32 182C1503.64 245.729 1517.16 309.115 1526.79 373C1529.92 393.705 1533.05 414.451 1537 435C1538.08 440.609 1536.83 451.868 1540.03 456.427C1543.08 460.783 1552.44 458.95 1557 459.004C1572.38 459.187 1587.59 459 1603 459C1654.54 459 1706.27 458 1758 458C1769.73 458 1782.45 459.911 1794 458.83C1799.08 458.355 1808.03 456.161 1812.39 459.988C1814.78 462.088 1813.33 466.309 1813.07 469C1812.17 478.635 1809.25 488.717 1806.5 498C1796.03 533.226 1787.88 570.908 1780.6 607C1757.77 720.246 1724.85 831.375 1699.67 944C1692.1 977.817 1682.44 1011.18 1674.88 1045C1671.28 1061.14 1669.6 1084.35 1660 1098"/>
<path style="stroke:#97EFA7;fill:none;stroke-width:4" d="M1472 95C1476.29 100.075 1474.6 104.292 1476.89 109.911C1478.16 113.012 1481.17 114.891 1482.41 118.015C1485.14 124.86 1484.83 132.833 1486.08 140C1488.55 154.034 1491.06 167.983 1493.32 182C1503.64 245.729 1517.16 309.115 1526.79 373C1529.92 393.705 1533.05 414.451 1537 435C1538.08 440.609 1536.83 451.868 1540.03 456.427C1543.08 460.783 1552.44 458.95 1557 459.004C1572.38 459.187 1587.59 459 1603 459C1654.54 459 1706.27 458 1758 458C1769.73 458 1782.45 459.911 1794 458.83C1799.08 458.355 1808.03 456.161 1812.39 459.988C1814.78 462.088 1813.33 466.309 1813.07 469C1812.17 478.635 1809.25 488.717 1806.5 498C1796.03 533.226 1787.88 570.908 1780.6 607C1757.77 720.246 1724.85 831.375 1699.67 944C1692.1 977.817 1682.44 1011.18 1674.88 1045C1671.28 1061.14 1669.6 1084.35 1660 1098"/>
<circle stroke="#000000" fill="none" stroke-width="2" r="15" cx="1472" cy="95"/>
<circle stroke="#000000" fill="none" stroke-width="2" r="15" cx="1660" cy="1098"/>
<path style="stroke:#000000;fill:none;stroke-width:5" d="M1460 107C1464.75 115.939 1458.6 127.901 1456.5 137C1450.47 163.082 1443.62 190.7 1434.94 216C1422.24 253.004 1415.13 292.319 1404.63 330C1392.19 374.589 1377.81 419.193 1366.6 464C1360.26 489.359 1354.2 515.067 1346.16 540C1344.18 546.161 1344.05 559.843 1339.4 564.323C1336.95 566.69 1332.97 565.189 1330 565.042C1321.98 564.648 1314.04 564 1306 564C1272.46 564 1238.44 563.201 1205 560.911C1195.71 560.274 1165.46 554.286 1164.05 568C1163.06 577.534 1167.75 590.524 1169.54 600C1173.25 619.681 1176.7 639.365 1180.63 659C1193.71 724.43 1202.84 790.739 1216.64 856C1221.19 877.541 1223.92 899.464 1228.49 921C1229.66 926.527 1229.25 940.66 1236.99 941.222C1243.85 941.721 1244.84 927.73 1244.81 923C1244.67 901.287 1254.81 875.59 1261.21 855C1280.91 791.534 1295.84 726.207 1313.29 662C1318.27 643.662 1323.33 625.319 1328.42 607C1332.03 594.041 1336.99 580.532 1337 567"/>
<path style="stroke:#6325C4;fill:none;stroke-width:4" d="M1460 107C1464.75 115.939 1458.6 127.901 1456.5 137C1450.47 163.082 1443.62 190.7 1434.94 216C1422.24 253.004 1415.13 292.319 1404.63 330C1392.19 374.589 1377.81 419.193 1366.6 464C1360.26 489.359 1354.2 515.067 1346.16 540C1344.18 546.161 1344.05 559.843 1339.4 564.323C1336.95 566.69 1332.97 565.189 1330 565.042C1321.98 564.648 1314.04 564 1306 564C1272.46 564 1238.44 563.201 1205 560.911C1195.71 560.274 1165.46 554.286 1164.05 568C1163.06 577.534 1167.75 590.524 1169.54 600C1173.25 619.681 1176.7 639.365 1180.63 659C1193.71 724.43 1202.84 790.739 1216.64 856C1221.19 877.541 1223.92 899.464 1228.49 921C1229.66 926.527 1229.25 940.66 1236.99 941.222C1243.85 941.721 1244.84 927.73 1244.81 923C1244.67 901.287 1254.81 875.59 1261.21 855C1280.91 791.534 1295.84 726.207 1313.29 662C1318.27 643.662 1323.33 625.319 1328.42 607C1332.03 594.041 1336.99 580.532 1337 567"/>
<circle stroke="#000000" fill="none" stroke-width="2" r="15" cx="1460" cy="107"/>
<circle stroke="#000000" fill="none" stroke-width="2" r="15" cx="1337" cy="567"/>
<path style="stroke:#000000;fill:none;stroke-width:5" d="M1477 112C1471.44 119.636 1473.89 127.29 1474 136C1474.21 153.994 1474 172.004 1474 190C1474 260.817 1475.34 331.289 1475 402C1474.82 440.333 1475 478.62 1475 517C1475 532.635 1478.81 553.98 1474.43 568.982C1473.46 572.291 1470.58 574.114 1469.13 577.129C1459.87 596.395 1447.1 613.774 1435.91 632C1404.95 682.434 1371.77 731.535 1340.91 782C1320.14 815.975 1298.53 849.363 1277.23 883C1268.39 896.961 1260.87 915.38 1247 925"/>
<path style="stroke:#3BAA98;fill:none;stroke-width:4" d="M1477 112C1471.44 119.636 1473.89 127.29 1474 136C1474.21 153.994 1474 172.004 1474 190C1474 260.817 1475.34 331.289 1475 402C1474.82 440.333 1475 478.62 1475 517C1475 532.635 1478.81 553.98 1474.43 568.982C1473.46 572.291 1470.58 574.114 1469.13 577.129C1459.87 596.395 1447.1 613.774 1435.91 632C1404.95 682.434 1371.77 731.535 1340.91 782C1320.14 815.975 1298.53 849.363 1277.23 883C1268.39 896.961 1260.87 915.38 1247 925"/>
<circle stroke="#000000" fill="none" stroke-width="2" r="15" cx="1477" cy="112"/>
<circle stroke="#000000" fill="none" stroke-width="2" r="15" cx="1247" cy="925"/>
<path style="stroke:#000000;fill:none;stroke-width:5" d="M759 282L752.922 300L755.687 308L755 330"/>
<path style="stroke:#933B6C;fill:none;stroke-width:4" d="M759 282L752.922 300L755.687 308L755 330"/>
<circle stroke="#000000" fill="none" stroke-width="2" r="15" cx="759" cy="282"/>
<circle stroke="#000000" fill="none" stroke-width="2" r="15" cx="755" cy="330"/>
<path style="stroke:#000000;fill:none;stroke-width:5" d="M599 461C605.439 465.632 611.672 463.196 619 463.054C630.592 462.83 642.327 463 654 463C658.543 463 671.189 461.32 673.686 466.317C676.658 472.265 668.762 482.675 666.604 488C659.775 504.856 651.926 521.284 644.719 538C642.171 543.91 640.858 554.042 635.61 558.147C619.814 570.499 599.648 579.433 583 591.205C528.488 629.752 472.541 667.629 416 703.228C398.328 714.355 381.197 726.806 364 738.717C354.656 745.188 343.163 754.559 332 757C331.757 747.308 344.784 737.863 350.83 731C369.47 709.844 389.823 689.884 407.625 668C422.285 649.978 439.407 634.028 454.715 616.561C498.652 566.43 542.619 515.278 587.498 466.278C590.377 463.135 595.266 463.253 598.066 460.182C616.181 440.322 633.787 418.474 651.715 398C674.852 371.578 698.466 345.537 722.439 319.83C729.299 312.474 740.076 295.181 752 301"/>
<path style="stroke:#92B03A;fill:none;stroke-width:4" d="M599 461C605.439 465.632 611.672 463.196 619 463.054C630.592 462.83 642.327 463 654 463C658.543 463 671.189 461.32 673.686 466.317C676.658 472.265 668.762 482.675 666.604 488C659.775 504.856 651.926 521.284 644.719 538C642.171 543.91 640.858 554.042 635.61 558.147C619.814 570.499 599.648 579.433 583 591.205C528.488 629.752 472.541 667.629 416 703.228C398.328 714.355 381.197 726.806 364 738.717C354.656 745.188 343.163 754.559 332 757C331.757 747.308 344.784 737.863 350.83 731C369.47 709.844 389.823 689.884 407.625 668C422.285 649.978 439.407 634.028 454.715 616.561C498.652 566.43 542.619 515.278 587.498 466.278C590.377 463.135 595.266 463.253 598.066 460.182C616.181 440.322 633.787 418.474 651.715 398C674.852 371.578 698.466 345.537 722.439 319.83C729.299 312.474 740.076 295.181 752 301"/>
<circle stroke="#000000" fill="none" stroke-width="2" r="15" cx="599" cy="461"/>
<circle stroke="#000000" fill="none" stroke-width="2" r="15" cx="752" cy="301"/>
<path style="stroke:#000000;fill:none;stroke-width:5" d="M752 302C739.525 314.747 733.669 335.697 726.852 352C715.904 378.183 704.201 404.176 692.471 430C687.212 441.578 683.837 456.892 675 466"/>
<path style="stroke:#4429A0;fill:none;stroke-width:4" d="M752 302C739.525 314.747 733.669 335.697 726.852 352C715.904 378.183 704.201 404.176 692.471 430C687.212 441.578 683.837 456.892 675 466"/>
<circle stroke="#000000" fill="none" stroke-width="2" r="15" cx="752" cy="302"/>
<circle stroke="#000000" fill="none" stroke-width="2" r="15" cx="675" cy="466"/>
<path style="stroke:#000000;fill:none;stroke-width:5" d="M738 304L744 310"/>
<path style="stroke:#FC2A83;fill:none;stroke-width:4" d="M738 304L744 310"/>
<circle stroke="#000000" fill="none" stroke-width="2" r="15" cx="738" cy="304"/>
<circle stroke="#000000" fill="none" stroke-width="2" r="15" cx="744" cy="310"/>
<path style="stroke:#000000;fill:none;stroke-width:5" d="M1539 457C1525.67 464.115 1502.79 460 1488 460L1371 460"/>
<path style="stroke:#3DEFFB;fill:none;stroke-width:4" d="M1539 457C1525.67 464.115 1502.79 460 1488 460L1371 460"/>
<circle stroke="#000000" fill="none" stroke-width="2" r="15" cx="1539" cy="457"/>
<circle stroke="#000000" fill="none" stroke-width="2" r="15" cx="1371" cy="460"/>
<path style="stroke:#000000;fill:none;stroke-width:5" d="M1542 459C1542.07 485.826 1550.15 513.679 1554.56 540C1561.67 582.33 1567.32 624.919 1575.37 667C1579.18 686.9 1583.98 707.792 1584.05 728C1584.07 733.895 1587.97 740.164 1584.97 745.985C1581.88 751.995 1572.71 755.952 1567 759.011C1554.22 765.851 1541.58 773.325 1529 780.579C1478.76 809.561 1429.18 839.998 1378 867.294C1344.05 885.398 1311.86 906.899 1278 925.123C1268.42 930.28 1253.26 945.672 1242 939"/>
<path style="stroke:#40E088;fill:none;stroke-width:4" d="M1542 459C1542.07 485.826 1550.15 513.679 1554.56 540C1561.67 582.33 1567.32 624.919 1575.37 667C1579.18 686.9 1583.98 707.792 1584.05 728C1584.07 733.895 1587.97 740.164 1584.97 745.985C1581.88 751.995 1572.71 755.952 1567 759.011C1554.22 765.851 1541.58 773.325 1529 780.579C1478.76 809.561 1429.18 839.998 1378 867.294C1344.05 885.398 1311.86 906.899 1278 925.123C1268.42 930.28 1253.26 945.672 1242 939"/>
<circle stroke="#000000" fill="none" stroke-width="2" r="15" cx="1542" cy="459"/>
<circle stroke="#000000" fill="none" stroke-width="2" r="15" cx="1242" cy="939"/>
<path style="stroke:#000000;fill:none;stroke-width:5" d="M1231 461L1273 461L1365 461"/>
<path style="stroke:#1C5CDE;fill:none;stroke-width:4" d="M1231 461L1273 461L1365 461"/>
<circle stroke="#000000" fill="none" stroke-width="2" r="15" cx="1231" cy="461"/>
<circle stroke="#000000" fill="none" stroke-width="2" r="15" cx="1365" cy="461"/>
<path style="stroke:#000000;fill:none;stroke-width:5" d="M680 461C690.439 467.863 708.022 462.482 720 463.389C723.796 463.676 730.438 461.519 732.972 465.318C735.452 469.035 733.092 474.156 732.375 478C730.632 487.343 730.117 497.505 729.05 507C724.51 547.419 719.252 587.589 714.286 628C712.941 638.945 712.18 650.088 710.409 661C709.084 669.161 705.794 675.493 709.029 683.91C711.023 689.098 716.041 693.152 718.806 698C728.101 714.299 737.25 730.668 746.488 747C749.562 752.434 757.528 760.204 758.589 766.09C760.621 777.362 746.564 796.379 741.551 806C730.015 828.137 718.864 850.68 707.71 873C701.555 885.316 696.648 900.279 688 911L682 905C679.877 911.287 680.755 917.913 688 912"/>
<path style="stroke:#502BF7;fill:none;stroke-width:4" d="M680 461C690.439 467.863 708.022 462.482 720 463.389C723.796 463.676 730.438 461.519 732.972 465.318C735.452 469.035 733.092 474.156 732.375 478C730.632 487.343 730.117 497.505 729.05 507C724.51 547.419 719.252 587.589 714.286 628C712.941 638.945 712.18 650.088 710.409 661C709.084 669.161 705.794 675.493 709.029 683.91C711.023 689.098 716.041 693.152 718.806 698C728.101 714.299 737.25 730.668 746.488 747C749.562 752.434 757.528 760.204 758.589 766.09C760.621 777.362 746.564 796.379 741.551 806C730.015 828.137 718.864 850.68 707.71 873C701.555 885.316 696.648 900.279 688 911L682 905C679.877 911.287 680.755 917.913 688 912"/>
<circle stroke="#000000" fill="none" stroke-width="2" r="15" cx="680" cy="461"/>
<circle stroke="#000000" fill="none" stroke-width="2" r="15" cx="688" cy="912"/>
<path style="stroke:#000000;fill:none;stroke-width:5" d="M1648 1098C1515.73 1098 1383.2 1097.03 1251 1097.03C1126.4 1097.03 1001.44 1098.94 877 1101.99C821.195 1103.35 765.002 1101 709 1101C631.94 1101 555.015 1103 478 1103C380.596 1103 283.245 1104 186 1104L113 1104C106.883 1104 91.2299 1106.79 86.6034 1102.26C82.1354 1097.88 86.8352 1088.9 87.6752 1084C90.5052 1067.49 92.8481 1050.63 94.8449 1034C103.509 961.832 120.747 890.886 130.791 819C142.714 733.668 156.438 647.625 172.626 563C176.786 541.251 179.824 518.883 183.127 497C184.279 489.363 183.665 474.699 188.024 468.318C191.043 463.898 205.03 465.695 210 465.325C233.249 463.591 257.571 466 281 466C353.713 466 426.235 464 499 464C518.377 464 537.677 464.458 557 463.985C566.835 463.745 577.632 461.047 587 465"/>
<path style="stroke:#DCBB05;fill:none;stroke-width:4" d="M1648 1098C1515.73 1098 1383.2 1097.03 1251 1097.03C1126.4 1097.03 1001.44 1098.94 877 1101.99C821.195 1103.35 765.002 1101 709 1101C631.94 1101 555.015 1103 478 1103C380.596 1103 283.245 1104 186 1104L113 1104C106.883 1104 91.2299 1106.79 86.6034 1102.26C82.1354 1097.88 86.8352 1088.9 87.6752 1084C90.5052 1067.49 92.8481 1050.63 94.8449 1034C103.509 961.832 120.747 890.886 130.791 819C142.714 733.668 156.438 647.625 172.626 563C176.786 541.251 179.824 518.883 183.127 497C184.279 489.363 183.665 474.699 188.024 468.318C191.043 463.898 205.03 465.695 210 465.325C233.249 463.591 257.571 466 281 466C353.713 466 426.235 464 499 464C518.377 464 537.677 464.458 557 463.985C566.835 463.745 577.632 461.047 587 465"/>
<circle stroke="#000000" fill="none" stroke-width="2" r="15" cx="1648" cy="1098"/>
<circle stroke="#000000" fill="none" stroke-width="2" r="15" cx="587" cy="465"/>
<path style="stroke:#000000;fill:none;stroke-width:5" d="M1223 463C1221.41 471.791 1213.76 479.535 1209.08 487C1197.77 505.044 1185.15 522.608 1174.5 541C1170.43 548.033 1162.27 556.854 1162 565"/>
<path style="stroke:#0BEFD4;fill:none;stroke-width:4" d="M1223 463C1221.41 471.791 1213.76 479.535 1209.08 487C1197.77 505.044 1185.15 522.608 1174.5 541C1170.43 548.033 1162.27 556.854 1162 565"/>
<circle stroke="#000000" fill="none" stroke-width="2" r="15" cx="1223" cy="463"/>
<circle stroke="#000000" fill="none" stroke-width="2" r="15" cx="1162" cy="565"/>
<path style="stroke:#000000;fill:none;stroke-width:5" d="M760 465C760 536.307 762 607.628 762 679L762 736C762 744.243 763.128 755.806 759 763"/>
<path style="stroke:#A76868;fill:none;stroke-width:4" d="M760 465C760 536.307 762 607.628 762 679L762 736C762 744.243 763.128 755.806 759 763"/>
<circle stroke="#000000" fill="none" stroke-width="2" r="15" cx="760" cy="465"/>
<circle stroke="#000000" fill="none" stroke-width="2" r="15" cx="759" cy="763"/>
<path style="stroke:#000000;fill:none;stroke-width:5" d="M1166 558L1168 560"/>
<path style="stroke:#578432;fill:none;stroke-width:4" d="M1166 558L1168 560"/>
<circle stroke="#000000" fill="none" stroke-width="2" r="15" cx="1166" cy="558"/>
<circle stroke="#000000" fill="none" stroke-width="2" r="15" cx="1168" cy="560"/>
<path style="stroke:#000000;fill:none;stroke-width:5" d="M637 559C654.565 584.847 669.57 612.804 684.964 640C690.013 648.92 696.495 667.198 707 670"/>
<path style="stroke:#AE70F5;fill:none;stroke-width:4" d="M637 559C654.565 584.847 669.57 612.804 684.964 640C690.013 648.92 696.495 667.198 707 670"/>
<circle stroke="#000000" fill="none" stroke-width="2" r="15" cx="637" cy="559"/>
<circle stroke="#000000" fill="none" stroke-width="2" r="15" cx="707" cy="670"/>
<path style="stroke:#000000;fill:none;stroke-width:5" d="M1342 566C1373.04 566 1405.12 566.892 1436 569.83C1446.83 570.861 1460.65 567.274 1470 574"/>
<path style="stroke:#B2D2D2;fill:none;stroke-width:4" d="M1342 566C1373.04 566 1405.12 566.892 1436 569.83C1446.83 570.861 1460.65 567.274 1470 574"/>
<circle stroke="#000000" fill="none" stroke-width="2" r="15" cx="1342" cy="566"/>
<circle stroke="#000000" fill="none" stroke-width="2" r="15" cx="1470" cy="574"/>
<path style="stroke:#000000;fill:none;stroke-width:5" d="M1473 574C1484.11 585.372 1491.26 599.985 1500.18 613C1517.02 637.566 1533.63 662.273 1550.2 686.985C1555.89 695.458 1562.08 703.634 1567.74 712.09C1572.05 718.533 1574.91 725.871 1583 728"/>
<path style="stroke:#64216C;fill:none;stroke-width:4" d="M1473 574C1484.11 585.372 1491.26 599.985 1500.18 613C1517.02 637.566 1533.63 662.273 1550.2 686.985C1555.89 695.458 1562.08 703.634 1567.74 712.09C1572.05 718.533 1574.91 725.871 1583 728"/>
<circle stroke="#000000" fill="none" stroke-width="2" r="15" cx="1473" cy="574"/>
<circle stroke="#000000" fill="none" stroke-width="2" r="15" cx="1583" cy="728"/>
<path style="stroke:#000000;fill:none;stroke-width:5" d="M709 686C705.182 691.785 706.579 697.469 705.561 704C703.363 718.105 700.409 732.783 699.986 747C699.844 751.77 696.367 759.1 698.604 763.566C700.615 767.582 709.35 765.994 713 766C725.15 766.02 745.68 770.424 756 763"/>
<path style="stroke:#A97885;fill:none;stroke-width:4" d="M709 686C705.182 691.785 706.579 697.469 705.561 704C703.363 718.105 700.409 732.783 699.986 747C699.844 751.77 696.367 759.1 698.604 763.566C700.615 767.582 709.35 765.994 713 766C725.15 766.02 745.68 770.424 756 763"/>
<circle stroke="#000000" fill="none" stroke-width="2" r="15" cx="709" cy="686"/>
<circle stroke="#000000" fill="none" stroke-width="2" r="15" cx="756" cy="763"/>
<path style="stroke:#000000;fill:none;stroke-width:5" d="M337 747L341 751"/>
<path style="stroke:#F2643E;fill:none;stroke-width:4" d="M337 747L341 751"/>
<circle stroke="#000000" fill="none" stroke-width="2" r="15" cx="337" cy="747"/>
<circle stroke="#000000" fill="none" stroke-width="2" r="15" cx="341" cy="751"/>
<path style="stroke:#000000;fill:none;stroke-width:5" d="M682 916C681.73 919.395 681.663 926.055 677.772 927.458C672.576 929.33 664.512 924.174 660 922.17C644.687 915.367 629.088 909.018 614 901.742C543.053 867.527 469.002 839.578 398 805.829C378.092 796.367 356.246 789.203 337.043 778.407C328.766 773.754 322.875 764.25 331 757"/>
<path style="stroke:#FA233A;fill:none;stroke-width:4" d="M682 916C681.73 919.395 681.663 926.055 677.772 927.458C672.576 929.33 664.512 924.174 660 922.17C644.687 915.367 629.088 909.018 614 901.742C543.053 867.527 469.002 839.578 398 805.829C378.092 796.367 356.246 789.203 337.043 778.407C328.766 773.754 322.875 764.25 331 757"/>
<circle stroke="#000000" fill="none" stroke-width="2" r="15" cx="682" cy="916"/>
<circle stroke="#000000" fill="none" stroke-width="2" r="15" cx="331" cy="757"/>
<path style="stroke:#000000;fill:none;stroke-width:5" d="M698 765C692.901 776.943 694.671 794.045 692.87 807C688.399 839.163 682 872.508 682 905"/>
<path style="stroke:#2187E8;fill:none;stroke-width:4" d="M698 765C692.901 776.943 694.671 794.045 692.87 807C688.399 839.163 682 872.508 682 905"/>
<circle stroke="#000000" fill="none" stroke-width="2" r="15" cx="698" cy="765"/>
<circle stroke="#000000" fill="none" stroke-width="2" r="15" cx="682" cy="905"/>
<path style="stroke:#000000;fill:none;stroke-width:5" d="M331 771C342.591 766.627 353.134 769.164 365 768.871C386.633 768.337 408.302 768 430 768L607 768C635.561 768 667.924 772.212 696 767"/>
<path style="stroke:#525057;fill:none;stroke-width:4" d="M331 771C342.591 766.627 353.134 769.164 365 768.871C386.633 768.337 408.302 768 430 768L607 768C635.561 768 667.924 772.212 696 767"/>
<circle stroke="#000000" fill="none" stroke-width="2" r="15" cx="331" cy="771"/>
<circle stroke="#000000" fill="none" stroke-width="2" r="15" cx="696" cy="767"/>
</svg>