<?xml version="1.0" standalone="yes"?>
<svg width="732" height="696">
<path style="stroke:#000000;fill:none;stroke-width:5" d="M"/>
<path style="stroke:#D50BE1;fill:none;stroke-width:4" d="M"/>
<path style="stroke:#000000;fill:none;stroke-width:5" d="M405 78L404 259L404 305L405.603 322.682L425 328.333L480 346.427L591 381.565L669 405"/>
<path style="stroke:#4DA5E3;fill:none;stroke-width:4" d="M405 78L404 259L404 305L405.603 322.682L425 328.333L480 346.427L591 381.565L669 405"/>
<circle stroke="#000000" fill="none" stroke-width="2" r="15" cx="405" cy="78"/>
<circle stroke="#000000" fill="none" stroke-width="2" r="15" cx="669" cy="405"/>
<path style="stroke:#000000;fill:none;stroke-width:5" d="M404 324C406.88 327.983 405 338.076 405 343L405 393L405 528C405 550.215 408.054 575.16 404 597"/>
<path style="stroke:#EF26D0;fill:none;stroke-width:4" d="M404 324C406.88 327.983 405 338.076 405 343L405 393L405 528C405 550.215 408.054 575.16 404 597"/>
<circle stroke="#000000" fill="none" stroke-width="2" r="15" cx="404" cy="324"/>
<circle stroke="#000000" fill="none" stroke-width="2" r="15" cx="404" cy="597"/>
<path style="stroke:#000000;fill:none;stroke-width:5" d="M72 389L288 346.487L352 333.49L404 324"/>
<path style="stroke:#C313E0;fill:none;stroke-width:4" d="M72 389L288 346.487L352 333.49L404 324"/>
<circle stroke="#000000" fill="none" stroke-width="2" r="15" cx="72" cy="389"/>
<circle stroke="#000000" fill="none" stroke-width="2" r="15" cx="404" cy="324"/>
</svg>