<?xml version="1.0" standalone="yes"?>
<svg width="1288" height="984">
<path style="stroke:#000000;fill:none;stroke-width:5" d="M"/>
<path style="stroke:#00D6E9;fill:none;stroke-width:4" d="M"/>
<path style="stroke:#000000;fill:none;stroke-width:5" d="M371 547C371 486.971 372.151 426.96 372.151 367C372.151 320.054 370.706 272.791 373.91 226C375.536 202.26 374 177.849 374 154C374 147.054 371.471 131.338 376.028 125.603C379.948 120.67 400.072 124 406 124C436.363 124 466.71 124.243 497 124.985C605.161 127.635 713.053 125.285 821 127.95C847.44 128.603 873.602 128 900 128C906.097 128 922.883 125.09 927.397 129.603C931.879 134.086 928.474 147.389 928.089 153C926.743 172.656 929 192.389 929 212C929 293.881 927.127 375.98 927 458C926.964 481.034 925.998 503.979 926 527C926 532.56 929.685 546.085 924.436 549.972C921.688 552.008 916.218 551 913 551L886 551C850.663 551 815.22 550.423 780 550.004C694.98 548.992 610.253 548.863 525 549C472.583 549.084 419.393 551.135 367 547"/>
<path style="stroke:#3218FC;fill:none;stroke-width:4" d="M371 547C371 486.971 372.151 426.96 372.151 367C372.151 320.054 370.706 272.791 373.91 226C375.536 202.26 374 177.849 374 154C374 147.054 371.471 131.338 376.028 125.603C379.948 120.67 400.072 124 406 124C436.363 124 466.71 124.243 497 124.985C605.161 127.635 713.053 125.285 821 127.95C847.44 128.603 873.602 128 900 128C906.097 128 922.883 125.09 927.397 129.603C931.879 134.086 928.474 147.389 928.089 153C926.743 172.656 929 192.389 929 212C929 293.881 927.127 375.98 927 458C926.964 481.034 925.998 503.979 926 527C926 532.56 929.685 546.085 924.436 549.972C921.688 552.008 916.218 551 913 551L886 551C850.663 551 815.22 550.423 780 550.004C694.98 548.992 610.253 548.863 525 549C472.583 549.084 419.393 551.135 367 547"/>
<circle stroke="#000000" fill="none" stroke-width="2" r="15" cx="371" cy="547"/>
<circle stroke="#000000" fill="none" stroke-width="2" r="15" cx="367" cy="547"/>
<path style="stroke:#000000;fill:none;stroke-width:5" d="M749 128L747 420L746.985 509L748 547"/>
<path style="stroke:#9B1EF2;fill:none;stroke-width:4" d="M749 128L747 420L746.985 509L748 547"/>
<circle stroke="#000000" fill="none" stroke-width="2" r="15" cx="749" cy="128"/>
<circle stroke="#000000" fill="none" stroke-width="2" r="15" cx="748" cy="547"/>
<path style="stroke:#000000;fill:none;stroke-width:5" d="M74.098 681.742C81.1866 678.627 91.5896 681.804 99 681.985C118.308 682.458 137.685 682 157 682C227.394 682 297.595 683 368 683C561.074 683 754.12 686 947 686C1008.99 686 1071.17 685.47 1133 686.985C1150.98 687.426 1169.02 687 1187 687C1195.14 687 1206.06 685.577 1213.85 688.028C1218.09 689.362 1217 695.579 1217 699L1217 733C1217 773.314 1218.84 814.79 1216.09 855C1215.48 863.926 1216 873.053 1216 882C1216 885.452 1216.89 890.533 1213.68 892.86C1208.33 896.743 1199.13 895.067 1193 895.004C1176.96 894.839 1161.08 894.523 1145 895.035C1077.96 897.174 1011.09 895 944 895C738.562 895 533.515 892 328 892C269.281 892 210.641 890.849 152 890.849C133.647 890.849 115.287 890 97 890C89.7825 890 77.8005 892.307 71.1481 889.397C66.6741 887.439 68.7986 881.706 68.9606 878C69.4543 866.71 69 855.302 69 844C69 803.365 70 762.626 70 722C70 712.254 70.5474 702.693 70.9606 693C71.1238 689.172 69.7368 683.659 74.098 681.742"/>
<path style="stroke:#826C6B;fill:none;stroke-width:4" d="M74.098 681.742C81.1866 678.627 91.5896 681.804 99 681.985C118.308 682.458 137.685 682 157 682C227.394 682 297.595 683 368 683C561.074 683 754.12 686 947 686C1008.99 686 1071.17 685.47 1133 686.985C1150.98 687.426 1169.02 687 1187 687C1195.14 687 1206.06 685.577 1213.85 688.028C1218.09 689.362 1217 695.579 1217 699L1217 733C1217 773.314 1218.84 814.79 1216.09 855C1215.48 863.926 1216 873.053 1216 882C1216 885.452 1216.89 890.533 1213.68 892.86C1208.33 896.743 1199.13 895.067 1193 895.004C1176.96 894.839 1161.08 894.523 1145 895.035C1077.96 897.174 1011.09 895 944 895C738.562 895 533.515 892 328 892C269.281 892 210.641 890.849 152 890.849C133.647 890.849 115.287 890 97 890C89.7825 890 77.8005 892.307 71.1481 889.397C66.6741 887.439 68.7986 881.706 68.9606 878C69.4543 866.71 69 855.302 69 844C69 803.365 70 762.626 70 722C70 712.254 70.5474 702.693 70.9606 693C71.1238 689.172 69.7368 683.659 74.098 681.742"/>
<circle stroke="#000000" fill="none" stroke-width="2" r="15" cx="74.098" cy="681.742"/>
<circle stroke="#000000" fill="none" stroke-width="2" r="15" cx="74.098" cy="681.742"/>
<path style="stroke:#000000;fill:none;stroke-width:5" d="M827 687L825 892"/>
<path style="stroke:#D86F2F;fill:none;stroke-width:4" d="M827 687L825 892"/>
<circle stroke="#000000" fill="none" stroke-width="2" r="15" cx="827" cy="687"/>
<circle stroke="#000000" fill="none" stroke-width="2" r="15" cx="825" cy="892"/>
</svg>