<?xml version="1.0" standalone="yes"?>
<svg width="516" height="654">
<path style="stroke:#000000;fill:none;stroke-width:5" d="M"/>
<path style="stroke:#48C8D5;fill:none;stroke-width:4" d="M"/>
<path style="stroke:#000000;fill:none;stroke-width:5" d="M163 279C158.025 274.025 144.937 264.459 149.042 256.015C151.604 250.746 158.47 247.978 163 244.715C175.436 235.755 188.313 227.479 201 218.907C243.396 190.264 284.59 159.419 328 132.316C343.796 122.453 358.66 111.097 373.17 99.49C376.485 96.8383 386.282 90.8236 390.397 94.6428C394.379 98.3388 392 111.93 392 117C392 137.979 391.501 159.027 392.015 180C394.107 265.38 393.588 350.721 393.999 436C394.119 460.775 395 485.296 395 510C395 515.624 397.763 531.131 390.941 533.508C383.819 535.989 377.713 526.544 374.127 522.09C362.178 507.252 349.587 493.219 336.95 479C282.575 417.82 226.407 356.775 175 293"/>
<path style="stroke:#F5BED0;fill:none;stroke-width:4" d="M163 279C158.025 274.025 144.937 264.459 149.042 256.015C151.604 250.746 158.47 247.978 163 244.715C175.436 235.755 188.313 227.479 201 218.907C243.396 190.264 284.59 159.419 328 132.316C343.796 122.453 358.66 111.097 373.17 99.49C376.485 96.8383 386.282 90.8236 390.397 94.6428C394.379 98.3388 392 111.93 392 117C392 137.979 391.501 159.027 392.015 180C394.107 265.38 393.588 350.721 393.999 436C394.119 460.775 395 485.296 395 510C395 515.624 397.763 531.131 390.941 533.508C383.819 535.989 377.713 526.544 374.127 522.09C362.178 507.252 349.587 493.219 336.95 479C282.575 417.82 226.407 356.775 175 293"/>
<circle stroke="#000000" fill="none" stroke-width="2" r="15" cx="163" cy="279"/>
<circle stroke="#000000" fill="none" stroke-width="2" r="15" cx="175" cy="293"/>
</svg>