<?xml version="1.0" standalone="yes"?>
<svg width="1038" height="1075">
<path style="stroke:#000000;fill:none;stroke-width:5" d="M"/>
<path style="stroke:#1CE31F;fill:none;stroke-width:4" d="M"/>
<path style="stroke:#000000;fill:none;stroke-width:5" d="M669 795L678 805C653.624 827.251 617.555 839.54 587 850.391C441.024 902.232 262.796 850.129 165.559 728.826C66.1731 604.844 50.24 426.07 130.595 288C151.799 251.566 181.293 217.945 213 190.185C348.017 71.9764 550.718 69.8367 694 173.594C746.026 211.268 786.617 265.874 814.258 323C833.564 362.899 846.801 409.632 849.911 454C850.473 462.023 851.625 473.187 849.682 481C848.752 484.743 845.2 487.102 844.742 491C843.659 500.229 846.25 509.8 845.957 519C845.38 537.073 843.026 556.232 839.626 574C827.091 639.506 792.024 702.835 743.999 748.961C728.997 763.369 711.53 778.752 693 788.532C685.125 792.689 677.268 788.044 669 795"/>
<path style="stroke:#FC4D18;fill:none;stroke-width:4" d="M669 795L678 805C653.624 827.251 617.555 839.54 587 850.391C441.024 902.232 262.796 850.129 165.559 728.826C66.1731 604.844 50.24 426.07 130.595 288C151.799 251.566 181.293 217.945 213 190.185C348.017 71.9764 550.718 69.8367 694 173.594C746.026 211.268 786.617 265.874 814.258 323C833.564 362.899 846.801 409.632 849.911 454C850.473 462.023 851.625 473.187 849.682 481C848.752 484.743 845.2 487.102 844.742 491C843.659 500.229 846.25 509.8 845.957 519C845.38 537.073 843.026 556.232 839.626 574C827.091 639.506 792.024 702.835 743.999 748.961C728.997 763.369 711.53 778.752 693 788.532C685.125 792.689 677.268 788.044 669 795"/>
<circle stroke="#000000" fill="none" stroke-width="2" r="15" cx="669" cy="795"/>
<circle stroke="#000000" fill="none" stroke-width="2" r="15" cx="669" cy="795"/>
<path style="stroke:#000000;fill:none;stroke-width:5" d="M569 256C569 304.622 567.827 353.517 569.015 402C569.744 431.789 574.225 463.25 570.714 493C568.477 511.965 575.31 533.487 561.468 548.788C556.974 553.755 549.547 557.105 544 560.836C528.996 570.93 513.056 579.515 498 589.484C493.523 592.448 481.499 595.688 479.117 600.228C474.469 609.089 482.222 630.175 482.91 640C485.592 678.259 490.597 716.85 495.285 755C496.838 767.644 498.703 780.296 499.015 793C499.098 796.413 501.282 802.452 498.971 805.397C496.236 808.884 487.704 806.245 484 805.975C468.02 804.806 450.016 795.836 436 788.668C418.533 779.736 399.575 770.724 384 758.544C350.235 732.14 317.527 691.757 301.194 652C268.308 571.948 267.365 478.878 308.799 402C384.608 261.345 581.819 208.829 713.83 301.861C757.332 332.518 790.944 371.81 815.373 419C826.629 440.743 826.8 473.142 844 490"/>
<path style="stroke:#120A47;fill:none;stroke-width:4" d="M569 256C569 304.622 567.827 353.517 569.015 402C569.744 431.789 574.225 463.25 570.714 493C568.477 511.965 575.31 533.487 561.468 548.788C556.974 553.755 549.547 557.105 544 560.836C528.996 570.93 513.056 579.515 498 589.484C493.523 592.448 481.499 595.688 479.117 600.228C474.469 609.089 482.222 630.175 482.91 640C485.592 678.259 490.597 716.85 495.285 755C496.838 767.644 498.703 780.296 499.015 793C499.098 796.413 501.282 802.452 498.971 805.397C496.236 808.884 487.704 806.245 484 805.975C468.02 804.806 450.016 795.836 436 788.668C418.533 779.736 399.575 770.724 384 758.544C350.235 732.14 317.527 691.757 301.194 652C268.308 571.948 267.365 478.878 308.799 402C384.608 261.345 581.819 208.829 713.83 301.861C757.332 332.518 790.944 371.81 815.373 419C826.629 440.743 826.8 473.142 844 490"/>
<circle stroke="#000000" fill="none" stroke-width="2" r="15" cx="569" cy="256"/>
<circle stroke="#000000" fill="none" stroke-width="2" r="15" cx="844" cy="490"/>
<path style="stroke:#000000;fill:none;stroke-width:5" d="M465 482C466.109 491.922 481.295 493.341 489 498.039C505.569 508.141 523.039 517.177 540 526.522C548.547 531.23 557.963 535.171 565 542"/>
<path style="stroke:#81585C;fill:none;stroke-width:4" d="M465 482C466.109 491.922 481.295 493.341 489 498.039C505.569 508.141 523.039 517.177 540 526.522C548.547 531.23 557.963 535.171 565 542"/>
<circle stroke="#000000" fill="none" stroke-width="2" r="15" cx="465" cy="482"/>
<circle stroke="#000000" fill="none" stroke-width="2" r="15" cx="565" cy="542"/>
<path style="stroke:#000000;fill:none;stroke-width:5" d="M466 491L469.17 526L475.572 570L479 598"/>
<path style="stroke:#216EB8;fill:none;stroke-width:4" d="M466 491L469.17 526L475.572 570L479 598"/>
<circle stroke="#000000" fill="none" stroke-width="2" r="15" cx="466" cy="491"/>
<circle stroke="#000000" fill="none" stroke-width="2" r="15" cx="479" cy="598"/>
<path style="stroke:#000000;fill:none;stroke-width:5" d="M567 542C584.207 554.765 606.932 562.857 626 572.784C665.847 593.527 705.244 615.07 745 636.042C764.044 646.088 788.969 654.619 805 669"/>
<path style="stroke:#C8C363;fill:none;stroke-width:4" d="M567 542C584.207 554.765 606.932 562.857 626 572.784C665.847 593.527 705.244 615.07 745 636.042C764.044 646.088 788.969 654.619 805 669"/>
<circle stroke="#000000" fill="none" stroke-width="2" r="15" cx="567" cy="542"/>
<circle stroke="#000000" fill="none" stroke-width="2" r="15" cx="805" cy="669"/>
<path style="stroke:#000000;fill:none;stroke-width:5" d="M806 668C814.08 675 826.506 678.324 836 683.549C860.361 696.958 885.724 712.815 912 722"/>
<path style="stroke:#4F3DEA;fill:none;stroke-width:4" d="M806 668C814.08 675 826.506 678.324 836 683.549C860.361 696.958 885.724 712.815 912 722"/>
<circle stroke="#000000" fill="none" stroke-width="2" r="15" cx="806" cy="668"/>
<circle stroke="#000000" fill="none" stroke-width="2" r="15" cx="912" cy="722"/>
<path style="stroke:#000000;fill:none;stroke-width:5" d="M674 791C680.893 798.849 683.221 802.773 689 792"/>
<path style="stroke:#2C19BC;fill:none;stroke-width:4" d="M674 791C680.893 798.849 683.221 802.773 689 792"/>
<circle stroke="#000000" fill="none" stroke-width="2" r="15" cx="674" cy="791"/>
<circle stroke="#000000" fill="none" stroke-width="2" r="15" cx="689" cy="792"/>
<path style="stroke:#000000;fill:none;stroke-width:5" d="M508 870C506.323 856.734 507.174 841.89 504.255 829C503.5 825.669 500.703 815.684 503.693 813.028C506.041 810.942 512.096 811.93 515 812.015C526.02 812.339 536.764 815.999 548 816C571.881 816.002 596.823 815.152 620 809.076C635.148 805.105 653.509 795.462 669 795"/>
<path style="stroke:#7574E1;fill:none;stroke-width:4" d="M508 870C506.323 856.734 507.174 841.89 504.255 829C503.5 825.669 500.703 815.684 503.693 813.028C506.041 810.942 512.096 811.93 515 812.015C526.02 812.339 536.764 815.999 548 816C571.881 816.002 596.823 815.152 620 809.076C635.148 805.105 653.509 795.462 669 795"/>
<circle stroke="#000000" fill="none" stroke-width="2" r="15" cx="508" cy="870"/>
<circle stroke="#000000" fill="none" stroke-width="2" r="15" cx="669" cy="795"/>
<path style="stroke:#000000;fill:none;stroke-width:5" d="M682 801L678 805"/>
<path style="stroke:#B1BA57;fill:none;stroke-width:4" d="M682 801L678 805"/>
<circle stroke="#000000" fill="none" stroke-width="2" r="15" cx="682" cy="801"/>
<circle stroke="#000000" fill="none" stroke-width="2" r="15" cx="678" cy="805"/>
<path style="stroke:#000000;fill:none;stroke-width:5" d="M499 807L502 811"/>
<path style="stroke:#0E6A00;fill:none;stroke-width:4" d="M499 807L502 811"/>
<circle stroke="#000000" fill="none" stroke-width="2" r="15" cx="499" cy="807"/>
<circle stroke="#000000" fill="none" stroke-width="2" r="15" cx="502" cy="811"/>
<path style="stroke:#000000;fill:none;stroke-width:5" d="M509 871L515 933"/>
<path style="stroke:#637380;fill:none;stroke-width:4" d="M509 871L515 933"/>
<circle stroke="#000000" fill="none" stroke-width="2" r="15" cx="509" cy="871"/>
<circle stroke="#000000" fill="none" stroke-width="2" r="15" cx="515" cy="933"/>
</svg>