<?xml version="1.0" standalone="yes"?>
<svg width="834" height="763">
<path style="stroke:#000000;fill:none;stroke-width:5" d="M"/>
<path style="stroke:#8D0533;fill:none;stroke-width:4" d="M"/>
<path style="stroke:#000000;fill:none;stroke-width:5" d="M339 357C347.621 334.189 362.877 314.224 376.409 294C399.361 259.697 424.807 224.402 444.125 188C452.018 173.126 462.211 159.111 471.424 145C474.167 140.8 478.517 132.22 484.011 131.427C490.048 130.555 493.466 139.138 496.428 143C506.279 155.839 514.603 169.704 523.795 183C529.773 191.648 534.119 201.325 539.965 209.961C560.03 239.601 582.184 268.065 602.076 298C615.6 318.354 632.159 336.846 640 360C636.558 361.046 632.27 360.891 629.213 362.938C625.346 365.527 624.003 370.514 619.985 373.182C612.297 378.287 603.074 382.329 595 386.985C570.686 401.007 544.442 412.155 520 426.127C450.254 465.996 377.716 501.079 307 538.915C278.155 554.349 249.966 571.12 221 586.319C208.359 592.951 195.769 603.694 181 604C187.146 580.253 205.987 559.339 219.304 539C245.261 499.357 269.373 458.439 295.536 419C303.739 406.635 312.245 393.829 319.717 381C323.544 374.43 329.826 363.267 337 360.002C340.654 358.339 346.977 360 351 360L385 360C425.344 360 465.736 360.582 506 360.996C534.926 361.294 564.015 359 593 359C603.904 359 618.757 356.275 628 363"/>
<path style="stroke:#C596DE;fill:none;stroke-width:4" d="M339 357C347.621 334.189 362.877 314.224 376.409 294C399.361 259.697 424.807 224.402 444.125 188C452.018 173.126 462.211 159.111 471.424 145C474.167 140.8 478.517 132.22 484.011 131.427C490.048 130.555 493.466 139.138 496.428 143C506.279 155.839 514.603 169.704 523.795 183C529.773 191.648 534.119 201.325 539.965 209.961C560.03 239.601 582.184 268.065 602.076 298C615.6 318.354 632.159 336.846 640 360C636.558 361.046 632.27 360.891 629.213 362.938C625.346 365.527 624.003 370.514 619.985 373.182C612.297 378.287 603.074 382.329 595 386.985C570.686 401.007 544.442 412.155 520 426.127C450.254 465.996 377.716 501.079 307 538.915C278.155 554.349 249.966 571.12 221 586.319C208.359 592.951 195.769 603.694 181 604C187.146 580.253 205.987 559.339 219.304 539C245.261 499.357 269.373 458.439 295.536 419C303.739 406.635 312.245 393.829 319.717 381C323.544 374.43 329.826 363.267 337 360.002C340.654 358.339 346.977 360 351 360L385 360C425.344 360 465.736 360.582 506 360.996C534.926 361.294 564.015 359 593 359C603.904 359 618.757 356.275 628 363"/>
<circle stroke="#000000" fill="none" stroke-width="2" r="15" cx="339" cy="357"/>
<circle stroke="#000000" fill="none" stroke-width="2" r="15" cx="628" cy="363"/>
<path style="stroke:#000000;fill:none;stroke-width:5" d="M641 362C652.63 365.464 658.609 379.402 664.464 389C670.853 399.475 678.995 408.628 685.529 419C717.002 468.961 750.891 519.311 787 566"/>
<path style="stroke:#6978F9;fill:none;stroke-width:4" d="M641 362C652.63 365.464 658.609 379.402 664.464 389C670.853 399.475 678.995 408.628 685.529 419C717.002 468.961 750.891 519.311 787 566"/>
<circle stroke="#000000" fill="none" stroke-width="2" r="15" cx="641" cy="362"/>
<circle stroke="#000000" fill="none" stroke-width="2" r="15" cx="787" cy="566"/>
<path style="stroke:#000000;fill:none;stroke-width:5" d="M181 604C155.971 625.926 142.787 661.457 121 687"/>
<path style="stroke:#02A323;fill:none;stroke-width:4" d="M181 604C155.971 625.926 142.787 661.457 121 687"/>
<circle stroke="#000000" fill="none" stroke-width="2" r="15" cx="181" cy="604"/>
<circle stroke="#000000" fill="none" stroke-width="2" r="15" cx="121" cy="687"/>
</svg>