<?xml version="1.0" standalone="yes"?>
<svg width="1231" height="1248">
<path style="stroke:#000000;fill:none;stroke-width:5" d="M"/>
<path style="stroke:#8C9CF4;fill:none;stroke-width:4" d="M"/>
<path style="stroke:#000000;fill:none;stroke-width:5" d="M547 130C573.821 169.46 604.251 206.526 633.639 244C657.115 273.936 679.138 305.163 702.604 335C716.112 352.176 730.325 369.115 742.861 387C746.462 392.137 754.736 399.731 752.958 406.852C751.615 412.229 738.183 410 734 410C713.061 410 691.882 411.021 671 410.545C614.61 409.258 556.397 406.842 500 409.04C480.95 409.782 461.93 408.302 443 409.04C430.159 409.541 414.515 412.699 402 409C405.158 398.315 403.09 385.161 404.17 374C406.355 351.417 411.976 327.718 418.425 306C435.428 248.74 470.37 192.734 514 152.089C521.108 145.468 528.708 137.838 537 132.713C539.784 130.993 543.703 131.065 546.186 129.012C560.167 117.451 573.503 105.878 590 96.9005C703.636 35.0632 850.231 40.6345 959 110.692C1015.25 146.922 1059.88 198.95 1088.89 259C1120.95 325.358 1126.63 397.052 1117.16 469C1111.12 514.907 1093.54 559.575 1069.54 599C1011.04 695.083 900.31 764.998 787 769.961C754.509 771.384 724.125 768.954 692 763.565C682.998 762.055 673.86 759.626 665 757.407C661.921 756.635 657.567 754.079 654.419 755.572C651.404 757.001 650.31 762.337 648.613 765C643.76 772.613 638.557 779.89 632.985 787C613.447 811.935 592.527 835.748 569.831 857.816C513.332 912.753 447.713 949.951 378 984"/>
<path style="stroke:#54073C;fill:none;stroke-width:4" d="M547 130C573.821 169.46 604.251 206.526 633.639 244C657.115 273.936 679.138 305.163 702.604 335C716.112 352.176 730.325 369.115 742.861 387C746.462 392.137 754.736 399.731 752.958 406.852C751.615 412.229 738.183 410 734 410C713.061 410 691.882 411.021 671 410.545C614.61 409.258 556.397 406.842 500 409.04C480.95 409.782 461.93 408.302 443 409.04C430.159 409.541 414.515 412.699 402 409C405.158 398.315 403.09 385.161 404.17 374C406.355 351.417 411.976 327.718 418.425 306C435.428 248.74 470.37 192.734 514 152.089C521.108 145.468 528.708 137.838 537 132.713C539.784 130.993 543.703 131.065 546.186 129.012C560.167 117.451 573.503 105.878 590 96.9005C703.636 35.0632 850.231 40.6345 959 110.692C1015.25 146.922 1059.88 198.95 1088.89 259C1120.95 325.358 1126.63 397.052 1117.16 469C1111.12 514.907 1093.54 559.575 1069.54 599C1011.04 695.083 900.31 764.998 787 769.961C754.509 771.384 724.125 768.954 692 763.565C682.998 762.055 673.86 759.626 665 757.407C661.921 756.635 657.567 754.079 654.419 755.572C651.404 757.001 650.31 762.337 648.613 765C643.76 772.613 638.557 779.89 632.985 787C613.447 811.935 592.527 835.748 569.831 857.816C513.332 912.753 447.713 949.951 378 984"/>
<circle stroke="#000000" fill="none" stroke-width="2" r="15" cx="547" cy="130"/>
<circle stroke="#000000" fill="none" stroke-width="2" r="15" cx="378" cy="984"/>
<path style="stroke:#000000;fill:none;stroke-width:5" d="M404 410C400.739 416.11 402.448 422.404 402.91 429C403.803 441.734 404.746 454.341 406.579 467C415.344 527.501 441.605 582.511 477.996 631C491.195 648.587 506.413 664.849 523 679.282C526.626 682.437 538.559 690.425 534.879 696.643C532.378 700.868 522.416 696.913 519 695.884C503.085 691.092 487.367 688.603 471 686.271C432.8 680.828 393.936 687.921 358 700.456C344.339 705.221 328.52 709.949 317 719C311.377 711.651 308.087 701.995 303.189 694C287.015 667.6 272.444 640.212 257.691 613C233.996 569.292 206.439 527.876 183.011 484C173.269 465.755 161.917 448.409 152.41 430C150.118 425.563 139.862 417.351 143.623 412.279C147.152 407.518 155.891 409 161 409C177.062 409 193 409.26 209 409.961C243.148 411.456 277.867 409.687 312 409.015C341.519 408.435 371.408 410.702 401 409"/>
<path style="stroke:#4BF191;fill:none;stroke-width:4" d="M404 410C400.739 416.11 402.448 422.404 402.91 429C403.803 441.734 404.746 454.341 406.579 467C415.344 527.501 441.605 582.511 477.996 631C491.195 648.587 506.413 664.849 523 679.282C526.626 682.437 538.559 690.425 534.879 696.643C532.378 700.868 522.416 696.913 519 695.884C503.085 691.092 487.367 688.603 471 686.271C432.8 680.828 393.936 687.921 358 700.456C344.339 705.221 328.52 709.949 317 719C311.377 711.651 308.087 701.995 303.189 694C287.015 667.6 272.444 640.212 257.691 613C233.996 569.292 206.439 527.876 183.011 484C173.269 465.755 161.917 448.409 152.41 430C150.118 425.563 139.862 417.351 143.623 412.279C147.152 407.518 155.891 409 161 409C177.062 409 193 409.26 209 409.961C243.148 411.456 277.867 409.687 312 409.015C341.519 408.435 371.408 410.702 401 409"/>
<circle stroke="#000000" fill="none" stroke-width="2" r="15" cx="404" cy="410"/>
<circle stroke="#000000" fill="none" stroke-width="2" r="15" cx="401" cy="409"/>
<path style="stroke:#000000;fill:none;stroke-width:5" d="M754 409C762.016 419.834 745.329 433.066 739.452 443C720.431 475.15 702.729 508.102 683.189 540C629.245 628.059 579.711 718.917 527.551 808C510.782 836.639 493.585 865.062 477.431 894C468.964 909.166 458.34 922.779 455 940"/>
<path style="stroke:#2B2AAC;fill:none;stroke-width:4" d="M754 409C762.016 419.834 745.329 433.066 739.452 443C720.431 475.15 702.729 508.102 683.189 540C629.245 628.059 579.711 718.917 527.551 808C510.782 836.639 493.585 865.062 477.431 894C468.964 909.166 458.34 922.779 455 940"/>
<circle stroke="#000000" fill="none" stroke-width="2" r="15" cx="754" cy="409"/>
<circle stroke="#000000" fill="none" stroke-width="2" r="15" cx="455" cy="940"/>
<path style="stroke:#000000;fill:none;stroke-width:5" d="M142 418C136.719 425.342 139.017 436.459 139.83 445C141.541 462.976 141.017 481.358 145.251 499C150.706 521.731 152.849 545.209 158.475 568C169.341 612.021 186.588 656.953 207.917 697C217.582 715.148 227.247 733.278 239.254 750C242.035 753.873 246.079 765.427 251.09 766.408C255.869 767.344 263.565 757.582 267 754.884C278.521 745.837 288.827 736.09 301 727.774C306.144 724.26 312.119 722.937 317 719"/>
<path style="stroke:#20B099;fill:none;stroke-width:4" d="M142 418C136.719 425.342 139.017 436.459 139.83 445C141.541 462.976 141.017 481.358 145.251 499C150.706 521.731 152.849 545.209 158.475 568C169.341 612.021 186.588 656.953 207.917 697C217.582 715.148 227.247 733.278 239.254 750C242.035 753.873 246.079 765.427 251.09 766.408C255.869 767.344 263.565 757.582 267 754.884C278.521 745.837 288.827 736.09 301 727.774C306.144 724.26 312.119 722.937 317 719"/>
<circle stroke="#000000" fill="none" stroke-width="2" r="15" cx="142" cy="418"/>
<circle stroke="#000000" fill="none" stroke-width="2" r="15" cx="317" cy="719"/>
<path style="stroke:#000000;fill:none;stroke-width:5" d="M758 420C764.092 427.991 761.733 437.654 761.089 447C759.735 466.671 757.655 486.53 754.59 506C740.597 594.9 705.326 677.868 658 754"/>
<path style="stroke:#FBB3EC;fill:none;stroke-width:4" d="M758 420C764.092 427.991 761.733 437.654 761.089 447C759.735 466.671 757.655 486.53 754.59 506C740.597 594.9 705.326 677.868 658 754"/>
<circle stroke="#000000" fill="none" stroke-width="2" r="15" cx="758" cy="420"/>
<circle stroke="#000000" fill="none" stroke-width="2" r="15" cx="658" cy="754"/>
<path style="stroke:#000000;fill:none;stroke-width:5" d="M536 696L577 720"/>
<path style="stroke:#D70A3C;fill:none;stroke-width:4" d="M536 696L577 720"/>
<circle stroke="#000000" fill="none" stroke-width="2" r="15" cx="536" cy="696"/>
<circle stroke="#000000" fill="none" stroke-width="2" r="15" cx="577" cy="720"/>
<path style="stroke:#000000;fill:none;stroke-width:5" d="M316 720C329.553 734.202 338.056 754.941 347.513 772C366.478 806.208 386.76 839.764 405.71 874C417.262 894.872 435.879 916.835 439 941C418.545 939.37 398.883 917.882 383 906.289C343.679 877.59 309.772 841.942 278.17 805C268.599 793.812 261.294 780.541 251 770C210.571 811.309 182.093 877.155 182 935C181.917 986.938 189.231 1035.2 215.667 1081C234.531 1113.68 261.203 1143.76 292 1165.7C390.304 1235.75 529.996 1229.12 620 1147.83C695.643 1079.51 725.88 971.139 697.91 874C687.848 839.055 670.89 800.151 643 776"/>
<path style="stroke:#BBF739;fill:none;stroke-width:4" d="M316 720C329.553 734.202 338.056 754.941 347.513 772C366.478 806.208 386.76 839.764 405.71 874C417.262 894.872 435.879 916.835 439 941C418.545 939.37 398.883 917.882 383 906.289C343.679 877.59 309.772 841.942 278.17 805C268.599 793.812 261.294 780.541 251 770C210.571 811.309 182.093 877.155 182 935C181.917 986.938 189.231 1035.2 215.667 1081C234.531 1113.68 261.203 1143.76 292 1165.7C390.304 1235.75 529.996 1229.12 620 1147.83C695.643 1079.51 725.88 971.139 697.91 874C687.848 839.055 670.89 800.151 643 776"/>
<circle stroke="#000000" fill="none" stroke-width="2" r="15" cx="316" cy="720"/>
<circle stroke="#000000" fill="none" stroke-width="2" r="15" cx="643" cy="776"/>
<path style="stroke:#000000;fill:none;stroke-width:5" d="M579 720L617.867 744.633L623.843 754.625L643 773"/>
<path style="stroke:#E6B341;fill:none;stroke-width:4" d="M579 720L617.867 744.633L623.843 754.625L643 773"/>
<circle stroke="#000000" fill="none" stroke-width="2" r="15" cx="579" cy="720"/>
<circle stroke="#000000" fill="none" stroke-width="2" r="15" cx="643" cy="773"/>
<path style="stroke:#000000;fill:none;stroke-width:5" d="M621 745C631.346 745.03 644.517 749.031 653 755"/>
<path style="stroke:#F548B7;fill:none;stroke-width:4" d="M621 745C631.346 745.03 644.517 749.031 653 755"/>
<circle stroke="#000000" fill="none" stroke-width="2" r="15" cx="621" cy="745"/>
<circle stroke="#000000" fill="none" stroke-width="2" r="15" cx="653" cy="755"/>
<path style="stroke:#000000;fill:none;stroke-width:5" d="M251 768L251 770"/>
<path style="stroke:#89DC1B;fill:none;stroke-width:4" d="M251 768L251 770"/>
<circle stroke="#000000" fill="none" stroke-width="2" r="15" cx="251" cy="768"/>
<circle stroke="#000000" fill="none" stroke-width="2" r="15" cx="251" cy="770"/>
<path style="stroke:#000000;fill:none;stroke-width:5" d="M440 942L446 946"/>
<path style="stroke:#827501;fill:none;stroke-width:4" d="M440 942L446 946"/>
<circle stroke="#000000" fill="none" stroke-width="2" r="15" cx="440" cy="942"/>
<circle stroke="#000000" fill="none" stroke-width="2" r="15" cx="446" cy="946"/>
<path style="stroke:#000000;fill:none;stroke-width:5" d="M450 946C460.465 957.614 483.059 970.602 499 973"/>
<path style="stroke:#4929FE;fill:none;stroke-width:4" d="M450 946C460.465 957.614 483.059 970.602 499 973"/>
<circle stroke="#000000" fill="none" stroke-width="2" r="15" cx="450" cy="946"/>
<circle stroke="#000000" fill="none" stroke-width="2" r="15" cx="499" cy="973"/>
</svg>