<?xml version="1.0" standalone="yes"?>
<svg width="1288" height="889">
<path style="stroke:#000000;fill:none;stroke-width:5" d="M"/>
<path style="stroke:#8DA95D;fill:none;stroke-width:4" d="M"/>
<path style="stroke:#000000;fill:none;stroke-width:5" d="M814 450C805.82 454.5 796.1 453 787 453L734 453C670.424 453.004 606.696 456 543 456L483 456C477.534 456 465.395 458.278 462.028 452.772C456.518 443.759 466.427 438.243 470.381 431.995C480.779 415.566 490.437 398.001 499.908 381C531.857 323.651 564.982 266.968 597.573 210C606.425 194.526 616.531 179.013 624.32 163C626.784 157.934 626.128 148.226 630.409 144.603C633.607 141.897 638.295 143.826 641.714 141.397C667.462 123.111 696.488 112.814 727 104.576C884.949 61.9304 1048.07 139.974 1130.42 278C1194.74 385.823 1189.14 532.84 1125.07 639C1104.36 673.322 1077.54 702.124 1048 728.83C968.783 800.448 842.411 832.917 739 805.282C716.047 799.148 694.928 791.346 673 782.228C665.63 779.164 652.996 775.731 649.106 767.946C645.231 760.188 659.355 753.953 664 750.487C684.197 735.414 703.214 719.967 720.996 702C769.528 652.963 805.467 579.837 813.173 511C814.598 498.274 815.958 485.733 817.17 473C817.973 464.555 819.328 457.211 814 450"/>
<path style="stroke:#39992C;fill:none;stroke-width:4" d="M814 450C805.82 454.5 796.1 453 787 453L734 453C670.424 453.004 606.696 456 543 456L483 456C477.534 456 465.395 458.278 462.028 452.772C456.518 443.759 466.427 438.243 470.381 431.995C480.779 415.566 490.437 398.001 499.908 381C531.857 323.651 564.982 266.968 597.573 210C606.425 194.526 616.531 179.013 624.32 163C626.784 157.934 626.128 148.226 630.409 144.603C633.607 141.897 638.295 143.826 641.714 141.397C667.462 123.111 696.488 112.814 727 104.576C884.949 61.9304 1048.07 139.974 1130.42 278C1194.74 385.823 1189.14 532.84 1125.07 639C1104.36 673.322 1077.54 702.124 1048 728.83C968.783 800.448 842.411 832.917 739 805.282C716.047 799.148 694.928 791.346 673 782.228C665.63 779.164 652.996 775.731 649.106 767.946C645.231 760.188 659.355 753.953 664 750.487C684.197 735.414 703.214 719.967 720.996 702C769.528 652.963 805.467 579.837 813.173 511C814.598 498.274 815.958 485.733 817.17 473C817.973 464.555 819.328 457.211 814 450"/>
<circle stroke="#000000" fill="none" stroke-width="2" r="15" cx="814" cy="450"/>
<circle stroke="#000000" fill="none" stroke-width="2" r="15" cx="814" cy="450"/>
<path style="stroke:#000000;fill:none;stroke-width:5" d="M461 454C455.19 461.622 457.636 471.985 458.715 481C461.309 502.692 463.034 524.983 469.23 546C489.058 613.257 524.169 670.119 575.001 718.961C593.196 736.444 618.436 747.431 635 766C622.246 780.944 596.776 786.703 579 793.594C517.133 817.578 452.395 817.579 388 807.439C350.043 801.462 314.818 785.277 281 767.485C125.491 685.671 59.6076 487.287 121.428 326C148.28 255.945 198.737 197.148 260 154.774C340.391 99.1688 446.228 82.1814 540 105.052C562.285 110.487 583.394 116.45 604 126.753C614.347 131.927 622.771 134.635 630 144"/>
<path style="stroke:#5E5C39;fill:none;stroke-width:4" d="M461 454C455.19 461.622 457.636 471.985 458.715 481C461.309 502.692 463.034 524.983 469.23 546C489.058 613.257 524.169 670.119 575.001 718.961C593.196 736.444 618.436 747.431 635 766C622.246 780.944 596.776 786.703 579 793.594C517.133 817.578 452.395 817.579 388 807.439C350.043 801.462 314.818 785.277 281 767.485C125.491 685.671 59.6076 487.287 121.428 326C148.28 255.945 198.737 197.148 260 154.774C340.391 99.1688 446.228 82.1814 540 105.052C562.285 110.487 583.394 116.45 604 126.753C614.347 131.927 622.771 134.635 630 144"/>
<circle stroke="#000000" fill="none" stroke-width="2" r="15" cx="461" cy="454"/>
<circle stroke="#000000" fill="none" stroke-width="2" r="15" cx="630" cy="144"/>
<path style="stroke:#000000;fill:none;stroke-width:5" d="M641 143C647.838 151.258 648.814 158.988 653.493 168C661.359 183.15 669.828 198.215 678.333 213C708.137 264.811 738.505 316.233 768.566 368C779.461 386.763 790.949 405.172 801.72 424C807.313 433.777 814 438.302 814 450"/>
<path style="stroke:#1CF589;fill:none;stroke-width:4" d="M641 143C647.838 151.258 648.814 158.988 653.493 168C661.359 183.15 669.828 198.215 678.333 213C708.137 264.811 738.505 316.233 768.566 368C779.461 386.763 790.949 405.172 801.72 424C807.313 433.777 814 438.302 814 450"/>
<circle stroke="#000000" fill="none" stroke-width="2" r="15" cx="641" cy="143"/>
<circle stroke="#000000" fill="none" stroke-width="2" r="15" cx="814" cy="450"/>
<path style="stroke:#000000;fill:none;stroke-width:5" d="M462 440C456.524 432.388 459.048 420.741 460.41 412C463.312 393.372 465.17 375.343 470.442 357C488.664 293.604 522.206 236.646 570 190.961C586.16 175.513 605.301 156.075 627 149"/>
<path style="stroke:#49C9A2;fill:none;stroke-width:4" d="M462 440C456.524 432.388 459.048 420.741 460.41 412C463.312 393.372 465.17 375.343 470.442 357C488.664 293.604 522.206 236.646 570 190.961C586.16 175.513 605.301 156.075 627 149"/>
<circle stroke="#000000" fill="none" stroke-width="2" r="15" cx="462" cy="440"/>
<circle stroke="#000000" fill="none" stroke-width="2" r="15" cx="627" cy="149"/>
<path style="stroke:#000000;fill:none;stroke-width:5" d="M651 155C670.877 159.103 686.424 178.689 701 191.83C734.081 221.657 762.637 256.611 782.18 297C790.944 315.114 795.322 334.37 802.323 353C809.595 372.354 813.022 392.508 815.17 413C816.082 421.705 819.227 430.08 814 438"/>
<path style="stroke:#F031CF;fill:none;stroke-width:4" d="M651 155C670.877 159.103 686.424 178.689 701 191.83C734.081 221.657 762.637 256.611 782.18 297C790.944 315.114 795.322 334.37 802.323 353C809.595 372.354 813.022 392.508 815.17 413C816.082 421.705 819.227 430.08 814 438"/>
<circle stroke="#000000" fill="none" stroke-width="2" r="15" cx="651" cy="155"/>
<circle stroke="#000000" fill="none" stroke-width="2" r="15" cx="814" cy="438"/>
<path style="stroke:#000000;fill:none;stroke-width:5" d="M635 766L647 766"/>
<path style="stroke:#97BD52;fill:none;stroke-width:4" d="M635 766L647 766"/>
<circle stroke="#000000" fill="none" stroke-width="2" r="15" cx="635" cy="766"/>
<circle stroke="#000000" fill="none" stroke-width="2" r="15" cx="647" cy="766"/>
</svg>