<?xml version="1.0" standalone="yes"?>
<svg width="1374" height="683">
<path style="stroke:#000000;fill:none;stroke-width:5" d="M"/>
<path style="stroke:#664E4E;fill:none;stroke-width:4" d="M"/>
<path style="stroke:#000000;fill:none;stroke-width:5" d="M93 556C93.9988 544.646 105.452 535.785 112.989 528.001C130.859 509.545 148.389 490.6 165.804 471.715C234.214 397.529 300.312 320.966 369.961 248C391.11 225.843 410.724 202.104 431.989 180C437.218 174.565 447.46 157.714 456.895 163.103C463.214 166.712 463.811 177.613 465.091 184C468.949 203.249 472.526 222.544 475.285 242C486.136 318.497 506.57 394.109 515.173 471C517.498 491.784 523.289 513.445 527.4 534C528.752 540.763 533.348 552.254 525.811 557.012C517.411 562.313 503.229 558.045 494 558.001C466.924 557.87 440.015 558 413 558C337.16 558 261.615 559 186 559L114 559C104.469 559 94.1248 555.467 85 558"/>
<path style="stroke:#0150CC;fill:none;stroke-width:4" d="M93 556C93.9988 544.646 105.452 535.785 112.989 528.001C130.859 509.545 148.389 490.6 165.804 471.715C234.214 397.529 300.312 320.966 369.961 248C391.11 225.843 410.724 202.104 431.989 180C437.218 174.565 447.46 157.714 456.895 163.103C463.214 166.712 463.811 177.613 465.091 184C468.949 203.249 472.526 222.544 475.285 242C486.136 318.497 506.57 394.109 515.173 471C517.498 491.784 523.289 513.445 527.4 534C528.752 540.763 533.348 552.254 525.811 557.012C517.411 562.313 503.229 558.045 494 558.001C466.924 557.87 440.015 558 413 558C337.16 558 261.615 559 186 559L114 559C104.469 559 94.1248 555.467 85 558"/>
<circle stroke="#000000" fill="none" stroke-width="2" r="15" cx="93" cy="556"/>
<circle stroke="#000000" fill="none" stroke-width="2" r="15" cx="85" cy="558"/>
<path style="stroke:#000000;fill:none;stroke-width:5" d="M860 563C854.869 562.309 838.589 561.483 836.697 555.856C834.155 548.295 845.177 538.461 849.615 533.715C866.299 515.868 883.584 498.282 899.714 480C967.489 403.188 1039.14 329.925 1107.83 254C1126.85 232.982 1145.65 211.797 1164.91 191C1170.75 184.688 1177.27 170.547 1187 169.681C1191.42 169.287 1193.14 173.496 1194.32 177C1197.35 185.933 1199 197.593 1199.92 207C1204.04 249.122 1215.24 291.229 1222.08 333C1231.27 389.112 1242.61 444.78 1251.3 501C1253.42 514.729 1257.05 528.245 1259 542C1259.63 546.424 1261.54 552.957 1257.68 556.436C1250.97 562.483 1232.62 560.178 1224 561.174C1217.77 561.894 1215.4 566.933 1209.96 568.772C1201.16 571.752 1191.13 572.165 1182 573.59C1106.18 585.433 1030.47 588.356 954 583.09C930.211 581.451 906.293 578.569 883 573.424C877.403 572.188 862.851 571.545 861.782 564.004C860.834 557.307 876.067 558.748 880 558.285C900.109 555.921 922.571 558 943 558C1010.33 558 1077.67 558.324 1145 557.999C1161.64 557.919 1178.29 557.067 1195 557.29C1203.38 557.402 1211.28 556.199 1218 562"/>
<path style="stroke:#F10E93;fill:none;stroke-width:4" d="M860 563C854.869 562.309 838.589 561.483 836.697 555.856C834.155 548.295 845.177 538.461 849.615 533.715C866.299 515.868 883.584 498.282 899.714 480C967.489 403.188 1039.14 329.925 1107.83 254C1126.85 232.982 1145.65 211.797 1164.91 191C1170.75 184.688 1177.27 170.547 1187 169.681C1191.42 169.287 1193.14 173.496 1194.32 177C1197.35 185.933 1199 197.593 1199.92 207C1204.04 249.122 1215.24 291.229 1222.08 333C1231.27 389.112 1242.61 444.78 1251.3 501C1253.42 514.729 1257.05 528.245 1259 542C1259.63 546.424 1261.54 552.957 1257.68 556.436C1250.97 562.483 1232.62 560.178 1224 561.174C1217.77 561.894 1215.4 566.933 1209.96 568.772C1201.16 571.752 1191.13 572.165 1182 573.59C1106.18 585.433 1030.47 588.356 954 583.09C930.211 581.451 906.293 578.569 883 573.424C877.403 572.188 862.851 571.545 861.782 564.004C860.834 557.307 876.067 558.748 880 558.285C900.109 555.921 922.571 558 943 558C1010.33 558 1077.67 558.324 1145 557.999C1161.64 557.919 1178.29 557.067 1195 557.29C1203.38 557.402 1211.28 556.199 1218 562"/>
<circle stroke="#000000" fill="none" stroke-width="2" r="15" cx="860" cy="563"/>
<circle stroke="#000000" fill="none" stroke-width="2" r="15" cx="1218" cy="562"/>
</svg>