<?xml version="1.0" standalone="yes"?>
<svg width="1440" height="552">
<path style="stroke:#000000;fill:none;stroke-width:5" d="M"/>
<path style="stroke:#04A3B4;fill:none;stroke-width:4" d="M"/>
<path style="stroke:#000000;fill:none;stroke-width:5" d="M137 69C143.952 77.3754 150.197 77.697 159 82.6343C175.326 91.7917 192.356 101.67 208 111.887C240.94 133.397 275.935 151.623 310 171.284C348.51 193.51 386.135 217.013 425 238.709C520.44 291.989 612.157 351.833 708 404.05C728.699 415.327 748.87 428.143 768.999 440.449C774.313 443.697 777.716 451.242 783.133 453.316C795.944 458.223 811.527 456 825 456C851.694 456 879.354 455.265 906 457.09C939.794 459.404 974.094 458 1008 458C1061.39 458 1114.52 458.454 1168 459.004C1200.5 459.338 1233.61 460.308 1266 458.09C1277.28 457.317 1289.1 459.69 1300 456"/>
<path style="stroke:#10C8DD;fill:none;stroke-width:4" d="M137 69C143.952 77.3754 150.197 77.697 159 82.6343C175.326 91.7917 192.356 101.67 208 111.887C240.94 133.397 275.935 151.623 310 171.284C348.51 193.51 386.135 217.013 425 238.709C520.44 291.989 612.157 351.833 708 404.05C728.699 415.327 748.87 428.143 768.999 440.449C774.313 443.697 777.716 451.242 783.133 453.316C795.944 458.223 811.527 456 825 456C851.694 456 879.354 455.265 906 457.09C939.794 459.404 974.094 458 1008 458C1061.39 458 1114.52 458.454 1168 459.004C1200.5 459.338 1233.61 460.308 1266 458.09C1277.28 457.317 1289.1 459.69 1300 456"/>
<circle stroke="#000000" fill="none" stroke-width="2" r="15" cx="137" cy="69"/>
<circle stroke="#000000" fill="none" stroke-width="2" r="15" cx="1300" cy="456"/>
<path style="stroke:#000000;fill:none;stroke-width:5" d="M146 79C148.199 96.0246 156.44 110.71 163.703 126C174.553 148.843 185.807 171.608 197.514 194C227.455 251.268 253.163 310.783 283.11 368C294.293 389.365 304.069 411.548 315.139 433C318.319 439.162 322.37 452.275 329.043 455.142C335.544 457.935 346.01 456 353 456C369.72 456 386.319 457 403 457C463.686 457 524.219 454.281 585 455.004C632.617 455.57 680.18 456 728 456C742.125 456 768.728 462.532 780 453"/>
<path style="stroke:#A481A1;fill:none;stroke-width:4" d="M146 79C148.199 96.0246 156.44 110.71 163.703 126C174.553 148.843 185.807 171.608 197.514 194C227.455 251.268 253.163 310.783 283.11 368C294.293 389.365 304.069 411.548 315.139 433C318.319 439.162 322.37 452.275 329.043 455.142C335.544 457.935 346.01 456 353 456C369.72 456 386.319 457 403 457C463.686 457 524.219 454.281 585 455.004C632.617 455.57 680.18 456 728 456C742.125 456 768.728 462.532 780 453"/>
<circle stroke="#000000" fill="none" stroke-width="2" r="15" cx="146" cy="79"/>
<circle stroke="#000000" fill="none" stroke-width="2" r="15" cx="780" cy="453"/>
</svg>