<?xml version="1.0" standalone="yes"?>
<svg width="888" height="472">
<path style="stroke:#000000;fill:none;stroke-width:5" d="M"/>
<path style="stroke:#12DFB6;fill:none;stroke-width:4" d="M"/>
<path style="stroke:#000000;fill:none;stroke-width:5" d="M324 103C337.837 123.981 347.373 148.545 358.602 171C379.217 212.225 400.446 253.58 422.564 294C430.67 308.813 438.446 324.614 445.413 340C447.438 344.473 450.302 355.546 455.055 357.392C460.955 359.684 470.504 345.942 475 342.249C494.57 326.173 515.613 311.989 535 295.754C567.692 268.376 603.112 243.741 637 217.765C663.65 197.337 689.197 175.305 716.015 155.155C737.994 138.64 762.212 123.986 783 106"/>
<path style="stroke:#4E663A;fill:none;stroke-width:4" d="M324 103C337.837 123.981 347.373 148.545 358.602 171C379.217 212.225 400.446 253.58 422.564 294C430.67 308.813 438.446 324.614 445.413 340C447.438 344.473 450.302 355.546 455.055 357.392C460.955 359.684 470.504 345.942 475 342.249C494.57 326.173 515.613 311.989 535 295.754C567.692 268.376 603.112 243.741 637 217.765C663.65 197.337 689.197 175.305 716.015 155.155C737.994 138.64 762.212 123.986 783 106"/>
<circle stroke="#000000" fill="none" stroke-width="2" r="15" cx="324" cy="103"/>
<circle stroke="#000000" fill="none" stroke-width="2" r="15" cx="783" cy="106"/>
<path style="stroke:#000000;fill:none;stroke-width:5" d="M453 358C444.991 363.286 434.171 360.461 425 361.09C399.121 362.862 372.97 361.99 347 362C258.257 362.034 168.866 364.755 80 365"/>
<path style="stroke:#2090F8;fill:none;stroke-width:4" d="M453 358C444.991 363.286 434.171 360.461 425 361.09C399.121 362.862 372.97 361.99 347 362C258.257 362.034 168.866 364.755 80 365"/>
<circle stroke="#000000" fill="none" stroke-width="2" r="15" cx="453" cy="358"/>
<circle stroke="#000000" fill="none" stroke-width="2" r="15" cx="80" cy="365"/>
<path style="stroke:#000000;fill:none;stroke-width:5" d="M461 358C468.521 363.41 481.052 361 490 361C513.792 361 537.349 361.075 561 360.039C647.76 356.24 735.483 365.828 822 359"/>
<path style="stroke:#1305DA;fill:none;stroke-width:4" d="M461 358C468.521 363.41 481.052 361 490 361C513.792 361 537.349 361.075 561 360.039C647.76 356.24 735.483 365.828 822 359"/>
<circle stroke="#000000" fill="none" stroke-width="2" r="15" cx="461" cy="358"/>
<circle stroke="#000000" fill="none" stroke-width="2" r="15" cx="822" cy="359"/>
</svg>