<?xml version="1.0" standalone="yes"?>
<svg width="776" height="904">
<path style="stroke:#000000;fill:none;stroke-width:5" d="M"/>
<path style="stroke:#FFD04F;fill:none;stroke-width:4" d="M"/>
<path style="stroke:#000000;fill:none;stroke-width:5" d="M90 134C98.3708 141.312 99.4454 153.092 103.861 163C112.29 181.913 122.145 200.196 130.792 219C163.202 289.487 196.508 359.522 228.819 430C239.368 453.008 250.636 475.865 260.795 499C264.165 506.676 268.577 524.868 276.055 529.088C281.736 532.294 293.56 530 300 530L358 530C427.232 530.004 496.681 531 566 531C588.344 531 610.747 531.117 633 531.001C638.057 530.974 652.751 525.995 654.002 534.105C654.941 540.185 644.831 546.472 641 549.845C626.588 562.533 611.81 575.014 596.911 587.13C544.182 630.006 491.895 674.792 442.015 720.924C429.315 732.67 416.23 743.921 403 755.015C398.834 758.508 392.206 766.715 386.043 765.728C380.636 764.863 378.735 756.23 376.989 752C371.49 738.674 366.095 724.761 359.421 712C338.359 671.724 320.632 630.315 302.103 589C293.844 570.586 280.618 551.258 278 531"/>
<path style="stroke:#D52C9D;fill:none;stroke-width:4" d="M90 134C98.3708 141.312 99.4454 153.092 103.861 163C112.29 181.913 122.145 200.196 130.792 219C163.202 289.487 196.508 359.522 228.819 430C239.368 453.008 250.636 475.865 260.795 499C264.165 506.676 268.577 524.868 276.055 529.088C281.736 532.294 293.56 530 300 530L358 530C427.232 530.004 496.681 531 566 531C588.344 531 610.747 531.117 633 531.001C638.057 530.974 652.751 525.995 654.002 534.105C654.941 540.185 644.831 546.472 641 549.845C626.588 562.533 611.81 575.014 596.911 587.13C544.182 630.006 491.895 674.792 442.015 720.924C429.315 732.67 416.23 743.921 403 755.015C398.834 758.508 392.206 766.715 386.043 765.728C380.636 764.863 378.735 756.23 376.989 752C371.49 738.674 366.095 724.761 359.421 712C338.359 671.724 320.632 630.315 302.103 589C293.844 570.586 280.618 551.258 278 531"/>
<circle stroke="#000000" fill="none" stroke-width="2" r="15" cx="90" cy="134"/>
<circle stroke="#000000" fill="none" stroke-width="2" r="15" cx="278" cy="531"/>
<path style="stroke:#000000;fill:none;stroke-width:5" d="M98 142C119.527 144.782 140.691 166.253 158 178.431C189.853 200.839 221.375 223.695 253 246.405C269.64 258.354 289.34 268.685 304 283L299 289"/>
<path style="stroke:#05D6E6;fill:none;stroke-width:4" d="M98 142C119.527 144.782 140.691 166.253 158 178.431C189.853 200.839 221.375 223.695 253 246.405C269.64 258.354 289.34 268.685 304 283L299 289"/>
<circle stroke="#000000" fill="none" stroke-width="2" r="15" cx="98" cy="142"/>
<circle stroke="#000000" fill="none" stroke-width="2" r="15" cx="299" cy="289"/>
<path style="stroke:#000000;fill:none;stroke-width:5" d="M310 277L305 283"/>
<path style="stroke:#9E71B4;fill:none;stroke-width:4" d="M310 277L305 283"/>
<circle stroke="#000000" fill="none" stroke-width="2" r="15" cx="310" cy="277"/>
<circle stroke="#000000" fill="none" stroke-width="2" r="15" cx="305" cy="283"/>
<path style="stroke:#000000;fill:none;stroke-width:5" d="M306 283C333.287 306.764 366.377 325.878 396 346.721C449.075 384.064 501.249 422.772 555 459.18C577.588 474.48 600.046 490.14 622 506.371C630.223 512.45 642.875 517.565 646 528"/>
<path style="stroke:#3A00E6;fill:none;stroke-width:4" d="M306 283C333.287 306.764 366.377 325.878 396 346.721C449.075 384.064 501.249 422.772 555 459.18C577.588 474.48 600.046 490.14 622 506.371C630.223 512.45 642.875 517.565 646 528"/>
<circle stroke="#000000" fill="none" stroke-width="2" r="15" cx="306" cy="283"/>
<circle stroke="#000000" fill="none" stroke-width="2" r="15" cx="646" cy="528"/>
</svg>