<?xml version="1.0" standalone="yes"?>
<svg width="1063" height="972">
<path style="stroke:#000000;fill:none;stroke-width:5" d="M"/>
<path style="stroke:#1CD95A;fill:none;stroke-width:4" d="M"/>
<path style="stroke:#000000;fill:none;stroke-width:5" d="M278 137L304 136.985L375 136.961L614 134"/>
<path style="stroke:#A8FBD6;fill:none;stroke-width:4" d="M278 137L304 136.985L375 136.961L614 134"/>
<circle stroke="#000000" fill="none" stroke-width="2" r="15" cx="278" cy="137"/>
<circle stroke="#000000" fill="none" stroke-width="2" r="15" cx="614" cy="134"/>
<path style="stroke:#000000;fill:none;stroke-width:5" d="M415 202.424C444.684 198.515 477.844 202.373 507 207.905C680.447 240.817 806.853 403.6 795.486 580C790.189 662.209 750.435 745.387 692.985 803.999C677.298 820.004 658.99 832.804 641 846.025C601.648 874.948 548.83 897.714 500 903.714C484.396 905.631 467.764 908.821 452 908.821C361.119 908.821 271.998 877.317 205 814.91C102.689 719.613 66.7223 569.825 111.579 438C122.416 406.154 138.327 374.559 157.62 347C161.793 341.039 168.712 337.857 172.722 332.491C192.555 305.951 214.859 281.981 243 263.09C295.812 227.637 352.797 210.616 415 202.424"/>
<path style="stroke:#347E68;fill:none;stroke-width:4" d="M415 202.424C444.684 198.515 477.844 202.373 507 207.905C680.447 240.817 806.853 403.6 795.486 580C790.189 662.209 750.435 745.387 692.985 803.999C677.298 820.004 658.99 832.804 641 846.025C601.648 874.948 548.83 897.714 500 903.714C484.396 905.631 467.764 908.821 452 908.821C361.119 908.821 271.998 877.317 205 814.91C102.689 719.613 66.7223 569.825 111.579 438C122.416 406.154 138.327 374.559 157.62 347C161.793 341.039 168.712 337.857 172.722 332.491C192.555 305.951 214.859 281.981 243 263.09C295.812 227.637 352.797 210.616 415 202.424"/>
<circle stroke="#000000" fill="none" stroke-width="2" r="15" cx="415" cy="202.424"/>
<circle stroke="#000000" fill="none" stroke-width="2" r="15" cx="415" cy="202.424"/>
<path style="stroke:#000000;fill:none;stroke-width:5" d="M173 334L224 374.463L363 485.17L421 531.92L449 552.351L493 552.179L604 552L973 549"/>
<path style="stroke:#F30543;fill:none;stroke-width:4" d="M173 334L224 374.463L363 485.17L421 531.92L449 552.351L493 552.179L604 552L973 549"/>
<circle stroke="#000000" fill="none" stroke-width="2" r="15" cx="173" cy="334"/>
<circle stroke="#000000" fill="none" stroke-width="2" r="15" cx="973" cy="549"/>
</svg>