<?xml version="1.0" encoding="UTF-8" standalone="no"?>
<!-- Created with Inkscape (http://www.inkscape.org/) -->

<svg
   xmlns:dc="http://purl.org/dc/elements/1.1/"
   xmlns:cc="http://creativecommons.org/ns#"
   xmlns:rdf="http://www.w3.org/1999/02/22-rdf-syntax-ns#"
   xmlns:svg="http://www.w3.org/2000/svg"
   xmlns="http://www.w3.org/2000/svg"
   xmlns:inkscape="http://www.inkscape.org/namespaces/inkscape"
   version="1.1"
   width="1093"
   height="726"
   id="svg2">
  <metadata
     id="metadata10">
    <rdf:RDF>
      <cc:Work
         rdf:about="">
        <dc:format>image/svg+xml</dc:format>
        <dc:type
           rdf:resource="http://purl.org/dc/dcmitype/StillImage" />
      </cc:Work>
    </rdf:RDF>
  </metadata>
  <defs
     id="defs8" />
  <path
     d="m 113,401 c 4.791,-9.044 15.914,-13.102 24,-18.721 21.052,-14.627 44.098,-26.257 65,-41.139 55.347,-39.407 115.615,-72.121 172,-110.026 24.233,-16.291 49.211,-31.527 74,-46.928 13.893,-8.631 25.568,-17.96 41,-23.186 4.34,9.017 2.012,22.156 2,32 -0.027,22.393 1,44.627 1,67 0,33.508 -3.005,67.638 0.17,101 0.941,9.889 -0.154,19.15 -0.17,29 -0.006,3.6 1.037,9.557 -1.742,12.397 -4.681,4.782 -23.024,2.049 -29.258,1.696 -22.55,-1.276 -46.276,0.907 -69,0.907 -69.198,0 -138.689,0.429 -208,0.429 -18.985,0 -38.028,-0.43 -57,-0.429 -6.932,0 -14.395,-2.647 -21,-1"
     inkscape:connector-curvature="0"
     id="path2991"
     style="fill:none;stroke:#000000" />
  <path
     d="m 991,278 c -1.268,29.533 -1.665,60.386 -0.757,90 0.238,7.755 4.256,27.294 -1.846,33.397 -3.663,3.662 -13.615,1.318 -18.397,1.773 -19.57,1.862 -40.196,-0.402 -60,-0.166 -77.96,0.927 -155.778,0.966 -234,0.996 -21.691,0.008 -43.294,1.254 -65,0.996 -3.713,-0.044 -20.054,0.839 -22.183,-1.689 -4.495,-5.338 13.795,-15.491 17.183,-17.355 24.643,-13.559 48.594,-28.418 73,-42.379 72.025,-41.205 142.59,-84.708 214,-127.025 23.005,-13.633 46.095,-28.399 70,-40.252 8.336,-4.134 14.37,-11.003 23.995,-12.472 9.743,-1.487 5.812,25.481 5.175,32.176 -1.884,19.79 -1.17,40.108 -1.17,60 0,4.934 -2.138,16.653 1.603,20.397 4.475,4.477 14.137,1.126 19.397,0.603"
     inkscape:connector-curvature="0"
     id="path2989"
     style="fill:none;stroke:#000000" />
  <path
     d="m 587,403 c -2.451,9.98 8.994,13.821 16,17.486 19.052,9.968 37.494,21.558 56,32.499 80.683,47.703 162.204,94.814 244,140.65 21.788,12.21 43.767,24.766 65,37.897 4.404,2.724 17.056,14.161 22.512,10.4 2.741,-1.889 2.31,-11.764 2.449,-14.932 0.643,-14.707 -0.865,-30.307 -1.872,-45 -3.06,-44.684 0.832,-90.323 0.832,-135 0,-14.274 -1.882,-28.717 -1.921,-43"
     inkscape:connector-curvature="0"
     id="path4"
     style="fill:none;stroke:#000000" />
</svg>
