<?xml version="1.0" encoding="UTF-8" standalone="no"?>
<!-- Created with Inkscape (http://www.inkscape.org/) -->

<svg
   xmlns:dc="http://purl.org/dc/elements/1.1/"
   xmlns:cc="http://creativecommons.org/ns#"
   xmlns:rdf="http://www.w3.org/1999/02/22-rdf-syntax-ns#"
   xmlns:svg="http://www.w3.org/2000/svg"
   xmlns="http://www.w3.org/2000/svg"
   xmlns:inkscape="http://www.inkscape.org/namespaces/inkscape"
   version="1.1"
   width="1231"
   height="1248"
   id="svg2">
  <metadata
     id="metadata10">
    <rdf:RDF>
      <cc:Work
         rdf:about="">
        <dc:format>image/svg+xml</dc:format>
        <dc:type
           rdf:resource="http://purl.org/dc/dcmitype/StillImage" />
      </cc:Work>
    </rdf:RDF>
  </metadata>
  <defs
     id="defs8" />
  <path
     d="m 547,130 c 26.821,39.46 57.251,76.526 86.639,114 23.476,29.936 45.499,61.163 68.965,91 13.508,17.176 27.721,34.115 40.257,52 3.601,5.137 11.875,12.731 10.097,19.852 C 751.615,412.229 738.183,410 734,410 c -20.939,0 -42.118,1.021 -63,0.545 -56.39,-1.287 -114.603,-3.703 -171,-1.505 -19.05,0.742 -38.07,-0.738 -57,0 -12.841,0.501 -28.485,3.659 -41,-0.04 3.158,-10.685 1.09,-23.839 2.17,-35 2.185,-22.583 7.806,-46.282 14.255,-68 17.003,-57.26 51.945,-113.266 95.575,-153.911 7.108,-6.621 14.708,-14.251 23,-19.376 2.784,-1.72 6.703,-1.648 9.186,-3.701 13.981,-11.561 27.317,-23.134 43.814,-32.1115 113.636,-61.8373 260.231,-56.266 369,13.7915 56.25,36.23 100.88,88.258 129.89,148.308 32.06,66.358 37.74,138.052 28.27,210 -6.04,45.907 -23.62,90.575 -47.62,130 -58.5,96.083 -169.23,165.998 -282.54,170.961 -32.491,1.423 -62.875,-1.007 -95,-6.396 -9.002,-1.51 -18.14,-3.939 -27,-6.158 -3.079,-0.772 -7.433,-3.328 -10.581,-1.835 -3.015,1.429 -4.109,6.765 -5.806,9.428 -4.853,7.613 -10.056,14.89 -15.628,22 -19.538,24.935 -40.458,48.748 -63.154,70.816 C 513.332,912.753 447.713,949.951 378,984"
     inkscape:connector-curvature="0"
     id="path3009"
     style="fill:none;stroke:#000000" />
  <path
     d="m 404,410 c -3.261,6.11 -1.552,12.404 -1.09,19 0.893,12.734 1.836,25.341 3.669,38 8.765,60.501 35.026,115.511 71.417,164 13.199,17.587 28.417,33.849 45.004,48.282 3.626,3.155 15.559,11.143 11.879,17.361 -2.501,4.225 -12.463,0.27 -15.879,-0.759 -15.915,-4.792 -31.633,-7.281 -48,-9.613 -38.2,-5.443 -77.064,1.65 -113,14.185 -13.661,4.765 -29.48,9.493 -41,18.544 -5.623,-7.349 -8.913,-17.005 -13.811,-25 -16.174,-26.4 -30.745,-53.788 -45.498,-81 -23.695,-43.708 -51.252,-85.124 -74.68,-129 -9.742,-18.245 -21.094,-35.591 -30.601,-54 -2.292,-4.437 -12.548,-12.649 -8.787,-17.721 C 147.152,407.518 155.891,409 161,409 c 16.062,0 32,0.26 48,0.961 34.148,1.495 68.867,-0.274 103,-0.946 29.519,-0.58 59.408,1.687 89,-0.015"
     inkscape:connector-curvature="0"
     id="path3007"
     style="fill:none;stroke:#000000" />
  <path
     d="m 754,409 c 8.016,10.834 -8.671,24.066 -14.548,34 -19.021,32.15 -36.723,65.102 -56.263,97 -53.944,88.059 -103.478,178.917 -155.638,268 -16.769,28.639 -33.966,57.062 -50.12,86 -8.467,15.166 -19.091,28.779 -22.431,46"
     inkscape:connector-curvature="0"
     id="path3005"
     style="fill:none;stroke:#000000" />
  <path
     d="m 142,418 c -5.281,7.342 -2.983,18.459 -2.17,27 1.711,17.976 1.187,36.358 5.421,54 5.455,22.731 7.598,46.209 13.224,69 10.866,44.021 28.113,88.953 49.442,129 9.665,18.148 19.33,36.278 31.337,53 2.781,3.873 6.825,15.427 11.836,16.408 4.779,0.936 12.475,-8.826 15.91,-11.524 11.521,-9.047 21.827,-18.794 34,-27.11 5.144,-3.514 11.119,-4.837 16,-8.774"
     inkscape:connector-curvature="0"
     id="path3003"
     style="fill:none;stroke:#000000" />
  <path
     d="m 758,420 c 6.092,7.991 3.733,17.654 3.089,27 -1.354,19.671 -3.434,39.53 -6.499,59 -13.993,88.9 -49.264,171.868 -96.59,248"
     inkscape:connector-curvature="0"
     id="path3001"
     style="fill:none;stroke:#000000" />
  <path
     d="m 536,696 41,24"
     inkscape:connector-curvature="0"
     id="path2999"
     style="fill:none;stroke:#000000" />
  <path
     d="m 316,720 c 13.553,14.202 22.056,34.941 31.513,52 18.965,34.208 39.247,67.764 58.197,102 11.552,20.872 30.169,42.835 33.29,67 -20.455,-1.63 -40.117,-23.118 -56,-34.711 C 343.679,877.59 309.772,841.942 278.17,805 268.599,793.812 261.294,780.541 251,770 c -40.429,41.309 -68.907,107.155 -69,165 -0.083,51.938 7.231,100.2 33.667,146 18.864,32.68 45.536,62.76 76.333,84.7 98.304,70.05 237.996,63.42 328,-17.87 C 695.643,1079.51 725.88,971.139 697.91,874 687.848,839.055 670.89,800.151 643,776"
     inkscape:connector-curvature="0"
     id="path2997"
     style="fill:none;stroke:#000000" />
  <path
     d="m 579,720 38.867,24.633 5.976,9.992 L 643,773"
     inkscape:connector-curvature="0"
     id="path2995"
     style="fill:none;stroke:#000000" />
  <path
     d="m 621,745 c 10.346,0.03 23.517,4.031 32,10"
     inkscape:connector-curvature="0"
     id="path2993"
     style="fill:none;stroke:#000000" />
  <path
     d="m 251,768 0,2"
     inkscape:connector-curvature="0"
     id="path2991"
     style="fill:none;stroke:#000000" />
  <path
     d="m 440,942 6,4"
     inkscape:connector-curvature="0"
     id="path2989"
     style="fill:none;stroke:#000000" />
  <path
     d="m 450,946 c 10.465,11.614 33.059,24.602 49,27"
     inkscape:connector-curvature="0"
     id="path4"
     style="fill:none;stroke:#000000" />
</svg>
