<?xml version="1.0" encoding="UTF-8" standalone="no"?>
<!-- Created with Inkscape (http://www.inkscape.org/) -->

<svg
   xmlns:dc="http://purl.org/dc/elements/1.1/"
   xmlns:cc="http://creativecommons.org/ns#"
   xmlns:rdf="http://www.w3.org/1999/02/22-rdf-syntax-ns#"
   xmlns:svg="http://www.w3.org/2000/svg"
   xmlns="http://www.w3.org/2000/svg"
   xmlns:inkscape="http://www.inkscape.org/namespaces/inkscape"
   version="1.1"
   width="834"
   height="763"
   id="svg2">
  <metadata
     id="metadata10">
    <rdf:RDF>
      <cc:Work
         rdf:about="">
        <dc:format>image/svg+xml</dc:format>
        <dc:type
           rdf:resource="http://purl.org/dc/dcmitype/StillImage" />
      </cc:Work>
    </rdf:RDF>
  </metadata>
  <defs
     id="defs8" />
  <path
     d="m 339,357 c 8.621,-22.811 23.877,-42.776 37.409,-63 22.952,-34.303 48.398,-69.598 67.716,-106 7.893,-14.874 18.086,-28.889 27.299,-43 2.743,-4.2 7.093,-12.78 12.587,-13.573 6.037,-0.872 9.455,7.711 12.417,11.573 9.851,12.839 18.175,26.704 27.367,40 5.978,8.648 10.324,18.325 16.17,26.961 20.065,29.64 42.219,58.104 62.111,88.039 13.524,20.354 30.083,38.846 37.924,62 -3.442,1.046 -7.73,0.891 -10.787,2.938 -3.867,2.589 -5.21,7.576 -9.228,10.244 -7.688,5.105 -16.911,9.147 -24.985,13.803 -24.314,14.022 -50.558,25.17 -75,39.142 -69.746,39.869 -142.284,74.952 -213,112.788 -28.845,15.434 -57.034,32.205 -86,47.404 -12.641,6.632 -25.231,17.375 -40,17.681 6.146,-23.747 24.987,-44.661 38.304,-65 25.957,-39.643 50.069,-80.561 76.232,-120 8.203,-12.365 16.709,-25.171 24.181,-38 3.827,-6.57 10.109,-17.733 17.283,-20.998 3.654,-1.663 9.977,-0.002 14,-0.002 l 34,0 c 40.344,0 80.736,0.582 121,0.996 28.926,0.298 58.015,-1.996 87,-1.996 10.904,0 25.757,-2.725 35,4"
     inkscape:connector-curvature="0"
     id="path2986"
     style="fill:none;stroke:#000000" />
  <path
     d="m 641,362 c 11.63,3.464 17.609,17.402 23.464,27 6.389,10.475 14.531,19.628 21.065,30 31.473,49.961 65.362,100.311 101.471,147"
     inkscape:connector-curvature="0"
     id="path2984"
     style="fill:none;stroke:#000000" />
  <path
     d="m 181,604 c -25.029,21.926 -38.213,57.457 -60,83"
     inkscape:connector-curvature="0"
     id="path4"
     style="fill:none;stroke:#000000" />
</svg>
