<?xml version="1.0" encoding="UTF-8" standalone="no"?>
<!-- Created with Inkscape (http://www.inkscape.org/) -->

<svg
   xmlns:dc="http://purl.org/dc/elements/1.1/"
   xmlns:cc="http://creativecommons.org/ns#"
   xmlns:rdf="http://www.w3.org/1999/02/22-rdf-syntax-ns#"
   xmlns:svg="http://www.w3.org/2000/svg"
   xmlns="http://www.w3.org/2000/svg"
   xmlns:inkscape="http://www.inkscape.org/namespaces/inkscape"
   version="1.1"
   width="472"
   height="640"
   id="svg2">
  <metadata
     id="metadata10">
    <rdf:RDF>
      <cc:Work
         rdf:about="">
        <dc:format>image/svg+xml</dc:format>
        <dc:type
           rdf:resource="http://purl.org/dc/dcmitype/StillImage" />
        <dc:title />
      </cc:Work>
    </rdf:RDF>
  </metadata>
  <defs
     id="defs8" />
  <path
     d="m 243,97 -0.642,18.957 -9.63,9.148 -6.131,16.895 -32,97 -37.003,115 -4.072,22.996 -7.787,13.005 L 119.961,470 91,557"
     inkscape:connector-curvature="0"
     id="path2992"
     style="fill:none;stroke:#000000" />
  <path
     d="m 244,119 c 3.644,3.215 2.555,6.793 5.027,10.367 2.101,3.037 5.798,4.257 7.745,7.648 6.765,11.79 9.585,28.056 13.895,40.985 14.316,42.949 27.665,86.334 42.713,129 6.511,18.461 20.331,44.099 19.105,63.981 -0.285,4.619 -5.344,5.171 -7.079,9.078 -7.721,17.386 -17.382,33.711 -25.376,50.941 -11.02,23.754 -22.924,47.899 -35.245,71 -4.034,7.564 -7.335,20.73 -18.785,19.691 C 231.023,520.331 223.221,497.164 216.905,486 206.417,467.462 194.463,449.632 184.221,431 174.918,414.077 166.729,394.767 153,381"
     inkscape:connector-curvature="0"
     id="path2990"
     style="fill:none;stroke:#000000" />
  <path
     d="m 248,130 c -6.519,8.167 -4,21.039 -4,31 0,24.688 0.703,49.388 0.996,74 1.137,95.601 1.004,191.183 1.004,287"
     inkscape:connector-curvature="0"
     id="path2988"
     style="fill:none;stroke:#000000" />
  <path
     d="m 155,374 c 14.15,-2.627 29.634,-1 44,-1 l 81,0 c 13.427,0 35.316,-4.157 47,3"
     inkscape:connector-curvature="0"
     id="path2986"
     style="fill:none;stroke:#000000" />
  <path
     d="m 332,376 c 10.621,9.07 12.585,25.412 16.965,38 9.005,25.884 16.923,52.294 26.44,78 3.981,10.753 5.822,23.061 11.595,33"
     inkscape:connector-curvature="0"
     id="path2984"
     style="fill:none;stroke:#000000" />
  <path
     d="m 247,524 0,13"
     inkscape:connector-curvature="0"
     id="path4"
     style="fill:none;stroke:#000000" />
</svg>
