<?xml version="1.0" encoding="UTF-8" standalone="no"?>
<!-- Created with Inkscape (http://www.inkscape.org/) -->

<svg
   xmlns:dc="http://purl.org/dc/elements/1.1/"
   xmlns:cc="http://creativecommons.org/ns#"
   xmlns:rdf="http://www.w3.org/1999/02/22-rdf-syntax-ns#"
   xmlns:svg="http://www.w3.org/2000/svg"
   xmlns="http://www.w3.org/2000/svg"
   xmlns:inkscape="http://www.inkscape.org/namespaces/inkscape"
   version="1.1"
   width="1063"
   height="972"
   id="svg2">
  <metadata
     id="metadata10">
    <rdf:RDF>
      <cc:Work
         rdf:about="">
        <dc:format>image/svg+xml</dc:format>
        <dc:type
           rdf:resource="http://purl.org/dc/dcmitype/StillImage" />
      </cc:Work>
    </rdf:RDF>
  </metadata>
  <defs
     id="defs8" />
  <path
     d="m 278,137 26,-0.015 71,-0.024 L 614,134"
     inkscape:connector-curvature="0"
     id="path2986"
     style="fill:none;stroke:#000000" />
  <path
     d="m 415,202.424 c 29.684,-3.909 62.844,-0.051 92,5.481 C 680.447,240.817 806.853,403.6 795.486,580 790.189,662.209 750.435,745.387 692.985,803.999 677.298,820.004 658.99,832.804 641,846.025 c -39.352,28.923 -92.17,51.689 -141,57.689 -15.604,1.917 -32.236,5.107 -48,5.107 -90.881,0 -180.002,-31.504 -247,-93.911 C 102.689,719.613 66.7223,569.825 111.579,438 c 10.837,-31.846 26.748,-63.441 46.041,-91 4.173,-5.961 11.092,-9.143 15.102,-14.509 19.833,-26.54 42.137,-50.51 70.278,-69.401 52.812,-35.453 109.797,-52.474 172,-60.666"
     inkscape:connector-curvature="0"
     id="path2984"
     style="fill:none;stroke:#000000" />
  <path
     d="m 173,334 51,40.463 139,110.707 58,46.75 28,20.431 44,-0.172 111,-0.179 369,-3"
     inkscape:connector-curvature="0"
     id="path4"
     style="fill:none;stroke:#000000" />
</svg>
