<?xml version="1.0" encoding="UTF-8" standalone="no"?>
<!-- Created with Inkscape (http://www.inkscape.org/) -->

<svg
   xmlns:dc="http://purl.org/dc/elements/1.1/"
   xmlns:cc="http://creativecommons.org/ns#"
   xmlns:rdf="http://www.w3.org/1999/02/22-rdf-syntax-ns#"
   xmlns:svg="http://www.w3.org/2000/svg"
   xmlns="http://www.w3.org/2000/svg"
   xmlns:inkscape="http://www.inkscape.org/namespaces/inkscape"
   version="1.1"
   width="1038"
   height="1075"
   id="svg2">
  <metadata
     id="metadata10">
    <rdf:RDF>
      <cc:Work
         rdf:about="">
        <dc:format>image/svg+xml</dc:format>
        <dc:type
           rdf:resource="http://purl.org/dc/dcmitype/StillImage" />
        <dc:title />
      </cc:Work>
    </rdf:RDF>
  </metadata>
  <defs
     id="defs8" />
  <path
     d="m 669,795 9,10 c -24.376,22.251 -60.445,34.54 -91,45.391 C 441.024,902.232 262.796,850.129 165.559,728.826 66.1731,604.844 50.24,426.07 130.595,288 151.799,251.566 181.293,217.945 213,190.185 348.017,71.9764 550.718,69.8367 694,173.594 c 52.026,37.674 92.617,92.28 120.258,149.406 19.306,39.899 32.543,86.632 35.653,131 0.562,8.023 1.714,19.187 -0.229,27 -0.93,3.743 -4.482,6.102 -4.94,10 -1.083,9.229 1.508,18.8 1.215,28 -0.577,18.073 -2.931,37.232 -6.331,55 -12.535,65.506 -47.602,128.835 -95.627,174.961 -15.002,14.408 -32.469,29.791 -50.999,39.571 -7.875,4.157 -15.732,-0.488 -24,6.468"
     inkscape:connector-curvature="0"
     id="path3002"
     style="fill:none;stroke:#000000" />
  <path
     d="m 569,256 c 0,48.622 -1.173,97.517 0.015,146 0.729,29.789 5.21,61.25 1.699,91 -2.237,18.965 4.596,40.487 -9.246,55.788 -4.494,4.967 -11.921,8.317 -17.468,12.048 -15.004,10.094 -30.944,18.679 -46,28.648 -4.477,2.964 -16.501,6.204 -18.883,10.744 -4.648,8.861 3.105,29.947 3.793,39.772 2.682,38.259 7.687,76.85 12.375,115 1.553,12.644 3.418,25.296 3.73,38 0.083,3.413 2.267,9.452 -0.044,12.397 -2.735,3.487 -11.267,0.848 -14.971,0.578 -15.98,-1.169 -33.984,-10.139 -48,-17.307 -17.467,-8.932 -36.425,-17.944 -52,-30.124 C 350.235,732.14 317.527,691.757 301.194,652 268.308,571.948 267.365,478.878 308.799,402 384.608,261.345 581.819,208.829 713.83,301.861 757.332,332.518 790.944,371.81 815.373,419 826.629,440.743 826.8,473.142 844,490"
     inkscape:connector-curvature="0"
     id="path3000"
     style="fill:none;stroke:#000000" />
  <path
     d="m 465,482 c 1.109,9.922 16.295,11.341 24,16.039 16.569,10.102 34.039,19.138 51,28.483 8.547,4.708 17.963,8.649 25,15.478"
     inkscape:connector-curvature="0"
     id="path2998"
     style="fill:none;stroke:#000000" />
  <path
     d="m 466,491 3.17,35 6.402,44 3.428,28"
     inkscape:connector-curvature="0"
     id="path2996"
     style="fill:none;stroke:#000000" />
  <path
     d="m 567,542 c 17.207,12.765 39.932,20.857 59,30.784 39.847,20.743 79.244,42.286 119,63.258 19.044,10.046 43.969,18.577 60,32.958"
     inkscape:connector-curvature="0"
     id="path2994"
     style="fill:none;stroke:#000000" />
  <path
     d="m 806,668 c 8.08,7 20.506,10.324 30,15.549 24.361,13.409 49.724,29.266 76,38.451"
     inkscape:connector-curvature="0"
     id="path2992"
     style="fill:none;stroke:#000000" />
  <path
     d="m 674,791 c 6.893,7.849 9.221,11.773 15,1"
     inkscape:connector-curvature="0"
     id="path2990"
     style="fill:none;stroke:#000000" />
  <path
     d="m 508,870 c -1.677,-13.266 -0.826,-28.11 -3.745,-41 -0.755,-3.331 -3.552,-13.316 -0.562,-15.972 2.348,-2.086 8.403,-1.098 11.307,-1.013 11.02,0.324 21.764,3.984 33,3.985 23.881,0.002 48.823,-0.848 72,-6.924 15.148,-3.971 33.509,-13.614 49,-14.076"
     inkscape:connector-curvature="0"
     id="path2988"
     style="fill:none;stroke:#000000" />
  <path
     d="m 682,801 -4,4"
     inkscape:connector-curvature="0"
     id="path2986"
     style="fill:none;stroke:#000000" />
  <path
     d="m 499,807 3,4"
     inkscape:connector-curvature="0"
     id="path2984"
     style="fill:none;stroke:#000000" />
  <path
     d="m 509,871 6,62"
     inkscape:connector-curvature="0"
     id="path4"
     style="fill:none;stroke:#000000" />
</svg>
