<?xml version="1.0" standalone="yes"?>
<svg width="756" height="774">
<path style="stroke:#000000; fill:none;" d="M129 273L105 289C100.95 281.106 106.841 271.998 110.657 265C120.067 247.742 129.333 230.862 140.846 215C181.042 159.621 240.212 121.119 306 103.525C320.244 99.7161 333.453 96.8329 348 94.561C354.077 93.6119 361.942 91.3321 367.985 93.6034C378.279 97.4722 385.899 111.918 390.666 121C400.72 140.155 411.83 159.771 423.414 178C446.969 215.066 468.231 253.504 489.509 291.726C490.996 294.397 494.131 295.44 495.722 298.108C521.1 340.671 546.618 384.416 570.461 428C584.919 454.427 599.746 478.388 614.448 504C618.365 510.823 623.539 528.755 631 531C627.44 559.142 596.33 586.251 577 605.014C568.997 612.783 559.703 623.035 548 624C552.438 601.115 561.439 578.938 569.135 557C570.832 552.163 577.46 538.302 573.307 533.742C569.268 529.307 553.603 532 548 532L474 532C417.29 532 360.346 531.853 304 531.183C277.4 530.866 250.725 534.741 224 532.91C199.518 531.234 174.557 533.002 150 533C144.045 533 129.599 529.013 124.746 533.028C119.037 537.75 134.083 553.71 136.742 558C147.224 574.911 162.329 588.602 175.83 602.981C182.131 609.692 190.344 618.305 200 619C199.404 590.283 181.294 562.082 176 534M392 105C381.109 92.7935 402.367 96.199 409 96.8303C429.668 98.7972 450.118 103.538 470 109.831C526.633 127.758 578.534 164.593 614.163 212.17C627.518 230.004 638.242 249.96 647.891 270C649.22 272.761 655.657 289.793 648.852 289.793C644.654 289.794 636.215 281.244 632.714 278.54C619.532 268.356 605.88 258.639 593 248.083C548.453 211.574 498.464 179.896 451.17 147.05C436.57 136.911 422.392 125.844 408.001 115.375C399.906 109.487 394.533 102.773 386 111M379 101L387 99M374 100C368.604 105.165 361.895 110.143 357.733 116.424C355.713 119.474 356.066 123.668 354.475 127C350.875 134.538 345.805 141.883 341.409 149C321.636 181.009 303.495 213.906 283.861 246C276.859 257.446 270.168 269.242 263.735 281C261.391 285.283 260.58 292.573 255.942 295.013C250.979 297.625 238.809 295 233 295L174 295C159.347 295 144.648 294.656 130 295.015C119.996 295.26 112.067 297.459 104 290C93.8891 300.449 99.5915 303.169 103.481 314.004C106.437 322.236 108.853 330.708 111.635 339C120.978 366.845 129.09 395.206 138.696 423C142.236 433.244 144.828 443.798 148.394 454C149.914 458.351 153.78 463.414 153.914 467.999C154.068 473.285 147.9 478.67 145.295 483C136.897 496.955 121.612 514.416 123 531M380 107C372.452 115.925 376 133.797 376 145L376 242L376 624C335.012 624 293.919 625 253 625C242.968 625 233.05 624.029 223 624.001C220.126 623.993 214.77 623.184 213.137 626.317C209.769 632.775 225.866 640.365 230 642.51C251.447 653.641 272.378 664.088 296 670.106C359.571 686.301 428.656 686.459 490 660.094C506.514 652.997 535.562 643.918 544 627C534.21 621.775 516.987 625 506 625L417 625C407.369 625 397.521 623.94 388 624.83C385.064 625.105 380.191 624.047 377.742 626.028C374.576 628.589 376 636.414 376 640C376 653.363 375.037 666.703 375 680M136 267C185.07 235.349 232.508 200.122 280 166.091C303.449 149.288 328.004 127.354 355 117M563 288C563.737 297.548 574.853 295 582 295L626 295C633.702 295 640.683 296.043 647 291M651 290C654.795 294.488 653.645 297.856 655.6 302.83C657.816 308.472 662.417 312.981 664.561 319C667.374 326.897 667.08 334.878 668.209 343C674.51 388.328 672.463 430.906 659.211 475C655.206 488.325 649.742 501.246 644.214 514C641.419 520.449 638.912 527.258 632 530M259 293C267.96 297.782 282.97 295 293 295C320.603 295 349.645 297.506 377 294M378 294C389.08 297.275 403.459 295 415 295C437.881 295 465.748 299.298 488 294M496 295C516.726 295 541.851 298.797 562 294M253 298C238.489 330.533 216.922 360.089 199.338 391C185.893 414.635 174.011 445.409 155 465M655 304C646.147 313.962 644.621 330.592 640.485 343C631.607 369.632 622.429 396.216 613.959 423C609.406 437.396 606.582 457.12 597 469M97 306C88.0557 316.065 88.2693 336.007 86.7145 349C81.6532 391.296 84.8572 435.227 97.4992 476C101.444 488.723 107.196 515.974 120 522M153 473C165.192 487.275 167.687 512.515 173 530M597 480C588.884 489.338 586.109 504.311 582.729 516C581.593 519.928 578.725 525.754 580.456 529.852C582.216 534.019 588.386 533.001 592 533C601.842 532.997 618.69 535.068 627 530M575 534L579 531M201 620C202.611 625.118 207.09 625.775 212 626M548 624L545 627"/>
</svg>
