<?xml version="1.0" standalone="yes"?>
<svg width="1864" height="704">
<path style="stroke:#000000; fill:none;" d="M1286 282L1286 167C1286 157.281 1287 147.684 1287 138C1287 134.786 1285.99 129.217 1288.6 126.757C1291.63 123.906 1301.03 124.963 1305 125.004C1320.96 125.168 1336.97 126 1353 126C1416.09 126 1478.9 128 1542 128C1557.78 128 1574.32 130.635 1590 128.576C1596.73 127.692 1608.54 126.463 1613.4 132.483C1616.26 136.024 1615.07 142.786 1614.75 147C1614.1 155.777 1614.22 165.179 1614.05 174C1613.35 210.462 1615 247.426 1615 284C1584.07 287.909 1551.19 285 1520 285C1474.4 285 1428.35 286.947 1383 284.961C1359.92 283.95 1337.15 284.551 1314 283.985C1307.43 283.825 1293.38 280.495 1287.6 284.198C1283.98 286.519 1286 299.167 1286 303C1286 321.116 1284.67 338.849 1285.91 357C1287.11 374.529 1285 392.409 1285 410L1285 541L1285 588C1285 592.638 1283.29 601.75 1286.74 605.411C1291.95 610.937 1305.33 607.259 1312 607.754C1338.73 609.737 1366.2 607.99 1393 608C1447.1 608.021 1501.64 609.872 1556 609.886C1575.35 609.891 1594.76 607.426 1614 607.42C1628.95 607.415 1643.92 610 1659 610C1680.72 610 1703.46 607.614 1725 609.09C1732.67 609.615 1748.91 613.36 1755.7 608.972C1758.8 606.967 1758.9 602.282 1758.99 599C1759.22 589.67 1759 580.333 1759 571L1759 456C1759 410.282 1760.02 364.674 1760 319C1759.99 290.015 1758.1 261.083 1760.09 232C1761.69 208.599 1760 185.431 1760 162C1760 154.009 1762.41 140.309 1757.98 133.228C1753.66 126.331 1731.27 130 1724 130C1697.6 130 1671.38 127.805 1645 128.961C1635.19 129.39 1623.95 127.149 1615 132M122.279 245.028C126.328 242.475 134.382 244 139 244L180 244C232.332 244 284.887 244.205 337 244.825C503.435 246.804 668.817 247.936 835 248.64C880.813 248.835 928.033 243.456 974 247.83C985.981 248.97 1003.91 243.964 1014.94 248.858C1020.1 251.147 1019 257.354 1019 262L1019 299L1019 432L1019 464C1019 468.866 1019.21 474.174 1014.81 477.397C1010.82 480.322 1003.68 479 999 479L959 479L805 479C750.598 479 695.368 475.564 641 476.201C534.447 477.447 427.635 477.515 321 477.001C274.669 476.777 228.331 477 182 477C164.951 477 140.18 483.145 124.105 476.11C119.194 473.961 118.625 467.705 118.17 463C116.992 450.841 118.79 438.204 118.946 426C119.524 380.849 119 335.317 119 290L119 257C119.006 253.13 118.468 247.43 122.279 245.028M567 249L568 476M641 249L642 475M836 250L837 476M1615 473L1615 431L1616 331L1615 297L1617.32 286.028L1628 285L1655 285L1757 285M1616 489L1614 606"/>
</svg>
