<?xml version="1.0" standalone="yes"?>
<svg width="856" height="1288">
<path style="stroke:#000000; fill:none;" d="M133 508C129.239 498.765 131.581 486.729 131.96 477C132.649 459.307 132.335 440.77 131.985 423C130.509 348.243 132 272.926 132 198C132 177.522 135.01 155.287 132.714 135C131.847 127.338 128.419 106.895 133.028 100.393C136.433 95.5896 149.012 98.9984 154 99C174.059 99.0065 196.085 101.19 216 98.5756C238.979 95.5587 263.78 99 287 99C342.078 99 397.131 100 452 100L510 100C514.867 99.9922 526.601 97.8677 530.258 101.603C534.787 106.23 532 121.883 532 128C532 153.674 531 179.282 531 205C531 280.054 531.12 355.06 531 430C530.957 456.72 527.851 483.239 529 510L238 510C212.276 510 186.717 509 161 509C154.871 509 138.602 505.992 133.603 509.198C130.002 511.507 132.168 523.16 131.715 527C129.512 545.668 131 565.2 131 584C131 638.648 130 693.291 130 748C130 772.426 124.985 801.322 132 825C174.942 803.979 219.646 785.001 263 764.216C312.951 740.268 361.733 713.525 412 690.234C439.308 677.58 465.752 662.912 493 650.234C501.175 646.43 508.764 641.584 517 637.904C520.011 636.558 524.942 636.281 527.022 633.487C531.472 627.511 528 608.433 528 601C528 580.298 527.989 559.63 528.896 539C529.312 529.529 527.217 520.412 530 511M531 512L558 513.971L696 513.911L735 514L755 516C750.063 524.495 740.586 527.643 732 531.514C720 536.924 707.719 543.119 696 549.13C657.891 568.676 619.685 587.933 581 606.32C563.908 614.444 547.94 623.913 530 630M756 516C776.91 509.819 770.996 534.661 771 548C771.012 585.713 770.444 623.346 769.996 661C768.558 781.956 769 902.976 769 1024C769 1056.46 767.618 1088.55 768.004 1121C768.093 1128.49 767.662 1136.61 768.184 1144C768.493 1148.37 770.516 1154.72 767.972 1158.76C766.078 1161.76 762.081 1161.3 759 1161.61C750.119 1162.51 740.893 1162.39 732 1162.04C697.047 1160.68 662.015 1162 627 1162C599.141 1162 570.871 1161.99 543 1161.66C537.631 1161.59 532.407 1159.18 527 1159.19C436.56 1159.3 345.655 1158 255 1158C222.935 1158 189.935 1160.21 158 1157.17C151.025 1156.51 132.742 1160.54 127.603 1155.4C123.014 1150.81 126.515 1136.77 126.91 1131C128.367 1109.73 126.454 1088.28 127.91 1067C129.907 1037.85 127.299 1008.22 128.015 979C129.26 928.158 130.966 876.805 131 826M527 635C532.993 646.23 529 667.349 529 680C529 717.935 528.637 756.121 527.039 794C525.517 830.086 528.992 866.891 528.992 903C528.992 987.919 527 1073.06 527 1158"/>
</svg>
