<?xml version="1.0" standalone="yes"?>
<svg width="1936" height="744">
<path style="stroke:#000000; fill:none;" d="M526 133C526 189.69 526.617 246.193 525.861 303C525.675 316.985 526.416 331.079 525.866 345C525.708 348.999 527.404 356.145 524.397 359.297C518.892 365.068 505.905 361.011 499 361L428 361L169 361C147.794 361 126.082 359.371 105 360.043C99.2576 360.226 86.2131 364.006 81.6034 359.397C78.8703 356.663 79.9986 350.502 80 347L80 314L80 218C80.0008 205.991 81.7367 194.065 80.9105 182C80.0423 169.322 79.9992 156.735 80 144C80.0003 139.451 79.0121 133.085 84.1088 130.893C96.082 125.744 116.186 131 129 131C165.445 131 201.646 129.369 238 130.961C333.79 135.155 429.615 125.76 525 131.93C551.308 133.632 580.159 127.093 606 133C603.307 144.311 605.46 156.57 605.961 168C606.584 182.247 605.635 196.709 605.985 211C606.781 243.502 600.916 277.794 604.714 310C605.657 317.996 606.6 329.09 605.455 337C604.587 343.003 601.234 354.266 605.742 359.566C609.7 364.218 621.512 362 627 362C647.303 362 667.712 361.378 688 361.92C728.346 362.996 768.761 361.029 809 362.015C841.27 362.805 874.744 365.239 907 362.17C922.197 360.724 938.746 361.371 954 362.039C960.663 362.331 968.937 364.807 974.891 360.411C983.796 353.836 979 326.133 979 316L979 183L979 146C979 142.308 980.28 135.58 976.682 133.179C972.844 130.618 965.404 132 961 132C948.339 132 935.537 131.053 923 131.911C881.189 134.771 838.785 130.269 797 131.309C733.835 132.881 670.305 132 607 132M791 134L791 361M1342 301C1336.78 291.21 1340 273.987 1340 263C1340 233.931 1339.35 204.9 1339 176C1338.89 166.67 1339 157.331 1339 148C1339 144.849 1338.27 140.212 1341.32 138.179C1345.11 135.65 1350.85 137.779 1355 137.961C1366.62 138.47 1378.37 138 1390 138C1435.07 138 1479.94 139.66 1525 139.66C1558.99 139.66 1593.01 140 1627 140C1633.47 140 1657.32 136.491 1660.4 143.228C1664.78 152.824 1662 168.677 1662 179C1662 207.313 1661 235.629 1661 264L1661 291C1661 294.15 1661.74 298.934 1658.68 300.972C1654.43 303.806 1644.93 302 1640 302L1593 302L1416 302L1360 302C1355.55 302 1343.9 299.754 1340.86 303.357C1337.28 307.605 1339.94 315.052 1340 320C1340.18 335.329 1340 350.67 1340 366L1340 548C1340 563.76 1341.48 580.371 1339.42 596C1338.79 600.816 1337.94 613.73 1341.6 617.397C1344.96 620.758 1357.37 619.977 1362 619.999C1380 620.086 1398 620 1416 620L1588 620L1638 620C1643.93 620 1653.37 621.792 1658.85 619.397C1664.48 616.94 1661.01 605.763 1661 601L1661 544L1661 374L1661 326C1661 320.074 1659.21 310.634 1661.6 305.148C1663.2 301.49 1667.69 302.007 1671 302L1698 302C1725.76 302 1754.21 301.822 1782 303.039C1789.18 303.354 1809.59 306.571 1815.4 301.972C1817.75 300.109 1817 295.617 1817 293L1817 270C1817 239.382 1815.36 207.452 1817.09 177C1817.48 170.112 1821.06 144.857 1814.85 141.179C1811.07 138.942 1806.09 140.429 1802 140.429C1792.02 140.429 1782 140 1772 140L1662 140M1817 304C1817 383.172 1818 462.079 1818 541C1818 561.005 1817.52 581.098 1817.13 601C1817.02 606.311 1822 615.748 1817.4 620.258C1814.72 622.873 1809.39 622 1806 622C1795.92 622.001 1786.02 621.462 1776 621.039C1738.24 619.447 1699.85 620 1662 620M527 361C537.316 361.491 547.804 360.441 558 361.09C572.538 362.016 589.685 364.408 604 361"/>
</svg>
