<?xml version="1.0" standalone="yes"?>
<svg width="1216" height="736">
<path style="stroke:#000000; fill:none;" d="M700 122L700.897 134.972L714 135.089L749 135L907 135M324 135C332.909 139.287 345.304 136 355 136C380.365 136 405.707 136.147 431 135.039C449.191 134.243 467.823 135.971 486 136C528.156 136.068 570.047 135.497 612 135.996C631.304 136.226 650.686 136 670 136C679.195 136 690.158 134.386 699 137M699 137L700 149M678 271L1001 271L1087 271C1095.27 271 1112.6 267.717 1119.68 272.318C1123.84 275.02 1122 284.726 1122 289L1122 338L1122 541C1122 559.692 1122.36 578.381 1121.09 597C1120.76 601.809 1123.13 612.184 1117.85 614.883C1113.74 616.983 1104.68 615 1100 615C1084.3 615 1068.72 614 1053 614C994.916 614 936.96 614.892 879 613.043C812.585 610.925 745.412 613.267 679 614.381C609.515 615.547 539.732 612.174 470 613.004C423.907 613.552 377.066 616.057 331 614.039C274.412 611.561 217.419 614 161 614C146.471 614 131.444 615.176 117 614.155C112.931 613.868 105.799 615.386 102.603 612.258C98.75 608.486 101 596.039 101 591C101 571.233 100.102 551.778 100.961 532C103.667 469.634 98.2301 406.358 100.961 344C101.658 328.063 101 311.953 101 296C101 290.156 99.1761 280.612 101.603 275.228C104.86 268.005 124.744 272.935 131 272.625C151.629 271.604 172.325 272.492 193 271.985C205.065 271.69 217.966 269.844 230 271.424C240.806 272.843 252.036 270.559 263 271.039C298.973 272.615 335.032 271.806 371 271.054C434.219 269.733 497.719 271 561 271L646 271C652.62 271 670.434 267.884 675.397 272.742C678.993 276.263 677.006 289.154 677 294C676.974 315.26 676 336.66 676 358C676 442.57 675 527.324 675 612"/>
</svg>
