<?xml version="1.0" standalone="yes"?>
<svg width="1072" height="264">
<path style="stroke:#000000; fill:none;" d="M705 135L705 157M554 139C553.114 150.643 538.276 147.003 530 147C504.614 146.99 479.441 145.99 454 146L177 146C157.62 146 138.433 146.093 119 145.999C112.32 145.967 101.346 143.551 95.3179 147.282C91.8548 149.426 93 155.541 93 159M974 140C973.344 148.594 965.761 147 959 147L912 147L772 147C752.279 147 725.876 151.579 707 146M554 164C552.894 160.259 551.188 150.805 554.603 147.832C556.862 145.866 561.274 146.968 564 146.996C571.998 147.078 580.001 147 588 147L705 147M974 147L975 161"/>
</svg>
