<?xml version="1.0" standalone="yes"?>
<svg width="1160" height="704">
<path style="stroke:#000000; fill:none;" d="M737 394C742.353 413.966 764.142 432.081 777.501 447.285C804.12 477.583 829.079 509.731 854.486 541.039C864.03 552.8 874.064 564.228 883.486 576.09C886.866 580.345 887.927 586.827 893.044 589.427C901.463 593.705 914.861 591.571 924 591.571L984 591.571C1001.38 591.571 1018.67 592.007 1036 592C1043.86 591.997 1053.37 593.769 1060 589C1050.79 579.979 1039.06 574.445 1028 567.99C1012.52 558.954 997.319 549.406 982 540.09C923.975 504.801 864.416 470.862 808 433.167C790.535 421.498 771.81 407.964 753 398.837C743.492 394.224 729.95 393.38 726 382C668.169 408.286 604.713 425.753 544 445.05C456.268 472.935 369.584 504.001 282 532.345C239.684 546.039 198.006 563.292 155 574.735C144.873 577.429 134.861 580.673 125 584.188C120.874 585.659 118.528 588.643 114 588C121.071 570.766 140.961 562.593 156 552.757C186.844 532.583 218.164 512.597 248 490.841C301.685 451.696 358.263 415.869 413 378.286C487.539 327.108 560.812 273.414 637 224.846C676.237 199.833 714.2 172.926 753 147.204C762.47 140.926 772.102 133.84 782 128.305C785.378 126.416 790.823 124.74 794.455 126.985C807.138 134.822 812.551 152.963 820.178 165C840.756 197.473 861.094 230.578 878.312 265C888.654 285.677 903.114 304.098 914.666 324C946.114 378.18 977.588 432.337 1009.91 486C1025.92 512.574 1040.98 539.747 1057.52 566C1062.35 573.662 1063.62 584.875 1070 591M796 130L786.985 160L773.486 211L727 381M889 588C877.986 595.27 854.039 592 841 592C801.677 592 762.157 592.47 723 592.004C579.755 590.3 436.41 594 293 594C250.691 594 208.369 595.003 166 595C152.897 594.999 127.808 598.069 118 589M98 592L113 589M1060 589L1065 589"/>
</svg>
