<?xml version="1.0" standalone="yes"?>
<svg width="888" height="612">
<path style="stroke:#000000; fill:none;" d="M102 110C195.556 110 289.651 107.727 383 110.015C389.747 110.18 396.394 112.71 403 112.841C408.373 112.948 413.374 110.009 419 110C463.333 109.926 507.667 110 552 110C602.023 110 652.008 110.66 702 110.66C724.78 110.66 750.57 107.66 773 113M400 113C402.286 141.963 420.792 171.941 430.772 199C451.647 255.6 473.195 311.702 494.911 368C502.45 387.544 509.481 407.36 516.811 427C518.275 430.924 521.688 445.595 527.857 443.578C533.528 441.723 532 427.564 532 423C532 401.288 530.345 379.505 527.271 358C519.328 302.433 502.805 243.394 473.405 195C454.797 164.37 430.084 139.988 407 113M529 446C529 450.488 527.768 457.124 531.318 460.566C535.58 464.699 544.578 463 550 463L599 463C655.109 463 712.072 461.081 768 464.91C785.054 466.078 809.277 461.337 825 468M529 459C518.698 466.854 506.753 462.668 495 463.043C466.21 463.961 436.859 463.571 408 463.571C326.359 463.571 244.485 463 163 463C136.02 463 109.038 464 82 464C69.215 464 55.5977 465.339 43 463"/>
</svg>
