<?xml version="1.0" standalone="yes"?>
<svg width="1816" height="696">
<path style="stroke:#000000; fill:none;" d="M739 109.424C752.84 107.607 776.479 104.807 782.397 121C785.269 128.856 785.222 139.664 786.286 148C788.2 163 790.792 178.157 793.463 193C804.95 256.844 812.912 321.452 825.6 385C828.249 398.267 829.164 411.733 831.615 425C836.158 449.592 844.017 473.147 833.304 497C822.024 522.115 812.606 548.264 800.59 573C796.961 580.469 791.498 594.461 782.999 596.33C772.26 598.693 760.911 595.342 750 596.09C714.358 598.53 678.677 597.141 643 598.015C544.196 600.435 444.866 602 346 602C313.986 602 280.849 600.139 249 603.17C236.704 604.34 224.362 604 212 604C207.384 604 200.263 605.311 196.109 602.972C189.957 599.509 186.251 583.551 184.446 577C176.882 549.546 175.892 519.817 169.251 492C157.86 444.29 151.719 395.218 142.83 347C138.613 324.125 135.179 300.892 130.629 278C127.371 261.607 121.132 241.776 123.312 225C125.178 210.647 135.317 196.073 141.139 183C145.707 172.742 150.933 162.497 154.9 152C159.174 140.689 162.842 126.97 173.001 119.318C181.275 113.086 205.636 116 216 116C253.116 116 289.927 115 327 115C426.566 115 526.535 115.395 626 111.039C663.393 109.402 701.93 114.292 739 109.424M777 114C766.918 125.239 762.735 144.227 756.522 158C749.602 173.343 742.502 188.582 735.716 204C732.879 210.445 727.905 216.793 727.252 224C725.812 239.885 733.702 260.277 736.537 276C742.778 310.614 749.814 346.129 753.911 381C756.835 405.896 762.581 430.313 766.714 455C767.682 460.775 767.715 478.451 771.603 482.258C775.583 486.153 784.162 483.341 789 483.34C804.573 483.334 821.601 481.141 837 484M171 122C178.019 129.524 178.972 141.976 180.282 152C182.564 169.472 187.006 186.566 189.725 204C190.637 209.844 196.574 224.387 191.512 229.262C186.719 233.877 175.894 231.893 170 231.514C154.972 230.547 139.095 231 124 231M194 229L206 230.04L233 230.015L332 229L726 225M196 232C196.192 255.242 203.378 280.138 207.537 303C214.855 343.229 222.252 383.437 228.59 424C230.991 439.367 233.853 454.648 236.297 470C237.386 476.84 239.919 482.864 238.926 490C236.596 506.739 223.163 524.356 216.899 540C210.103 556.974 204.734 579.569 192 593M1315 338C1311.01 330.514 1316.23 323.999 1319.26 317C1326.24 300.881 1332.53 281.703 1342.11 267.019C1344.76 262.949 1350.25 254.558 1355.02 253.483C1367.74 250.615 1382.99 253.151 1396 252.996C1423.7 252.667 1451.28 251.88 1479 252.96C1497.43 253.678 1516.51 251.46 1535 251.015C1564.42 250.305 1593.57 251 1623 251C1645.47 251 1668.51 250.946 1691 249.961C1700.63 249.539 1714.76 246.053 1723.98 249.742C1732.62 253.199 1720.33 271.011 1717.22 277C1709.28 292.296 1695.91 312.672 1694.04 330C1692.62 343.125 1698.12 359.047 1700.29 372C1705.45 402.905 1709.58 434.401 1716.5 465C1718.31 472.999 1719.14 480.919 1720.44 489C1720.91 491.961 1722.5 495.921 1720.36 498.566C1716.61 503.204 1706.12 500.779 1701 500.594C1683.08 499.947 1664.96 500.34 1647 500.34C1584.7 500.34 1522.39 503.7 1460 504.001C1445.63 504.07 1430.34 502.594 1416 504.285C1410.43 504.943 1398.33 507.345 1393.43 503.972C1389.93 501.564 1391.12 495.609 1390.96 492C1390.56 482.826 1387.56 473.95 1385.8 465C1379.41 432.401 1375.7 399.468 1368.67 367C1366.96 359.118 1366.73 350.947 1365.48 343C1365.07 340.399 1365.88 336.581 1363.59 334.693C1360.96 332.515 1354.19 333.865 1351 334.17C1339.85 335.236 1325.16 333.112 1315 338M1729 257C1734.34 264.209 1734.56 273.464 1736.2 282C1739.51 299.319 1742.49 316.648 1745.61 334C1752.51 372.304 1759.86 410.54 1766.15 449C1768.51 463.498 1775.86 481.325 1773.86 496C1772.05 509.246 1762.66 522.814 1757.43 535C1751.82 548.061 1746.56 560.632 1738.59 572.285C1736.47 575.382 1737.44 579.846 1733.85 581.972C1730.23 584.118 1724.05 583 1720 583C1709.12 583 1697.83 582.139 1687 583.17C1635.4 588.081 1581.85 585.387 1530 586.004C1488.02 586.503 1446.06 588 1404 588C1393.55 588 1383.38 588.494 1373 588.039C1369.43 587.883 1363.4 589.19 1360.6 586.397C1357.37 583.169 1354.65 572.546 1353.56 568C1349.47 550.964 1347.11 532.432 1344.82 515C1339.88 477.458 1331.93 439.264 1324.91 402C1320.98 381.186 1315.01 359.242 1315 338M1348 262C1361.78 280.015 1356.78 310.991 1363 332M1367 335L1693 330M240 491C275.6 488.191 312.287 490.874 348 489.985C420.333 488.185 493.471 486 566 486C633.304 486 701.97 488.29 769 483M773 484C773 507.863 780.1 531.604 784.079 555C785.775 564.969 784.819 577.646 791 586M1721 499C1734.48 506.992 1755.88 496.532 1771 501M1724 502C1724.01 515.963 1728.91 529.273 1730.72 543C1731.95 552.331 1732.28 564.268 1738 572M1391 506L1372.3 552L1359 578"/>
</svg>
