<?xml version="1.0" standalone="yes"?>
<svg width="1944" height="792">
<path style="stroke:#000000; fill:none;" d="M1036 113L1036 141M1196 113L1195 143M586 127L1414 127M995 680C785.109 680 574.62 681.166 365 681.179C304.332 681.183 243.71 683 183 683C167.004 683 150.995 682.815 135 683.004C127.914 683.088 118.791 684.835 112.133 681.486C105.995 678.398 108 667.621 108 662C108 642.618 107 623.336 107 604C107 568.325 108.971 532.622 108.971 497C108.971 451.366 104.892 405.57 106.896 360C107.852 338.254 106.992 315.923 107 294C107.002 287.857 105.558 274.173 113.019 272.483C133.46 267.852 159.905 272 181 272L323 272L770 272L933 272L976 272C980.503 272 988.787 270.429 992.682 273.028C998.266 276.754 995 297.799 995 304L995 397C995 466.452 996 535.503 996 605L996 659C996 663.705 993.99 674.561 997.028 678.397C999.147 681.073 1005.02 680 1008 680L1039 680C1069.7 680 1100.38 679.765 1131 679.015C1144.39 678.687 1158.79 680.728 1172 678.405C1181.99 676.65 1179 664.873 1179 657C1179 634.045 1179.96 610.931 1178.96 588C1175.59 511.116 1179 432.996 1179 356C1179 335.919 1178.07 316.073 1178 296C1177.98 290.709 1180.36 277.879 1176.97 273.603C1174.74 270.784 1168.15 272 1165 272L1132 272L995 272M1179 272L1662 272C1704.75 272 1747.26 270.997 1790 271C1801 271.001 1811.96 272.437 1823 272.29C1827.18 272.235 1833.98 270.556 1837.68 273.028C1842.32 276.12 1838.88 285.401 1839.43 290C1841.77 309.643 1839.77 330.241 1840 350C1840.95 429.769 1841 510.109 1841 590C1841 611.712 1840 633.275 1840 655C1840 660.15 1842.47 673.956 1836.85 676.651C1832.66 678.662 1824.64 677 1820 677C1805.58 677 1791.42 676.784 1777 676.455C1735.88 675.519 1694.25 678 1653 678C1554.03 678 1454.8 676.829 1356 678.004C1319.02 678.444 1282.1 678.563 1245 679.004C1223.13 679.264 1200.89 680.766 1179 678"/>
</svg>
