<?xml version="1.0" standalone="yes"?>
<svg width="752" height="912">
<path style="stroke:#000000; fill:none;" d="M395 102C395 123.767 393.546 145.314 393.015 167C392.897 171.803 390.688 185.627 394.028 189.303C398.06 193.743 405.978 184.644 407.999 181.999C415.268 172.487 423.918 164.117 431.675 155.005C434.805 151.328 438.416 146.395 443.91 149.194C450.631 152.617 455.569 162.313 460.255 168C472.326 182.648 483.968 197.627 496.424 212C544.421 267.382 588.997 325.859 637.185 381C652.763 398.825 668.825 416.539 683.515 435C687.694 440.253 697.539 446.467 697.265 453.999C696.97 462.124 682.408 473.583 677 479C658.356 497.674 641.875 518.422 624.17 538C571.088 596.699 520.242 657.321 467.17 716C450.993 733.886 436.059 752.913 419 770C399.263 789.769 380.815 811.768 362.576 833C358.077 838.237 348.039 854.903 340.999 855.673C334.618 856.371 327.857 844.235 324.386 840C309.705 822.089 294.427 804.393 280.402 786C265.242 766.118 247.532 748.101 231.439 729C203.661 696.031 177.674 661.148 148.9 629C133.823 612.155 120.027 594.622 105.931 577C101.169 571.048 91.0938 562.702 89.7492 555C88.4933 547.806 102.282 536.111 106.718 531C125.411 509.468 143.942 487.849 162.246 466C216.023 401.81 269.848 337.023 326.104 275C342.431 256.999 358.342 238.661 373.92 220C378.632 214.355 388.468 209.729 391.821 203.867C393.821 200.371 393.268 194.943 394 191M391 206C393.439 210.57 392.694 214.989 393.285 220C395.11 235.465 393.849 251.44 393.849 267C393.849 319.931 392.678 373.034 392.011 426L391.29 479C391.227 483.746 388.856 494.186 395.108 496.083C399.756 497.494 403.254 492.86 406.039 489.995C413.619 482.201 420.668 473.746 427.154 465.015C435.079 454.345 445.25 445.295 453.625 435C472.971 411.22 492.544 386.908 514 365M395 497C392.567 512.318 373.618 524.25 364.724 536.039C335.361 574.961 301.874 612.052 270 649"/>
</svg>
