<?xml version="1.0" standalone="yes"?>
<svg width="1656" height="664">
<path style="stroke:#000000; fill:none;" d="M925 115L924 135M537 122C570.375 126.218 605.493 122.402 639 122.004C695.706 121.33 752.268 123.375 809 121.985C835.714 121.331 862.29 122 889 122C899.27 122 914.832 119.107 924 124M925 122C975.769 122 1026.27 123 1077 123C1101.39 123 1131.3 118.358 1155 124M1401 566C1388.25 569.77 1371.3 567 1358 567L1269 567C1170.69 567 1073.03 567.17 975 566.004C943.943 565.634 912.981 568.546 882 567.946C709.635 564.61 537.22 567.029 365 567.029C297.526 567.029 229.671 568 162 568L100 568C92.2682 568 81.367 570.291 74.0193 568.527C67.3326 566.921 68.9997 558.163 69 553C69.001 537.635 70 522.392 70 507C70 472.335 69.0849 437.54 69.0293 403C68.9942 381.157 71.8512 358.816 69.2855 337C67.6793 323.342 70 307.896 70 294C70 290.536 68.4939 282.334 72.3179 280.452C79.763 276.789 93.866 280.277 102 279.96C130.67 278.843 160.271 278.702 189 279.961C202.688 280.56 216.374 278.609 230 279.043C300.082 281.278 370.68 279 441 279C635.144 279 828.456 278.061 1023 278.999C1106.5 279.402 1190.37 275.298 1274 278.961C1306.62 280.389 1339.46 278.029 1372 278.029C1410.68 278.029 1449.22 279 1488 279C1508.69 279 1529.36 279.19 1550 279.741C1558.02 279.955 1568.22 276.664 1575.94 279.894C1582.02 282.437 1579.89 290.901 1579.29 296C1577.48 311.276 1578.86 327.736 1579.91 343C1580.46 351.083 1578.7 358.982 1579.04 367C1581.05 414.581 1581 462.322 1581 510L1581 551C1581 555.191 1582.5 563.117 1579.4 566.436C1574.4 571.776 1559.42 569.043 1553 568.285C1532.21 565.833 1509.94 568 1489 568L1426 568C1420.03 568 1407.23 570.11 1402.6 565.4C1399.1 561.834 1401 551.633 1401 547L1401 495C1401 442.075 1398.65 388.796 1400.96 336C1401.75 318.051 1397.74 298.554 1401 281M1085 279L1085 564M584 280L584.996 477L584 537L585 564"/>
</svg>
