<?xml version="1.0" standalone="yes"?>
<svg width="1040" height="744">
<path style="stroke:#000000; fill:none;" d="M153 1L156 2M157 1L156 2M824 1L821 2M826 1L841 2M736 84L706 95.314L655 113.529L457 183.785L377 211.859L355 221M363 221C372.167 228.317 386.863 225.966 398 227.286C428.598 230.91 459.417 232.248 490 235.17C578.591 243.635 667.183 252.864 756 259.09C789.532 261.44 823.297 268 857 268M825 354.424C854.366 350.569 886.367 354 916 354C921.891 354 941.775 351.95 945.393 356.318C950.786 362.828 942.386 384.24 941.286 392C936.151 428.195 928.057 464.089 921.31 500C914.787 534.719 911.149 570.701 903 605C901.259 612.329 902.208 633.887 893.941 636.772C878.428 642.186 855.335 638 839 638C798.01 638 756.987 637.516 716 638.004C576.074 639.668 436.156 641 296 641C247.28 641 198.723 643 150 643L110 643C104.301 643 96.4074 644.373 91.0625 642.106C85.6464 639.81 87.7273 630.541 88.8611 626C92.6322 610.896 94.8172 594.421 96.0934 579C97.26 564.902 101.798 550.003 104.385 536C109.982 505.7 115.241 475.357 120.259 445C121.759 435.93 125.243 427.264 125.91 418C126.98 403.16 131.452 388.721 133.725 374C134.332 370.074 133.69 361.449 137.318 359.028C141.718 356.092 151.092 358.135 156 358.715C166.112 359.908 176.822 359.044 187 358.999C232.312 358.798 277.517 358 323 358C404.255 358 485.022 356.179 566 356.179C610.263 356.179 654.533 356.987 699 355.039C740.468 353.223 783.848 359.828 825 354.424"/>
</svg>
