<?xml version="1.0" standalone="yes"?>
<svg width="944" height="1136">
<path style="stroke:#000000; fill:none;" d="M102 488C91.4592 498.757 97.8147 510.968 99.9113 524C104.064 549.812 114.247 572.913 123.702 597C128.564 609.385 133.609 623.591 145 631C151.933 618.01 138.316 592.926 133.931 580C124.443 552.04 115.651 523.931 105.995 496C103.666 489.262 98.9597 484.28 96.287 477.961C92.9938 470.173 92.5784 459.377 91.429 451C88.0555 426.415 93.1549 398.087 97.6898 374C115.897 277.293 167.822 194.653 246 134.452C280.727 107.71 324.072 88.5398 366 76.5725C483.674 42.9858 612.26 68.6388 709 144.123C761.243 184.888 800.297 241.933 824.508 303C834.035 327.028 842.555 352.349 846.561 378C855.336 434.183 851.557 492.435 836.091 547C793.586 696.961 654.146 805.517 501 820.829C468.504 824.079 430.996 823.316 399 816.185C390.12 814.206 380.511 813.158 372 809.866C367.139 807.985 358.364 804.425 353.228 807.162C349.243 809.286 348.796 817.057 347.734 821C344.289 833.791 339.117 846.165 335.779 859C325.205 899.653 310.954 941.553 296.77 981C293.107 991.186 290.471 1001.99 286.366 1012C284.075 1017.58 279.682 1020.59 281 1027M352 805C381.96 715.12 410.732 624.821 440.834 535C447.983 513.67 454.95 492.26 462.228 471C465.003 462.895 470.038 450.868 465 443C475.813 436.758 491.836 438 504 438C529.734 438 555.361 437.149 581 437.965C636.326 439.725 692.558 435.268 748 435.001C769.999 434.895 792.001 435 814 435C824.976 435 837.288 436.55 848 434M93 442C118.923 444.046 145.056 442.126 171 442.001C236.059 441.687 300.974 440 366 440C394.394 440 425.756 434.949 454 439.147C457.953 439.735 461.006 442.398 465 443M462 443C441.527 463.471 415.694 477.704 392 494.026C338.048 531.19 282.186 565.653 229 603.99C211.928 616.296 193.541 627.13 176 638.745C171.124 641.974 162.71 650.878 156.144 648.423C151.262 646.597 148.521 635.334 146 631M97 481C93.9374 485.258 93.5196 488.99 95 494M158 650C160.047 660.863 164.177 675.262 171.725 683.725C174.723 687.087 179.454 687.824 182.961 690.498C188.468 694.698 193.132 701.025 197.985 706C230.536 739.368 265.986 764.636 308 784.816C321.257 791.184 337.409 800.844 352 803M171 687C171.077 714.753 187.184 743.883 195.617 770C213.604 825.713 231.602 881.383 250.066 937C256.371 955.991 262.741 974.93 268.822 994C271.486 1002.36 273.277 1014.01 280 1020"/>
</svg>
