<?xml version="1.0" standalone="yes"?>
<svg width="1476" height="348">
<path style="stroke:#000000; fill:none;" d="M167 113C184.366 118.133 206.905 113.247 225 114.039C269.657 115.995 314.261 116 359 116M887 117L887 126C1003.11 126 1118.78 132 1235 132C1263.13 132 1291.97 132.172 1320 134.09C1331.9 134.903 1352.22 138.752 1363 133M830 124L886 127M886 127L887 141M118 243C159.042 243 199.888 243.849 241 243.849C251.828 243.849 278.829 238.502 279 253M279 244C637.411 244 996.212 262 1355 262"/>
</svg>
