<?xml version="1.0" standalone="yes"?>
<svg width="1072" height="776">
<path style="stroke:#000000; fill:none;" d="M605 152L604 139L629 138.896L663 138.996L774 137M273 140L494 139.996L571 139L604 139M759 271C749.023 278.598 724.136 274 712 274C670.289 274 628.658 275 587 275L262 275C222.46 275 182.41 274.212 143 276.91C130.552 277.763 117.096 274.12 105 277M760 274L787 273L841 273L944 272L994 273M247 414L609 414C647.068 414 685.119 413.061 723 413C742.239 412.969 765.276 416.458 784 412M200 552L609 550L755 549L834 549M622 680L622 688L777 688C800.796 688 829.862 692.509 853 687M182 691L487 689L577 689L621 689L621 698"/>
</svg>
