<?xml version="1.0" standalone="yes"?>
<svg width="784" height="928">
<path style="stroke:#000000; fill:none;" d="M71 61C80.4496 55.2896 93.6839 60.157 104 60.2917C112.108 60.3975 120.139 58.3442 128 61M102 61C106.342 84.386 103.144 111.365 102.104 135C101.599 146.495 103.66 158.455 103.66 170C103.66 189.94 102.45 209.983 102.71 230C104.342 355.684 104 481.219 104 607L104 720C104 737.698 100.898 758.77 105 776M350 78L390 78M369 80L371 432M687 89L722 90M703 92C707.359 106.745 703.504 125.817 703.129 141C702.73 157.149 704 173.749 704 190L704 404M202 154L242 154M218 156L219 779M463 159L498 158M480 160L481 766M584 267L626 264M602 267C602 393.08 604.492 519.178 602.996 645C602.565 681.224 602 717.606 602 754C602 766.414 598.116 786.975 604 798"/>
</svg>
