<?xml version="1.0" standalone="yes"?>
<svg width="762" height="762">
<path style="stroke:#000000; fill:none;" d="M373 109.424C380.68 108.404 387.561 110.502 395 110.502C414.239 110.502 432.751 110.94 452 114.54C600.374 142.293 710.362 276.228 703.961 428C702.056 473.149 689.456 519.067 668.514 559C665.316 565.098 659.732 569.011 656.514 574.495C653.294 579.982 652.824 586.36 648.971 592C599.464 664.484 519.536 710.471 433 721.711C396.868 726.404 360.348 722.754 325 713.873C268.857 699.769 215.235 669.695 175.12 627.565C163.214 615.062 150.986 600.77 141.991 586C139.595 582.066 139.465 577.033 137.013 573.259C81.9794 488.566 74.1126 376.003 119.032 284C140.912 239.184 174.46 200.115 214 170.039C260.622 134.574 315.621 117.051 373 109.424M395 112C394.7 121.239 385.001 127.851 380.866 136C368.596 160.181 354.54 183.28 341.347 207C296.664 287.337 252.56 368.784 204.193 447C186.818 475.098 171.491 504.37 155 533C149.42 542.687 137.474 556.193 140 568C161.899 558.464 181.228 544.373 202 532.71C244.423 508.89 286.102 483.659 328 459.011C343.08 450.14 358.447 441.344 373 431.667C379.972 427.03 392.209 419.347 401.015 420.238C407.992 420.944 414.005 425.679 420 428.884C433.885 436.308 446.601 445.451 460 453.702C505.815 481.915 551.286 510.451 597 538.748C608.981 546.165 621.157 553.429 633 561.051C640.135 565.643 646.203 571.597 655 572M395 119C403.866 130.496 410.007 145.273 417.098 158C427.95 177.477 439.43 196.573 450.348 216C476.366 262.296 504.225 307.676 530.324 354C549.432 387.914 567.171 423.006 587.888 456C604.224 482.017 618.105 509.576 633.799 536C638.84 544.487 649.305 558.145 643 568M397 423C398.576 459.689 398 496.199 398 533L398 561C398 564.275 398.75 568.973 396.397 571.647C392.956 575.557 383.655 573.95 379 574.064C364.019 574.431 349.045 574.994 334 575L204 575C182.817 574.993 157.805 578.797 138 571M140 568L140 571M644 569C637.308 574.946 630.48 574 622 574L581 574C545.699 574.014 510.167 572.922 475 574.043C450.402 574.828 421.961 579.199 398 573"/>
</svg>
