<?xml version="1.0" standalone="yes"?>
<svg width="1432" height="552">
<path style="stroke:#000000; fill:none;" d="M813 231C799.535 240.987 778.759 243.407 763 248.667C724.52 261.508 685.658 273.271 647 285.508C512.199 328.18 377.527 370.892 243 414.177C199.412 428.202 155.647 441.744 112 455.594C99.8316 459.455 90.4244 467.404 78 469.13C74.5472 469.61 69.4925 471.089 66.3179 468.972C63.2626 466.935 64.0014 462.149 64 459C63.9959 449.85 65.2846 441.088 65.9105 432C68.7422 390.881 80.9701 352.381 94.946 314C148.768 166.191 295.263 70.7048 448 56.1698C574.297 44.1508 708.398 99.9717 790.7 196C801.231 208.288 810.017 221.276 817.705 235.104C820.137 239.478 819.671 245.478 822.318 249.505C826.034 255.161 833.355 258.135 837.687 263.105C844.713 271.166 850.234 284.26 854.602 294C869.689 327.644 883.995 363.163 888.841 400C889.445 404.59 891.652 411.514 890.307 416C888.998 420.366 882.989 423.012 883.582 427.996C884.297 434.005 890.977 438.115 891.816 445C892.426 450.019 891.005 460.588 894.603 464.436C899.698 469.884 915.213 466.894 922 467.025C948.986 467.545 976.032 466.571 1003 466.571C1052.03 466.571 1101.19 465.029 1150 465.029C1187.93 465.029 1225.05 467.519 1263 466.04C1282.94 465.263 1303.99 465.936 1324 466.001C1334.59 466.035 1344.58 468.294 1355 465M822 251C812.918 261.704 816 284.542 816 298C816 337.053 815 375.993 815 415C815 427.092 814.552 439.056 815.826 451C816.225 454.733 817.289 462.482 814.397 465.397C806.881 472.97 782.556 467.004 773 467C733.254 466.985 693.806 469 654 469C550.879 469 448.063 468.77 345 469.996C310.989 470.401 277.003 467.55 243 469.039C206.695 470.629 170.448 471 134 471C121.568 471 100.952 474.417 91 466M829 260L834 275L840 269M834 275C837.008 298.679 848.746 322.34 855.794 345C861.864 364.516 867.705 383.77 874.609 403C877.409 410.801 878.481 418.864 883 426M892 419L889 435M1130 464L1134 456M893 464C884.09 469.881 869.182 467.09 859 466.171C845.533 464.954 830.663 467 817 467"/>
</svg>
