<?xml version="1.0" standalone="yes"?>
<svg width="1040" height="728">
<path style="stroke:#000000; fill:none;" d="M330 127C337.886 135.163 355.55 137.466 366 142.819C397.376 158.893 429.17 174.114 461 189.262C565.207 238.852 668.803 290.031 772 341.49C807.265 359.075 843.13 376.436 879 392.805C888.73 397.245 896.479 402.922 905.274 408.292C908.081 410.006 914.411 410.353 915.307 414.14C916.362 418.601 910.351 421.281 907 421.956C894.905 424.393 882.971 427.336 871 430.239C821.872 442.155 772.815 455.699 724 468.92C570.62 510.46 416.128 547.928 263 590.079C222.104 601.337 180.89 611.6 140 622.711C130.82 625.206 121.395 628.286 112 629.806C103.261 631.219 97.7227 628.049 90 634M337 133C340.932 150.143 353.082 166.773 361.602 182C378.127 211.534 393.564 241.594 410.281 271C416.811 282.488 422.359 294.559 428.948 306C431.438 310.324 437.644 316.77 437.522 322C437.361 328.864 424.664 336.609 420.039 340.844C401.879 357.472 383.139 373.493 365 390.093C332.053 420.244 298.12 449.214 265 479.17C232.923 508.182 201.845 539.593 168 566.513C152.317 578.987 137.873 593.713 123 607.17C116.907 612.683 111.794 620.715 103 621C104.174 606.247 113.109 593.044 119.451 580C130.875 556.502 141.758 532.701 152.766 509C192.323 423.828 233.015 338.959 270.716 253C284.452 221.682 297.398 189.142 313.486 159C318.415 149.765 320.454 135.505 329 129M439 323C554.79 345.468 670.531 371.164 787 390.015C814.706 394.499 842.252 400.75 870 405.414C879.362 406.987 894.411 412.583 903 408M917 415L924 415M102 622L101 627"/>
</svg>
