<?xml version="1.0" standalone="yes"?>
<svg width="1008" height="564">
<path style="stroke:#000000; fill:none;" d="M69 523L104.91 470L138 424C145.651 431.006 151.829 425.484 160 421.912C177.552 414.239 194.492 405.404 212 397.471C266.998 372.554 321.025 345.562 376 320.64C389.563 314.492 403.226 307.745 417 302.086C427.363 297.829 439.843 293.982 447 285C434.623 278.395 414.651 282.472 401 282.29C366.701 281.834 330.074 278.482 296 281.464C281.83 282.704 267.308 280.664 253 281.015C248.87 281.116 241.806 283.531 238.777 279.486C236.452 276.381 239.339 271.645 241.069 269C246.346 260.933 251.562 252.768 257.245 245C276.798 218.272 297.919 190.541 314.667 162C318.906 154.776 324.321 148.355 328.378 141C330.707 136.778 331.466 132.022 337.004 131.148C360.705 127.409 387.15 131.454 411 130.985C474.431 129.736 537.592 132.242 601 132.996C646.7 133.54 692.286 134 738 134C748.223 134 759.274 136.618 769 136.242C801.663 134.977 834.149 134.821 867 134.821C898 134.821 928.984 132.08 960 136M767 137C758.613 146.487 746.278 150.037 735 155.178C716.918 163.422 699.281 172.602 681 180.427C628.063 203.087 576.324 228.769 524 252.64C508.638 259.648 493.33 266.805 478 273.865C467.889 278.521 458.412 284.502 447 285M237 279C222.58 289.158 213.593 310.419 204.1 325C192.572 342.708 180.722 360.845 168.405 378C158.495 391.803 144.879 406.942 139 423"/>
</svg>
