<?xml version="1.0" standalone="yes"?>
<svg width="976" height="776">
<path style="stroke:#000000; fill:none;" d="M822 125.71C836.381 125.517 850.604 124.46 865 125.83C868.899 126.201 875.315 124.725 878.397 127.742C882.023 131.292 880 142.296 880 147L880 202C880 275.356 879 348.784 879 422C879 452.48 878.864 482.517 878.999 513C879.036 521.37 884.192 539.038 872.996 541.517C863.972 543.515 853.218 542 844 542C821.001 542 797.839 540.459 775 539.459C745.452 538.165 714.656 541 685 541C550.979 541 417.054 542 283 542L135 542L96 542C91.2436 542 83.3782 543.477 79.1481 540.972C73.5464 537.655 76 524.549 76 519L76 453L76 208L76 149C76 144.501 73.2581 131.755 77.3187 129.028C80.8381 126.664 87.9463 128 92 128L129 128C174.452 128 220.69 128.945 266 126.961C323.911 124.425 382.07 127.089 440 127C567.114 126.804 694.888 127.411 822 125.71M776 128L775 538M420 653L418 662L439 662L488 662L653 662L709 662L734 661M236 660C249.47 667.188 274.048 662.072 289 662.001C317.997 661.863 346.938 662 376 662C389.96 662 404.199 663.744 418 662M420 664L420 669"/>
</svg>
