<?xml version="1.0" standalone="yes"?>
<svg width="2024" height="976">
<path style="stroke:#000000; fill:none;" d="M1695 136C1688.95 140.353 1682.07 138.605 1675 139.089C1658.69 140.206 1642.38 140 1626 140C1587.94 140 1550 141.055 1512 141.985C1492.04 142.474 1471.78 139.947 1452 141.83C1435.62 143.39 1418.46 142 1402 142C1398.67 142 1384.89 143.041 1389.47 136.05C1395.22 127.261 1416.41 123.146 1426 120.445C1461.37 110.488 1497.18 103.988 1534 104C1553.71 104.006 1573.28 102.728 1593 105.289C1624.11 109.331 1659.26 116.189 1688 129.213C1691.87 130.969 1694.19 134.791 1698.04 136.437C1709.76 141.453 1722.36 143.71 1734 149.508C1774.44 169.649 1808.67 198.937 1840.29 230.714C1861.64 252.171 1879.82 276.185 1895.59 302C1902.56 313.398 1911.41 325.206 1912 339C1903.76 337.042 1899.97 331.721 1894.01 326.17C1883.64 316.503 1874 306.05 1864 296C1831.74 263.586 1800.5 229.257 1766.91 198.271C1752.78 185.232 1726.45 165.185 1722 146M1544 105L1545 189C1583.67 189 1620.54 196.602 1657 209.46C1690.86 221.401 1720.98 239.259 1749 261.552C1817.63 316.151 1865.73 403.843 1871.91 492C1879.25 596.753 1831.98 702.521 1751 768.739C1707.1 804.63 1655.1 825.302 1600 836.486C1567.9 843.001 1535.13 841.891 1503 837.3C1353.8 815.983 1230.29 693.76 1219.09 541C1208.72 399.481 1291.97 267.176 1423 212.615C1451.88 200.588 1480.32 195.111 1511 191.826C1519.51 190.915 1535.85 184.004 1543.4 191.603C1547.27 195.502 1546 207.84 1546 213L1546 272C1546 350.779 1548 429.287 1548 508M1369 147C1364.77 164.81 1340.65 179.559 1328.29 192.169C1292.97 228.186 1256.13 263.015 1221.83 300.015C1211.78 310.851 1201.03 321.119 1190.73 331.714C1185.44 337.154 1181.17 343.09 1173 343C1180.41 316.622 1195.59 293.815 1211.96 272C1241.14 233.137 1276.77 197.623 1318 171.52C1335.2 160.627 1351.28 152.261 1370 145.42C1375.6 143.372 1379.85 140.536 1386 140M1731 149L1725 155M238 235C223.663 235.416 209.003 248.194 198 256.378C167.487 279.072 137.387 305.028 117.541 338C110.427 349.82 97.4013 364.325 99 379C110.42 376.381 115.616 368.348 123.17 360C132.61 349.567 142.764 339.528 152.499 329.374C169.065 312.096 186.263 295.317 202.715 277.911C212.018 268.066 221.948 258.291 230.741 248.015C234.246 243.919 236.458 237.331 240.314 233.954C246.563 228.484 254.762 229.112 261.961 226.007C269.902 222.582 275.07 216.931 284 214.428C340.622 198.558 401.232 201.023 457 219.229C462.116 220.899 465.334 224.44 470.039 226.437C475.554 228.776 481.45 228.125 486.961 231.019C490.634 232.948 493.189 236.444 497.004 238.107C500.529 239.644 504.486 239.114 508 240.848C547.678 260.432 584.607 293.861 610.087 330C618.953 342.574 627.684 355.904 633.364 370.286C634.87 374.099 634.442 378.282 636.098 382C638.046 386.373 641.851 389.624 643.598 394.039C646.081 400.314 644.624 407.628 647.148 413.741C648.64 417.353 652.471 419.222 653.983 423.001C673.691 472.251 671.152 541.091 654.616 590.999C653.312 594.935 650.142 597.407 648.559 601.09C645.609 607.949 646.365 614.832 641.481 620.996C637.676 625.8 632.644 627.609 628.001 631.26C620.96 636.797 614.824 643.872 608.576 650.259C583.747 675.64 559.554 701.695 534.573 727C525.821 735.865 517.499 745.166 508.715 754C502.408 760.342 495.316 766.008 493 775L501 773L497 768M368 205L368 500M265 226C276.302 234.13 298.659 228.845 312 229.004C349.266 229.447 386.513 229 424 229C436.656 229 457.37 233.653 468 226M230 237L234 243M499 240C502.425 255.75 522.177 268.068 532.996 279C555.689 301.929 577.439 325.886 599.985 349C610.716 360.001 619.323 372.425 633 380M1913 340C1917.82 349.447 1919.97 359.745 1924.57 368.961C1926.49 372.794 1930.3 375.145 1932.25 379.004C1940.82 395.972 1945.85 418.433 1949.63 437C1975.58 564.676 1935.39 696.179 1850.16 793C1823.58 823.189 1789.97 850.614 1755 870.424C1742.77 877.352 1729.55 887.698 1715 888C1717.17 878.955 1724.43 874.003 1730.71 867.715C1742.21 856.214 1753.49 844.504 1765 833C1797.6 800.398 1830.64 768.096 1862.58 734.83C1878.86 717.871 1896.74 692.57 1918 682M1174 344C1166.5 351.91 1168.55 359.385 1163.97 367.911C1162.14 371.332 1158.67 373.425 1156.92 377.004C1146.53 398.145 1142.92 422.218 1138.62 445C1125.3 515.702 1131.59 591.869 1158.27 659C1160.31 664.147 1165.04 667.204 1167.11 672.09C1170.78 680.735 1172.6 690.362 1176.21 699C1186.49 723.643 1203.02 747.229 1219.6 768C1248.57 804.284 1283.56 839.223 1324 862.666C1337.04 870.224 1355.83 890.277 1369 877C1343.86 850.804 1316.95 826.383 1291.29 800.715C1270.4 779.834 1250.48 757.871 1228.91 737.711C1217.96 727.482 1207.59 716.591 1197 706C1190.54 699.546 1184.13 692.352 1175 690M632 369L626 375M1164 369C1169.2 375.828 1168 383.816 1168 392L1168 440C1168 494.6 1169 549.323 1169 604C1169 619.085 1169.38 634.019 1169.01 649C1168.85 655.663 1170.21 662.976 1167 669M1926 372C1921.79 377.856 1923 385.063 1923 392C1923 407.365 1924 422.609 1924 438C1924 490.667 1925 543.285 1925 596C1925 611.244 1924.12 626.799 1925.25 642C1925.72 648.358 1924.49 653.278 1928 659M98 380C92.4864 389.586 82.8336 402.943 82 414C89.4365 413.912 91.5101 410.276 87 404M81 415C63.6635 469.575 61.9976 534.504 80.5239 589C82.141 593.757 86.1539 596.618 87.9715 601.09C90.8854 608.259 89.9039 616.155 94.1011 623C99.1075 631.164 108.168 634.974 114.91 642.015C133.461 661.388 152.63 680.367 170.91 700C187.428 717.739 204.7 734.906 220.826 753C229.761 763.025 234.813 773.436 247 780.66C251.493 783.323 256.495 782.012 261 784.174C305.447 805.512 354.823 806.984 403 803.093C422.083 801.552 450.271 798.753 466 787C458.572 774.034 432.544 780.368 419 780.961C396.305 781.954 373.673 780.891 351 781.001C338.713 781.06 326.288 782.752 314 781.91C303.136 781.167 292.834 781.996 282 782C275.425 782.003 268.555 781.073 263 785M90 415C90 459.389 91 503.525 91 548C91 561.271 95.8708 587.058 88 598M647 416C641.445 426.409 645 445.299 645 457L645 556C645 567.854 640.928 589.168 648 599M637 626C642.529 638.177 623.044 662.197 616.285 672C594.265 703.934 567.794 732.414 535 753.539C524.665 760.197 513.16 770.211 501 773M99 631L102 641L107 636M102 642C123.707 680.509 149.473 715.549 185 742.745C197.178 752.067 210.963 765.31 227 766M1182 694L1177 699M466 787L492 776M464 781C467.521 779.363 468.825 779.796 472 782M270 783L270 788M1369 877C1371.4 880.66 1372.75 885.642 1376.14 888.501C1381.22 892.768 1389.05 892.892 1394.98 895.515C1398.65 897.138 1400.51 900.644 1404.05 902.301C1411.69 905.876 1420.08 907.647 1428 910.383C1489.92 931.759 1564.28 933.421 1628 919.424C1649.68 914.662 1684.34 910.992 1700 894C1694.35 889.935 1687.7 891 1681 891C1667.75 891 1654.14 892.376 1641 891.957C1583.27 890.116 1524.99 893 1467 893C1451.33 893 1435.59 893.992 1420 893.992C1412.42 893.992 1405.65 891.218 1399 896M1363 884C1366.54 886.606 1368.83 887.649 1373 886M1701 894L1714 889"/>
</svg>
