<?xml version="1.0" standalone="yes"?>
<svg width="1182" height="810">
<path style="stroke:#000000; fill:none;" d="M139 157L188 156.896L224 156L392 156L880 154M289 267L290 289M102 279C224.924 279 348.246 276.029 471 276.029C555.733 276.029 641.149 276.927 726 274.985C805.917 273.156 885.997 273 966 273C1004.36 273 1044.83 268.925 1083 273M286 440C322.678 441.575 359.338 440.059 396 440C443.626 439.924 491.472 441.071 539 439.255C649.035 435.053 759.685 438 870 438M474 571C482.542 575.559 496.45 573 506 573L579 573C669.207 573 758.957 571 849 571M582 698C581.965 688.118 597.296 690.038 605 690.001C630.775 689.876 656.373 690.301 682 689.996C791.204 688.697 899.83 689 1009 689M356 690C403.991 690.005 452.648 691 501 691C526.463 691 555.04 687.35 580 692"/>
</svg>
