<?xml version="1.0" standalone="yes"?>
<svg width="1784" height="368">
<path style="stroke:#000000; fill:none;" d="M338 2L370 2M308 84L309 95L497 95L497 106M1518 89L1655 88.179L1704 88M919 92L1152 91L1223 91L1256 91M498 94L524 94.179L580 94.0895L671 94M124 95C143.58 96.5453 163.309 94.7696 183 95.0038C208.908 95.3121 235.053 97.0969 261 95.9606C272.315 95.4651 283.605 94.9817 295 95C299.805 95.0077 305.205 94.5649 308 99L308 102M817 200C809.376 204.068 799.368 202 791 202C773.286 202 755.724 203 738 203C690.589 203 643.284 202 596 202C572.323 202 544.946 206.245 522 201M1171 299L1488 298M523 302L590 302.004L715 302"/>
</svg>
