<?xml version="1.0" standalone="yes"?>
<svg width="1140" height="162">
<path style="stroke:#000000; fill:none;" d="M771 57C771.063 62.2966 772.202 66.2915 778.001 67.6049C785.606 69.3274 796.115 66.9931 804 66.7461C815.547 66.3845 827.296 67.3926 839 67.0802C885.177 65.848 931.63 68.5478 978 67.9961C1005.15 67.6732 1032.91 63.5761 1060 67M639 58C638.84 71.5425 619.878 67.0159 610 67C577.763 66.9482 544.093 69.2961 512 66.3657C479.873 63.4323 445.412 67 413 67C342.721 67 272.27 66.887 202 67C175.682 67.0423 149.289 67.1888 123 66.0394C111.238 65.5251 99.7569 67.1827 88 65M771 64C761.907 68.8585 749.029 67 739 67L672 67C664.723 67 641.475 63.2381 639 71"/>
</svg>
