<?xml version="1.0" standalone="yes"?>
<svg width="1032" height="240">
<path style="stroke:#000000; fill:none;" d="M345 148L345 156C361.551 152.927 379.341 155.425 396 155.957C417.745 156.65 440.13 155 462 155C543.532 155 625.553 156.027 707 156.996C734.991 157.329 763.007 157 791 157C801.089 157 818.551 162.766 817 148M78 157C100.932 152.743 125.865 155.998 149 155.998C189.234 155.998 229.679 155 270 155C286.373 155 302.689 155.442 319 155.871C327.008 156.082 336.637 153.462 344 157M344 157L345 170M817 157L854 158.09L959 160M818 160L818 171"/>
</svg>
