<?xml version="1.0" standalone="yes"?>
<svg width="1224" height="304">
<path style="stroke:#000000; fill:none;" d="M644 94L644 122M188 106C275.083 106 361.901 108 449 108C513.992 108 579.116 104.879 644 110M646 109C679.673 114.148 716.831 111 751 111C801.512 111 851.612 113 902 113L968 113C976.703 113.003 986.995 116.272 995 112M667 227C666.001 236.933 643.474 233 636 233C602.308 233 568.618 232.838 535 232.015C391.795 228.506 248.136 229 105 229M668 238L667 234L707 233.985L792 234.996L1114 238"/>
</svg>
