<?xml version="1.0" standalone="yes"?>
<svg width="704" height="896">
<path style="stroke:#000000; fill:none;" d="M263 147C258.642 165.357 263.771 189.098 263.996 208C264.54 253.692 265 299.333 265 345C265 504.485 269 663.599 269 823M446 152C442.685 163.215 445.122 177.49 445.91 189C446.931 203.895 446.308 219.091 446.961 234C449.278 286.912 448 339.955 448 393L463 393M105 154L106.015 181L107.039 239L109.985 459L110.985 523L111 552M603 154C603 207.85 602.358 261.338 602.996 315C603.27 338.021 598.668 365.603 604 388M441 394L447 394M448 395L449 507L458 507M437 506L448 508M448 509C451.852 522.032 449 539.412 449 553C449 580.665 451.167 608.462 449.961 636C449.174 653.954 445.798 675.352 450 693M268 518L279 519"/>
</svg>
