<?xml version="1.0" standalone="yes"?>
<svg width="1176" height="1184">
<path style="stroke:#000000; fill:none;" d="M580 120C575.219 138.413 555.491 153.028 542 165.171C518.049 186.728 496.58 211.125 473 233.089C387.394 312.833 307.729 399.303 225 482C198.138 508.851 171.059 535.988 145.576 564.039C138.666 571.645 124.595 591.093 113 583C120.395 575.357 123.612 563.855 127.308 554C134.083 535.935 141.11 517.949 148.041 500C167.717 449.041 188.855 398.401 207.631 347C213.137 331.928 220.01 317.163 225.11 302C229.084 290.185 230.247 278.47 237.519 268.015C241.213 262.704 247.213 260.193 251.066 255.367C253.296 252.572 253.851 248.847 256.225 246.001C272.034 227.041 294.843 212.006 315 198.103C369.366 160.604 432.436 136.591 497 123.6C523.792 118.21 553.179 113.573 580 118.792C586.034 119.966 591.782 116.979 597.942 119.843C608.084 124.559 615.975 140.717 623.425 148.961C641.302 168.74 661.401 187.796 680.286 206.714C752.415 278.975 825.597 350.164 896.089 423.985C939.26 469.195 984.778 513.404 1029.63 556.961C1038.76 565.831 1049.48 579.114 1061.05 584.602C1073.05 590.29 1077.89 576.525 1075 567L1067 574C1053.55 556.804 1047.86 529.23 1039.63 509C1017.25 454.033 995.086 398.941 972.763 344C963.976 322.374 961.41 292.993 946.66 275.004C934.86 260.613 909.51 258.243 893 250.552C846.969 229.108 800.158 207.415 753 188.551C718.215 174.636 684.804 157.397 650 143.614C639.175 139.327 623.088 126.756 613 136M614 116C633.817 119.679 654.133 119.398 674 123.371C741.691 136.907 813.158 162.541 868 205.489C882.025 216.472 895.992 227.454 910 238.49C918.221 244.967 927.33 250.906 929 262M253 257C261.294 256.755 269.513 251.947 277 248.629C291.188 242.341 305.574 235.817 320 230.086C377.219 207.357 434.731 184.029 491 158.931C511.122 149.955 531.74 142.211 552 133.579C558.499 130.81 569.298 124.027 576 127M568 128L573 133M610 130L617 130M113 583C106.196 575.642 108.279 568.22 108.91 559C110.097 541.669 112.452 525.139 115.537 508C127.017 444.212 150.194 377.408 189.349 325C199.793 311.021 211.467 283.67 230 280M958 294C980.716 299.273 993.945 333.832 1005.23 352C1044.15 414.665 1075 492.214 1075 567M1067 574L1072 582M114 584C110.865 589.05 106.437 603.898 111.028 609.267C113.347 611.979 119.829 611.888 123 613.843C129.102 617.604 134.668 623.479 139.83 628.424C164.176 651.744 186.705 677.404 212 699.715C254.855 737.513 293.807 781.334 334.004 822C385.142 873.734 438.787 923.297 490.911 974.17C514.265 996.963 539.593 1018.17 561.911 1042C566.701 1047.12 572.561 1052.02 576.288 1058C579 1062.35 579.007 1068.64 585.018 1069.77C597.171 1072.07 598.304 1061.52 606.039 1055.25C625.694 1039.32 643.206 1019.06 660.985 1001C733.637 927.213 806.831 854.347 881.17 782.285C919.785 744.852 958.305 707.247 996.911 669.83C1006.95 660.097 1015.73 648.842 1025.96 639.424C1034.49 631.586 1042.66 622.741 1051.91 615.729C1057.35 611.604 1065.41 610.979 1070.27 606.161C1074.71 601.766 1073.59 590.383 1072 585M1071 607C1077.18 614.282 1075.14 621.218 1075 630C1074.67 649.729 1070.72 670.727 1066.8 690C1054.62 749.911 1028 808.042 994.834 859C980.151 881.561 964.528 904.215 942 919C938.443 911.167 944.407 902.195 947.512 895L971.599 839C992.669 790.194 1011.75 740.247 1032.03 691C1042.5 665.581 1058.98 638.945 1064 612M111 611C111.243 618.341 118.394 624.228 121.451 631C128.442 646.485 134.604 662.432 141.431 678C167.634 737.75 197.042 797.017 220.216 858C226.92 875.642 236.491 892.358 242.301 910.285C245.703 920.785 247.645 933.352 258.015 940.006C266.769 945.624 276.466 946.137 286 949.475C299.284 954.125 312.968 960.293 326 965.781C379.98 988.512 434.501 1010.36 489 1031.8C506.833 1038.81 524.24 1046.65 542 1053.71C553.042 1058.11 563.943 1059.69 573 1068C567.145 1072.21 559.936 1071 553 1071C534.622 1070.99 516.037 1066.96 498 1063.92C436.65 1053.58 380.784 1026.64 328 994.971C309.434 983.831 279.885 967.874 270 948M111 617C106.809 622.849 108.646 631.152 109.754 638C112.185 653.029 113.327 668.088 116.49 683C130.16 747.441 153.576 811.615 193 865C202.53 877.904 212.709 890.263 222.41 903C227.551 909.75 233.902 918.32 243 919M241 909L235 915M940 920C934.755 932.516 925.296 935.199 916.563 944.04C913.676 946.963 913.657 951.502 910.722 954.536C901.715 963.848 890.425 971.121 880 978.706C823.169 1020.05 755.272 1050.63 686 1063.61C662.348 1068.04 638.171 1072.99 614 1070.13C607.975 1069.42 602.488 1071.13 597 1068M614 1068C620.813 1060.03 634.389 1056.33 644 1052.76C659.57 1046.97 674.604 1039.43 690 1033.25C739.008 1013.57 788.663 993.74 837 972.471C854.091 964.951 871.558 958.18 889 951.34C897.728 947.917 904.267 943.082 914 943M573 1068L579 1069"/>
</svg>
