<?xml version="1.0" standalone="yes"?>
<svg width="1680" height="368">
<path style="stroke:#000000; fill:none;" d="M1420 126L1420 143M618 133L657 133.039L717 132.043L878 132M1053 133C1073.78 135.569 1096.07 132.179 1117 132.179C1147.91 132.179 1179.01 133 1210 133C1337.99 133 1467.05 128.86 1595 134M146 183C155.954 180.629 165.092 182.331 175 181.896C196.969 180.931 218.969 181 241 181C312.256 181 384.892 185.023 456 180M1195 224L1328 223.079L1499 224M587 296L587 315M588 302L632 301L708 300.996L910 300M159 302L471 302C499.753 302 528.431 300.093 557 301.91C567.04 302.548 577.937 298.018 587 304"/>
</svg>
