<?xml version="1.0" standalone="yes"?>
<svg width="936" height="976">
<path style="stroke:#000000; fill:none;" d="M112 397C115.084 386.318 124.689 381.482 133 375.105C150.824 361.428 169.086 348.34 187 334.826C255.506 283.147 322.467 228.339 393 179.434C411.894 166.334 432.24 152.383 449.715 137.556C454.901 133.155 469.249 120.818 476.015 121.384C483.491 122.01 490.469 129.252 496 133.754C507.324 142.972 519.295 151.677 531 160.421C579.998 197.024 627.816 235.31 677 271.714C715.529 300.231 752.886 330.556 792 358.275C804.248 366.954 830.303 380.727 832.852 397.015C834.194 405.591 829.818 414.048 827.438 422C821.328 442.417 813.126 462.429 807.584 483C786.281 562.069 760.347 641.038 734.836 719C727.141 742.518 720.177 766.297 713.036 790C711.141 796.288 709.63 811.283 703.722 814.972C700.062 817.258 695.86 814.627 692 815.255C672.206 818.478 652.268 817 632 817C570.282 817 508.727 818 447 818C414.249 818 381.684 817.799 349 818.545C335.631 818.85 321.169 816.337 308 817.59C295.332 818.794 282.835 819 270 819C265.922 819 258.799 820.343 255.514 817.397C248.483 811.089 244.965 796.78 242 788C235.345 768.293 228.76 748.519 221.631 729C197.466 662.835 173.611 595.835 151.698 529C148.121 518.092 145.764 506.813 141.571 496C132.265 472.002 124.054 447.495 115.999 423C113.842 416.439 107.869 401.901 116.147 397.028C119.574 395.01 125.181 396 129 396L157 396C192.228 396 227.928 397.494 263 395.961C296.922 394.477 330.997 395 365 395C371.913 395 379.397 397.125 386 396.834C479.144 392.738 573.295 394 667 394C703.553 394 740.568 392.136 777 393.015C791.346 393.361 815.038 397.918 828 391M468 129C452.749 192.295 430.383 254.92 410.495 317C402.273 342.668 389.458 370.248 386 397M385 399C376.742 411.873 375.104 428.618 370.41 443C362.044 468.63 353.21 494.116 345.626 520C343.026 528.874 341.249 538.387 337.881 547C336.715 549.982 332.708 554.238 333.737 557.61C335.271 562.635 350.553 569.894 355 572.958C374.96 586.71 394.212 601.476 414 615.427C479.284 661.451 545.353 706.569 610 753.421C627.265 765.933 644.862 778.029 662 790.7C669.924 796.558 678.806 805.076 689 806C685.689 790.74 670.19 776.425 661.235 764C639.994 734.526 618.195 705.233 595.376 677C522.69 587.071 458.945 489.617 387 399M113 402L137.83 417.724L211 470.22L333 556M333 559L327.38 581L315.279 619L275.674 745L262.344 788L253 810M689 806L693 813M308 811L308 816"/>
</svg>
