<?xml version="1.0" standalone="yes"?>
<svg width="582" height="762">
<path style="stroke:#000000; fill:none;" d="M82 72L84.0147 128L86.0787 194L89.0039 432L90 572L89 637M343 164L342.999 223L344.741 349L344.004 460L347 627M222 254C217.503 262.426 221 274.704 221 284C221 309.378 222 334.674 222 360C222 453.631 224 547.346 224 641M474 346C472.458 375.413 474.671 406.541 475.961 436C477.857 479.298 477.067 522.765 478.961 566C479.675 582.312 480 598.665 480 615C480 624.242 478.431 631.489 487 637"/>
</svg>
