<?xml version="1.0" standalone="yes"?>
<svg width="1664" height="632">
<path style="stroke:#000000; fill:none;" d="M920 80L920 100M535 91L1140 85M1392 226C1406.46 219.898 1426.57 223 1442 223C1472.6 223 1503.3 221.262 1534 222.015C1544.61 222.275 1555.41 221.998 1566 222.665C1569.28 222.872 1574.88 222.186 1576.97 225.318C1579.08 228.48 1578 234.382 1578 238L1578 269C1578 307.702 1579 346.274 1579 385C1579 419.36 1577.67 453.791 1578.46 488C1578.62 495.431 1583.06 518.077 1576.68 523.142C1570.53 528.032 1556.38 526 1549 526L1480 526C1391.71 526 1303.39 529 1215 529C942.096 529 668.372 538 395 538C317.883 538 241.244 541 164 541C146.347 541 128.623 540.957 111 541.594C98.4545 542.048 84.056 545.515 72 541C74.6569 532.015 73.1124 523.127 73.0039 514C72.8255 499.005 73 483.997 73 469L73 314C73 295.313 72 276.722 72 258C72 252.753 69.8579 241.361 74.3179 237.603C78.6003 233.995 89.7191 235.752 95 235.921C110.266 236.411 125.628 235 141 235C177.39 235 213.644 234 250 234C274.489 234 299.573 235.583 324 233.91C360.432 231.416 397.449 233 434 233C480.491 233 526.585 231.812 573 231.812C604.277 231.812 635.711 229.413 667 229.019C811.477 227.198 956.411 225 1101 225C1172.25 225 1243.66 224 1315 224L1369 224C1374.62 224 1385.09 221.871 1389.68 225.731C1394.01 229.377 1392 239.916 1392 245C1392 263.738 1390.97 282.304 1391 301C1391.12 375.371 1389.81 450.819 1393 525M1081 227L1082 527M573 234L575.17 259L576 336L577 534"/>
</svg>
