<?xml version="1.0" standalone="yes"?>
<svg width="1104" height="512">
<path style="stroke:#000000; fill:none;" d="M436 173C436.92 184.571 435 196.167 435 208C435 231.258 436.044 254.824 434.325 278C433.791 285.197 439.017 302.776 433.397 308.397C430.256 311.537 422.062 310 418 310L375 310C318.274 310 261.706 309 205 309C188.641 309 172.314 308.966 156 308.343C151.078 308.155 143.9 313.23 140.028 307.567C137.66 304.104 139 297.007 139 293C139 279.98 138.598 266.951 139.83 254C140.741 244.432 139 234.619 139 225L139 151C139 139.554 139.818 128.368 139.09 117C138.905 114.1 138.221 107.12 140.678 105.028C143.028 103.028 148.153 104.055 151 103.985C160.009 103.765 168.937 103 178 103C213.391 103 248.637 104 284 104L627 104C659.775 104 692.375 103.619 725 104.897C735.852 105.322 751.401 99.5468 761.682 104.603C764.856 106.164 764.733 112.94 764.907 116C765.577 127.844 763.058 140.123 763.001 152C762.817 190.034 768.188 230.09 763.714 268C762.5 278.296 764.622 288.599 763.911 299C763.597 303.588 762.034 308.033 766.148 311.451C771.717 316.076 782.166 318.29 789 320.504C803.491 325.199 817.856 330.601 832 336.309C874.22 353.346 917.68 368.552 961 382.594C969.528 385.358 979.071 388.489 986.995 392.684C990.332 394.451 992.513 398.019 996.129 399.137C1005.44 402.018 1015.47 400.445 1025 401M438 183C451.3 192.349 455.134 214.537 461.395 229C473.588 257.164 485.866 285.824 497.274 314C501.096 323.439 505.363 333.334 508.696 343C510.836 349.206 510.095 354.312 514 360M493 308C483.326 313.163 468.602 310.013 458 310C454.389 309.996 447.502 309.175 444.662 311.988C440.08 316.525 455.326 323.375 458 324.884C475.105 334.537 489.862 350.066 509 356M435 309L443 312M497 311C505.908 309.319 515.049 310.921 524 310.921C539.661 310.921 555.304 310.451 571 310.836C613.964 311.888 656.981 311 700 311C719.528 311 742.997 314.524 762 310M150 312C156.156 322.799 177.904 326.286 189 329.746C201.692 333.704 213.83 340.829 226 345.868C244.062 353.347 262.861 359.128 281 366.453C296.138 372.566 311.762 377.485 327 383.319C337.383 387.295 348.039 393.482 359 395.532C373.669 398.276 391.038 396 406 396C436.036 396 466.001 396.34 496 396.34C598.626 396.34 701.39 398 804 398C849.383 398 894.591 401 940 401C955.489 401 979.107 407.011 993 399"/>
</svg>
