<?xml version="1.0" standalone="yes"?>
<svg width="512" height="928">
<path style="stroke:#000000; fill:none;" d="M115 91L115 183L118.996 412L120 558L121 605L122 637M444 94C444 165.966 446 238.043 446 310C446 325.205 444.588 340.862 446.576 356C447.175 360.565 448.961 371.832 445.397 375.397C442.122 378.671 433.277 377 429 377M257 96C257 147.03 256.439 199.059 259.91 250C261.001 266.006 255.692 287.05 262 302M449 726L447 458L447 399L448.603 378.603L464 376M102 452L132 452M264 648L266 841"/>
</svg>
