<?xml version="1.0" standalone="yes"?>
<svg width="1242" height="1260">
<path style="stroke:#000000; fill:none;" d="M1032 1L1052 2M11 2L31 2M828 2L851 2M713 126C700.427 137.773 679.672 143.67 664 150.579C635.679 163.066 608.182 177.414 580 190.194C484.353 233.572 390.543 281.735 296 327.359C263.281 343.148 231.1 360.165 198 375.142C187.811 379.752 172.521 391.457 161 389C164.582 375.303 172.162 364.648 179.911 353C192.251 334.451 204.885 316.547 219.83 300C244.872 272.273 270.502 245.724 300.129 222.745C328.781 200.522 360.796 183.725 393 167.623C492.284 117.982 605.993 105.941 714 124.865C724.519 126.708 735.518 125.872 746 128.336C841.773 150.85 934.237 200.151 1001.88 272.089C1028.87 300.803 1049.77 333.335 1069.76 367C1080.65 385.35 1093.72 402.637 1102.92 422C1123.09 464.451 1135.15 512.863 1142.56 559C1143.98 567.811 1139.89 575.188 1141 584C1058.7 596.1 975.699 606.288 893 616.184C858.082 620.363 823.085 626.478 788 629.83C750.588 633.405 713.28 639.175 676 643.816C665.033 645.182 654.004 646.765 643 647.83C637.952 648.319 631.855 647.869 627.259 650.433C619.335 654.855 611.599 663.624 605.015 669.911C592.082 682.259 578.877 694.394 565.816 706.537C517.665 751.304 469.166 796.236 420 839.95C371.923 882.695 325.393 927.485 278 971.086C267.126 981.09 257.045 992.016 246 1001.83C241.379 1005.93 233.619 1008.82 238.704 1015.94C241.254 1019.52 245.688 1020.12 248.586 1023.23C270.988 1047.23 294.819 1067.92 322 1086.77C427.435 1159.86 555.445 1192.82 683 1179.17C722.658 1174.92 763.872 1166.25 801 1151.58C809.406 1148.26 817.704 1145.17 826 1141.48C829.005 1140.15 833.502 1138.69 834.307 1135C835.267 1130.6 829.914 1130.13 826.999 1129.49C819.027 1127.74 810.938 1126.55 803 1124.75C768.382 1116.89 732.65 1113.15 698 1105.55C649.031 1094.79 599.316 1087.21 550 1077.91C496.059 1067.73 442.203 1056.68 388 1047.56C354.809 1041.99 322.046 1033.87 289 1027.69C275.586 1025.18 263.745 1022 250 1022M729 128C728.328 132.454 725.318 135.657 724.329 140C716.942 172.465 711.463 205.447 704.518 238C684.539 331.642 664.352 426.358 649.704 521C646.637 540.811 640.671 560.417 636.518 580C634.571 589.182 634.276 598.864 631.911 608C629.166 618.604 621.337 639.745 626 650M729 133L848.114 258.911L996.829 418L1107.91 541.089L1140 575M161 389C149.461 402.716 166.358 407.775 178 412.85C206.574 425.308 233.143 442.76 261 456.732C345.807 499.266 429.55 544.583 513 589.748C537.618 603.072 562.17 616.269 587 629.262C598.864 635.47 610.405 644.235 624 646M155 401C130.449 434.964 118.099 479.526 108.252 520C80.1627 635.443 88.2021 764.206 141.579 872C159.246 907.678 178.617 941.062 202.534 973C208.127 980.469 213.482 988.17 219.915 994.985C222.056 997.252 225.139 1001.43 228.775 1000.86C232.157 1000.34 232.033 995.546 231.957 993C231.703 984.482 229.26 976.373 228.159 968C223.662 933.817 215.66 898.433 214.039 864C212.485 830.986 204.551 797.809 200.289 765C190.657 690.842 178.493 616.369 170.173 542C166.578 509.868 163.736 476.745 157.804 445C155.834 434.456 157.417 419.819 151 411M1142 585C1142.3 594.541 1134.44 603.199 1130.51 612C1124.42 625.66 1118.35 640.157 1110.65 653C1103.85 664.349 1095.27 674.804 1089.88 687C1039.99 799.704 975.69 905.413 915.782 1013C898.885 1043.34 884.081 1074.94 866.793 1105C859.031 1118.5 854.792 1133.13 836 1134M1143 593C1150.9 602.346 1148 620.358 1148 632C1148 666.479 1145.99 699.895 1142.17 734C1127.87 861.841 1063.36 981.397 962 1061.36C941.244 1077.73 919.443 1092.32 897 1106.26C886.3 1112.91 874.963 1121.94 862 1123M625 654L642.346 689L672.108 754L797.779 1022L832.891 1099L847 1129M231 1003L236 1010"/>
</svg>
