<?xml version="1.0" standalone="yes"?>
<svg width="840" height="1086">
<path style="stroke:#000000; fill:none;" d="M429 128.424C458.776 124.513 491.568 132.279 520 140.442C635.237 173.526 720.69 277.961 728.911 398C739.107 546.89 629.552 693.092 478 711.714C406.594 720.488 330.861 705.91 271 664.671C134.484 570.624 101.748 372.177 204.517 241C248.398 184.989 310.924 147.626 380 132.662C396.238 129.144 412.583 130.581 429 128.424M621 410L621 426M438 420L728 418M139 801C169.319 795.371 202.387 800.731 233 798.795C273.499 796.233 314.588 797.494 355 797.975C409.649 798.625 464.452 796.264 519 796.001C557.712 795.814 598.605 799.852 637 795M227 890L478 887M133 891L216 890M132 981L306 977.079L676 974"/>
</svg>
