<?xml version="1.0" standalone="yes"?>
<svg width="1000" height="976">
<path style="stroke:#000000; fill:none;" d="M144 409C149.886 396.859 161.787 392.488 173 384.127C195.368 367.449 217.581 350.681 240 334.076C302.122 288.064 365.409 242.748 426 194.714C445.599 179.177 466.376 165.179 486 149.715C491.233 145.591 496.807 141.722 501.532 137C504.734 133.799 506.459 129.295 511.019 127.804C517.661 125.632 520.971 129.722 527 130.13C537.18 130.82 548.232 128.998 559 130.286C672.358 143.844 778.652 209.785 841.1 305C855.23 326.544 868.276 349.904 877.611 374C880.834 382.32 886.032 394.702 883.803 403.852C882.888 407.608 877.087 407.521 874 407.831C863.747 408.86 853.307 408 843 408C799.318 408 755.76 407 712 407C589.47 407 466.393 404.139 344 408.043C297.613 409.523 251.392 409.452 205 410.004C186.196 410.227 162.235 415.39 144 410C130.47 442.056 127 479.298 127 514C127 600.696 154.828 683.214 206.265 753C228.173 782.723 257.938 818.766 292 835C295.587 826.191 289.209 816.342 286.505 808C278.694 783.897 267.712 760.973 259.594 737C234.877 664.003 205.307 592.481 179.054 520C170.948 497.62 162.595 475.359 154.436 453C150.572 442.412 148.457 429.724 141 421M147 397C154.564 366.378 170.319 337.637 186.887 311C235.251 233.242 311.553 173.777 399 146.501C424.705 138.483 452.123 131.753 479 129.911C487.43 129.333 497.966 125.728 506 129M524 130C522.308 140.254 526.257 149.553 529.609 159C534.496 172.774 539.028 186.993 543.231 201C557.68 249.158 573.652 296.898 588.366 345C594.277 364.324 605.83 386.676 606 407M529 131C549.723 155.93 582.03 174.276 608 193.745C644.266 220.933 679.384 249.678 716 276.461C734.935 290.312 754.824 303.544 773.015 318.372C794.279 335.705 817.662 350.191 839 367.428C851.435 377.474 866.067 393.18 882 397M885 406C898.709 431.635 900.433 461.361 903.17 490C911.473 576.896 884.209 667.922 834.57 739C817.928 762.83 798.866 788.375 776 806.665C771.39 810.352 760.607 823.577 754.098 822.168C746.56 820.537 754.538 803.101 755.898 799C763.964 774.685 772.378 750.413 780.31 726C804.404 651.84 828.451 577.475 854.36 504C861.609 483.44 867.776 462.471 875.306 442C878.537 433.214 880.636 421.882 887 415M609 410C625.843 464.928 641.61 520.25 659.029 575C675.528 626.86 693.446 678.545 707.861 731C714.693 755.86 722.844 780.32 730.279 805C732.016 810.768 734.566 827.053 740.299 830.002C745.338 832.595 748.223 824.018 750 821M740 833C737.33 840.424 731.537 836.734 726.648 840.858C723.881 843.192 722.948 846.905 719.945 849.211C704.829 860.817 683.58 869.922 666 877.191C602.495 903.447 534.898 911.418 467 903.184C444.195 900.419 420.648 896.936 399 888.807C377.23 880.632 354.21 874.203 334 862.343C328.412 859.064 319.351 856.326 315.577 850.791C313.614 847.912 314.956 843.35 314 840L308 847L313 849M293 834L308 847M316 840C414.601 840 513.398 839 612 839C639.992 839 667.949 837.23 696 838.255C705.304 838.594 717.595 835.515 726 840M305 842L313 840"/>
</svg>
