<?xml version="1.0" standalone="yes"?>
<svg width="536" height="960">
<path style="stroke:#000000; fill:none;" d="M302 99L301.015 221L300.961 312L299.545 391L300 414M136 106L134.079 502L133.455 596L134 648M459 126C465.834 149.12 460.552 177.998 462.089 202C464.397 238.044 461.896 274.021 461.015 310C459.844 357.757 461 405.342 461 453C461 478.332 461.121 503.668 460.999 529C460.963 536.457 462.334 551.288 453 552M131 471L133 471M474 549L460 553C464.8 569.239 459.837 590.333 459.104 607C458.684 616.554 460.751 626.432 460.985 636C461.297 648.7 459.441 661.341 459.129 674C458.859 684.918 460.866 696.071 460.996 707C461.46 746.015 461.466 785.153 461.004 824C460.806 840.614 462.084 857.507 460 874M297 566L296 837"/>
</svg>
