<?xml version="1.0" standalone="yes"?>
<svg width="464" height="768">
<path style="stroke:#000000; fill:none;" d="M219 88.4244C249.957 84.3596 283.755 88 315 88C322.642 88 342.643 84.4556 348.566 89.6034C353.557 93.9404 350.584 106.055 351.285 112C354.17 136.449 351 163.224 351 188C351 246.004 353 303.897 353 362C353 388.687 353.68 415.39 353.996 442C354.125 452.86 352.15 464.275 353.17 475C358.142 527.281 355 581.439 355 634C355 646.384 356 658.658 356 671C356 674.507 357.304 681.789 352.852 683.111C341.01 686.627 323.491 682.492 311 683.039C265.892 685.015 220.281 682.057 175 684.039C160.941 684.655 147.041 684.431 133 685.039C128.278 685.244 120.475 687.167 116.589 683.397C110.297 677.295 114 656.137 114 648C114 615.24 113 582.747 113 550C113 438.059 110 326.08 110 214C110 184.953 109 156.075 109 127C109 118.449 106.014 100.76 111.028 93.4329C115.32 87.1599 131.517 90.2441 138 89.9606C164.568 88.799 192.661 91.8827 219 88.4244M113 331L278 329.015L331 329.025L350 329"/>
</svg>
