<?xml version="1.0" standalone="yes"?>
<svg width="2592" height="1176">
<path style="stroke:#000000; fill:none;" d="M808 4L822 4M128 486C134.628 481.232 144.143 483 152 483L205 483C274.255 483 342.971 484 412 484C433.322 484 454.867 483.463 476 484.911C480.901 485.246 494.428 481.789 495.968 488.059C497.074 492.558 494.005 498.031 492.28 502C487.726 512.477 482.703 522.77 477.602 533C459.503 569.29 442.378 606.791 426.336 644C421.535 655.137 416.125 665.936 411.171 677C409.506 680.716 408.329 687.844 402.981 687.458C396.865 687.017 390.596 680.043 386 676.502C373.483 666.857 360.373 658.206 348 648.372C307.334 616.05 263.091 588.487 222 556.665C196.367 536.814 168.004 520.695 143 500.084C137.605 495.637 132.367 489.828 126.792 485.853C123.77 483.698 120.007 483.613 120.268 478.981C120.664 471.938 125.735 464.287 128.626 458C135.904 442.17 144.186 426.809 151.525 411C179.462 350.814 214.098 292.485 238.914 231C247.281 210.27 258.556 190.206 268.255 170C270.856 164.58 274.348 151.852 280.188 149.314C292.252 144.072 305.545 165.319 314 171.086C349.452 195.265 384.291 221.329 418 247.881C450.528 273.503 484.602 297.661 518 322.155C530.515 331.333 545.604 348.231 560.17 353.436C572.042 357.678 591.38 354 604 354C637.661 354 671.422 353.192 705 354.015C728.323 354.586 751.613 355.021 775 354.71C782.102 354.615 795.634 357.879 801.856 354.088C805.504 351.865 806.124 346.5 808.056 343C812.954 334.123 817.144 324.841 822.13 316C843.271 278.515 861.757 239.192 881.654 201C887.533 189.714 893.318 178.445 898.916 167C900.476 163.81 904.768 156.863 900.667 154.028C897.553 151.874 891.589 153.039 888 152.996C879.336 152.893 870.718 152 862 152C827.979 152 793.951 151 760 151C648 151 536.207 150 424 150C393.676 150 363.377 149 333 149C322.013 149 304.79 145.775 295 151M904 154C917.988 150.108 931.806 166.82 943 174.508C977.209 198 1010.11 223.342 1044 247.23C1081.46 273.63 1118.52 300.634 1156 327.022C1167.46 335.088 1180.85 342.247 1190.14 352.857C1192.35 355.384 1196.13 356.832 1197.4 360.058C1200.44 367.785 1192.82 376.792 1189.33 383C1179.29 400.883 1170.45 419.595 1161.37 438C1131.04 499.496 1100.86 561.332 1068.91 622C1060.27 638.41 1052.55 655.388 1044.25 672C1041.18 678.133 1038.65 687.961 1033.61 692.667C1029.91 696.11 1016.36 695.718 1011 696.424C1000.74 697.776 990.302 695.34 980 695.34C964.294 695.34 948.733 695.728 933 695.039C903.083 693.729 872.913 695.429 843 695.429C778.978 695.429 714.918 694 651 694C612.665 694 574.252 693.185 536 693.001C512.607 692.888 489.419 694.684 466 693.09C452.746 692.187 438.377 693 425 693C417.49 693 410.869 694.544 406 688M2226 810C2170.32 765.118 2110.17 725.729 2055.58 679.455C2043.38 669.122 2029.94 659.916 2017 650.554C2012.28 647.144 2003.94 642.502 2003.34 636C2002.8 630.149 2009.73 622.956 2012.36 618C2019.62 604.331 2026.29 589.879 2033.1 576C2051.87 537.743 2071.78 499.665 2091.78 462C2102.05 442.658 2116.45 422.23 2122 401C2109.73 398.723 2097.29 399.901 2085 399.921C2071.37 399.943 2057.64 398.442 2044 399.208C2031.82 399.893 2020.16 399.572 2008 399.039C2002.99 398.82 1996.8 400.397 1992 399.032C1984.97 397.036 1977.94 390.375 1972 386.247C1959.78 377.757 1947.31 369.567 1935 361.194C1894.11 333.391 1853.27 305.921 1813 277.372C1790.39 261.346 1766.39 247.183 1744 230.775C1739.79 227.693 1723.11 220.061 1725.42 213.279C1727.57 206.989 1748.86 209.341 1754 209.83C1783.51 212.639 1813.55 207.846 1843 209.911C1931.73 216.129 2022.85 211 2112 211C2136.98 211 2161.98 212.241 2187 212.286C2201.09 212.312 2215.96 211.505 2229 218.175C2250.3 229.07 2270.42 248.299 2290 262.251C2333.46 293.222 2377.13 323.88 2421 354.283C2436.26 364.858 2450.82 376.36 2466 387.023C2472.51 391.592 2482.37 397.444 2484.13 406.039C2485.88 414.595 2475.15 427.707 2471.3 435C2458.86 458.538 2447.3 482.436 2434.89 506C2410.36 552.573 2387.74 600.188 2363.74 647C2348.4 676.93 2330.54 706.315 2316.86 737C2306.22 760.874 2293.12 783.773 2281.16 807C2277.38 814.346 2272.21 830.811 2264.87 834.972C2260.29 837.57 2255.65 834.469 2251 834.584C2240.59 834.842 2230.56 835.886 2220 835.375C2186.17 833.739 2151.94 836.678 2118 834M2106 835C2079.42 829.265 2047.19 834 2020 834C1970.32 834 1920.7 832 1871 832C1839.77 832 1805.73 835.612 1775 830.724C1765.04 829.139 1756.77 819.586 1749 813.92C1732.02 801.535 1714.53 789.804 1698 776.804C1655.67 743.51 1611.11 712.707 1568 680.444C1553.01 669.229 1537.51 659.139 1523 647.256C1519.25 644.188 1514.1 642.433 1510.95 638.73C1502.34 628.601 1507.88 620.18 1513.56 610C1524.08 591.149 1534.11 572.277 1543.86 553C1586.38 468.998 1629.3 385.095 1671.75 301C1680.54 283.593 1689.31 266.3 1698.22 249C1701.14 243.327 1702.26 237.382 1705.88 232C1711.1 224.255 1713.52 213.124 1724 213M2216 217L2198.87 254L2170.48 309L2144 360L2130.29 387L2123 400M559 354C557.87 365.039 550.026 376.113 545.298 386C535.168 407.183 525.269 428.566 515.717 450C510.514 461.673 506.874 478.863 497 487M805 355C838.493 359.233 874.219 356 908 356C966.993 356 1025.96 357 1085 357C1107.94 357 1131.06 356.765 1154 357.594C1165.42 358.007 1180.61 360.633 1191 355M800 357C784.639 401.208 753.187 439.354 739 484C763.67 495.21 786.306 516.102 808 532.254C851.311 564.501 894.943 596.604 939 627.795C957.424 640.838 974.584 655.65 993 668.63C1002.06 675.018 1016.47 682.213 1022 692M2128 400C2151.89 397.331 2177.03 401.884 2201 401.999C2261.97 402.293 2323.01 402.34 2384 402.34C2400.08 402.34 2416.93 401.989 2433 403.089C2448.61 404.159 2464.52 406.696 2480 403M1993 400C1992.62 416.342 1978.06 434.401 1971.31 449C1951.49 491.841 1926.57 532.341 1906.32 575C1899.73 588.88 1892.33 602.37 1885.24 616C1883.3 619.716 1878.88 627.604 1881.77 631.682C1885.2 636.518 1905.2 634.707 1911 634.961C1941.05 636.276 1971.83 635 2002 635M505 483C517.012 486.108 529.681 485 542 485L602 485C624.36 485 646.758 484.657 669 485.259C691.19 485.86 716.063 489.073 738 485M1508 634C1514.95 628.998 1523.04 631.612 1531 631.961C1548.26 632.717 1565.72 632 1583 632C1652.12 632 1721.02 633 1790 633C1810.73 633 1832.37 631.206 1853 633.17C1857.57 633.604 1870.46 632.312 1872.67 637.279C1874.46 641.302 1869.98 647.571 1868.24 651C1861.97 663.38 1855.67 675.817 1849.03 688C1834.04 715.52 1820.74 743.973 1806.73 772C1797.51 790.434 1786.26 808.369 1780 828M1874 636L1879 632M2235 817L2252 832M407 825C469.352 825 531.955 826.968 594 826.992C669.185 827.021 744.962 825.205 820 827.015C867.316 828.156 914.64 826.854 962 828.015C984.922 828.576 1012.52 833.353 1035 828M401 962L856 964M403 1100L632 1102L717 1102.99L764 1104"/>
</svg>
