<?xml version="1.0" standalone="yes"?>
<svg width="824" height="344">
<path style="stroke:#000000; fill:none;" d="M448 118L448 135M145 131C213.911 129.578 283.003 130 352 130C367.813 130 384.319 128.404 400 129.209C414.083 129.933 432.342 133.037 446 129M449 131C462.066 128.574 474.932 130.237 488 129.985C518.643 129.393 549.346 130 580 130C602.782 130 629.762 124.706 652 130M498 256C494.959 260.411 478.563 259 473 259C449.524 259.002 425.379 256.945 402 259.17C379.896 261.273 357.218 260 335 260C273.966 260 211.873 256.79 151 260.845C133.466 262.013 115.576 261 98 261C90.3996 261 80.834 259.353 74 263M499 268C496.828 258.427 504.4 258 512 258L557 258L753 258"/>
</svg>
