<?xml version="1.0" standalone="yes"?>
<svg width="1960" height="1000">
<path style="stroke:#000000; fill:none;" d="M1339 122C1345.32 108.455 1359.75 113 1372 113C1403.7 113 1435.37 112 1467 112C1530.48 112 1593.66 113 1657 113C1677.18 113 1697.96 110.35 1718 112.714C1722.91 113.293 1729.38 111.691 1733.87 114.008C1745.42 119.97 1749.56 129.696 1756.57 140C1769.24 158.621 1781.86 178.393 1792.9 198C1810.11 228.559 1829.98 258.432 1848.88 288C1852.65 293.882 1868.46 312.644 1862.8 318.852C1857.41 324.75 1843.28 322 1836 322L1763 322C1688.98 322 1615 319.642 1541 322.896C1517.81 323.915 1494.19 320.069 1471 323C1464.83 301.579 1445.08 282.004 1433.65 263C1409.03 222.075 1384.12 178.944 1353.38 142.957C1347.74 136.36 1345.19 128.338 1339 122C1331.21 128.555 1334.24 136.845 1329.47 145C1321.89 157.934 1319.29 172.52 1315.52 187C1309.77 209.09 1303.61 230.994 1297.45 253C1267.92 358.329 1240.53 464.218 1212.87 570C1206.09 595.928 1200.08 622.328 1192.38 648C1188.7 660.263 1179.76 678.159 1183 691L1225 690.996L1315 690C1315 728.9 1313.56 768.245 1310.91 807C1309.99 820.499 1304.84 847.655 1313 859C1322.71 851.079 1325.52 831.792 1328.47 820C1335.97 790.104 1345.89 760.874 1353.37 731C1355.65 721.928 1358.44 713.047 1360.76 704C1361.64 700.558 1364.19 695.737 1361.97 692.318C1359.6 688.681 1352.67 690.04 1349 689.996C1339.11 689.878 1325.33 691.756 1316 689M1737 118C1723.85 139.175 1720.28 171.108 1713.41 195C1706.1 220.449 1697.95 245.59 1690.49 271C1685.93 286.502 1679.04 303.745 1679 320M1331 145C1338.15 154.933 1333.32 173.425 1333.01 185C1332.09 220.318 1329.58 255.704 1328.04 291C1324.01 382.971 1322.24 474.927 1319.99 567C1318.99 607.622 1315.66 648.424 1316 689M1355 145C1348.52 154.037 1358.77 170.9 1362.88 180C1376.67 210.544 1387.55 242.256 1401.14 273C1415.93 306.485 1427.86 341.129 1441.65 375C1443.65 379.914 1448.6 382.486 1450.4 387.054C1452.29 391.869 1448.87 397.169 1450.62 401.83C1454.59 412.427 1462.34 423.06 1466.81 434C1484.06 476.307 1500.7 518.81 1518.24 561C1529.54 588.18 1540.21 615.699 1551.18 643C1556.24 655.594 1559.69 672.67 1570 682C1576.87 674.571 1577.72 663.441 1580.61 654C1587.94 630.128 1594.25 605.965 1601.29 582C1617.53 526.782 1632.79 471.296 1648.7 416C1657.57 385.185 1669.04 354.538 1675 323M649 282L415 283L349 283.015L314 283C321.354 252.111 321.067 218.364 325.572 187C326.752 178.782 323.732 160.458 330.496 154.742C336.314 149.827 353.666 153 361 153C388.508 153 416.705 154.451 444 152.907C490.605 150.269 537.394 151.774 584 151.999C637.302 152.256 690.638 151.021 744 151C768.922 150.99 793.997 150 819 150C828.631 150 841.269 147.462 849 154C835.091 167.31 817.846 175.966 802 186.59C769.859 208.139 737.531 229.254 705 250.208C691.612 258.831 678.4 267.699 665 276.308C661.113 278.806 652.526 280.668 650.013 284.314C645.288 291.171 647.667 302.265 646.714 310C644.094 331.268 641.383 352.515 639.911 374C635.464 438.865 620.539 503.91 620 569C667.161 569 714.978 566.518 762 568.035C772.576 568.377 784.658 566.417 795 568.34C800.847 569.427 807.399 573.321 812.411 567.581C817.262 562.026 816.753 547.073 817.011 540C817.689 521.37 820.938 502.525 823.155 484C832.559 405.412 836.762 326.497 846.155 248C848.978 224.405 850.766 200.649 853.169 177C853.891 169.895 858.435 156.862 849 154M142 282C152.063 289.238 173.122 284.819 185 284.209C215.389 282.648 246.416 284 277 284C284.998 284 293.002 284.091 301 283.996C303.788 283.963 308.162 282.666 310.682 284.117C317.007 287.76 311.432 306.384 310.715 312C307.11 340.228 302.995 368.596 300.911 397C300.477 402.922 300.939 427.175 291.995 425.369C287.14 424.389 283.315 419.561 279.83 416.385C271.6 408.883 263.244 401.581 255 394.104C228.17 369.77 200.862 345.383 173.039 322.199C164.523 315.102 157.454 306.065 148 300.129C143.857 297.527 137.573 296.063 138.037 289.999C139.363 272.664 167.175 261.136 180 253.116C212.254 232.947 244.393 211.799 276 190.62C290.428 180.952 308.336 163.439 326 161M137 294C126.187 311.708 125.819 332.534 123.83 353C122.366 368.069 119.448 382.925 117.834 398C110.434 467.125 99.7917 535.998 90.7184 605C87.6352 628.447 86.4577 652.993 81.5448 676C80.3622 681.538 75.9307 696.488 82.0586 700.248C85.6963 702.481 91.3475 695.226 94 693.25C104.062 685.753 115.333 678.699 126 672.064C165.503 647.494 205.526 622.003 243.17 594.685C252.021 588.262 277.415 579.145 278.833 567.019C279.488 561.414 270.992 557.797 268.389 552.999C260.659 538.749 252.867 523.714 246.05 509C229.29 472.824 208.525 438.437 190.36 403C175.288 373.598 161.552 341.321 143 314M1861 322C1870.32 328.935 1860.23 346.778 1856.84 356C1845.72 386.349 1837.58 418.851 1828.36 450C1808.22 518.082 1787.67 586.048 1767.04 654C1753.34 699.142 1742.38 745.334 1726.98 790C1718.1 815.751 1711.15 842.723 1704.02 869C1702.39 875.004 1697.67 893.892 1691.86 896.397C1685.88 898.97 1675.49 896 1669 896L1610 896C1541.14 896 1471.5 893.859 1403 896.043C1381.59 896.726 1360.36 897 1339 897C1331.3 897 1316.95 898.08 1310.23 893.972C1301.95 888.915 1312.66 866.783 1313 859M1470 324C1469.57 332.463 1465.62 340.923 1463.21 349C1459.76 360.561 1458.04 375.724 1450 385M1570 682C1569.97 684.744 1570.28 688.223 1567.68 689.975C1564.6 692.054 1560.38 690.527 1557 690.505C1546.69 690.436 1536.36 690 1526 690L1411 690L1381 690C1377.7 690 1372.21 690.994 1369.36 688.972C1365.34 686.123 1368.69 675.77 1369.82 672C1374.54 656.202 1379.95 640.177 1383.45 624C1388.34 601.424 1396.5 579.098 1403.17 557C1412.46 526.211 1420.37 494.873 1429.45 464C1433.44 450.406 1437.93 436.721 1441.41 423C1443.07 416.445 1443.8 408.789 1449 404M297 427C297.105 435.882 302.104 435.913 307.91 441.115C315.934 448.304 323.86 455.635 332 462.718C362.344 489.123 392.907 515.338 423 542.05C434.043 551.853 446.914 570.758 462 572C463.911 584.386 483.979 596.432 493 604.282C516.352 624.601 538.349 646.454 562 666.41C572.708 675.444 588.696 684.758 592 699C564.587 705.527 533.022 702.256 505 701.039C490.225 700.398 474.889 702 460 702C376.887 702 293.994 703 211 703C180.402 703 149.519 705.267 119 704.861C108.838 704.726 93.5648 708.161 85 702M297 437C288.53 463.719 288.51 496.225 285.184 524C283.741 536.052 284.918 551.08 279 562M447 567C437.514 573.824 419.324 569.543 408 570.039C382.378 571.161 356.695 571.041 331 571C318.579 570.98 303.89 568.547 292 573C294.949 580.543 302.103 582.043 309 584.999C324.829 591.783 340.937 598.193 357 604.421C412.421 625.91 467.153 648.968 522 671.772C535.653 677.448 549.68 682.106 563 688.562C569.091 691.514 574.876 692.377 578 699M462 572C472.647 566.318 491.224 569.921 503 569.921C531.742 569.921 561.377 570.291 590 569.039C599.24 568.635 611.354 571.638 620 569M279 570L292 573M618 571C617.996 603.143 612.292 636.107 608.826 668C607.99 675.696 607.549 683.286 606.83 691C606.625 693.202 605.247 697.279 607.607 698.802C611.279 701.17 617.182 696.62 620 694.741C630.946 687.441 641.892 680.164 653 673.125C690.357 649.452 726.803 624.3 764 600.387C775.023 593.3 798.447 585.094 801 571M1367 688L1363 692M1570 690C1578.19 700.357 1582.3 713.064 1589.6 724C1613.35 759.58 1636.33 795.626 1658.89 832C1670.03 849.968 1679.49 874.547 1696 888M1183 691C1185.22 708.144 1199.02 722.62 1207.65 737C1228.78 772.208 1250.66 807.375 1272.78 842C1280.61 854.256 1291.14 882.417 1306 886M1561 693C1557.56 700.586 1549.32 705.961 1543 711.246C1528.41 723.456 1512.87 734.629 1498 746.45C1455.51 780.222 1412.19 813.314 1370.91 848.487C1353.69 863.163 1330.35 875.857 1318 895M606 699L593 700M82 701L75 707"/>
</svg>
