<?xml version="1.0" standalone="yes"?>
<svg width="1760" height="344">
<path style="stroke:#000000; fill:none;" d="M1106 113L1106 119C1143.97 123.799 1184.61 119.34 1223 119.34C1273.93 119.34 1324.96 119.265 1376 118.015C1475.04 115.588 1573.96 121 1673 121M145 119L629 121M957 119L1105 120L1105 128M1290 230L1291 242L1633 242M126 241C144.023 236.709 167.515 240.71 186 241.625C211.176 242.871 236.692 241.297 262 240.996C362 239.807 461.965 240.172 562 241M1078 242C1119.32 238.552 1162.49 242 1204 242C1231.7 242 1262.75 237.941 1290 243"/>
</svg>
