<?xml version="1.0" standalone="yes"?>
<svg width="1040" height="544">
<path style="stroke:#000000; fill:none;" d="M244 131C268.174 107.88 311.123 99.2036 343 93.196C468.505 69.5428 597.849 123.338 667.54 231C693.392 270.937 712.128 315.619 718.282 363C719.714 374.032 721 384.863 721 396C721 399.122 722.046 404.779 719.972 407.397C713.774 415.222 698.328 400.096 693 397.139C665.778 382.031 638.584 366.11 612 349.91C518.432 292.893 422.081 240.438 328 184.1C305.369 170.547 283.16 156.244 260 143.597C251.804 139.122 245.032 127.757 236.004 134.684C228.931 140.111 229.102 147.565 225.321 155C219.108 167.215 211.909 179.2 204.914 191C175.41 240.772 148.624 292.015 119.54 342C111.047 356.597 103.898 373.156 94.1605 386.892C92.0327 389.893 88.1537 390.185 86.0278 392.843C83.6488 395.817 84.4655 402.943 87.2932 405.308C92.7423 409.864 108.135 408 115 408L187 408C280.409 408 373.735 410 467 410C525.693 410 584.372 412 643 412C654.197 412 665.918 410.335 677 411.09C686.309 411.723 698.971 414.775 707 409M926 95C928.222 102.517 926.012 110.32 926 118L926 170C926 222.491 925 274.533 925 327C925 351.463 921.534 378.944 926 403M84 391C84 315.968 118.109 243.556 167.884 188.576C178.994 176.304 191.413 165.823 204 155.134C211.457 148.802 218.809 142.113 229 142"/>
</svg>
