<?xml version="1.0" standalone="yes"?>
<svg width="824" height="808">
<path style="stroke:#000000; fill:none;" d="M603 86L607 330C567.402 332.076 527.684 329.302 488 331.039C432.804 333.457 375.108 336.863 320 333.09C277.986 330.212 234.964 337.785 193 336.975C181.678 336.757 170.329 337 159 337C155.342 337 149.509 335.992 146.589 338.742C142.437 342.652 142.877 352.738 141.664 358C137.469 376.21 134.218 394.663 130.551 413C116.646 482.531 104.13 552.615 89.331 622C84.9153 642.703 80.4233 663.439 75.3742 684C74.1176 689.117 69.8578 701.384 75.1628 705.062C83.339 710.73 99.8154 704.239 109 704.015C138.623 703.291 168.23 704.343 198 703.039C236.888 701.337 276.119 703.459 315 702.996C375.64 702.275 437.02 700 498 700C525.049 700 551.907 699 579 699C586.404 699 602.862 702.573 608.856 698.258C613.508 694.909 616.067 685.246 617.934 680C621.783 669.181 627.113 658.557 631.594 648C649.906 604.857 668.605 561.525 688.177 519C709.519 472.631 727.864 424.81 750.601 379C756.08 367.961 759.941 355.703 765.913 345C767.77 341.672 772.4 335.409 769.932 331.434C768.03 328.371 763.047 329.005 760 329L734 329C702.664 329 671.256 330 640 330C633.502 330 612.407 327.074 608.028 332.603C603.653 338.127 607 357.026 607 364C607 393.991 609 423.856 609 454M256 105L256.747 180L262 425L263 518L264 575"/>
</svg>
