<?xml version="1.0" standalone="yes"?>
<svg width="1056" height="906">
<path style="stroke:#000000; fill:none;" d="M893 483C897.047 482.952 901.298 480.189 905 480.557C911.402 481.193 918.075 487.437 924.721 482.258C931.792 476.748 937.089 453.846 925 451.498C916.749 449.895 891.262 449.623 885.603 456.634C883.736 458.948 883.783 462.252 884.768 464.941C886.08 468.518 889.952 468.3 891.397 471.317C895.922 480.761 889.006 487.806 880 483C876.227 494.146 874.686 511.346 876.028 523C876.647 528.38 880.051 532.258 879.982 538C879.879 546.464 877.507 554.678 877.043 563C875.359 593.245 876.372 623.037 872.209 653C871.613 657.292 871.113 663.883 872.603 668C874.16 672.304 879.447 675.648 877.392 680.816C875.148 686.457 865.78 689.334 861.41 693.36C845.499 708.019 829.505 721.58 812.455 734.759C791.382 751.048 771.42 768.786 749 783.457C700.994 814.871 644.741 836.463 589 848.455C524.757 862.277 459.713 861.861 396 845.478C338.06 830.58 279.458 802.912 234.83 762.385C155.665 690.494 102.648 597.176 91.1736 490C88.0717 461.026 91.9946 432.596 95.7106 404C111 286.344 178.204 178.545 278 112.939C386.388 41.6843 537.051 27.7941 657 76.4159C683.24 87.0524 710.961 94.9706 737 106.411C782.15 126.248 823.014 152.762 859 186M92 456C109.486 457.38 127.354 456 145 456C149.448 456 159.718 457.852 162.987 454.142C168.206 448.22 164.257 433.319 165.3 426C168.591 402.904 173.403 379.635 179.454 357C193.879 303.049 228.64 249.156 269 211.043C360.394 124.739 492.832 101.069 611 137.205C646.607 148.094 676.682 164.949 709 182.702C759.936 210.683 807.057 245.446 838.826 295.17C854.642 319.923 864.016 347.486 872 375L884 372C881.317 367.749 876.606 367.859 872 367M867 195C873.53 200.303 883.417 208.977 887.687 216.129C889.982 219.974 889.612 225.173 892.585 228.701C897.713 234.788 905.157 238.92 910.407 245.455C928.539 268.028 939.469 297.791 943.181 326C943.657 329.625 944.16 335.652 946.027 338.787C947.944 342.006 952.114 342.562 954.397 345.39C959.938 352.257 953.706 359.277 949 364C942.622 357.408 940.488 347.455 945 339M893 230C885.74 239.978 891.493 251.76 889.675 263C887.148 278.621 888.654 294.197 887.961 310C887.096 329.73 885 349.115 885 369M949 364C949.7 373.255 960 373.941 963.107 382.001C968.938 397.129 963.278 416.421 963.961 432C964.164 436.655 965.652 445.773 961.682 449.11C955.003 454.725 943.795 450.574 936 452C936.277 438.57 937.652 425.352 937.974 412C938.367 395.768 936.933 381.076 949 369M884 374L880.201 388L883 456M873 377L878 386M965 450C965.461 457.778 962.999 465.365 963.313 473C963.729 483.082 968.484 487.041 959 495C953.85 487.834 957.535 481.777 963 476M874 525C862.484 533.137 861.519 541.625 855.729 554C848.802 568.805 840.551 583.443 831.416 597C818.623 615.987 802.433 631.244 786.495 647.59C760.963 673.777 738.144 703.28 706 722.33C638.093 762.576 557.784 791.374 478 785.91C306.795 774.186 165 628.717 165 456C403.773 456 643.093 455.932 882 451M936 452L933 455M886 469C881.962 473.354 880.259 477.068 880 483M893 469C898.558 470.893 903.994 472.636 905 479M926 483C933.06 490.944 934.022 505.609 934.907 516C935.213 519.583 934.246 527.759 936.772 530.534C938.978 532.957 942.138 529.722 944 528.475C948.252 525.627 960.355 518.84 959.052 512.302C958.132 507.682 951.024 507.991 949.662 512.133C948.626 515.284 951.17 517.834 953 520M959 495L950 508M958 498L961 510M952 524C956.292 532.044 953.776 541.466 946 546C951.768 559.634 937.299 559.098 935.178 570.005C933.467 578.803 933.69 588.513 930.451 597C919.96 624.492 898.449 654.061 878 675M946 546C942.343 545.434 934.373 540.216 939.604 536.028C942.527 533.687 949.453 535 953 535M938 543C933.887 548.718 933.69 557.797 937 564M889 664C896.098 674.989 912.716 670.662 925 676M895 673C891.896 675.467 886.632 677.909 885.487 682.005C882.716 691.915 892.241 705.637 902 706.867C914.314 708.42 919.966 701.695 928 694M878 682L884 682"/>
</svg>
