<?xml version="1.0" standalone="yes"?>
<svg width="1328" height="528">
<path style="stroke:#000000; fill:none;" d="M793 230C786.884 233.268 778.733 233.831 772 235.861C753.024 241.582 733.913 246.832 715 252.724C652.413 272.222 589.213 290.742 526 308.464C418.564 338.583 312.178 372.361 205 403.291C181.513 410.069 154.011 415.055 132 425.634C124.887 429.053 109.96 438.591 101.603 431.972C98.2839 429.343 99.9998 419.786 100 416C100.001 398.97 103.608 381.616 106.996 365C121.934 291.737 154.852 226.169 208 173C233.156 147.834 259.851 125.628 291 108.015C423.498 33.0928 594.554 45.4861 713 141C743.239 165.385 774.762 195.22 793 230M794 232C794.915 236.284 796.209 243.927 798.938 247.363C801.771 250.93 806.578 252.017 809.276 256.015C815.03 264.541 819.734 275.654 824.131 285C837.195 312.767 845.357 344.859 850.414 375C852.298 386.234 854.954 399.631 853.868 411C853.327 416.665 851.346 427.906 856.318 432.297C862.528 437.782 877.305 435 885 435L960 435C1030.86 435 1100.99 437 1172 437C1200.02 437 1228.01 439.212 1256 437M797 249L797 263L807 254M797 263C790.424 272.141 794.433 289.109 793.961 300C792.59 331.592 795.1 363.456 793.09 395C792.525 403.867 797.503 427.194 789.721 433.258C782.737 438.7 762.618 435 754 435L655 435C527.445 435 399.817 434 272 434C236.776 434 201.236 432.51 166 434.039C154.47 434.54 133.107 438.701 124 431M798 263C807.034 272.74 809.037 288.526 812.594 301C819.845 326.428 827.877 351.731 835.656 377C838.87 387.441 841.748 411.162 852 416M1057 423L1057 434M854 431C848.161 435.661 842.999 434.504 836 435.17C822.017 436.5 805.751 437.274 792 434"/>
</svg>
