<?xml version="1.0" standalone="yes"?>
<svg width="1696" height="656">
<path style="stroke:#000000; fill:none;" d="M951 105L951 113C971.948 119.64 1000.08 115 1022 115C1073.39 115 1124.62 114 1176 114M951 113L926 114.594L858 114L625 116M953 114L953 126M567 116C581.214 114.613 597.819 113.367 612 116M612 553C612 481.086 610 408.803 610 337L610.029 284C610.029 280.272 609.591 268.413 612.603 266.028C615.221 263.954 620.879 265 624 265C633.277 265 642.744 265.544 652 264.91C693.443 262.072 735.45 265 777 265C932.587 265 1088.9 264 1244 264L1382 264C1393.08 264.004 1403.95 263.003 1415 263.008C1419.29 263.01 1424.56 263.45 1426.4 268.055C1428.48 273.293 1427 281.422 1427 287L1427 330C1427 380.78 1423.02 433.48 1427.83 484C1429.42 500.711 1428 518.211 1428 535C1428 539.385 1429.83 549.109 1425.68 551.986C1420.64 555.481 1408.92 553 1403 553L1342 553C1265.88 553 1188.92 549.847 1113 552.161C871.776 559.513 630.39 555 389 555L182 555C160.884 555 140.109 555.65 119 555.129C112.318 554.964 104.642 557.803 98.1481 554.968C93.2505 552.829 94.9983 544.329 95 540C95.006 524.381 96 508.689 96 493C96 436.172 94 379.712 94 323C94 309.297 93.0009 295.671 93 282C92.9998 278.526 91.149 270.302 94.3573 268.028C100.653 263.566 119.362 267 127 267C155.642 267 184.416 267.588 213 266.871C331.493 263.899 450.378 265 569 265M1427 265C1441.27 262.35 1455.56 264 1470 264C1500.2 264 1530.75 265.285 1561 263.961C1572.7 263.448 1584.27 263 1596 263C1599.99 263 1606.39 261.829 1609.68 264.603C1613.48 267.804 1612 275.594 1612 280L1612 321C1612.02 376.964 1613.02 433.195 1613 489C1612.99 504.348 1612.81 519.643 1613 535C1613.05 539.473 1614.61 547.928 1610.68 551.103C1607.59 553.6 1603.57 552.058 1600 552.325C1588.36 553.194 1576.65 552.981 1565 553C1533.89 553.05 1503.09 553 1472 553C1458.55 553 1441.96 556.05 1429 553M581 265L611 266M1112 266L1112 551"/>
</svg>
