<?xml version="1.0" standalone="yes"?>
<svg width="816" height="720">
<path style="stroke:#000000; fill:none;" d="M119 371C167.438 371.005 216.291 374 265 374C315.797 374 367.316 371.07 418 373.468C467.065 375.79 517.845 377.266 567 375.104C602.004 373.565 637.864 375.586 673 376.004C685.291 376.15 705.33 380.043 716 373C724.223 384.236 721.859 395.853 720.286 409C716.952 436.858 709.166 464.179 698.286 490C651.82 600.273 533.397 674.27 414 671.545C350.994 670.107 285.692 649.463 235 611.486C150.995 548.552 104.625 439.312 119.16 335C127.743 273.4 156.828 218.323 197.428 172.015C223.577 142.19 260.93 119.445 297 103.87C338.242 86.0626 383.354 78.921 428 80.0146C454.713 80.669 487.302 84.184 511.996 94.8542C518.135 97.5066 522.478 103.176 529 105.708C532.864 107.208 536.16 104.799 540 105.549C544.91 106.51 550.442 109.921 555 112.03C616.89 140.667 665.289 194.64 694.735 255C707.601 281.374 717.998 311.484 720.025 341C720.698 350.808 725.123 363.845 717 371C675.485 319.497 642.212 261.671 602.08 209.039C586.271 188.306 572.153 166.575 557.474 145C549.622 133.46 538.972 121.569 535 108M519 101C498.146 118.786 472.286 133.871 449 148.323C443.041 152.021 433.542 163.056 426.09 162.712C421.625 162.506 412.77 154.731 409 152M527 106L513.486 135L488.089 196L437.739 322L419 371M424 164C401.834 186.091 370.16 202.8 344 219.834C297.768 249.939 252.925 282.119 207 312.715C188.852 324.805 171.418 338.278 153 349.921C144.879 355.055 131.554 361.222 129 371M717 372L716 373"/>
</svg>
