<?xml version="1.0" standalone="yes"?>
<svg width="1152" height="792">
<path style="stroke:#000000; fill:none;" d="M1016 328C997.531 324.406 980.293 314.63 962 309.69C928.265 300.579 889.874 300.906 856 308.765C843.936 311.563 831.713 315.086 820 319.165C817.183 320.146 809.286 323.525 808.042 318.812C805.705 309.951 818.194 293.647 822.083 286C834.708 261.178 847.841 236.619 860.839 212C865.199 203.743 875.713 190.078 873.732 180.148C872.845 175.706 850.771 174.184 846 172.656C819.257 164.088 780.267 150.07 785.59 116C786.434 110.6 787.805 106.493 791.158 102.089C805.894 82.7373 827.256 75.047 850 69.6636C888.325 60.5923 928.558 61.6825 967 69.7801C991.603 74.9626 1023.16 87.3026 1032.3 113C1034.72 119.795 1036.36 134.556 1032.14 140.892C1029.37 145.059 1023.04 147.052 1019 149.862C1005.07 159.538 991.401 165.97 975 170.572C967.85 172.578 960.273 174.317 953 175.881C950.332 176.455 945.962 176.618 945.647 180.144C945.215 184.97 949.615 191.001 951.847 195C956.906 204.061 960.562 213.864 965.564 223C977.412 244.639 987.906 267.037 999.208 289C1005.49 301.215 1013.96 314.21 1016 328M911 122C910.416 129.677 903.745 129.525 899.765 135.044C893.668 143.498 888.771 155.414 884.633 165C881.888 171.36 882.75 176.953 875 179M911 128C920.765 137.145 927.149 146.408 932.309 159C934.624 164.65 938.997 176.183 945 178M914 131C909.143 137.753 912.076 145.239 911.996 153C911.924 160.058 908.503 172.171 913.318 178.397C917.449 183.738 935.3 178.606 940 176M786 139C779.863 150.5 784 170.24 784 183L784 290C784 300.625 786.359 311.466 785.896 322C785.713 326.159 783.379 332.291 787.318 335.472C794.354 341.155 804.641 325.232 808 321M1032 142C1037.03 148.992 1035 159.701 1035 168C1035 187.147 1034.27 206.981 1035.1 226C1036.85 265.648 1038.99 307.985 1033.13 347C1031.79 355.915 1037.91 369.509 1032.97 377.776C1029.79 383.095 1020.05 388.614 1015 392.37C991.346 409.982 959.168 416.902 930 418.91C893.493 421.425 854.929 415.359 821 402.062C811.639 398.393 804.503 392.482 796.714 386.303C794.389 384.459 790.307 381.829 787.603 384.503C784.58 387.493 786.001 395.137 786 399L786 438C786 491.201 788.017 543.915 788 597C787.995 611.743 789.442 627.355 787.714 642C787.217 646.217 785.08 655.267 789.434 658.187C792.329 660.128 796.621 657.284 799 655.675C807.355 650.027 815.103 644.773 824 639.924C850.804 625.313 886.488 623.919 916 624L917 681M881 177C888.473 181.314 905.052 183.073 913 180M912 183L910.179 275L913.821 328L915 419M224 308.514C231.485 307.007 239.44 308.391 247 308.29C279.702 307.855 322.195 313.696 348 335.325C359.467 344.936 367.986 355.961 369.089 371C369.355 374.632 371.053 379.355 368.972 382.725C366.834 386.187 361.231 387.891 358.17 390.618C340.502 406.36 322.209 412.139 300 418.441C293.916 420.168 274.065 419.889 274.649 428.019C276.369 451.941 292.986 478.465 302.694 500C319.435 537.134 336.993 573.833 353.688 611C356.712 617.732 356.492 625.473 359.728 631.995C362.322 637.223 368.104 638.338 370.682 643.105C372.402 646.285 372.139 650.515 372.884 654C379.103 683.07 363.111 703.688 336 714.405C318.574 721.294 299.305 725.586 281 729.49C272.31 731.343 263.762 730.489 255 731.09C224.489 733.179 193.675 732.363 165 719.781C151.668 713.931 136.256 706.069 129.765 692C122.723 676.74 134.442 661.064 132.655 646C132.267 642.732 129.649 640.301 129.148 637C126.913 622.286 129.173 605.89 128.996 591C128.585 556.477 129.546 521.555 129.981 487C130.397 454.066 127.954 420.798 129.39 388C130.004 373.966 127.488 360.609 135.853 348C154.069 320.54 194.322 314.491 224 308.514M1016 328C1020.45 334.549 1023.44 341.645 1031 345M789 338L789 382M1034 379C1038.45 387.332 1036 400.691 1036 410C1036 432.763 1037.86 455.319 1037.26 478C1035.99 525.647 1037.43 574.069 1038 622C1038.18 637.156 1037.49 651.193 1036.41 666C1035.71 675.633 1036.47 685.103 1031.86 694C1022.32 712.405 999.78 722.991 981 728.7C941.341 740.757 894.353 743.783 854 733.285C841.803 730.111 831.617 729.118 820.83 722.051C816.484 719.204 811.102 718.553 807 715.566C791.085 703.979 779.527 678.728 791 660M246 381C247.609 385.71 252.767 386.144 255.497 390.133C260.931 398.073 264.068 422.38 274 424M246 384C238.712 392.565 222.593 409.69 226.032 422.852C228.115 430.822 243.51 421.289 246.427 431.019C248.311 437.301 247 445.489 247 452C247 465.999 247.132 480.006 247.029 494C246.736 533.547 248 573.37 248 613C272.202 613.5 298.45 616.372 322 622.039C333.876 624.896 345.545 634.32 358 633M369 384C374.063 391.638 372.033 398.526 372.259 407C372.562 418.334 372.996 429.639 373 441C373.018 488.06 374 534.898 374 582C374 594.404 374.06 606.639 374.001 619C373.962 626.963 375.225 634.454 370 641M243 388C249.41 396.912 247 415.233 247 426L268 424M130 389C139.972 391.879 146.046 400.832 155 405.677C173.558 415.717 202.737 426.115 224 425M914 420L914.455 491L917 623C946.75 626.76 978.336 629.86 1006 642.352C1017.1 647.365 1025.21 659.24 1036 663M222 427C203.731 480.532 181.003 532.697 159.348 585C152.085 602.543 147.841 628.178 136 643C148.551 646.442 165.592 630.956 177 626.312C197.947 617.785 224.638 615.765 247 614M248 615C251.715 630.604 249.252 650.132 248 666"/>
</svg>
