<?xml version="1.0" standalone="yes"?>
<svg width="936" height="992">
<path style="stroke:#000000; fill:none;" d="M470 101L454.34 130L406.139 217L237.309 520L176.336 631L144 689C134.564 679.112 129.231 666.197 123.413 654C109.059 623.912 99.4294 591.751 93.537 559C76.6005 464.862 92.9578 361.86 144.268 280C170.389 238.327 207.155 202.326 246 172.664C294.316 135.77 351.78 114.87 411 103.739C424.388 101.223 437.342 99.5587 451 98.9606C458.031 98.6528 463.857 96.5813 470 101M816 682C803.925 667.796 795.908 648.247 786.768 632C770.123 602.413 752.524 573.312 735.29 544C679.344 448.846 622.892 353.967 568.336 258C547.927 222.098 527.089 186.477 505.995 151C499.878 140.713 490.552 117.533 478 115L474 100C481.978 95.7424 492.367 98.5826 501 98.9606C525.689 100.042 549.983 103.535 574 109.626C679.597 136.406 769.185 205.725 822.06 301C884.822 414.089 886.134 559.006 824.471 672.996C822.083 677.41 817.475 679.755 814.968 684.015C810.823 691.06 809.799 699.626 805.06 707C778.061 749.014 740.811 787.043 699 814.457C668.525 834.438 636.753 850.845 602 861.955C567.233 873.07 527.846 883.62 491 881.734C471.494 880.735 455.139 866.02 438 855.927C406.183 837.189 373.144 820.833 341 802.862C293.607 776.365 245.128 751.9 198 724.914C179.202 714.151 155.847 707.979 144 690M470 101L473 100M478 115C474.264 122 476.392 130.426 476.91 138C477.561 147.507 476.751 157.428 476.985 167C478.062 210.95 480 255.041 480 299C480 353.666 482.736 408.37 482.999 463C483.352 536.061 480.86 609.757 484.039 683C485.684 720.885 483.271 759.266 485.209 797C486.132 814.972 485.993 832.969 486 851C486.004 860.115 487.619 870.141 485 879M148 693L813 686M154 704C155.452 714.561 163.598 723.116 170.116 731.09C181.539 745.064 193.07 758.167 205.576 771.17C255.932 823.528 327.126 859.162 398 873.449C413.585 876.591 429.196 878.532 445 880.173C453.627 881.069 462.409 883.045 471 881"/>
</svg>
