<?xml version="1.0" standalone="yes"?>
<svg width="856" height="1256">
<path style="stroke:#000000; fill:none;" d="M118 484C114.345 468.65 117.278 450.587 117.961 435C118.819 415.386 117.992 395.537 118 376C118.026 308.569 113.066 240.216 117.816 173C119.348 151.32 116.992 128.878 117 107C117.002 101.281 115.792 86.8193 119.603 82.4337C124.572 76.7166 136.006 81.3059 142 82.3843C159.423 85.519 179.304 83 197 83C276.528 83 355.492 82 435 82C457.357 82 479.718 81.2689 502 81.0039C506.436 80.9512 521.117 78.6851 523.397 83.3179C526.449 89.522 524 102.127 524 109L524 171C524 244.601 525.005 318.403 525 392C524.998 415.052 524 437.944 524 461C524 467.274 526.853 481.316 518.981 483.566C511.118 485.814 500.182 484 492 484L436 484C390.793 484 345.031 486.016 300 484.985C278.946 484.503 258.04 484.746 237 484.996C227.59 485.108 218.384 483.344 209 484.576C186.504 487.529 162.691 486 140 486C135.061 486 119.177 483.054 118.148 489.059C116.545 498.416 118.199 507.661 117.985 517C117.465 539.734 117.428 562.264 117.985 585C119.16 632.936 118 681.048 118 729L118 785C118 789.493 116.548 801.921 120.603 804.958C126.182 809.134 140.185 797.953 145 795.375C167.659 783.242 191.12 772.606 214 760.861C287.02 723.379 360.312 686.289 434 649.966C453.196 640.504 472.273 629.178 492 620.951C500.313 617.484 517.218 613.448 522.931 606.486C527.601 600.796 524 581.414 524 574C524 553.995 523 534.05 523 514C523 504.173 522.211 492.436 525 483M525 483C584.14 483 643.913 479.373 703 481.961C719.61 482.688 735.838 480.921 752 484.366C756.491 485.323 762.445 482.191 766.566 485.028C771.705 488.564 769 504.445 769 510C769 533.962 765.907 559.229 768.17 583C772.014 623.396 769 665.396 769 706C769 774.059 770 841.966 770 910L770 1082C770 1094.67 771.126 1107.4 770.996 1120C770.919 1127.53 767.634 1133.57 776 1137M751 485C749.607 491.846 743.725 494.265 738 497.335C725.703 503.93 713.176 510.167 701 517.006C659.898 540.094 616.138 562.361 573 581.5C558.414 587.971 542.197 601.664 526 602M524 609C526.707 672.057 525 735.702 525 799C525 865.608 526.591 932.575 524.985 999C524.182 1032.24 524.998 1065.63 525 1099C525 1106.43 522.246 1129.05 527.603 1134.4C530.62 1137.41 538.115 1136 542 1136C554.045 1136 567.071 1134.6 579 1136.3C614.283 1141.33 651.476 1137.43 687 1137C713.494 1136.69 742.935 1140.84 769 1136M120 806C120 885.842 118.995 966.088 119 1046C119.001 1067.35 120 1088.72 120 1110C120 1116.42 117.393 1130.23 121.028 1135.68C124.386 1140.72 138.648 1137.66 144 1138.17C168.543 1140.51 192.478 1139 217 1139C286.524 1139 355.531 1138 425 1138C447.079 1138 469.056 1137.04 491 1137C502.258 1136.98 516.188 1139.2 527 1136"/>
</svg>
