<?xml version="1.0" standalone="yes"?>
<svg width="1312" height="960">
<path style="stroke:#000000; fill:none;" d="M190 398C190 375.62 200.482 354.007 207.265 333C220.333 292.524 231.087 251.107 245.359 211C249.657 198.922 254.617 186.325 257.971 174C260.351 165.257 260.035 156.265 271 156C272.748 169.453 287.801 182.818 296.299 193.17C314.948 215.886 331.775 240.11 350.471 262.83C357.758 271.687 364.03 281.361 371.424 290.089C373.918 293.034 377.857 297.693 375.941 301.895C373.953 306.254 366.059 309.104 362 311.139C350.955 316.676 339.922 322.285 329 328.179C296.046 345.963 263.034 363.683 230 381.315C221.098 386.067 212.069 391.038 203 395.411C199.874 396.918 195.07 396.788 192.422 398.988C189.709 401.244 192.197 406.469 193.414 409C197.5 417.493 206.432 425.471 212.242 433C214.835 436.361 219.346 443.387 212.938 445.427C199.991 449.549 181.357 445.624 168 445.039C143.435 443.964 118.591 445 94 445C85.0218 445 75.9703 444.665 67 445.039C63.766 445.174 59.2776 446.629 57.6034 442.848C54.9758 436.914 58.514 427.912 59.7901 422C63.3764 405.386 68.0435 388.734 70.8056 372C77.0708 334.043 87.714 296.604 95.4853 259C102.776 223.721 108.886 188.01 117.525 153C121.976 134.967 127.396 115.368 129.819 97C130.646 90.7362 132.141 75.4756 138.133 72.0278C147.097 66.8708 168.693 71 179 71C214.429 71 249.517 72.057 285 72C367.283 71.8677 449.855 72.132 532 72C569.219 71.9402 606.667 70.0569 644 71.4058C672.496 72.4355 701.44 71 730 71C740.509 71 756.624 67.9963 766 73C749.62 111.002 727.128 146.214 708.231 183C682.223 233.63 655.739 284.341 627.784 334C612.198 361.687 598.958 390.669 582.734 418C578.235 425.578 575.491 437.382 569.49 443.682C565.039 448.356 555.578 445.469 550 445.089C536.59 444.176 522.536 444.62 509 444.259C503.24 444.106 496.691 446.689 491.055 444.4C486.44 442.525 486.024 436.722 483.508 433C476.301 422.334 467.781 412.427 460.103 402.089C434.686 367.865 405.725 336.313 382 301C390.488 293.622 402.909 289.029 413 284.058C425.834 277.736 438.104 270.248 451 264.019C488.055 246.123 523.469 224.903 560 206.001C572.02 199.781 584.741 194.214 595.985 186.616C602.716 182.067 608.393 174.852 617.907 177.322C624.676 179.079 632.367 192.452 636.19 198C647.162 213.925 659.466 231.189 674 244M272 155C306.338 155 340.758 159.566 375 161.911C422.082 165.135 469.122 166.369 516 170.83C534.454 172.586 553.589 174.065 572 174.96C581.961 175.444 593.459 172.786 602 179M676 250C684.342 256.748 690.074 266.643 696.665 275C711.057 293.249 724.99 311.75 739.36 330C760.409 356.731 783.185 382.107 803.982 409C834.072 447.913 863.175 487.943 894.46 526.004C901.492 534.559 909.331 543.233 915.502 552.424C917.13 554.851 917.109 558.099 918.938 560.352C921.32 563.286 925.734 563.51 928.146 566.474C935.764 575.834 943.098 587.066 950.478 597C956.091 604.555 968.731 613.876 969.242 623.985C969.643 631.906 954.594 639.004 949 642.224C925.597 655.693 901.064 668.286 877 680.561C823.509 707.846 770.856 736.826 718 765.381C692.181 779.33 664.921 791.709 640 807.228C618.48 820.63 594.716 832.351 572 843.753C563.687 847.926 555.012 855.751 545 853.195C534.489 850.512 527.502 833.941 521.094 826C499.967 799.819 476.965 773.732 458.085 746C442.488 723.092 422.029 702.613 404.872 680.83C369.26 635.618 337.066 589.615 300.675 545C286.441 527.549 272.862 509.447 258.726 492C246.691 477.146 232.442 463.516 225 446C232.603 442.341 241.875 444.354 250 444.911C262.244 445.749 274.729 445.483 287 445.961C333.888 447.788 381.173 445.601 428 445.011C441.32 444.843 454.68 444.845 468 445.004C475.397 445.092 481.282 447.116 488 443M378 301L382 301M217 443L225 446M498 446C502.087 463.657 517.517 476.716 528.545 490.424C540.921 505.808 554.128 521.645 565.179 538C569.788 544.821 573.165 554.132 578.012 560.301C580.053 562.898 583.961 562.991 586.161 565.499C589.311 569.09 591.272 574.132 594.235 578C601.333 587.264 614.888 599.347 617 611C699.321 612.699 781.603 622 864 622C886.729 622 909.242 625 932 625C941.9 625 956.015 623.626 964 630M577 561C565.565 567.102 543.888 563 531 563C494.291 563 457.656 564 421 564C410.307 564 399.626 563.796 389 563.545C385.633 563.465 380.445 561.52 377.317 563.198C374.044 564.953 372.781 573.626 371.671 577C367.777 588.832 365.114 605.415 357 615M918 561C910.017 565.89 899.059 564 890 564C868.564 564 847.332 563.104 826 563.001C746.607 562.618 667.267 563 588 563M930 564L1012 563.999L1167 564L1231 565L1257 565M1254 567C1252 578.236 1243.86 588.48 1238.02 598C1226.44 616.874 1215.72 636.243 1203.95 655C1169.84 709.359 1138.73 766.278 1106.56 822C1095.27 841.573 1082.98 860.463 1071.65 880C1068.17 886.01 1063.79 898.748 1056.96 901.397C1045.72 905.753 1027.89 901 1016 901L914 901L566 901L339 901L284 901C279.869 901 267.791 903.045 265.042 899.397C261.97 895.317 266.462 886.115 267.715 882C272.808 865.264 278.421 848.536 284.215 832C302.264 780.486 318.375 728.009 337.775 677C344.274 659.914 346.727 637.077 357 622M616 612L602.784 656L565.925 788L548 853"/>
</svg>
