<?xml version="1.0" standalone="yes"?>
<svg width="1808" height="528">
<path style="stroke:#000000; fill:none;" d="M120 92C158.459 92 196.657 94.5547 235 94.9962C267.229 95.3672 299.669 93.2224 332 94.0146C351.587 94.4946 371.463 93.738 391 94.2593C405.276 94.6402 422.192 98.1959 436 94M609 98L739 98L1026 99M1195 100L1701 99M368 190C393.293 194.696 422.276 191 448 191C496.371 191 544.687 192 593 192M370 285L650 286M1217 288C1262.23 288 1307.81 287.92 1353 287.992C1374.05 288.026 1399.5 284.119 1420 289M359 381L515 382M1211 383C1231.9 378.024 1256.67 383 1278 383C1325.57 383 1373.34 382 1421 382C1444.63 382 1470.77 386.312 1494 382M361 465L550 466M1212 465L1554 466"/>
</svg>
