<?xml version="1.0" standalone="yes"?>
<svg width="1928" height="672">
<path style="stroke:#000000; fill:none;" d="M1678 254L1641 253L1564 253.821L1355 252C1352.26 217.258 1355.32 182.755 1353.96 148C1353.6 138.695 1353.77 129.323 1353.96 120C1354.02 117.164 1352.31 112.031 1354.07 109.603C1356.7 105.959 1368.95 108 1373 108L1428 108L1609 108C1624.69 108 1640.39 108.975 1656 109C1663.88 109.013 1672.12 106.456 1679 111C1687.14 105.143 1696.83 109.658 1706 108.829C1734.56 106.249 1765.22 108.046 1794 108C1801.56 107.988 1822.02 104.231 1827.4 110.434C1830.89 114.468 1828 125.846 1828 131L1828 189L1828 236C1828 240.241 1829.66 249.13 1826.4 252.397C1823.81 254.981 1818.31 254 1815 254C1804.68 254 1794.25 254.495 1784 253.285C1775.26 252.254 1766.72 254.342 1758 253.961C1731.71 252.811 1705.36 253 1679 253C1679 227.085 1677.9 201.002 1679.04 175C1679.94 154.408 1682.79 131.406 1679 111M785 410C785 353.91 783 298.111 783 242L783 199C783 194.875 781.338 186 784.028 182.603C786.965 178.895 798.61 181.152 803 180.576C824.685 177.728 848.994 181 871 181C892.48 181 914.665 181.681 936 180.625C943.995 180.229 960.791 176.637 967.566 181.938C971.283 184.847 970 191.869 970 196L970 233C970 277.411 972.124 322.688 969.089 367C968.332 378.054 971.025 388.969 969.576 400C969.163 403.142 969.687 408.123 967.397 410.593C963.758 414.516 947.327 413 942 413L869 413C779.391 413 689.488 415.55 600 412.316C579.838 411.588 559.182 413.008 539 413C533.731 412.998 520.57 415.366 516.603 411.397C513.65 408.442 515.099 400.845 515.025 397C514.768 383.672 515.311 370.326 514.985 357C513.971 315.503 515 273.613 515 232L515 198C515 193.988 516.309 187.144 514.397 183.514C511.685 178.368 494.035 180.891 489 181.015C463.267 181.645 437.81 181 412 181C334.887 181 257.147 181.962 180 181.992C159.204 182 137.805 183.268 117 181.91C105.249 181.143 88.5942 177.939 77.1474 181.318C71.7085 182.923 73.8078 190.929 73.9599 195C74.4154 207.194 74 219.693 74 232L74 369L74 402C74.0003 405.979 73.1227 411.438 77.1481 413.821C84.5088 418.179 101.589 415.179 110 415.014C135.978 414.503 162.016 415 188 415L408 415C430.037 415 451.941 414 474 414C486.838 414 502.674 415.643 515 412M516 181L577 181L598.397 182.603L599.83 199L600 240L599 411M600 181C643.333 181 686.75 181.791 730 181.999C744.911 182.071 769.648 175.874 783 183M1354 253C1354 331.028 1355.9 410.041 1353.99 488C1353.44 510.316 1354 532.583 1354 555C1354 561.418 1351.39 575.235 1355.03 580.682C1357.66 584.631 1365.92 582.848 1370 583.282C1385.39 584.914 1402.42 584.999 1418 585C1435.48 585.001 1452.61 582.801 1470 582.039C1498.55 580.789 1527.42 582 1556 582C1572.96 582 1591.24 580.223 1608 582.424C1625.55 584.729 1644.3 583 1662 583C1666.02 583 1677.5 584.875 1679.76 580.486C1681.94 576.266 1679 562.275 1679 557L1679 491L1679 255M1828 255C1828 336.663 1829.58 419.514 1826.04 501C1825.17 520.921 1826 541.059 1826 561C1826 566.101 1828.25 578.541 1824.4 582.397C1821.97 584.822 1817.1 584 1814 584L1789 584C1753.73 584 1715.71 586.878 1681 581"/>
</svg>
