<?xml version="1.0" standalone="yes"?>
<svg width="1224" height="704">
<path style="stroke:#000000; fill:none;" d="M1017 1L1009 2M273 2L289 3M667 2L684 2M315 162L278 170.238L237 188.258L211 199C212.784 186.932 223.978 177.617 231.914 169C247.29 152.305 261.978 134.98 277.05 118C281.343 113.164 294.004 92.5123 301.762 97.3334C305.687 99.7722 304.474 109.8 305.36 114C308.677 129.721 309.412 146.623 314 162C337.127 156.494 365.732 157.464 389 161.804C395.008 162.925 414.907 170.509 419.624 166.357C422.392 163.921 419.756 160.401 417.694 158.557C412.156 153.603 403.589 150.421 397 147.028C375.45 135.93 354.565 123.617 333 112.578C323.801 107.869 315.43 100.859 305 99M314 165C328.57 242.33 345.403 320.88 354 399M422 165L505 209.566L544 226M844 265L849 271C837.325 278.039 844.1 263.749 848.166 259.17C862.566 242.952 877.385 227.025 892 211C895.311 207.369 905.027 191.794 911.516 196.072C914.566 198.082 913.97 205.78 914.424 209C915.997 220.16 916.628 233.639 921 244C942.609 238.841 965.165 240.253 987 242.559C991.149 242.998 994.884 241.003 999 241.862C1025.32 247.356 1048.93 263.493 1072 276.384C1081.53 281.707 1091.18 283.745 1101 288.01C1114.37 293.815 1126.78 301.855 1140 308M914 197C933.382 198.705 954.394 215.912 972 223.829C980.72 227.751 990.5 230.743 996 239M211 199C198.137 210.848 187.625 224.237 175.61 236.625C162.6 250.039 148.098 263.263 138.934 280C135.975 285.406 135.446 292.27 133.014 298C129.277 306.803 124.429 314.289 123 324L195 347.6L291 379.366L338 394C338.38 387.112 332.71 382.095 327.961 377.715C317.681 368.232 307.752 358.399 297 349.435C255.259 314.638 214.497 275.391 176 237M508 213L512 221L519 215M513 221C551.792 254.89 583.604 307.216 590.054 359C591.47 370.368 594.456 381.47 594.961 393C596.523 428.673 588.265 463.739 576.047 497C569.975 513.531 559.316 528.468 549.591 543C471.852 659.16 301.912 677.388 196 590.83C137.101 542.694 99.0763 459.228 109.791 383C112.348 364.809 112.672 339.753 123 324M849 271C872.657 261.245 893.313 248.999 919 244M922 246C922.048 263.476 927.198 281.927 930.714 299C936.513 327.156 941.223 355.592 945.92 384C947.964 396.368 950.625 408.535 952.089 421C952.518 424.645 955.094 429.316 952.968 432.812C950.559 436.776 945.577 434.283 942 434.201C929.635 433.918 920.699 427.346 909 424.372C881.735 417.442 855.623 404.812 829 395.671C809.581 389.003 784.383 383.66 767 373C772.06 364.35 777.375 352.166 777 342C770.35 343.604 753.644 358.288 755.712 365.981C757.117 371.205 764.845 370.053 765.651 375.109C766.674 381.52 762.477 389.829 761 396C742.628 472.744 772.648 549.657 833 598.739C907.202 659.085 1022.48 651.933 1091.99 587.829C1124.55 557.795 1146.47 516.697 1153.56 473C1161.16 426.132 1151.63 375.392 1125.88 335C1119.39 324.829 1112.21 314.806 1103.91 306.004C1097.22 298.903 1089.86 293.664 1085 285M841 273L817.004 294.965L810.198 305L818.17 315.439L842.424 337.245L912 401.985L941 432M134 292L128 290C129.619 284.959 131.893 283.232 137 282M123 321C97.5065 320.786 113.169 298.326 127 291M778 342C785.892 330.434 796.408 312.551 809 306M339 392C343.541 396.036 347.025 396.983 353 397"/>
</svg>
