<?xml version="1.0" encoding="UTF-8" standalone="no"?>
<!-- Created with Inkscape (http://www.inkscape.org/) -->
<svg id="svg22605" xmlns:rdf="http://www.w3.org/1999/02/22-rdf-syntax-ns#" xmlns="http://www.w3.org/2000/svg" height="1038" width="1026" version="1.1" xmlns:cc="http://creativecommons.org/ns#" xmlns:dc="http://purl.org/dc/elements/1.1/">
 <metadata id="metadata22610">
  <rdf:RDF>
   <cc:Work rdf:about="">
    <dc:format>image/svg+xml</dc:format>
    <dc:type rdf:resource="http://purl.org/dc/dcmitype/StillImage"/>
    <dc:title/>
   </cc:Work>
  </rdf:RDF>
 </metadata>
 <g id="layer12">
  <path id="path24596" d="m961.73,542.25a446.45,445.52,0,1,1,-892.9,0,446.45,445.52,0,1,1,892.9,0z" fill-opacity="0" transform="translate(10,6)" stroke-dashoffset="0" stroke="#d40000" stroke-miterlimit="4" stroke-dasharray="none" stroke-width="4"/>
  <path id="path24598" stroke-linejoin="miter" d="M96.731,414.83,256.71,904.06,794.31,907.78,948.71,418.55,522.72,106.03z" stroke="#000" stroke-linecap="butt" stroke-width="1px" fill="none"/>
  <path id="path24600" stroke-linejoin="miter" d="M141.38,771.99,522.72,104.17,911.51,771.99z" stroke="#000" stroke-linecap="butt" stroke-width="1px" fill="none"/>
  <path id="path24602" stroke-linejoin="miter" d="M141.38,771.99,81.849,600.85,98.591,416.69,189.74,251.13,346,141.38l176.72-39.065,184.16,40.925,146.96,107.89,93.011,159.98,20.462,187.88-55.806,171.14-115.33,135.8-176.72,78.129-199.04-1.8602-161.84-76.269z" stroke="#000" stroke-linecap="butt" stroke-width="1px" fill="none"/>
  <text id="text24604" style="letter-spacing:0px;word-spacing:0px;" font-weight="normal" xml:space="preserve" font-size="40px" font-style="normal" y="433.43011" x="42.784946" font-family="Sans" line-height="125%" fill="#000000"><tspan id="tspan24606" x="42.784946" y="433.43011">Β</tspan></text>
  <text id="text24608" style="letter-spacing:0px;word-spacing:0px;" font-weight="normal" xml:space="preserve" font-size="40px" font-style="normal" y="89.290321" x="502.25806" font-family="Sans" line-height="125%" fill="#000000"><tspan id="tspan24610" x="502.25806" y="89.290321">Α</tspan></text>
  <text id="text24612" style="letter-spacing:0px;word-spacing:0px;" font-weight="normal" xml:space="preserve" font-size="40px" font-style="normal" y="626.89246" x="31.623655" font-family="Sans" line-height="125%" fill="#000000"><tspan id="tspan24614" x="31.623655" y="626.89246">Ε</tspan></text>
  <text id="text24616" style="letter-spacing:0px;word-spacing:0px;" font-weight="normal" xml:space="preserve" font-size="40px" font-style="normal" y="807.33331" x="89.290321" font-family="Sans" line-height="125%" fill="#000000"><tspan id="tspan24618" x="89.290321" y="807.33331">Γ</tspan></text>
  <text id="text24620" style="letter-spacing:0px;word-spacing:0px;" font-weight="normal" xml:space="preserve" font-size="40px" font-style="normal" y="814.77417" x="922.66669" font-family="Sans" line-height="125%" fill="#000000"><tspan id="tspan24622" x="922.66669" y="814.77417">Δ</tspan></text>
 </g>
</svg>
