<?xml version="1.0" encoding="UTF-8" standalone="no"?>
<!-- Created with Inkscape (http://www.inkscape.org/) -->

<svg
   xmlns:dc="http://purl.org/dc/elements/1.1/"
   xmlns:cc="http://creativecommons.org/ns#"
   xmlns:rdf="http://www.w3.org/1999/02/22-rdf-syntax-ns#"
   xmlns:svg="http://www.w3.org/2000/svg"
   xmlns="http://www.w3.org/2000/svg"
   xmlns:inkscape="http://www.inkscape.org/namespaces/inkscape"
   version="1.1"
   width="846"
   height="1080"
   id="svg2">
  <metadata
     id="metadata10">
    <rdf:RDF>
      <cc:Work
         rdf:about="">
        <dc:format>image/svg+xml</dc:format>
        <dc:type
           rdf:resource="http://purl.org/dc/dcmitype/StillImage" />
      </cc:Work>
    </rdf:RDF>
  </metadata>
  <defs
     id="defs8" />
  <path
     d="m 576,546 c -14.4,1.137 -21.796,10.916 -35,16.244 -13.716,5.534 -28.434,9.206 -41.871,14.577 -6.41,2.562 -12.557,8.994 -19.129,12.198 -11.568,5.637 -24.116,9.44 -36,14.381 -6.135,2.55 -13.176,4.851 -18.961,8.041 -4.042,2.23 -6.098,6.069 -11.04,6.5 -11.328,0.99 -20.906,-6.619 -30.999,-11.081 -21.561,-9.531 -43.847,-19.724 -66,-27.77 -16.26,-5.907 -35.036,-11.542 -49.957,-20.354 -3.41,-2.014 -4.312,-6.349 -7.541,-8.172 -4.264,-2.407 -14.89,-0.283 -16.809,-5.712 -2.192,-6.201 3.371,-16.323 5.728,-21.852 7.416,-17.393 16.217,-34.427 23.115,-52 28.176,-71.775 64.207,-140.644 93.475,-212 8.668,-21.133 17.608,-42.366 27.339,-63 2.179,-4.622 5.382,-19.602 12.64,-17.914 5.181,1.206 7.368,7.7 9.318,11.914 4.649,10.046 9.553,20.034 14.325,30 20.625,43.08 42.603,86.52 59.835,131 7.437,19.197 19.363,37.273 27.979,56 15.864,34.482 33.083,68.491 48.885,103 5.09,11.116 7.603,24.452 12.811,34.961 1.893,3.819 5.849,6.241 7.942,10.043 11.502,20.899 21.645,43.302 31.606,64.996 12.163,26.487 24.85,52.611 37.189,79 2.63,5.624 2.309,12.633 5.14,17.91 8.835,16.474 18.341,33.029 26.86,50.09 11.677,23.388 20.673,49.167 35.12,71"
     inkscape:connector-curvature="0"
     id="path2995"
     style="fill:none;stroke:#000000" />
  <path
     d="m 261,550 c 6.056,-4.356 13.827,-3 21,-3 14.724,0 29.297,-1 44,-1 55.639,0 111.211,-1 167,-1 12.915,0 26.116,0.793 39,-0.089 9.774,-0.67 20.651,-3.275 29,3.089"
     inkscape:connector-curvature="0"
     id="path2993"
     style="fill:none;stroke:#000000" />
  <path
     d="m 402,617 c -5.671,7.53 -12.723,9.096 -21,12.886 -13.231,6.058 -26.603,11.733 -40,17.399 -35.29,14.927 -70.965,29.309 -106,44.885 -20.397,9.068 -45.456,23.862 -68,24.83 0.89,-20.735 12.713,-38.796 21.627,-57 11.45,-23.381 21.541,-47.95 31.447,-72 3.888,-9.44 8.833,-18.443 12.458,-28 2.269,-5.982 1.32,-11.077 8.468,-13"
     inkscape:connector-curvature="0"
     id="path2991"
     style="fill:none;stroke:#000000" />
  <path
     d="m 420,619 c 3.431,6.257 10.722,7.961 17,10.575 13.375,5.57 26.693,11.252 40,16.993 42.338,18.267 85.067,36.34 128,53.127 16.873,6.598 34.582,17.514 53,18.305"
     inkscape:connector-curvature="0"
     id="path2989"
     style="fill:none;stroke:#000000" />
  <path
     d="m 167,717 c -12.67,12.706 -16.845,31.039 -24.398,47 -12.542,26.502 -26.019,53.12 -37.602,80"
     inkscape:connector-curvature="0"
     id="path4"
     style="fill:none;stroke:#000000" />
</svg>
