<?xml version="1.0" encoding="UTF-8" standalone="no"?>
<!-- Created with Inkscape (http://www.inkscape.org/) -->

<svg
   xmlns:dc="http://purl.org/dc/elements/1.1/"
   xmlns:cc="http://creativecommons.org/ns#"
   xmlns:rdf="http://www.w3.org/1999/02/22-rdf-syntax-ns#"
   xmlns:svg="http://www.w3.org/2000/svg"
   xmlns="http://www.w3.org/2000/svg"
   xmlns:inkscape="http://www.inkscape.org/namespaces/inkscape"
   version="1.1"
   width="1288"
   height="889"
   id="svg2">
  <metadata
     id="metadata10">
    <rdf:RDF>
      <cc:Work
         rdf:about="">
        <dc:format>image/svg+xml</dc:format>
        <dc:type
           rdf:resource="http://purl.org/dc/dcmitype/StillImage" />
      </cc:Work>
    </rdf:RDF>
  </metadata>
  <defs
     id="defs8" />
  <path
     d="m 814,450 c -8.18,4.5 -17.9,3 -27,3 l -53,0 c -63.576,0.004 -127.304,3 -191,3 l -60,0 c -5.466,0 -17.605,2.278 -20.972,-3.228 -5.51,-9.013 4.399,-14.529 8.353,-20.777 10.398,-16.429 20.056,-33.994 29.527,-50.995 31.949,-57.349 65.074,-114.032 97.665,-171 8.852,-15.474 18.958,-30.987 26.747,-47 2.464,-5.066 1.808,-14.774 6.089,-18.397 3.198,-2.706 7.886,-0.777 11.305,-3.206 25.748,-18.286 54.774,-28.583 85.286,-36.821 157.949,-42.6456 321.07,35.398 403.42,173.424 64.32,107.823 58.72,254.84 -5.35,361 -20.71,34.322 -47.53,63.124 -77.07,89.83 -79.217,71.618 -205.589,104.087 -309,76.452 -22.953,-6.134 -44.072,-13.936 -66,-23.054 -7.37,-3.064 -20.004,-6.497 -23.894,-14.282 -3.875,-7.758 10.249,-13.993 14.894,-17.459 20.197,-15.073 39.214,-30.52 56.996,-48.487 48.532,-49.037 84.471,-122.163 92.177,-191 1.425,-12.726 2.785,-25.267 3.997,-38 0.803,-8.445 2.158,-15.789 -3.17,-23"
     inkscape:connector-curvature="0"
     id="path2997"
     style="fill:none;stroke:#000000" />
  <path
     d="m 461,454 c -5.81,7.622 -3.364,17.985 -2.285,27 2.594,21.692 4.319,43.983 10.515,65 19.828,67.257 54.939,124.119 105.771,172.961 18.195,17.483 43.435,28.47 59.999,47.039 -12.754,14.944 -38.224,20.703 -56,27.594 -61.867,23.984 -126.605,23.985 -191,13.845 C 350.043,801.462 314.818,785.277 281,767.485 125.491,685.671 59.6076,487.287 121.428,326 148.28,255.945 198.737,197.148 260,154.774 340.391,99.1688 446.228,82.1814 540,105.052 c 22.285,5.435 43.394,11.398 64,21.701 10.347,5.174 18.771,7.882 26,17.247"
     inkscape:connector-curvature="0"
     id="path2995"
     style="fill:none;stroke:#000000" />
  <path
     d="m 641,143 c 6.838,8.258 7.814,15.988 12.493,25 7.866,15.15 16.335,30.215 24.84,45 29.804,51.811 60.172,103.233 90.233,155 10.895,18.763 22.383,37.172 33.154,56 5.593,9.777 12.28,14.302 12.28,26"
     inkscape:connector-curvature="0"
     id="path2993"
     style="fill:none;stroke:#000000" />
  <path
     d="m 462,440 c -5.476,-7.612 -2.952,-19.259 -1.59,-28 2.902,-18.628 4.76,-36.657 10.032,-55 C 488.664,293.604 522.206,236.646 570,190.961 586.16,175.513 605.301,156.075 627,149"
     inkscape:connector-curvature="0"
     id="path2991"
     style="fill:none;stroke:#000000" />
  <path
     d="m 651,155 c 19.877,4.103 35.424,23.689 50,36.83 33.081,29.827 61.637,64.781 81.18,105.17 8.764,18.114 13.142,37.37 20.143,56 7.272,19.354 10.699,39.508 12.847,60 0.912,8.705 4.057,17.08 -1.17,25"
     inkscape:connector-curvature="0"
     id="path2989"
     style="fill:none;stroke:#000000" />
  <path
     d="m 635,766 12,0"
     inkscape:connector-curvature="0"
     id="path4"
     style="fill:none;stroke:#000000" />
</svg>
