<?xml version="1.0" encoding="UTF-8" standalone="no"?>
<!-- Created with Inkscape (http://www.inkscape.org/) -->

<svg
   xmlns:dc="http://purl.org/dc/elements/1.1/"
   xmlns:cc="http://creativecommons.org/ns#"
   xmlns:rdf="http://www.w3.org/1999/02/22-rdf-syntax-ns#"
   xmlns:svg="http://www.w3.org/2000/svg"
   xmlns="http://www.w3.org/2000/svg"
   xmlns:inkscape="http://www.inkscape.org/namespaces/inkscape"
   version="1.1"
   width="1440"
   height="552"
   id="svg2">
  <metadata
     id="metadata10">
    <rdf:RDF>
      <cc:Work
         rdf:about="">
        <dc:format>image/svg+xml</dc:format>
        <dc:type
           rdf:resource="http://purl.org/dc/dcmitype/StillImage" />
      </cc:Work>
    </rdf:RDF>
  </metadata>
  <defs
     id="defs8" />
  <path
     d="m 137,69 c 6.952,8.3754 13.197,8.697 22,13.6343 16.326,9.1574 33.356,19.0357 49,29.2527 32.94,21.51 67.935,39.736 102,59.397 38.51,22.226 76.135,45.729 115,67.425 95.44,53.28 187.157,113.124 283,165.341 20.699,11.277 40.87,24.093 60.999,36.399 5.314,3.248 8.717,10.793 14.134,12.867 12.811,4.907 28.394,2.684 41.867,2.684 26.694,0 54.354,-0.735 81,1.09 33.794,2.314 68.094,0.91 102,0.91 53.39,0 106.52,0.454 160,1.004 32.5,0.334 65.61,1.304 98,-0.914 11.28,-0.773 23.1,1.6 34,-2.09"
     inkscape:connector-curvature="0"
     id="path2989"
     style="fill:none;stroke:#000000" />
  <path
     d="m 146,79 c 2.199,17.0246 10.44,31.71 17.703,47 10.85,22.843 22.104,45.608 33.811,68 29.941,57.268 55.649,116.783 85.596,174 11.183,21.365 20.959,43.548 32.029,65 3.18,6.162 7.231,19.275 13.904,22.142 6.501,2.793 16.967,0.858 23.957,0.858 16.72,0 33.319,1 50,1 60.686,0 121.219,-2.719 182,-1.996 47.617,0.566 95.18,0.996 143,0.996 14.125,0 40.728,6.532 52,-3"
     inkscape:connector-curvature="0"
     id="path4"
     style="fill:none;stroke:#000000" />
</svg>
