<?xml version="1.0" encoding="UTF-8" standalone="no"?>
<!-- Created with Inkscape (http://www.inkscape.org/) -->

<svg
   xmlns:dc="http://purl.org/dc/elements/1.1/"
   xmlns:cc="http://creativecommons.org/ns#"
   xmlns:rdf="http://www.w3.org/1999/02/22-rdf-syntax-ns#"
   xmlns:svg="http://www.w3.org/2000/svg"
   xmlns="http://www.w3.org/2000/svg"
   xmlns:inkscape="http://www.inkscape.org/namespaces/inkscape"
   version="1.1"
   width="1374"
   height="683"
   id="svg2">
  <metadata
     id="metadata10">
    <rdf:RDF>
      <cc:Work
         rdf:about="">
        <dc:format>image/svg+xml</dc:format>
        <dc:type
           rdf:resource="http://purl.org/dc/dcmitype/StillImage" />
      </cc:Work>
    </rdf:RDF>
  </metadata>
  <defs
     id="defs8" />
  <path
     d="m 93,556 c 0.9988,-11.354 12.452,-20.215 19.989,-27.999 17.87,-18.456 35.4,-37.401 52.815,-56.286 68.41,-74.186 134.508,-150.749 204.157,-223.715 21.149,-22.157 40.763,-45.896 62.028,-68 5.229,-5.435 15.471,-22.286 24.906,-16.897 6.319,3.609 6.916,14.51 8.196,20.897 3.858,19.249 7.435,38.544 10.194,58 10.851,76.497 31.285,152.109 39.888,229 2.325,20.784 8.116,42.445 12.227,63 1.352,6.763 5.948,18.254 -1.589,23.012 -8.4,5.301 -22.582,1.033 -31.811,0.989 C 466.924,557.87 440.015,558 413,558 c -75.84,0 -151.385,1 -227,1 l -72,0 c -9.531,0 -19.8752,-3.533 -29,-1"
     inkscape:connector-curvature="0"
     id="path2989"
     style="fill:none;stroke:#000000" />
  <path
     d="m 860,563 c -5.131,-0.691 -21.411,-1.517 -23.303,-7.144 -2.542,-7.561 8.48,-17.395 12.918,-22.141 16.684,-17.847 33.969,-35.433 50.099,-53.715 67.775,-76.812 139.426,-150.075 208.116,-226 19.02,-21.018 37.82,-42.203 57.08,-63 5.84,-6.312 12.36,-20.453 22.09,-21.319 4.42,-0.394 6.14,3.815 7.32,7.319 3.03,8.933 4.68,20.593 5.6,30 4.12,42.122 15.32,84.229 22.16,126 9.19,56.112 20.53,111.78 29.22,168 2.12,13.729 5.75,27.245 7.7,41 0.63,4.424 2.54,10.957 -1.32,14.436 -6.71,6.047 -25.06,3.742 -33.68,4.738 -6.23,0.72 -8.6,5.759 -14.04,7.598 -8.8,2.98 -18.83,3.393 -27.96,4.818 -75.82,11.843 -151.53,14.766 -228,9.5 -23.789,-1.639 -47.707,-4.521 -71,-9.666 -5.597,-1.236 -20.149,-1.879 -21.218,-9.42 -0.948,-6.697 14.285,-5.256 18.218,-5.719 20.109,-2.364 42.571,-0.285 63,-0.285 67.33,0 134.67,0.324 202,-10e-4 16.64,-0.08 33.29,-0.932 50,-0.709 8.38,0.112 16.28,-1.091 23,4.71"
     inkscape:connector-curvature="0"
     id="path4"
     style="fill:none;stroke:#000000" />
</svg>
