<?xml version="1.0" encoding="UTF-8" standalone="no"?>
<!-- Created with Inkscape (http://www.inkscape.org/) -->

<svg
   xmlns:dc="http://purl.org/dc/elements/1.1/"
   xmlns:cc="http://creativecommons.org/ns#"
   xmlns:rdf="http://www.w3.org/1999/02/22-rdf-syntax-ns#"
   xmlns:svg="http://www.w3.org/2000/svg"
   xmlns="http://www.w3.org/2000/svg"
   xmlns:inkscape="http://www.inkscape.org/namespaces/inkscape"
   version="1.1"
   width="516"
   height="654"
   id="svg2">
  <metadata
     id="metadata10">
    <rdf:RDF>
      <cc:Work
         rdf:about="">
        <dc:format>image/svg+xml</dc:format>
        <dc:type
           rdf:resource="http://purl.org/dc/dcmitype/StillImage" />
      </cc:Work>
    </rdf:RDF>
  </metadata>
  <defs
     id="defs8" />
  <path
     d="m 163,279 c -4.975,-4.975 -18.063,-14.541 -13.958,-22.985 2.562,-5.269 9.428,-8.037 13.958,-11.3 12.436,-8.96 25.313,-17.236 38,-25.808 42.396,-28.643 83.59,-59.488 127,-86.591 15.796,-9.863 30.66,-21.219 45.17,-32.826 3.315,-2.6517 13.112,-8.6664 17.227,-4.8472 C 394.379,98.3388 392,111.93 392,117 c 0,20.979 -0.499,42.027 0.015,63 2.092,85.38 1.573,170.721 1.984,256 0.12,24.775 1.001,49.296 1.001,74 0,5.624 2.763,21.131 -4.059,23.508 -7.122,2.481 -13.228,-6.964 -16.814,-11.418 C 362.178,507.252 349.587,493.219 336.95,479 282.575,417.82 226.407,356.775 175,293"
     inkscape:connector-curvature="0"
     id="path4"
     style="fill:none;stroke:#000000" />
</svg>
