<?xml version="1.0" encoding="UTF-8" standalone="no"?>
<!-- Created with Inkscape (http://www.inkscape.org/) -->

<svg
   xmlns:dc="http://purl.org/dc/elements/1.1/"
   xmlns:cc="http://creativecommons.org/ns#"
   xmlns:rdf="http://www.w3.org/1999/02/22-rdf-syntax-ns#"
   xmlns:svg="http://www.w3.org/2000/svg"
   xmlns="http://www.w3.org/2000/svg"
   xmlns:inkscape="http://www.inkscape.org/namespaces/inkscape"
   version="1.1"
   width="1200"
   height="679"
   id="svg2">
  <metadata
     id="metadata10">
    <rdf:RDF>
      <cc:Work
         rdf:about="">
        <dc:format>image/svg+xml</dc:format>
        <dc:type
           rdf:resource="http://purl.org/dc/dcmitype/StillImage" />
      </cc:Work>
    </rdf:RDF>
  </metadata>
  <defs
     id="defs8" />
  <path
     d="m 875,128 16.283,20 27.853,37.17 L 940,212 982,142"
     inkscape:connector-curvature="0"
     id="path2997"
     style="fill:none;stroke:#000000" />
  <path
     d="m 875,131 c -6.613,9.713 -7.762,22.829 -10.735,34 -5.784,21.74 -12.341,43.271 -18.276,65 -18.526,67.826 -41.726,134.692 -58.224,203 -4.967,20.564 -10.736,42.026 -17.702,62 -3.027,8.681 -9.377,23.209 -5.063,32 13.576,-7.939 19.428,-24.2 26.178,-38 6.346,-12.973 14.1,-25.173 20.743,-38 28.128,-54.314 56.045,-109.451 87.388,-162 10.66,-17.873 20.882,-36.403 30.27,-55 3.429,-6.792 9.853,-14.401 10.421,-22"
     inkscape:connector-curvature="0"
     id="path2995"
     style="fill:none;stroke:#000000" />
  <path
     d="m 983,145 c 8.788,7.529 12.166,23.487 16.446,34 11.244,27.63 23.494,55.755 32.904,84 12.75,38.223 28.09,76.687 43.51,114 2.53,6.112 5.2,12.463 6.44,19 0.62,3.254 -0.88,6.632 0.44,9.715 2.5,5.85 9.69,13.361 7.57,20.27 -2.18,7.069 -15.23,9.743 -21.31,12.104 -21.61,8.392 -43.19,17.005 -65,24.85 -64.196,23.095 -128.138,49.037 -191,75.315 -14.426,6.03 -29.239,11.86 -44,17.032 -7.026,2.462 -13.168,2.307 -20,5.714"
     inkscape:connector-curvature="0"
     id="path2993"
     style="fill:none;stroke:#000000" />
  <path
     d="m 98,564 c 0.3941,-19.095 8.082,-38.866 13.634,-57 4.936,-16.121 8.054,-32.734 12.341,-49 18.731,-71.086 36.445,-142.413 52.906,-214 5.69,-24.744 12.215,-49.27 17.784,-74 1.135,-5.041 2.99,-22.701 9.393,-23.338 5.654,-0.563 10.457,7.647 13.528,11.338 10.583,12.721 19.568,26.678 29.338,40 40.076,54.648 83.493,107.029 124.307,161 11.143,14.734 22.358,29.296 33.534,44 3.112,4.095 10.793,12.348 7.399,17.867 -3.304,5.373 -13.818,7.589 -19.164,10.557 -19.548,10.856 -41.501,18.847 -62,27.75 -58.116,25.238 -116.223,52.829 -173,81.017 -14.369,7.133 -29.429,13.376 -44,20.179 -6.88,3.212 -13.182,3.235 -19,8.63"
     inkscape:connector-curvature="0"
     id="path2991"
     style="fill:none;stroke:#000000" />
  <path
     d="m 940,218 c 13.778,12.958 23.235,29.897 34.478,45 21.408,28.756 43.132,57.286 63.092,87 8.25,12.276 17.49,23.855 25.93,36 4.95,7.137 8.68,14.557 17.5,17"
     inkscape:connector-curvature="0"
     id="path2989"
     style="fill:none;stroke:#000000" />
  <path
     d="m 764,528 -8,28"
     inkscape:connector-curvature="0"
     id="path4"
     style="fill:none;stroke:#000000" />
</svg>
