<?xml version="1.0" encoding="UTF-8" standalone="no"?>
<!-- Created with Inkscape (http://www.inkscape.org/) -->

<svg
   xmlns:dc="http://purl.org/dc/elements/1.1/"
   xmlns:cc="http://creativecommons.org/ns#"
   xmlns:rdf="http://www.w3.org/1999/02/22-rdf-syntax-ns#"
   xmlns:svg="http://www.w3.org/2000/svg"
   xmlns="http://www.w3.org/2000/svg"
   xmlns:inkscape="http://www.inkscape.org/namespaces/inkscape"
   version="1.1"
   width="2240"
   height="992"
   id="svg2">
  <metadata
     id="metadata10">
    <rdf:RDF>
      <cc:Work
         rdf:about="">
        <dc:format>image/svg+xml</dc:format>
        <dc:type
           rdf:resource="http://purl.org/dc/dcmitype/StillImage" />
      </cc:Work>
    </rdf:RDF>
  </metadata>
  <defs
     id="defs8" />
  <path
     d="m 627,504 c 9.238,-17.984 30.146,-28.609 46,-40.486 3.257,-2.44 13.969,-11.365 18.307,-7.61 2.203,1.907 0.709,8.459 0.692,11.096 -0.066,10.262 -1.952,20.766 -2.825,31 -0.324,3.795 1.078,8.247 -3.247,10.106 -8.358,3.594 -22.799,-0.3 -31.927,-0.091 -9.766,0.223 -19.541,-1.901 -29,-1.832 -18.172,0.133 -36.637,1.817 -55,1.817 -97.295,0 -194.61,-1.037 -292,-1 -30.537,0.012 -61.351,-0.736 -92,0.015 -6.509,0.159 -26.858,6.103 -29.427,-2.074 -3.972,-12.639 -1.036,-31 0.258,-43.941 3.793,-37.935 15.225,-74.293 28.08,-110 C 251.365,166.417 448.504,41.7016 644,55.0895 c 96.857,6.6329 197.625,46.6365 270.961,110.3455 17.06,14.821 33.074,30.905 47.231,48.565 6.133,7.65 8.709,18.618 14.651,25.491 2.311,2.672 6.428,4.142 9.157,6.509 l -4.424,18 -4.015,45 -14.391,139 -5.17,59 c 18.167,5.105 40.339,2.168 59,1.209 18.15,-0.932 36.76,0.791 55,0.791 2.48,-19.652 -1.34,-40.426 -3.71,-60 -6.17,-50.855 -23.68,-99.146 -46.03,-145 -7.06,-14.486 -15.82,-27.772 -23.398,-42 -4.057,-7.614 -2.806,-14.609 -12.862,-16"
     inkscape:connector-curvature="0"
     id="path3009"
     style="fill:none;stroke:#000000" />
  <path
     d="m 699,439 c 5.993,-25.104 17.496,-45.808 30.547,-68 C 764.441,311.666 819.684,262.985 888,246.258 908.276,241.293 927.987,237 949,237 c 8.367,0 17.265,-1.696 24,4 -19.642,21.811 -47.247,37.151 -71,54.489 -45.222,33.009 -89.886,66.589 -135,99.755 -14.382,10.573 -28.517,21.651 -43,32.046 -4.865,3.492 -9.633,7.932 -15,10.61 -2.903,1.448 -6.906,1.373 -9.302,3.689 -3.195,3.088 -5.176,8.669 -7.698,12.411"
     inkscape:connector-curvature="0"
     id="path3007"
     style="fill:none;stroke:#000000" />
  <path
     d="m 973,241 2,0"
     inkscape:connector-curvature="0"
     id="path3005"
     style="fill:none;stroke:#000000" />
  <path
     d="m 994,247 c 8.02,-1.737 16.23,1.216 24,2.989 18.9,4.316 36.47,10.034 54,18.111 69.76,32.14 126.96,99.412 143.81,174.9 4.33,19.355 12.02,45.271 6.19,65 l 2,2 28,-1 55,0 180,0"
     inkscape:connector-curvature="0"
     id="path3003"
     style="fill:none;stroke:#000000" />
  <path
     d="m 1708,425 429,-1"
     inkscape:connector-curvature="0"
     id="path3001"
     style="fill:none;stroke:#000000" />
  <path
     d="m 1711,506 23,-0.514 83,0.514 217,-1"
     inkscape:connector-curvature="0"
     id="path2999"
     style="fill:none;stroke:#000000" />
  <path
     d="m 690,509 27,0 59,0 181,-1"
     inkscape:connector-curvature="0"
     id="path2997"
     style="fill:none;stroke:#000000" />
  <path
     d="m 1073,510 39,-1 70,0 40,-1"
     inkscape:connector-curvature="0"
     id="path2995"
     style="fill:none;stroke:#000000" />
  <path
     d="m 158,509 c -4.135,22.272 1.5,48.08 5.625,70 7.435,39.506 17.904,75.871 33.806,113 C 291.669,912.023 559.963,1026.41 782,934.811 841.598,910.224 897.927,875.407 942.089,828 c 9.471,-10.166 18.597,-20.448 27.64,-31 4.414,-5.15 10.472,-10.404 12.689,-16.999 C 986.065,769.155 960.368,773 954,773 c -14.528,0 -29.618,1.584 -44,-0.289 -21.504,-2.802 -42.267,-10.842 -62,-19.388 C 753.864,712.556 690,610.936 690,509"
     inkscape:connector-curvature="0"
     id="path2993"
     style="fill:none;stroke:#000000" />
  <path
     d="m 1073,510 c 0.61,73.335 -20.97,136.424 -52.58,202 -6.76,14.042 -14.51,27.304 -21.942,41 -4.801,8.851 -4.496,15.128 -13.478,21"
     inkscape:connector-curvature="0"
     id="path2991"
     style="fill:none;stroke:#000000" />
  <path
     d="m 1224,510 c -1.98,95.863 -57.56,178.531 -138,227.911 -18.38,11.283 -37.54,19.006 -58,25.594 -10.85,3.493 -21.39,7.723 -33,6.495"
     inkscape:connector-curvature="0"
     id="path2989"
     style="fill:none;stroke:#000000" />
  <path
     d="m 1712,586 247,1"
     inkscape:connector-curvature="0"
     id="path4"
     style="fill:none;stroke:#000000" />
</svg>
